%TF.GenerationSoftware,KiCad,Pcbnew,9.0.7-9.0.7~ubuntu25.10.1*%
%TF.CreationDate,2026-02-28T17:49:32+01:00*%
%TF.ProjectId,pwm_board,70776d5f-626f-4617-9264-2e6b69636164,rev?*%
%TF.SameCoordinates,Original*%
%TF.FileFunction,Soldermask,Bot*%
%TF.FilePolarity,Negative*%
%FSLAX46Y46*%
G04 Gerber Fmt 4.6, Leading zero omitted, Abs format (unit mm)*
G04 Created by KiCad (PCBNEW 9.0.7-9.0.7~ubuntu25.10.1) date 2026-02-28 17:49:32*
%MOMM*%
%LPD*%
G01*
G04 APERTURE LIST*
%ADD10C,1.700000*%
%ADD11R,1.700000X1.700000*%
%ADD12C,2.200000*%
G04 APERTURE END LIST*
D10*
%TO.C,J14*%
X97940000Y-76400000D03*
D11*
X95400000Y-76400000D03*
%TD*%
D10*
%TO.C,J13*%
X97940000Y-72400000D03*
D11*
X95400000Y-72400000D03*
%TD*%
D10*
%TO.C,J15*%
X104940000Y-72400000D03*
D11*
X102400000Y-72400000D03*
%TD*%
D10*
%TO.C,J12*%
X91400000Y-74940000D03*
D11*
X91400000Y-72400000D03*
%TD*%
D10*
%TO.C,J16*%
X104940000Y-76400000D03*
D11*
X102400000Y-76400000D03*
%TD*%
D10*
%TO.C,J17*%
X114212500Y-77115000D03*
D11*
X114212500Y-74575000D03*
%TD*%
D12*
%TO.C,H2*%
X123400000Y-43400000D03*
%TD*%
D10*
%TO.C,J6*%
X95355302Y-47691661D03*
X95355302Y-45151661D03*
D11*
X95355302Y-42611661D03*
%TD*%
D10*
%TO.C,J9*%
X84428978Y-47684055D03*
X84428978Y-45144055D03*
D11*
X84428978Y-42604055D03*
%TD*%
%TO.C,J1*%
X113591965Y-42600694D03*
D10*
X113591965Y-45140694D03*
X113591965Y-47680694D03*
%TD*%
D11*
%TO.C,J11*%
X99880000Y-65500000D03*
D10*
X97340000Y-65500000D03*
X94800000Y-65500000D03*
X92260000Y-65500000D03*
X89720000Y-65500000D03*
%TD*%
D11*
%TO.C,J5*%
X99003141Y-42602709D03*
D10*
X99003141Y-45142709D03*
X99003141Y-47682709D03*
%TD*%
D11*
%TO.C,J2*%
X109958130Y-42598290D03*
D10*
X109958130Y-45138290D03*
X109958130Y-47678290D03*
%TD*%
D11*
%TO.C,J4*%
X102660000Y-42600000D03*
D10*
X102660000Y-45140000D03*
X102660000Y-47680000D03*
%TD*%
%TO.C,J10*%
X104200000Y-65500000D03*
X106740000Y-65500000D03*
X109280000Y-65500000D03*
D11*
X111820000Y-65500000D03*
%TD*%
%TO.C,J8*%
X88077111Y-42607679D03*
D10*
X88077111Y-45147679D03*
X88077111Y-47687679D03*
%TD*%
D11*
%TO.C,J0*%
X117225665Y-42603361D03*
D10*
X117225665Y-45143361D03*
X117225665Y-47683361D03*
%TD*%
D11*
%TO.C,J7*%
X91714956Y-42618742D03*
D10*
X91714956Y-45158742D03*
X91714956Y-47698742D03*
%TD*%
D11*
%TO.C,J3*%
X106318130Y-42598290D03*
D10*
X106318130Y-45138290D03*
X106318130Y-47678290D03*
%TD*%
D12*
%TO.C,H4*%
X123400000Y-78400000D03*
%TD*%
%TO.C,H3*%
X78400000Y-78400000D03*
%TD*%
%TO.C,H1*%
X78400000Y-43400000D03*
%TD*%
M02*
