%TF.GenerationSoftware,KiCad,Pcbnew,9.0.7-9.0.7~ubuntu25.10.1*%
%TF.CreationDate,2026-02-28T17:49:31+01:00*%
%TF.ProjectId,pwm_board,70776d5f-626f-4617-9264-2e6b69636164,rev?*%
%TF.SameCoordinates,Original*%
%TF.FileFunction,Legend,Bot*%
%TF.FilePolarity,Positive*%
%FSLAX46Y46*%
G04 Gerber Fmt 4.6, Leading zero omitted, Abs format (unit mm)*
G04 Created by KiCad (PCBNEW 9.0.7-9.0.7~ubuntu25.10.1) date 2026-02-28 17:49:31*
%MOMM*%
%LPD*%
G01*
G04 APERTURE LIST*
%ADD10C,0.750000*%
%ADD11C,0.125000*%
%ADD12C,0.175000*%
%ADD13C,0.100000*%
%ADD14C,0.000000*%
G04 APERTURE END LIST*
D10*
X120206142Y-67142293D02*
X123206142Y-67142293D01*
X123206142Y-67142293D02*
X121063285Y-66142293D01*
X121063285Y-66142293D02*
X123206142Y-65142293D01*
X123206142Y-65142293D02*
X120206142Y-65142293D01*
X120206142Y-63713722D02*
X123206142Y-63713722D01*
X120491857Y-60570865D02*
X120349000Y-60713722D01*
X120349000Y-60713722D02*
X120206142Y-61142294D01*
X120206142Y-61142294D02*
X120206142Y-61428008D01*
X120206142Y-61428008D02*
X120349000Y-61856579D01*
X120349000Y-61856579D02*
X120634714Y-62142294D01*
X120634714Y-62142294D02*
X120920428Y-62285151D01*
X120920428Y-62285151D02*
X121491857Y-62428008D01*
X121491857Y-62428008D02*
X121920428Y-62428008D01*
X121920428Y-62428008D02*
X122491857Y-62285151D01*
X122491857Y-62285151D02*
X122777571Y-62142294D01*
X122777571Y-62142294D02*
X123063285Y-61856579D01*
X123063285Y-61856579D02*
X123206142Y-61428008D01*
X123206142Y-61428008D02*
X123206142Y-61142294D01*
X123206142Y-61142294D02*
X123063285Y-60713722D01*
X123063285Y-60713722D02*
X122920428Y-60570865D01*
X120206142Y-59285151D02*
X123206142Y-59285151D01*
X121777571Y-59285151D02*
X121777571Y-57570865D01*
X120206142Y-57570865D02*
X123206142Y-57570865D01*
D11*
X109364285Y-63560880D02*
X109411904Y-63608500D01*
X109411904Y-63608500D02*
X109554761Y-63656119D01*
X109554761Y-63656119D02*
X109649999Y-63656119D01*
X109649999Y-63656119D02*
X109792856Y-63608500D01*
X109792856Y-63608500D02*
X109888094Y-63513261D01*
X109888094Y-63513261D02*
X109935713Y-63418023D01*
X109935713Y-63418023D02*
X109983332Y-63227547D01*
X109983332Y-63227547D02*
X109983332Y-63084690D01*
X109983332Y-63084690D02*
X109935713Y-62894214D01*
X109935713Y-62894214D02*
X109888094Y-62798976D01*
X109888094Y-62798976D02*
X109792856Y-62703738D01*
X109792856Y-62703738D02*
X109649999Y-62656119D01*
X109649999Y-62656119D02*
X109554761Y-62656119D01*
X109554761Y-62656119D02*
X109411904Y-62703738D01*
X109411904Y-62703738D02*
X109364285Y-62751357D01*
X108792856Y-63656119D02*
X108888094Y-63608500D01*
X108888094Y-63608500D02*
X108935713Y-63560880D01*
X108935713Y-63560880D02*
X108983332Y-63465642D01*
X108983332Y-63465642D02*
X108983332Y-63179928D01*
X108983332Y-63179928D02*
X108935713Y-63084690D01*
X108935713Y-63084690D02*
X108888094Y-63037071D01*
X108888094Y-63037071D02*
X108792856Y-62989452D01*
X108792856Y-62989452D02*
X108649999Y-62989452D01*
X108649999Y-62989452D02*
X108554761Y-63037071D01*
X108554761Y-63037071D02*
X108507142Y-63084690D01*
X108507142Y-63084690D02*
X108459523Y-63179928D01*
X108459523Y-63179928D02*
X108459523Y-63465642D01*
X108459523Y-63465642D02*
X108507142Y-63560880D01*
X108507142Y-63560880D02*
X108554761Y-63608500D01*
X108554761Y-63608500D02*
X108649999Y-63656119D01*
X108649999Y-63656119D02*
X108792856Y-63656119D01*
X108030951Y-63656119D02*
X108030951Y-62989452D01*
X108030951Y-63084690D02*
X107983332Y-63037071D01*
X107983332Y-63037071D02*
X107888094Y-62989452D01*
X107888094Y-62989452D02*
X107745237Y-62989452D01*
X107745237Y-62989452D02*
X107649999Y-63037071D01*
X107649999Y-63037071D02*
X107602380Y-63132309D01*
X107602380Y-63132309D02*
X107602380Y-63656119D01*
X107602380Y-63132309D02*
X107554761Y-63037071D01*
X107554761Y-63037071D02*
X107459523Y-62989452D01*
X107459523Y-62989452D02*
X107316666Y-62989452D01*
X107316666Y-62989452D02*
X107221427Y-63037071D01*
X107221427Y-63037071D02*
X107173808Y-63132309D01*
X107173808Y-63132309D02*
X107173808Y-63656119D01*
X106697618Y-63656119D02*
X106697618Y-62989452D01*
X106697618Y-63084690D02*
X106649999Y-63037071D01*
X106649999Y-63037071D02*
X106554761Y-62989452D01*
X106554761Y-62989452D02*
X106411904Y-62989452D01*
X106411904Y-62989452D02*
X106316666Y-63037071D01*
X106316666Y-63037071D02*
X106269047Y-63132309D01*
X106269047Y-63132309D02*
X106269047Y-63656119D01*
X106269047Y-63132309D02*
X106221428Y-63037071D01*
X106221428Y-63037071D02*
X106126190Y-62989452D01*
X106126190Y-62989452D02*
X105983333Y-62989452D01*
X105983333Y-62989452D02*
X105888094Y-63037071D01*
X105888094Y-63037071D02*
X105840475Y-63132309D01*
X105840475Y-63132309D02*
X105840475Y-63656119D01*
X105364285Y-63560880D02*
X105316666Y-63608500D01*
X105316666Y-63608500D02*
X105364285Y-63656119D01*
X105364285Y-63656119D02*
X105411904Y-63608500D01*
X105411904Y-63608500D02*
X105364285Y-63560880D01*
X105364285Y-63560880D02*
X105364285Y-63656119D01*
X99614285Y-63656119D02*
X99614285Y-62656119D01*
X99614285Y-62656119D02*
X99233333Y-62656119D01*
X99233333Y-62656119D02*
X99138095Y-62703738D01*
X99138095Y-62703738D02*
X99090476Y-62751357D01*
X99090476Y-62751357D02*
X99042857Y-62846595D01*
X99042857Y-62846595D02*
X99042857Y-62989452D01*
X99042857Y-62989452D02*
X99090476Y-63084690D01*
X99090476Y-63084690D02*
X99138095Y-63132309D01*
X99138095Y-63132309D02*
X99233333Y-63179928D01*
X99233333Y-63179928D02*
X99614285Y-63179928D01*
X98614285Y-63656119D02*
X98614285Y-62989452D01*
X98614285Y-63179928D02*
X98566666Y-63084690D01*
X98566666Y-63084690D02*
X98519047Y-63037071D01*
X98519047Y-63037071D02*
X98423809Y-62989452D01*
X98423809Y-62989452D02*
X98328571Y-62989452D01*
X97852380Y-63656119D02*
X97947618Y-63608500D01*
X97947618Y-63608500D02*
X97995237Y-63560880D01*
X97995237Y-63560880D02*
X98042856Y-63465642D01*
X98042856Y-63465642D02*
X98042856Y-63179928D01*
X98042856Y-63179928D02*
X97995237Y-63084690D01*
X97995237Y-63084690D02*
X97947618Y-63037071D01*
X97947618Y-63037071D02*
X97852380Y-62989452D01*
X97852380Y-62989452D02*
X97709523Y-62989452D01*
X97709523Y-62989452D02*
X97614285Y-63037071D01*
X97614285Y-63037071D02*
X97566666Y-63084690D01*
X97566666Y-63084690D02*
X97519047Y-63179928D01*
X97519047Y-63179928D02*
X97519047Y-63465642D01*
X97519047Y-63465642D02*
X97566666Y-63560880D01*
X97566666Y-63560880D02*
X97614285Y-63608500D01*
X97614285Y-63608500D02*
X97709523Y-63656119D01*
X97709523Y-63656119D02*
X97852380Y-63656119D01*
X96661904Y-62989452D02*
X96661904Y-63798976D01*
X96661904Y-63798976D02*
X96709523Y-63894214D01*
X96709523Y-63894214D02*
X96757142Y-63941833D01*
X96757142Y-63941833D02*
X96852380Y-63989452D01*
X96852380Y-63989452D02*
X96995237Y-63989452D01*
X96995237Y-63989452D02*
X97090475Y-63941833D01*
X96661904Y-63608500D02*
X96757142Y-63656119D01*
X96757142Y-63656119D02*
X96947618Y-63656119D01*
X96947618Y-63656119D02*
X97042856Y-63608500D01*
X97042856Y-63608500D02*
X97090475Y-63560880D01*
X97090475Y-63560880D02*
X97138094Y-63465642D01*
X97138094Y-63465642D02*
X97138094Y-63179928D01*
X97138094Y-63179928D02*
X97090475Y-63084690D01*
X97090475Y-63084690D02*
X97042856Y-63037071D01*
X97042856Y-63037071D02*
X96947618Y-62989452D01*
X96947618Y-62989452D02*
X96757142Y-62989452D01*
X96757142Y-62989452D02*
X96661904Y-63037071D01*
X96185713Y-63656119D02*
X96185713Y-62989452D01*
X96185713Y-63179928D02*
X96138094Y-63084690D01*
X96138094Y-63084690D02*
X96090475Y-63037071D01*
X96090475Y-63037071D02*
X95995237Y-62989452D01*
X95995237Y-62989452D02*
X95899999Y-62989452D01*
X95138094Y-63656119D02*
X95138094Y-63132309D01*
X95138094Y-63132309D02*
X95185713Y-63037071D01*
X95185713Y-63037071D02*
X95280951Y-62989452D01*
X95280951Y-62989452D02*
X95471427Y-62989452D01*
X95471427Y-62989452D02*
X95566665Y-63037071D01*
X95138094Y-63608500D02*
X95233332Y-63656119D01*
X95233332Y-63656119D02*
X95471427Y-63656119D01*
X95471427Y-63656119D02*
X95566665Y-63608500D01*
X95566665Y-63608500D02*
X95614284Y-63513261D01*
X95614284Y-63513261D02*
X95614284Y-63418023D01*
X95614284Y-63418023D02*
X95566665Y-63322785D01*
X95566665Y-63322785D02*
X95471427Y-63275166D01*
X95471427Y-63275166D02*
X95233332Y-63275166D01*
X95233332Y-63275166D02*
X95138094Y-63227547D01*
X94661903Y-63656119D02*
X94661903Y-62989452D01*
X94661903Y-63084690D02*
X94614284Y-63037071D01*
X94614284Y-63037071D02*
X94519046Y-62989452D01*
X94519046Y-62989452D02*
X94376189Y-62989452D01*
X94376189Y-62989452D02*
X94280951Y-63037071D01*
X94280951Y-63037071D02*
X94233332Y-63132309D01*
X94233332Y-63132309D02*
X94233332Y-63656119D01*
X94233332Y-63132309D02*
X94185713Y-63037071D01*
X94185713Y-63037071D02*
X94090475Y-62989452D01*
X94090475Y-62989452D02*
X93947618Y-62989452D01*
X93947618Y-62989452D02*
X93852379Y-63037071D01*
X93852379Y-63037071D02*
X93804760Y-63132309D01*
X93804760Y-63132309D02*
X93804760Y-63656119D01*
X93328570Y-63656119D02*
X93328570Y-62989452D01*
X93328570Y-63084690D02*
X93280951Y-63037071D01*
X93280951Y-63037071D02*
X93185713Y-62989452D01*
X93185713Y-62989452D02*
X93042856Y-62989452D01*
X93042856Y-62989452D02*
X92947618Y-63037071D01*
X92947618Y-63037071D02*
X92899999Y-63132309D01*
X92899999Y-63132309D02*
X92899999Y-63656119D01*
X92899999Y-63132309D02*
X92852380Y-63037071D01*
X92852380Y-63037071D02*
X92757142Y-62989452D01*
X92757142Y-62989452D02*
X92614285Y-62989452D01*
X92614285Y-62989452D02*
X92519046Y-63037071D01*
X92519046Y-63037071D02*
X92471427Y-63132309D01*
X92471427Y-63132309D02*
X92471427Y-63656119D01*
X91995237Y-63656119D02*
X91995237Y-62989452D01*
X91995237Y-62656119D02*
X92042856Y-62703738D01*
X92042856Y-62703738D02*
X91995237Y-62751357D01*
X91995237Y-62751357D02*
X91947618Y-62703738D01*
X91947618Y-62703738D02*
X91995237Y-62656119D01*
X91995237Y-62656119D02*
X91995237Y-62751357D01*
X91519047Y-62989452D02*
X91519047Y-63656119D01*
X91519047Y-63084690D02*
X91471428Y-63037071D01*
X91471428Y-63037071D02*
X91376190Y-62989452D01*
X91376190Y-62989452D02*
X91233333Y-62989452D01*
X91233333Y-62989452D02*
X91138095Y-63037071D01*
X91138095Y-63037071D02*
X91090476Y-63132309D01*
X91090476Y-63132309D02*
X91090476Y-63656119D01*
X90185714Y-62989452D02*
X90185714Y-63798976D01*
X90185714Y-63798976D02*
X90233333Y-63894214D01*
X90233333Y-63894214D02*
X90280952Y-63941833D01*
X90280952Y-63941833D02*
X90376190Y-63989452D01*
X90376190Y-63989452D02*
X90519047Y-63989452D01*
X90519047Y-63989452D02*
X90614285Y-63941833D01*
X90185714Y-63608500D02*
X90280952Y-63656119D01*
X90280952Y-63656119D02*
X90471428Y-63656119D01*
X90471428Y-63656119D02*
X90566666Y-63608500D01*
X90566666Y-63608500D02*
X90614285Y-63560880D01*
X90614285Y-63560880D02*
X90661904Y-63465642D01*
X90661904Y-63465642D02*
X90661904Y-63179928D01*
X90661904Y-63179928D02*
X90614285Y-63084690D01*
X90614285Y-63084690D02*
X90566666Y-63037071D01*
X90566666Y-63037071D02*
X90471428Y-62989452D01*
X90471428Y-62989452D02*
X90280952Y-62989452D01*
X90280952Y-62989452D02*
X90185714Y-63037071D01*
X106278880Y-73632236D02*
X106755071Y-73965569D01*
X106278880Y-74203664D02*
X107278880Y-74203664D01*
X107278880Y-74203664D02*
X107278880Y-73822712D01*
X107278880Y-73822712D02*
X107231261Y-73727474D01*
X107231261Y-73727474D02*
X107183642Y-73679855D01*
X107183642Y-73679855D02*
X107088404Y-73632236D01*
X107088404Y-73632236D02*
X106945547Y-73632236D01*
X106945547Y-73632236D02*
X106850309Y-73679855D01*
X106850309Y-73679855D02*
X106802690Y-73727474D01*
X106802690Y-73727474D02*
X106755071Y-73822712D01*
X106755071Y-73822712D02*
X106755071Y-74203664D01*
X106326500Y-73251283D02*
X106278880Y-73108426D01*
X106278880Y-73108426D02*
X106278880Y-72870331D01*
X106278880Y-72870331D02*
X106326500Y-72775093D01*
X106326500Y-72775093D02*
X106374119Y-72727474D01*
X106374119Y-72727474D02*
X106469357Y-72679855D01*
X106469357Y-72679855D02*
X106564595Y-72679855D01*
X106564595Y-72679855D02*
X106659833Y-72727474D01*
X106659833Y-72727474D02*
X106707452Y-72775093D01*
X106707452Y-72775093D02*
X106755071Y-72870331D01*
X106755071Y-72870331D02*
X106802690Y-73060807D01*
X106802690Y-73060807D02*
X106850309Y-73156045D01*
X106850309Y-73156045D02*
X106897928Y-73203664D01*
X106897928Y-73203664D02*
X106993166Y-73251283D01*
X106993166Y-73251283D02*
X107088404Y-73251283D01*
X107088404Y-73251283D02*
X107183642Y-73203664D01*
X107183642Y-73203664D02*
X107231261Y-73156045D01*
X107231261Y-73156045D02*
X107278880Y-73060807D01*
X107278880Y-73060807D02*
X107278880Y-72822712D01*
X107278880Y-72822712D02*
X107231261Y-72679855D01*
X106659833Y-72251283D02*
X106659833Y-71489379D01*
X106945547Y-70584617D02*
X106278880Y-70584617D01*
X107326500Y-70822712D02*
X106612214Y-71060807D01*
X106612214Y-71060807D02*
X106612214Y-70441760D01*
X106850309Y-69917950D02*
X106897928Y-70013188D01*
X106897928Y-70013188D02*
X106945547Y-70060807D01*
X106945547Y-70060807D02*
X107040785Y-70108426D01*
X107040785Y-70108426D02*
X107088404Y-70108426D01*
X107088404Y-70108426D02*
X107183642Y-70060807D01*
X107183642Y-70060807D02*
X107231261Y-70013188D01*
X107231261Y-70013188D02*
X107278880Y-69917950D01*
X107278880Y-69917950D02*
X107278880Y-69727474D01*
X107278880Y-69727474D02*
X107231261Y-69632236D01*
X107231261Y-69632236D02*
X107183642Y-69584617D01*
X107183642Y-69584617D02*
X107088404Y-69536998D01*
X107088404Y-69536998D02*
X107040785Y-69536998D01*
X107040785Y-69536998D02*
X106945547Y-69584617D01*
X106945547Y-69584617D02*
X106897928Y-69632236D01*
X106897928Y-69632236D02*
X106850309Y-69727474D01*
X106850309Y-69727474D02*
X106850309Y-69917950D01*
X106850309Y-69917950D02*
X106802690Y-70013188D01*
X106802690Y-70013188D02*
X106755071Y-70060807D01*
X106755071Y-70060807D02*
X106659833Y-70108426D01*
X106659833Y-70108426D02*
X106469357Y-70108426D01*
X106469357Y-70108426D02*
X106374119Y-70060807D01*
X106374119Y-70060807D02*
X106326500Y-70013188D01*
X106326500Y-70013188D02*
X106278880Y-69917950D01*
X106278880Y-69917950D02*
X106278880Y-69727474D01*
X106278880Y-69727474D02*
X106326500Y-69632236D01*
X106326500Y-69632236D02*
X106374119Y-69584617D01*
X106374119Y-69584617D02*
X106469357Y-69536998D01*
X106469357Y-69536998D02*
X106659833Y-69536998D01*
X106659833Y-69536998D02*
X106755071Y-69584617D01*
X106755071Y-69584617D02*
X106802690Y-69632236D01*
X106802690Y-69632236D02*
X106850309Y-69727474D01*
X107278880Y-68632236D02*
X107278880Y-69108426D01*
X107278880Y-69108426D02*
X106802690Y-69156045D01*
X106802690Y-69156045D02*
X106850309Y-69108426D01*
X106850309Y-69108426D02*
X106897928Y-69013188D01*
X106897928Y-69013188D02*
X106897928Y-68775093D01*
X106897928Y-68775093D02*
X106850309Y-68679855D01*
X106850309Y-68679855D02*
X106802690Y-68632236D01*
X106802690Y-68632236D02*
X106707452Y-68584617D01*
X106707452Y-68584617D02*
X106469357Y-68584617D01*
X106469357Y-68584617D02*
X106374119Y-68632236D01*
X106374119Y-68632236D02*
X106326500Y-68679855D01*
X106326500Y-68679855D02*
X106278880Y-68775093D01*
X106278880Y-68775093D02*
X106278880Y-69013188D01*
X106278880Y-69013188D02*
X106326500Y-69108426D01*
X106326500Y-69108426D02*
X106374119Y-69156045D01*
X106802690Y-67060807D02*
X106755071Y-66917950D01*
X106755071Y-66917950D02*
X106707452Y-66870331D01*
X106707452Y-66870331D02*
X106612214Y-66822712D01*
X106612214Y-66822712D02*
X106469357Y-66822712D01*
X106469357Y-66822712D02*
X106374119Y-66870331D01*
X106374119Y-66870331D02*
X106326500Y-66917950D01*
X106326500Y-66917950D02*
X106278880Y-67013188D01*
X106278880Y-67013188D02*
X106278880Y-67394140D01*
X106278880Y-67394140D02*
X107278880Y-67394140D01*
X107278880Y-67394140D02*
X107278880Y-67060807D01*
X107278880Y-67060807D02*
X107231261Y-66965569D01*
X107231261Y-66965569D02*
X107183642Y-66917950D01*
X107183642Y-66917950D02*
X107088404Y-66870331D01*
X107088404Y-66870331D02*
X106993166Y-66870331D01*
X106993166Y-66870331D02*
X106897928Y-66917950D01*
X106897928Y-66917950D02*
X106850309Y-66965569D01*
X106850309Y-66965569D02*
X106802690Y-67060807D01*
X106802690Y-67060807D02*
X106802690Y-67394140D01*
X103878880Y-73489379D02*
X104355071Y-73822712D01*
X103878880Y-74060807D02*
X104878880Y-74060807D01*
X104878880Y-74060807D02*
X104878880Y-73679855D01*
X104878880Y-73679855D02*
X104831261Y-73584617D01*
X104831261Y-73584617D02*
X104783642Y-73536998D01*
X104783642Y-73536998D02*
X104688404Y-73489379D01*
X104688404Y-73489379D02*
X104545547Y-73489379D01*
X104545547Y-73489379D02*
X104450309Y-73536998D01*
X104450309Y-73536998D02*
X104402690Y-73584617D01*
X104402690Y-73584617D02*
X104355071Y-73679855D01*
X104355071Y-73679855D02*
X104355071Y-74060807D01*
X103926500Y-73108426D02*
X103878880Y-72965569D01*
X103878880Y-72965569D02*
X103878880Y-72727474D01*
X103878880Y-72727474D02*
X103926500Y-72632236D01*
X103926500Y-72632236D02*
X103974119Y-72584617D01*
X103974119Y-72584617D02*
X104069357Y-72536998D01*
X104069357Y-72536998D02*
X104164595Y-72536998D01*
X104164595Y-72536998D02*
X104259833Y-72584617D01*
X104259833Y-72584617D02*
X104307452Y-72632236D01*
X104307452Y-72632236D02*
X104355071Y-72727474D01*
X104355071Y-72727474D02*
X104402690Y-72917950D01*
X104402690Y-72917950D02*
X104450309Y-73013188D01*
X104450309Y-73013188D02*
X104497928Y-73060807D01*
X104497928Y-73060807D02*
X104593166Y-73108426D01*
X104593166Y-73108426D02*
X104688404Y-73108426D01*
X104688404Y-73108426D02*
X104783642Y-73060807D01*
X104783642Y-73060807D02*
X104831261Y-73013188D01*
X104831261Y-73013188D02*
X104878880Y-72917950D01*
X104878880Y-72917950D02*
X104878880Y-72679855D01*
X104878880Y-72679855D02*
X104831261Y-72536998D01*
X104259833Y-72108426D02*
X104259833Y-71346522D01*
X104545547Y-70441760D02*
X103878880Y-70441760D01*
X104926500Y-70679855D02*
X104212214Y-70917950D01*
X104212214Y-70917950D02*
X104212214Y-70298903D01*
X104450309Y-69775093D02*
X104497928Y-69870331D01*
X104497928Y-69870331D02*
X104545547Y-69917950D01*
X104545547Y-69917950D02*
X104640785Y-69965569D01*
X104640785Y-69965569D02*
X104688404Y-69965569D01*
X104688404Y-69965569D02*
X104783642Y-69917950D01*
X104783642Y-69917950D02*
X104831261Y-69870331D01*
X104831261Y-69870331D02*
X104878880Y-69775093D01*
X104878880Y-69775093D02*
X104878880Y-69584617D01*
X104878880Y-69584617D02*
X104831261Y-69489379D01*
X104831261Y-69489379D02*
X104783642Y-69441760D01*
X104783642Y-69441760D02*
X104688404Y-69394141D01*
X104688404Y-69394141D02*
X104640785Y-69394141D01*
X104640785Y-69394141D02*
X104545547Y-69441760D01*
X104545547Y-69441760D02*
X104497928Y-69489379D01*
X104497928Y-69489379D02*
X104450309Y-69584617D01*
X104450309Y-69584617D02*
X104450309Y-69775093D01*
X104450309Y-69775093D02*
X104402690Y-69870331D01*
X104402690Y-69870331D02*
X104355071Y-69917950D01*
X104355071Y-69917950D02*
X104259833Y-69965569D01*
X104259833Y-69965569D02*
X104069357Y-69965569D01*
X104069357Y-69965569D02*
X103974119Y-69917950D01*
X103974119Y-69917950D02*
X103926500Y-69870331D01*
X103926500Y-69870331D02*
X103878880Y-69775093D01*
X103878880Y-69775093D02*
X103878880Y-69584617D01*
X103878880Y-69584617D02*
X103926500Y-69489379D01*
X103926500Y-69489379D02*
X103974119Y-69441760D01*
X103974119Y-69441760D02*
X104069357Y-69394141D01*
X104069357Y-69394141D02*
X104259833Y-69394141D01*
X104259833Y-69394141D02*
X104355071Y-69441760D01*
X104355071Y-69441760D02*
X104402690Y-69489379D01*
X104402690Y-69489379D02*
X104450309Y-69584617D01*
X104878880Y-68489379D02*
X104878880Y-68965569D01*
X104878880Y-68965569D02*
X104402690Y-69013188D01*
X104402690Y-69013188D02*
X104450309Y-68965569D01*
X104450309Y-68965569D02*
X104497928Y-68870331D01*
X104497928Y-68870331D02*
X104497928Y-68632236D01*
X104497928Y-68632236D02*
X104450309Y-68536998D01*
X104450309Y-68536998D02*
X104402690Y-68489379D01*
X104402690Y-68489379D02*
X104307452Y-68441760D01*
X104307452Y-68441760D02*
X104069357Y-68441760D01*
X104069357Y-68441760D02*
X103974119Y-68489379D01*
X103974119Y-68489379D02*
X103926500Y-68536998D01*
X103926500Y-68536998D02*
X103878880Y-68632236D01*
X103878880Y-68632236D02*
X103878880Y-68870331D01*
X103878880Y-68870331D02*
X103926500Y-68965569D01*
X103926500Y-68965569D02*
X103974119Y-69013188D01*
X104164595Y-67298902D02*
X104164595Y-66822712D01*
X103878880Y-67394140D02*
X104878880Y-67060807D01*
X104878880Y-67060807D02*
X103878880Y-66727474D01*
X111428880Y-68732236D02*
X111428880Y-69303664D01*
X111428880Y-69017950D02*
X112428880Y-69017950D01*
X112428880Y-69017950D02*
X112286023Y-69113188D01*
X112286023Y-69113188D02*
X112190785Y-69208426D01*
X112190785Y-69208426D02*
X112143166Y-69303664D01*
X112333642Y-68351283D02*
X112381261Y-68303664D01*
X112381261Y-68303664D02*
X112428880Y-68208426D01*
X112428880Y-68208426D02*
X112428880Y-67970331D01*
X112428880Y-67970331D02*
X112381261Y-67875093D01*
X112381261Y-67875093D02*
X112333642Y-67827474D01*
X112333642Y-67827474D02*
X112238404Y-67779855D01*
X112238404Y-67779855D02*
X112143166Y-67779855D01*
X112143166Y-67779855D02*
X112000309Y-67827474D01*
X112000309Y-67827474D02*
X111428880Y-68398902D01*
X111428880Y-68398902D02*
X111428880Y-67779855D01*
X112428880Y-67494140D02*
X111428880Y-67160807D01*
X111428880Y-67160807D02*
X112428880Y-66827474D01*
X109781261Y-68967950D02*
X109828880Y-69063188D01*
X109828880Y-69063188D02*
X109828880Y-69206045D01*
X109828880Y-69206045D02*
X109781261Y-69348902D01*
X109781261Y-69348902D02*
X109686023Y-69444140D01*
X109686023Y-69444140D02*
X109590785Y-69491759D01*
X109590785Y-69491759D02*
X109400309Y-69539378D01*
X109400309Y-69539378D02*
X109257452Y-69539378D01*
X109257452Y-69539378D02*
X109066976Y-69491759D01*
X109066976Y-69491759D02*
X108971738Y-69444140D01*
X108971738Y-69444140D02*
X108876500Y-69348902D01*
X108876500Y-69348902D02*
X108828880Y-69206045D01*
X108828880Y-69206045D02*
X108828880Y-69110807D01*
X108828880Y-69110807D02*
X108876500Y-68967950D01*
X108876500Y-68967950D02*
X108924119Y-68920331D01*
X108924119Y-68920331D02*
X109257452Y-68920331D01*
X109257452Y-68920331D02*
X109257452Y-69110807D01*
X108828880Y-68491759D02*
X109828880Y-68491759D01*
X109828880Y-68491759D02*
X108828880Y-67920331D01*
X108828880Y-67920331D02*
X109828880Y-67920331D01*
X108828880Y-67444140D02*
X109828880Y-67444140D01*
X109828880Y-67444140D02*
X109828880Y-67206045D01*
X109828880Y-67206045D02*
X109781261Y-67063188D01*
X109781261Y-67063188D02*
X109686023Y-66967950D01*
X109686023Y-66967950D02*
X109590785Y-66920331D01*
X109590785Y-66920331D02*
X109400309Y-66872712D01*
X109400309Y-66872712D02*
X109257452Y-66872712D01*
X109257452Y-66872712D02*
X109066976Y-66920331D01*
X109066976Y-66920331D02*
X108971738Y-66967950D01*
X108971738Y-66967950D02*
X108876500Y-67063188D01*
X108876500Y-67063188D02*
X108828880Y-67206045D01*
X108828880Y-67206045D02*
X108828880Y-67444140D01*
X100431261Y-68817950D02*
X100478880Y-68913188D01*
X100478880Y-68913188D02*
X100478880Y-69056045D01*
X100478880Y-69056045D02*
X100431261Y-69198902D01*
X100431261Y-69198902D02*
X100336023Y-69294140D01*
X100336023Y-69294140D02*
X100240785Y-69341759D01*
X100240785Y-69341759D02*
X100050309Y-69389378D01*
X100050309Y-69389378D02*
X99907452Y-69389378D01*
X99907452Y-69389378D02*
X99716976Y-69341759D01*
X99716976Y-69341759D02*
X99621738Y-69294140D01*
X99621738Y-69294140D02*
X99526500Y-69198902D01*
X99526500Y-69198902D02*
X99478880Y-69056045D01*
X99478880Y-69056045D02*
X99478880Y-68960807D01*
X99478880Y-68960807D02*
X99526500Y-68817950D01*
X99526500Y-68817950D02*
X99574119Y-68770331D01*
X99574119Y-68770331D02*
X99907452Y-68770331D01*
X99907452Y-68770331D02*
X99907452Y-68960807D01*
X99478880Y-68341759D02*
X100478880Y-68341759D01*
X100478880Y-68341759D02*
X99478880Y-67770331D01*
X99478880Y-67770331D02*
X100478880Y-67770331D01*
X99478880Y-67294140D02*
X100478880Y-67294140D01*
X100478880Y-67294140D02*
X100478880Y-67056045D01*
X100478880Y-67056045D02*
X100431261Y-66913188D01*
X100431261Y-66913188D02*
X100336023Y-66817950D01*
X100336023Y-66817950D02*
X100240785Y-66770331D01*
X100240785Y-66770331D02*
X100050309Y-66722712D01*
X100050309Y-66722712D02*
X99907452Y-66722712D01*
X99907452Y-66722712D02*
X99716976Y-66770331D01*
X99716976Y-66770331D02*
X99621738Y-66817950D01*
X99621738Y-66817950D02*
X99526500Y-66913188D01*
X99526500Y-66913188D02*
X99478880Y-67056045D01*
X99478880Y-67056045D02*
X99478880Y-67294140D01*
X90228880Y-69001283D02*
X90228880Y-68382236D01*
X90228880Y-68382236D02*
X89847928Y-68715569D01*
X89847928Y-68715569D02*
X89847928Y-68572712D01*
X89847928Y-68572712D02*
X89800309Y-68477474D01*
X89800309Y-68477474D02*
X89752690Y-68429855D01*
X89752690Y-68429855D02*
X89657452Y-68382236D01*
X89657452Y-68382236D02*
X89419357Y-68382236D01*
X89419357Y-68382236D02*
X89324119Y-68429855D01*
X89324119Y-68429855D02*
X89276500Y-68477474D01*
X89276500Y-68477474D02*
X89228880Y-68572712D01*
X89228880Y-68572712D02*
X89228880Y-68858426D01*
X89228880Y-68858426D02*
X89276500Y-68953664D01*
X89276500Y-68953664D02*
X89324119Y-69001283D01*
X90228880Y-68096521D02*
X89228880Y-67763188D01*
X89228880Y-67763188D02*
X90228880Y-67429855D01*
X90228880Y-67191759D02*
X90228880Y-66572712D01*
X90228880Y-66572712D02*
X89847928Y-66906045D01*
X89847928Y-66906045D02*
X89847928Y-66763188D01*
X89847928Y-66763188D02*
X89800309Y-66667950D01*
X89800309Y-66667950D02*
X89752690Y-66620331D01*
X89752690Y-66620331D02*
X89657452Y-66572712D01*
X89657452Y-66572712D02*
X89419357Y-66572712D01*
X89419357Y-66572712D02*
X89324119Y-66620331D01*
X89324119Y-66620331D02*
X89276500Y-66667950D01*
X89276500Y-66667950D02*
X89228880Y-66763188D01*
X89228880Y-66763188D02*
X89228880Y-67048902D01*
X89228880Y-67048902D02*
X89276500Y-67144140D01*
X89276500Y-67144140D02*
X89324119Y-67191759D01*
D12*
X82322964Y-42166138D02*
X82418202Y-42118519D01*
X82418202Y-42118519D02*
X82561059Y-42118519D01*
X82561059Y-42118519D02*
X82703916Y-42166138D01*
X82703916Y-42166138D02*
X82799154Y-42261376D01*
X82799154Y-42261376D02*
X82846773Y-42356614D01*
X82846773Y-42356614D02*
X82894392Y-42547090D01*
X82894392Y-42547090D02*
X82894392Y-42689947D01*
X82894392Y-42689947D02*
X82846773Y-42880423D01*
X82846773Y-42880423D02*
X82799154Y-42975661D01*
X82799154Y-42975661D02*
X82703916Y-43070900D01*
X82703916Y-43070900D02*
X82561059Y-43118519D01*
X82561059Y-43118519D02*
X82465821Y-43118519D01*
X82465821Y-43118519D02*
X82322964Y-43070900D01*
X82322964Y-43070900D02*
X82275345Y-43023280D01*
X82275345Y-43023280D02*
X82275345Y-42689947D01*
X82275345Y-42689947D02*
X82465821Y-42689947D01*
X81846773Y-43118519D02*
X81846773Y-42118519D01*
X81846773Y-42118519D02*
X81275345Y-43118519D01*
X81275345Y-43118519D02*
X81275345Y-42118519D01*
X80799154Y-43118519D02*
X80799154Y-42118519D01*
X80799154Y-42118519D02*
X80561059Y-42118519D01*
X80561059Y-42118519D02*
X80418202Y-42166138D01*
X80418202Y-42166138D02*
X80322964Y-42261376D01*
X80322964Y-42261376D02*
X80275345Y-42356614D01*
X80275345Y-42356614D02*
X80227726Y-42547090D01*
X80227726Y-42547090D02*
X80227726Y-42689947D01*
X80227726Y-42689947D02*
X80275345Y-42880423D01*
X80275345Y-42880423D02*
X80322964Y-42975661D01*
X80322964Y-42975661D02*
X80418202Y-43070900D01*
X80418202Y-43070900D02*
X80561059Y-43118519D01*
X80561059Y-43118519D02*
X80799154Y-43118519D01*
D13*
X114800000Y-42600000D02*
X116100000Y-42600000D01*
X107500000Y-42600000D02*
X108800000Y-42600000D01*
X100200000Y-42600000D02*
X101500000Y-42600000D01*
X92950000Y-42600000D02*
X94250000Y-42600000D01*
X111150000Y-42600000D02*
X112450000Y-42600000D01*
X89300000Y-42600000D02*
X90600000Y-42600000D01*
X85650000Y-42600000D02*
X86950000Y-42600000D01*
X96600000Y-42600000D02*
X97900000Y-42600000D01*
X103850000Y-42600000D02*
X105150000Y-42600000D01*
X114800000Y-45150000D02*
X116100000Y-45150000D01*
X107500000Y-45150000D02*
X108800000Y-45150000D01*
X103850000Y-45150000D02*
X105150000Y-45150000D01*
X100200000Y-45150000D02*
X101500000Y-45150000D01*
X111150000Y-45150000D02*
X112450000Y-45150000D01*
X96600000Y-45150000D02*
X97900000Y-45150000D01*
X92950000Y-45150000D02*
X94250000Y-45150000D01*
X89300000Y-45150000D02*
X90600000Y-45150000D01*
X85650000Y-45150000D02*
X86950000Y-45150000D01*
D12*
X82892011Y-44618519D02*
X82272964Y-44618519D01*
X82272964Y-44618519D02*
X82606297Y-44999471D01*
X82606297Y-44999471D02*
X82463440Y-44999471D01*
X82463440Y-44999471D02*
X82368202Y-45047090D01*
X82368202Y-45047090D02*
X82320583Y-45094709D01*
X82320583Y-45094709D02*
X82272964Y-45189947D01*
X82272964Y-45189947D02*
X82272964Y-45428042D01*
X82272964Y-45428042D02*
X82320583Y-45523280D01*
X82320583Y-45523280D02*
X82368202Y-45570900D01*
X82368202Y-45570900D02*
X82463440Y-45618519D01*
X82463440Y-45618519D02*
X82749154Y-45618519D01*
X82749154Y-45618519D02*
X82844392Y-45570900D01*
X82844392Y-45570900D02*
X82892011Y-45523280D01*
X81987249Y-44618519D02*
X81653916Y-45618519D01*
X81653916Y-45618519D02*
X81320583Y-44618519D01*
X81082487Y-44618519D02*
X80463440Y-44618519D01*
X80463440Y-44618519D02*
X80796773Y-44999471D01*
X80796773Y-44999471D02*
X80653916Y-44999471D01*
X80653916Y-44999471D02*
X80558678Y-45047090D01*
X80558678Y-45047090D02*
X80511059Y-45094709D01*
X80511059Y-45094709D02*
X80463440Y-45189947D01*
X80463440Y-45189947D02*
X80463440Y-45428042D01*
X80463440Y-45428042D02*
X80511059Y-45523280D01*
X80511059Y-45523280D02*
X80558678Y-45570900D01*
X80558678Y-45570900D02*
X80653916Y-45618519D01*
X80653916Y-45618519D02*
X80939630Y-45618519D01*
X80939630Y-45618519D02*
X81034868Y-45570900D01*
X81034868Y-45570900D02*
X81082487Y-45523280D01*
D11*
X96878880Y-69906045D02*
X97878880Y-69906045D01*
X97878880Y-69906045D02*
X96878880Y-69334617D01*
X96878880Y-69334617D02*
X97878880Y-69334617D01*
X96878880Y-68286998D02*
X97355071Y-68620331D01*
X96878880Y-68858426D02*
X97878880Y-68858426D01*
X97878880Y-68858426D02*
X97878880Y-68477474D01*
X97878880Y-68477474D02*
X97831261Y-68382236D01*
X97831261Y-68382236D02*
X97783642Y-68334617D01*
X97783642Y-68334617D02*
X97688404Y-68286998D01*
X97688404Y-68286998D02*
X97545547Y-68286998D01*
X97545547Y-68286998D02*
X97450309Y-68334617D01*
X97450309Y-68334617D02*
X97402690Y-68382236D01*
X97402690Y-68382236D02*
X97355071Y-68477474D01*
X97355071Y-68477474D02*
X97355071Y-68858426D01*
X96926500Y-67906045D02*
X96878880Y-67763188D01*
X96878880Y-67763188D02*
X96878880Y-67525093D01*
X96878880Y-67525093D02*
X96926500Y-67429855D01*
X96926500Y-67429855D02*
X96974119Y-67382236D01*
X96974119Y-67382236D02*
X97069357Y-67334617D01*
X97069357Y-67334617D02*
X97164595Y-67334617D01*
X97164595Y-67334617D02*
X97259833Y-67382236D01*
X97259833Y-67382236D02*
X97307452Y-67429855D01*
X97307452Y-67429855D02*
X97355071Y-67525093D01*
X97355071Y-67525093D02*
X97402690Y-67715569D01*
X97402690Y-67715569D02*
X97450309Y-67810807D01*
X97450309Y-67810807D02*
X97497928Y-67858426D01*
X97497928Y-67858426D02*
X97593166Y-67906045D01*
X97593166Y-67906045D02*
X97688404Y-67906045D01*
X97688404Y-67906045D02*
X97783642Y-67858426D01*
X97783642Y-67858426D02*
X97831261Y-67810807D01*
X97831261Y-67810807D02*
X97878880Y-67715569D01*
X97878880Y-67715569D02*
X97878880Y-67477474D01*
X97878880Y-67477474D02*
X97831261Y-67334617D01*
X97878880Y-67048902D02*
X97878880Y-66477474D01*
X96878880Y-66763188D02*
X97878880Y-66763188D01*
X94376500Y-71046521D02*
X94328880Y-70903664D01*
X94328880Y-70903664D02*
X94328880Y-70665569D01*
X94328880Y-70665569D02*
X94376500Y-70570331D01*
X94376500Y-70570331D02*
X94424119Y-70522712D01*
X94424119Y-70522712D02*
X94519357Y-70475093D01*
X94519357Y-70475093D02*
X94614595Y-70475093D01*
X94614595Y-70475093D02*
X94709833Y-70522712D01*
X94709833Y-70522712D02*
X94757452Y-70570331D01*
X94757452Y-70570331D02*
X94805071Y-70665569D01*
X94805071Y-70665569D02*
X94852690Y-70856045D01*
X94852690Y-70856045D02*
X94900309Y-70951283D01*
X94900309Y-70951283D02*
X94947928Y-70998902D01*
X94947928Y-70998902D02*
X95043166Y-71046521D01*
X95043166Y-71046521D02*
X95138404Y-71046521D01*
X95138404Y-71046521D02*
X95233642Y-70998902D01*
X95233642Y-70998902D02*
X95281261Y-70951283D01*
X95281261Y-70951283D02*
X95328880Y-70856045D01*
X95328880Y-70856045D02*
X95328880Y-70617950D01*
X95328880Y-70617950D02*
X95281261Y-70475093D01*
X95328880Y-70141759D02*
X94328880Y-69903664D01*
X94328880Y-69903664D02*
X95043166Y-69713188D01*
X95043166Y-69713188D02*
X94328880Y-69522712D01*
X94328880Y-69522712D02*
X95328880Y-69284617D01*
X94424119Y-68332236D02*
X94376500Y-68379855D01*
X94376500Y-68379855D02*
X94328880Y-68522712D01*
X94328880Y-68522712D02*
X94328880Y-68617950D01*
X94328880Y-68617950D02*
X94376500Y-68760807D01*
X94376500Y-68760807D02*
X94471738Y-68856045D01*
X94471738Y-68856045D02*
X94566976Y-68903664D01*
X94566976Y-68903664D02*
X94757452Y-68951283D01*
X94757452Y-68951283D02*
X94900309Y-68951283D01*
X94900309Y-68951283D02*
X95090785Y-68903664D01*
X95090785Y-68903664D02*
X95186023Y-68856045D01*
X95186023Y-68856045D02*
X95281261Y-68760807D01*
X95281261Y-68760807D02*
X95328880Y-68617950D01*
X95328880Y-68617950D02*
X95328880Y-68522712D01*
X95328880Y-68522712D02*
X95281261Y-68379855D01*
X95281261Y-68379855D02*
X95233642Y-68332236D01*
X94328880Y-67427474D02*
X94328880Y-67903664D01*
X94328880Y-67903664D02*
X95328880Y-67903664D01*
X94328880Y-67094140D02*
X95328880Y-67094140D01*
X94328880Y-66522712D02*
X94900309Y-66951283D01*
X95328880Y-66522712D02*
X94757452Y-67094140D01*
X91826500Y-70910806D02*
X91778880Y-70767949D01*
X91778880Y-70767949D02*
X91778880Y-70529854D01*
X91778880Y-70529854D02*
X91826500Y-70434616D01*
X91826500Y-70434616D02*
X91874119Y-70386997D01*
X91874119Y-70386997D02*
X91969357Y-70339378D01*
X91969357Y-70339378D02*
X92064595Y-70339378D01*
X92064595Y-70339378D02*
X92159833Y-70386997D01*
X92159833Y-70386997D02*
X92207452Y-70434616D01*
X92207452Y-70434616D02*
X92255071Y-70529854D01*
X92255071Y-70529854D02*
X92302690Y-70720330D01*
X92302690Y-70720330D02*
X92350309Y-70815568D01*
X92350309Y-70815568D02*
X92397928Y-70863187D01*
X92397928Y-70863187D02*
X92493166Y-70910806D01*
X92493166Y-70910806D02*
X92588404Y-70910806D01*
X92588404Y-70910806D02*
X92683642Y-70863187D01*
X92683642Y-70863187D02*
X92731261Y-70815568D01*
X92731261Y-70815568D02*
X92778880Y-70720330D01*
X92778880Y-70720330D02*
X92778880Y-70482235D01*
X92778880Y-70482235D02*
X92731261Y-70339378D01*
X92778880Y-70006044D02*
X91778880Y-69767949D01*
X91778880Y-69767949D02*
X92493166Y-69577473D01*
X92493166Y-69577473D02*
X91778880Y-69386997D01*
X91778880Y-69386997D02*
X92778880Y-69148902D01*
X91778880Y-68767949D02*
X92778880Y-68767949D01*
X92778880Y-68767949D02*
X92778880Y-68529854D01*
X92778880Y-68529854D02*
X92731261Y-68386997D01*
X92731261Y-68386997D02*
X92636023Y-68291759D01*
X92636023Y-68291759D02*
X92540785Y-68244140D01*
X92540785Y-68244140D02*
X92350309Y-68196521D01*
X92350309Y-68196521D02*
X92207452Y-68196521D01*
X92207452Y-68196521D02*
X92016976Y-68244140D01*
X92016976Y-68244140D02*
X91921738Y-68291759D01*
X91921738Y-68291759D02*
X91826500Y-68386997D01*
X91826500Y-68386997D02*
X91778880Y-68529854D01*
X91778880Y-68529854D02*
X91778880Y-68767949D01*
X91778880Y-67767949D02*
X92778880Y-67767949D01*
X92778880Y-67101283D02*
X92778880Y-66910807D01*
X92778880Y-66910807D02*
X92731261Y-66815569D01*
X92731261Y-66815569D02*
X92636023Y-66720331D01*
X92636023Y-66720331D02*
X92445547Y-66672712D01*
X92445547Y-66672712D02*
X92112214Y-66672712D01*
X92112214Y-66672712D02*
X91921738Y-66720331D01*
X91921738Y-66720331D02*
X91826500Y-66815569D01*
X91826500Y-66815569D02*
X91778880Y-66910807D01*
X91778880Y-66910807D02*
X91778880Y-67101283D01*
X91778880Y-67101283D02*
X91826500Y-67196521D01*
X91826500Y-67196521D02*
X91921738Y-67291759D01*
X91921738Y-67291759D02*
X92112214Y-67339378D01*
X92112214Y-67339378D02*
X92445547Y-67339378D01*
X92445547Y-67339378D02*
X92636023Y-67291759D01*
X92636023Y-67291759D02*
X92731261Y-67196521D01*
X92731261Y-67196521D02*
X92778880Y-67101283D01*
D14*
%TO.C,G\u002A\u002A\u002A*%
G36*
X122006348Y-68513547D02*
G01*
X122095490Y-68515091D01*
X122173968Y-68518232D01*
X122245996Y-68523362D01*
X122315785Y-68530874D01*
X122387548Y-68541161D01*
X122465497Y-68554616D01*
X122553844Y-68571631D01*
X122764486Y-68621552D01*
X122986433Y-68691818D01*
X123202521Y-68778654D01*
X123411842Y-68881477D01*
X123613485Y-68999707D01*
X123806543Y-69132759D01*
X123990106Y-69280054D01*
X124163266Y-69441009D01*
X124325114Y-69615041D01*
X124474740Y-69801570D01*
X124487483Y-69818821D01*
X124620554Y-70014638D01*
X124737753Y-70217914D01*
X124839308Y-70429228D01*
X124925450Y-70649163D01*
X124996408Y-70878299D01*
X125052414Y-71117219D01*
X125093696Y-71366503D01*
X125094559Y-71373184D01*
X125100908Y-71438513D01*
X125105647Y-71517601D01*
X125108774Y-71606578D01*
X125110290Y-71701574D01*
X125110194Y-71798717D01*
X125108488Y-71894137D01*
X125105170Y-71983964D01*
X125100241Y-72064327D01*
X125093701Y-72131355D01*
X125073924Y-72268948D01*
X125025421Y-72511476D01*
X124960391Y-72746498D01*
X124878758Y-72974195D01*
X124780446Y-73194750D01*
X124665378Y-73408343D01*
X124533478Y-73615156D01*
X124384669Y-73815370D01*
X124383397Y-73816959D01*
X124341453Y-73866598D01*
X124288871Y-73924709D01*
X124228778Y-73988158D01*
X124164302Y-74053813D01*
X124098569Y-74118541D01*
X124034706Y-74179209D01*
X123975841Y-74232684D01*
X123925099Y-74275833D01*
X123827691Y-74351936D01*
X123631908Y-74488877D01*
X123430063Y-74609093D01*
X123221419Y-74712900D01*
X123005240Y-74800612D01*
X122780787Y-74872547D01*
X122547323Y-74929020D01*
X122304112Y-74970346D01*
X122246022Y-74976641D01*
X122167690Y-74982007D01*
X122078880Y-74985634D01*
X121983601Y-74987521D01*
X121886772Y-74987665D01*
X121885857Y-74987666D01*
X121789657Y-74986065D01*
X121699005Y-74982717D01*
X121617910Y-74977619D01*
X121550376Y-74970770D01*
X121404572Y-74948662D01*
X121166894Y-74898469D01*
X120936726Y-74831751D01*
X120714214Y-74748576D01*
X120499506Y-74649016D01*
X120292747Y-74533142D01*
X120094085Y-74401025D01*
X119903667Y-74252736D01*
X119721640Y-74088345D01*
X119570833Y-73931620D01*
X119418277Y-73748483D01*
X119279604Y-73554530D01*
X119155458Y-73350916D01*
X119046482Y-73138798D01*
X118953318Y-72919331D01*
X118876611Y-72693670D01*
X118817003Y-72462972D01*
X118810897Y-72434433D01*
X118791153Y-72332168D01*
X118774075Y-72225692D01*
X118758969Y-72110357D01*
X118745142Y-71981516D01*
X118744381Y-71965829D01*
X118743806Y-71933412D01*
X118743542Y-71888215D01*
X118743594Y-71833097D01*
X118743919Y-71778861D01*
X119797256Y-71778861D01*
X119797583Y-71846400D01*
X119799203Y-71904861D01*
X119802201Y-71949732D01*
X119809210Y-72011099D01*
X119843539Y-72212722D01*
X119894260Y-72407413D01*
X119961009Y-72594514D01*
X120043417Y-72773369D01*
X120141121Y-72943319D01*
X120253752Y-73103707D01*
X120380946Y-73253878D01*
X120522335Y-73393172D01*
X120677555Y-73520934D01*
X120825221Y-73621635D01*
X120988057Y-73712213D01*
X121159048Y-73788247D01*
X121336305Y-73849182D01*
X121517938Y-73894460D01*
X121702057Y-73923525D01*
X121886772Y-73935822D01*
X122070193Y-73930794D01*
X122209266Y-73915903D01*
X122402677Y-73880203D01*
X122589415Y-73827722D01*
X122769021Y-73758672D01*
X122941034Y-73673262D01*
X123104993Y-73571702D01*
X123260440Y-73454202D01*
X123406912Y-73320972D01*
X123459942Y-73266518D01*
X123589751Y-73116112D01*
X123703942Y-72956796D01*
X123802638Y-72788322D01*
X123885959Y-72610438D01*
X123954029Y-72422897D01*
X124006969Y-72225447D01*
X124044901Y-72017841D01*
X124050097Y-71970257D01*
X124054296Y-71900027D01*
X124056309Y-71819826D01*
X124056202Y-71734045D01*
X124054041Y-71647081D01*
X124049893Y-71563327D01*
X124043824Y-71487177D01*
X124035901Y-71423025D01*
X124021975Y-71342643D01*
X123980624Y-71163012D01*
X123926933Y-70991670D01*
X123923766Y-70982966D01*
X123905585Y-70935879D01*
X123884290Y-70884364D01*
X123861497Y-70831982D01*
X123838822Y-70782292D01*
X123817881Y-70738852D01*
X123800291Y-70705221D01*
X123787666Y-70684959D01*
X123785587Y-70683052D01*
X123781724Y-70682218D01*
X123775946Y-70683869D01*
X123767581Y-70688665D01*
X123755958Y-70697263D01*
X123740405Y-70710324D01*
X123720250Y-70728505D01*
X123694823Y-70752465D01*
X123663452Y-70782862D01*
X123625465Y-70820356D01*
X123580191Y-70865605D01*
X123526959Y-70919267D01*
X123465096Y-70982001D01*
X123393932Y-71054467D01*
X123312795Y-71137322D01*
X123221014Y-71231224D01*
X123117917Y-71336834D01*
X123002832Y-71454809D01*
X122980431Y-71477777D01*
X122806764Y-71655829D01*
X122645459Y-71821176D01*
X122496246Y-71974092D01*
X122358856Y-72114856D01*
X122233018Y-72243744D01*
X122118462Y-72361032D01*
X122014918Y-72466998D01*
X121922115Y-72561916D01*
X121839783Y-72646065D01*
X121767653Y-72719721D01*
X121705454Y-72783159D01*
X121652916Y-72836658D01*
X121455024Y-73037956D01*
X121455024Y-72366686D01*
X121455024Y-71695416D01*
X121684217Y-71461598D01*
X121777633Y-71366288D01*
X121895974Y-71245519D01*
X122003539Y-71135707D01*
X122101460Y-71035697D01*
X122190868Y-70944333D01*
X122272894Y-70860458D01*
X122348671Y-70782916D01*
X122419329Y-70710550D01*
X122486000Y-70642205D01*
X122514590Y-70612896D01*
X122579242Y-70546689D01*
X122649734Y-70474579D01*
X122721463Y-70401271D01*
X122789827Y-70331469D01*
X122850225Y-70269878D01*
X122870476Y-70249235D01*
X122940822Y-70177346D01*
X122999289Y-70117257D01*
X123046650Y-70068147D01*
X123083679Y-70029196D01*
X123111151Y-69999583D01*
X123129838Y-69978489D01*
X123140514Y-69965093D01*
X123143954Y-69958575D01*
X123143954Y-69958509D01*
X123136772Y-69950513D01*
X123118833Y-69936730D01*
X123095032Y-69920389D01*
X123070265Y-69904720D01*
X123049427Y-69892950D01*
X123037415Y-69888309D01*
X123030529Y-69893797D01*
X123012033Y-69911018D01*
X122983293Y-69938731D01*
X122945596Y-69975667D01*
X122900230Y-70020557D01*
X122848483Y-70072131D01*
X122791644Y-70129121D01*
X122730999Y-70190258D01*
X122707048Y-70214459D01*
X122643763Y-70278352D01*
X122570490Y-70352268D01*
X122489198Y-70434225D01*
X122401857Y-70522237D01*
X122310435Y-70614322D01*
X122216901Y-70708496D01*
X122123225Y-70802777D01*
X122031375Y-70895179D01*
X121943320Y-70983721D01*
X121454373Y-71475235D01*
X121456969Y-71395684D01*
X121459565Y-71316133D01*
X122195138Y-70573960D01*
X122239171Y-70529526D01*
X122333544Y-70434242D01*
X122423948Y-70342898D01*
X122509582Y-70256308D01*
X122589643Y-70175286D01*
X122663330Y-70100645D01*
X122729839Y-70033200D01*
X122788368Y-69973765D01*
X122838116Y-69923152D01*
X122878280Y-69882176D01*
X122908057Y-69851651D01*
X122926646Y-69832391D01*
X122933244Y-69825209D01*
X122930572Y-69821293D01*
X122914285Y-69810694D01*
X122885742Y-69795539D01*
X122847721Y-69777089D01*
X122803003Y-69756609D01*
X122754370Y-69735362D01*
X122704602Y-69714609D01*
X122656479Y-69695615D01*
X122612782Y-69679643D01*
X122587353Y-69670972D01*
X122456208Y-69631017D01*
X122330085Y-69601514D01*
X122203524Y-69581562D01*
X122071064Y-69570263D01*
X121927244Y-69566715D01*
X121894422Y-69566850D01*
X121788474Y-69569552D01*
X121693396Y-69576209D01*
X121603719Y-69587462D01*
X121513976Y-69603952D01*
X121418699Y-69626319D01*
X121264947Y-69671864D01*
X121084616Y-69742127D01*
X120912306Y-69828066D01*
X120748866Y-69928974D01*
X120595147Y-70044139D01*
X120451998Y-70172853D01*
X120320269Y-70314407D01*
X120200809Y-70468091D01*
X120094468Y-70633196D01*
X120002096Y-70809013D01*
X119957054Y-70913688D01*
X119908795Y-71048251D01*
X119867258Y-71189554D01*
X119834176Y-71331609D01*
X119811280Y-71468431D01*
X119807169Y-71508177D01*
X119803178Y-71566901D01*
X119800138Y-71634599D01*
X119798136Y-71706756D01*
X119797256Y-71778861D01*
X118743919Y-71778861D01*
X118743967Y-71770919D01*
X118744667Y-71704541D01*
X118746654Y-71607045D01*
X118751834Y-71486858D01*
X118760414Y-71376426D01*
X118772988Y-71270995D01*
X118790150Y-71165813D01*
X118812495Y-71056127D01*
X118840617Y-70937183D01*
X118862640Y-70854307D01*
X118923271Y-70662991D01*
X118996693Y-70472431D01*
X119080706Y-70288067D01*
X119173109Y-70115338D01*
X119254750Y-69982007D01*
X119392171Y-69784959D01*
X119542254Y-69599894D01*
X119704235Y-69427360D01*
X119877353Y-69267902D01*
X120060845Y-69122068D01*
X120253949Y-68990404D01*
X120455903Y-68873456D01*
X120665944Y-68771771D01*
X120883310Y-68685896D01*
X121107239Y-68616378D01*
X121336969Y-68563762D01*
X121383261Y-68555167D01*
X121460892Y-68541832D01*
X121531584Y-68531540D01*
X121599515Y-68523933D01*
X121668867Y-68518654D01*
X121743819Y-68515343D01*
X121828552Y-68513644D01*
X121927244Y-68513198D01*
X122006348Y-68513547D01*
G37*
%TD*%
M02*
