%TF.GenerationSoftware,KiCad,Pcbnew,9.0.7-9.0.7~ubuntu25.10.1*%
%TF.CreationDate,2026-02-28T17:49:31+01:00*%
%TF.ProjectId,pwm_board,70776d5f-626f-4617-9264-2e6b69636164,rev?*%
%TF.SameCoordinates,Original*%
%TF.FileFunction,Copper,L4,Bot*%
%TF.FilePolarity,Positive*%
%FSLAX46Y46*%
G04 Gerber Fmt 4.6, Leading zero omitted, Abs format (unit mm)*
G04 Created by KiCad (PCBNEW 9.0.7-9.0.7~ubuntu25.10.1) date 2026-02-28 17:49:31*
%MOMM*%
%LPD*%
G01*
G04 APERTURE LIST*
%TA.AperFunction,ComponentPad*%
%ADD10C,1.700000*%
%TD*%
%TA.AperFunction,ComponentPad*%
%ADD11R,1.700000X1.700000*%
%TD*%
%TA.AperFunction,ViaPad*%
%ADD12C,0.600000*%
%TD*%
%TA.AperFunction,ViaPad*%
%ADD13C,0.700000*%
%TD*%
%TA.AperFunction,Conductor*%
%ADD14C,0.300000*%
%TD*%
G04 APERTURE END LIST*
D10*
%TO.P,J14,2,Pin_2*%
%TO.N,+12V*%
X97940000Y-76400000D03*
D11*
%TO.P,J14,1,Pin_1*%
%TO.N,Net-(D6-A)*%
X95400000Y-76400000D03*
%TD*%
D10*
%TO.P,J13,2,Pin_2*%
%TO.N,+12V*%
X97940000Y-72400000D03*
D11*
%TO.P,J13,1,Pin_1*%
%TO.N,Net-(D5-A)*%
X95400000Y-72400000D03*
%TD*%
D10*
%TO.P,J15,2,Pin_2*%
%TO.N,+12V*%
X104940000Y-72400000D03*
D11*
%TO.P,J15,1,Pin_1*%
%TO.N,Net-(D7-A)*%
X102400000Y-72400000D03*
%TD*%
D10*
%TO.P,J12,2,Pin_2*%
%TO.N,+12V*%
X91400000Y-74940000D03*
D11*
%TO.P,J12,1,Pin_1*%
%TO.N,Net-(D4-A)*%
X91400000Y-72400000D03*
%TD*%
D10*
%TO.P,J16,2,Pin_2*%
%TO.N,+12V*%
X104940000Y-76400000D03*
D11*
%TO.P,J16,1,Pin_1*%
%TO.N,Net-(D8-A)*%
X102400000Y-76400000D03*
%TD*%
D10*
%TO.P,J17,2,Pin_2*%
%TO.N,+12V*%
X114212500Y-77115000D03*
D11*
%TO.P,J17,1,Pin_1*%
%TO.N,Net-(D9-A)*%
X114212500Y-74575000D03*
%TD*%
D10*
%TO.P,J6,3,Pin_3*%
%TO.N,Net-(J6-Pin_3)*%
X95355302Y-47691661D03*
%TO.P,J6,2,Pin_2*%
%TO.N,+3V3*%
X95355302Y-45151661D03*
D11*
%TO.P,J6,1,Pin_1*%
%TO.N,GND*%
X95355302Y-42611661D03*
%TD*%
D10*
%TO.P,J9,3,Pin_3*%
%TO.N,Net-(J9-Pin_3)*%
X84428978Y-47684055D03*
%TO.P,J9,2,Pin_2*%
%TO.N,+3V3*%
X84428978Y-45144055D03*
D11*
%TO.P,J9,1,Pin_1*%
%TO.N,GND*%
X84428978Y-42604055D03*
%TD*%
%TO.P,J1,1,Pin_1*%
%TO.N,GND*%
X113591965Y-42600694D03*
D10*
%TO.P,J1,2,Pin_2*%
%TO.N,+3V3*%
X113591965Y-45140694D03*
%TO.P,J1,3,Pin_3*%
%TO.N,Net-(J1-Pin_3)*%
X113591965Y-47680694D03*
%TD*%
D11*
%TO.P,J11,1,Pin_1*%
%TO.N,GND*%
X99880000Y-65500000D03*
D10*
%TO.P,J11,2,Pin_2*%
%TO.N,/MCU/NRST*%
X97340000Y-65500000D03*
%TO.P,J11,3,Pin_3*%
%TO.N,/MCU/SWCLK*%
X94800000Y-65500000D03*
%TO.P,J11,4,Pin_4*%
%TO.N,/MCU/SWDIO*%
X92260000Y-65500000D03*
%TO.P,J11,5,Pin_5*%
%TO.N,+3V3*%
X89720000Y-65500000D03*
%TD*%
D11*
%TO.P,J5,1,Pin_1*%
%TO.N,GND*%
X99003141Y-42602709D03*
D10*
%TO.P,J5,2,Pin_2*%
%TO.N,+3V3*%
X99003141Y-45142709D03*
%TO.P,J5,3,Pin_3*%
%TO.N,Net-(J5-Pin_3)*%
X99003141Y-47682709D03*
%TD*%
D11*
%TO.P,J2,1,Pin_1*%
%TO.N,GND*%
X109958130Y-42598290D03*
D10*
%TO.P,J2,2,Pin_2*%
%TO.N,+3V3*%
X109958130Y-45138290D03*
%TO.P,J2,3,Pin_3*%
%TO.N,Net-(J2-Pin_3)*%
X109958130Y-47678290D03*
%TD*%
D11*
%TO.P,J4,1,Pin_1*%
%TO.N,GND*%
X102660000Y-42600000D03*
D10*
%TO.P,J4,2,Pin_2*%
%TO.N,+3V3*%
X102660000Y-45140000D03*
%TO.P,J4,3,Pin_3*%
%TO.N,Net-(J4-Pin_3)*%
X102660000Y-47680000D03*
%TD*%
%TO.P,J10,4,Pin_4*%
%TO.N,/RS-485_to_UART/UART_A*%
X104200000Y-65500000D03*
%TO.P,J10,3,Pin_3*%
%TO.N,/RS-485_to_UART/UART_B*%
X106740000Y-65500000D03*
%TO.P,J10,2,Pin_2*%
%TO.N,GND*%
X109280000Y-65500000D03*
D11*
%TO.P,J10,1,Pin_1*%
%TO.N,+12V*%
X111820000Y-65500000D03*
%TD*%
%TO.P,J8,1,Pin_1*%
%TO.N,GND*%
X88077111Y-42607679D03*
D10*
%TO.P,J8,2,Pin_2*%
%TO.N,+3V3*%
X88077111Y-45147679D03*
%TO.P,J8,3,Pin_3*%
%TO.N,Net-(J8-Pin_3)*%
X88077111Y-47687679D03*
%TD*%
D11*
%TO.P,J0,1,Pin_1*%
%TO.N,GND*%
X117225665Y-42603361D03*
D10*
%TO.P,J0,2,Pin_2*%
%TO.N,+3V3*%
X117225665Y-45143361D03*
%TO.P,J0,3,Pin_3*%
%TO.N,Net-(J0-Pin_3)*%
X117225665Y-47683361D03*
%TD*%
D11*
%TO.P,J7,1,Pin_1*%
%TO.N,GND*%
X91714956Y-42618742D03*
D10*
%TO.P,J7,2,Pin_2*%
%TO.N,+3V3*%
X91714956Y-45158742D03*
%TO.P,J7,3,Pin_3*%
%TO.N,Net-(J7-Pin_3)*%
X91714956Y-47698742D03*
%TD*%
D11*
%TO.P,J3,1,Pin_1*%
%TO.N,GND*%
X106318130Y-42598290D03*
D10*
%TO.P,J3,2,Pin_2*%
%TO.N,+3V3*%
X106318130Y-45138290D03*
%TO.P,J3,3,Pin_3*%
%TO.N,Net-(J3-Pin_3)*%
X106318130Y-47678290D03*
%TD*%
D12*
%TO.N,/pwm/SERVO_PWM_9*%
X79242029Y-52257970D03*
%TO.N,/pwm/SERVO_PWM_8*%
X82279430Y-51262752D03*
%TO.N,GND*%
X78000000Y-55200000D03*
%TO.N,/pwm/SERVO_PWM_9*%
X79241609Y-58751521D03*
%TO.N,/pwm/SERVO_PWM_8*%
X78586464Y-60812963D03*
%TO.N,/pwm/SERVO_PWM_4*%
X100650000Y-50900000D03*
X81150000Y-54650000D03*
%TO.N,/pwm/SERVO_PWM_3*%
X104308130Y-50938290D03*
X81800383Y-55277174D03*
%TO.N,/pwm/SERVO_PWM_0*%
X84150000Y-55400000D03*
%TO.N,/pwm/SERVO_PWM_2*%
X82491446Y-54792689D03*
%TO.N,/pwm/SERVO_PWM_1*%
X83155737Y-55402684D03*
%TO.N,/pwm/SERVO_PWM_2*%
X107948130Y-50938290D03*
%TO.N,/pwm/SERVO_PWM_1*%
X111581965Y-50900694D03*
%TO.N,/pwm/SERVO_PWM_0*%
X115215665Y-50903361D03*
%TO.N,Net-(SW1A-B)*%
X106150000Y-55400000D03*
%TO.N,GND*%
X101400000Y-55400000D03*
X88600000Y-56300000D03*
%TO.N,Net-(SW1A-B)*%
X93900000Y-57300000D03*
%TO.N,+3V3*%
X106100000Y-61000000D03*
D13*
%TO.N,GND*%
X120400000Y-54525000D03*
D12*
X94000000Y-59300000D03*
X111680000Y-57600000D03*
X84800000Y-64100000D03*
D13*
X117980000Y-64400000D03*
X112652499Y-63423659D03*
%TO.N,+3V3*%
X115890001Y-55825000D03*
X114890001Y-53825000D03*
X114890001Y-54825000D03*
X115890001Y-54825000D03*
X115890001Y-53825000D03*
X114890001Y-55825000D03*
D12*
X88500000Y-59200000D03*
%TD*%
D14*
%TO.N,/pwm/SERVO_PWM_0*%
X109700000Y-54650000D02*
X111469026Y-54650000D01*
X111469026Y-54650000D02*
X115215665Y-50903361D01*
%TO.N,/pwm/SERVO_PWM_9*%
X79242029Y-58751101D02*
X79242029Y-52257970D01*
X79241609Y-58751521D02*
X79242029Y-58751101D01*
%TO.N,/pwm/SERVO_PWM_8*%
X80150000Y-53392182D02*
X82279430Y-51262752D01*
X80150000Y-53400000D02*
X80150000Y-53392182D01*
%TO.N,/pwm/SERVO_PWM_1*%
X105800000Y-53900000D02*
X85900000Y-53900000D01*
X105800000Y-53900000D02*
X108582659Y-53900000D01*
X108582659Y-53900000D02*
X111581965Y-50900694D01*
%TO.N,/pwm/SERVO_PWM_2*%
X104400000Y-53150000D02*
X104150000Y-53150000D01*
X104400000Y-53150000D02*
X105736420Y-53150000D01*
X105736420Y-53150000D02*
X107948130Y-50938290D01*
%TO.N,/pwm/SERVO_PWM_3*%
X101400000Y-52400000D02*
X102846420Y-52400000D01*
X102846420Y-52400000D02*
X104308130Y-50938290D01*
%TO.N,/pwm/SERVO_PWM_2*%
X105200000Y-53150000D02*
X104400000Y-53150000D01*
%TO.N,/pwm/SERVO_PWM_1*%
X106000000Y-53900000D02*
X105800000Y-53900000D01*
%TO.N,/pwm/SERVO_PWM_0*%
X84150000Y-55400000D02*
X84900000Y-54650000D01*
X84900000Y-54650000D02*
X109700000Y-54650000D01*
%TO.N,/pwm/SERVO_PWM_8*%
X78586464Y-60812963D02*
X80150000Y-59249427D01*
X80150000Y-59249427D02*
X80150000Y-58375000D01*
X80150000Y-53400000D02*
X80150000Y-58375000D01*
%TO.N,/pwm/SERVO_PWM_4*%
X83400000Y-51650000D02*
X81150000Y-53900000D01*
X85650000Y-51650000D02*
X83400000Y-51650000D01*
X100650000Y-50900000D02*
X99900000Y-51650000D01*
X98900000Y-51650000D02*
X85650000Y-51650000D01*
X99900000Y-51650000D02*
X98900000Y-51650000D01*
X81150000Y-53900000D02*
X81150000Y-54650000D01*
%TO.N,/pwm/SERVO_PWM_3*%
X83650000Y-52400000D02*
X82150000Y-53900000D01*
X85150000Y-52400000D02*
X83650000Y-52400000D01*
X101400000Y-52400000D02*
X85150000Y-52400000D01*
X82150000Y-53900000D02*
X81800383Y-54249617D01*
X81800383Y-54249617D02*
X81800383Y-55277174D01*
%TO.N,/pwm/SERVO_PWM_2*%
X84134135Y-53150000D02*
X82491446Y-54792689D01*
X84441874Y-53150000D02*
X84134135Y-53150000D01*
%TO.N,/pwm/SERVO_PWM_1*%
X84658421Y-53900000D02*
X83155737Y-55402684D01*
X85900000Y-53900000D02*
X84658421Y-53900000D01*
%TO.N,/pwm/SERVO_PWM_2*%
X104150000Y-53150000D02*
X84441874Y-53150000D01*
%TO.N,Net-(SW1A-B)*%
X93900000Y-57300000D02*
X104250000Y-57300000D01*
X104250000Y-57300000D02*
X106150000Y-55400000D01*
%TD*%
M02*
