%TF.GenerationSoftware,KiCad,Pcbnew,9.0.7-9.0.7~ubuntu25.10.1*%
%TF.CreationDate,2026-02-28T17:49:31+01:00*%
%TF.ProjectId,pwm_board,70776d5f-626f-4617-9264-2e6b69636164,rev?*%
%TF.SameCoordinates,Original*%
%TF.FileFunction,Legend,Top*%
%TF.FilePolarity,Positive*%
%FSLAX46Y46*%
G04 Gerber Fmt 4.6, Leading zero omitted, Abs format (unit mm)*
G04 Created by KiCad (PCBNEW 9.0.7-9.0.7~ubuntu25.10.1) date 2026-02-28 17:49:31*
%MOMM*%
%LPD*%
G01*
G04 APERTURE LIST*
%ADD10C,0.125000*%
%ADD11C,0.120000*%
%ADD12C,0.100000*%
G04 APERTURE END LIST*
D10*
X96777190Y-79983333D02*
X96801000Y-80007142D01*
X96801000Y-80007142D02*
X96824809Y-80078571D01*
X96824809Y-80078571D02*
X96824809Y-80126190D01*
X96824809Y-80126190D02*
X96801000Y-80197618D01*
X96801000Y-80197618D02*
X96753380Y-80245237D01*
X96753380Y-80245237D02*
X96705761Y-80269047D01*
X96705761Y-80269047D02*
X96610523Y-80292856D01*
X96610523Y-80292856D02*
X96539095Y-80292856D01*
X96539095Y-80292856D02*
X96443857Y-80269047D01*
X96443857Y-80269047D02*
X96396238Y-80245237D01*
X96396238Y-80245237D02*
X96348619Y-80197618D01*
X96348619Y-80197618D02*
X96324809Y-80126190D01*
X96324809Y-80126190D02*
X96324809Y-80078571D01*
X96324809Y-80078571D02*
X96348619Y-80007142D01*
X96348619Y-80007142D02*
X96372428Y-79983333D01*
X96324809Y-79530952D02*
X96324809Y-79769047D01*
X96324809Y-79769047D02*
X96562904Y-79792856D01*
X96562904Y-79792856D02*
X96539095Y-79769047D01*
X96539095Y-79769047D02*
X96515285Y-79721428D01*
X96515285Y-79721428D02*
X96515285Y-79602380D01*
X96515285Y-79602380D02*
X96539095Y-79554761D01*
X96539095Y-79554761D02*
X96562904Y-79530952D01*
X96562904Y-79530952D02*
X96610523Y-79507142D01*
X96610523Y-79507142D02*
X96729571Y-79507142D01*
X96729571Y-79507142D02*
X96777190Y-79530952D01*
X96777190Y-79530952D02*
X96801000Y-79554761D01*
X96801000Y-79554761D02*
X96824809Y-79602380D01*
X96824809Y-79602380D02*
X96824809Y-79721428D01*
X96824809Y-79721428D02*
X96801000Y-79769047D01*
X96801000Y-79769047D02*
X96777190Y-79792856D01*
X98777190Y-79983333D02*
X98801000Y-80007142D01*
X98801000Y-80007142D02*
X98824809Y-80078571D01*
X98824809Y-80078571D02*
X98824809Y-80126190D01*
X98824809Y-80126190D02*
X98801000Y-80197618D01*
X98801000Y-80197618D02*
X98753380Y-80245237D01*
X98753380Y-80245237D02*
X98705761Y-80269047D01*
X98705761Y-80269047D02*
X98610523Y-80292856D01*
X98610523Y-80292856D02*
X98539095Y-80292856D01*
X98539095Y-80292856D02*
X98443857Y-80269047D01*
X98443857Y-80269047D02*
X98396238Y-80245237D01*
X98396238Y-80245237D02*
X98348619Y-80197618D01*
X98348619Y-80197618D02*
X98324809Y-80126190D01*
X98324809Y-80126190D02*
X98324809Y-80078571D01*
X98324809Y-80078571D02*
X98348619Y-80007142D01*
X98348619Y-80007142D02*
X98372428Y-79983333D01*
X98324809Y-79554761D02*
X98324809Y-79649999D01*
X98324809Y-79649999D02*
X98348619Y-79697618D01*
X98348619Y-79697618D02*
X98372428Y-79721428D01*
X98372428Y-79721428D02*
X98443857Y-79769047D01*
X98443857Y-79769047D02*
X98539095Y-79792856D01*
X98539095Y-79792856D02*
X98729571Y-79792856D01*
X98729571Y-79792856D02*
X98777190Y-79769047D01*
X98777190Y-79769047D02*
X98801000Y-79745237D01*
X98801000Y-79745237D02*
X98824809Y-79697618D01*
X98824809Y-79697618D02*
X98824809Y-79602380D01*
X98824809Y-79602380D02*
X98801000Y-79554761D01*
X98801000Y-79554761D02*
X98777190Y-79530952D01*
X98777190Y-79530952D02*
X98729571Y-79507142D01*
X98729571Y-79507142D02*
X98610523Y-79507142D01*
X98610523Y-79507142D02*
X98562904Y-79530952D01*
X98562904Y-79530952D02*
X98539095Y-79554761D01*
X98539095Y-79554761D02*
X98515285Y-79602380D01*
X98515285Y-79602380D02*
X98515285Y-79697618D01*
X98515285Y-79697618D02*
X98539095Y-79745237D01*
X98539095Y-79745237D02*
X98562904Y-79769047D01*
X98562904Y-79769047D02*
X98610523Y-79792856D01*
X89524809Y-79769047D02*
X89024809Y-79769047D01*
X89024809Y-79769047D02*
X89024809Y-79649999D01*
X89024809Y-79649999D02*
X89048619Y-79578571D01*
X89048619Y-79578571D02*
X89096238Y-79530952D01*
X89096238Y-79530952D02*
X89143857Y-79507142D01*
X89143857Y-79507142D02*
X89239095Y-79483333D01*
X89239095Y-79483333D02*
X89310523Y-79483333D01*
X89310523Y-79483333D02*
X89405761Y-79507142D01*
X89405761Y-79507142D02*
X89453380Y-79530952D01*
X89453380Y-79530952D02*
X89501000Y-79578571D01*
X89501000Y-79578571D02*
X89524809Y-79649999D01*
X89524809Y-79649999D02*
X89524809Y-79769047D01*
X89024809Y-79316666D02*
X89024809Y-78983333D01*
X89024809Y-78983333D02*
X89524809Y-79197618D01*
X100677190Y-79983333D02*
X100701000Y-80007142D01*
X100701000Y-80007142D02*
X100724809Y-80078571D01*
X100724809Y-80078571D02*
X100724809Y-80126190D01*
X100724809Y-80126190D02*
X100701000Y-80197618D01*
X100701000Y-80197618D02*
X100653380Y-80245237D01*
X100653380Y-80245237D02*
X100605761Y-80269047D01*
X100605761Y-80269047D02*
X100510523Y-80292856D01*
X100510523Y-80292856D02*
X100439095Y-80292856D01*
X100439095Y-80292856D02*
X100343857Y-80269047D01*
X100343857Y-80269047D02*
X100296238Y-80245237D01*
X100296238Y-80245237D02*
X100248619Y-80197618D01*
X100248619Y-80197618D02*
X100224809Y-80126190D01*
X100224809Y-80126190D02*
X100224809Y-80078571D01*
X100224809Y-80078571D02*
X100248619Y-80007142D01*
X100248619Y-80007142D02*
X100272428Y-79983333D01*
X100224809Y-79816666D02*
X100224809Y-79483333D01*
X100224809Y-79483333D02*
X100724809Y-79697618D01*
X91924809Y-79769047D02*
X91424809Y-79769047D01*
X91424809Y-79769047D02*
X91424809Y-79649999D01*
X91424809Y-79649999D02*
X91448619Y-79578571D01*
X91448619Y-79578571D02*
X91496238Y-79530952D01*
X91496238Y-79530952D02*
X91543857Y-79507142D01*
X91543857Y-79507142D02*
X91639095Y-79483333D01*
X91639095Y-79483333D02*
X91710523Y-79483333D01*
X91710523Y-79483333D02*
X91805761Y-79507142D01*
X91805761Y-79507142D02*
X91853380Y-79530952D01*
X91853380Y-79530952D02*
X91901000Y-79578571D01*
X91901000Y-79578571D02*
X91924809Y-79649999D01*
X91924809Y-79649999D02*
X91924809Y-79769047D01*
X91639095Y-79197618D02*
X91615285Y-79245237D01*
X91615285Y-79245237D02*
X91591476Y-79269047D01*
X91591476Y-79269047D02*
X91543857Y-79292856D01*
X91543857Y-79292856D02*
X91520047Y-79292856D01*
X91520047Y-79292856D02*
X91472428Y-79269047D01*
X91472428Y-79269047D02*
X91448619Y-79245237D01*
X91448619Y-79245237D02*
X91424809Y-79197618D01*
X91424809Y-79197618D02*
X91424809Y-79102380D01*
X91424809Y-79102380D02*
X91448619Y-79054761D01*
X91448619Y-79054761D02*
X91472428Y-79030952D01*
X91472428Y-79030952D02*
X91520047Y-79007142D01*
X91520047Y-79007142D02*
X91543857Y-79007142D01*
X91543857Y-79007142D02*
X91591476Y-79030952D01*
X91591476Y-79030952D02*
X91615285Y-79054761D01*
X91615285Y-79054761D02*
X91639095Y-79102380D01*
X91639095Y-79102380D02*
X91639095Y-79197618D01*
X91639095Y-79197618D02*
X91662904Y-79245237D01*
X91662904Y-79245237D02*
X91686714Y-79269047D01*
X91686714Y-79269047D02*
X91734333Y-79292856D01*
X91734333Y-79292856D02*
X91829571Y-79292856D01*
X91829571Y-79292856D02*
X91877190Y-79269047D01*
X91877190Y-79269047D02*
X91901000Y-79245237D01*
X91901000Y-79245237D02*
X91924809Y-79197618D01*
X91924809Y-79197618D02*
X91924809Y-79102380D01*
X91924809Y-79102380D02*
X91901000Y-79054761D01*
X91901000Y-79054761D02*
X91877190Y-79030952D01*
X91877190Y-79030952D02*
X91829571Y-79007142D01*
X91829571Y-79007142D02*
X91734333Y-79007142D01*
X91734333Y-79007142D02*
X91686714Y-79030952D01*
X91686714Y-79030952D02*
X91662904Y-79054761D01*
X91662904Y-79054761D02*
X91639095Y-79102380D01*
X94677190Y-80003333D02*
X94701000Y-80027142D01*
X94701000Y-80027142D02*
X94724809Y-80098571D01*
X94724809Y-80098571D02*
X94724809Y-80146190D01*
X94724809Y-80146190D02*
X94701000Y-80217618D01*
X94701000Y-80217618D02*
X94653380Y-80265237D01*
X94653380Y-80265237D02*
X94605761Y-80289047D01*
X94605761Y-80289047D02*
X94510523Y-80312856D01*
X94510523Y-80312856D02*
X94439095Y-80312856D01*
X94439095Y-80312856D02*
X94343857Y-80289047D01*
X94343857Y-80289047D02*
X94296238Y-80265237D01*
X94296238Y-80265237D02*
X94248619Y-80217618D01*
X94248619Y-80217618D02*
X94224809Y-80146190D01*
X94224809Y-80146190D02*
X94224809Y-80098571D01*
X94224809Y-80098571D02*
X94248619Y-80027142D01*
X94248619Y-80027142D02*
X94272428Y-80003333D01*
X94272428Y-79812856D02*
X94248619Y-79789047D01*
X94248619Y-79789047D02*
X94224809Y-79741428D01*
X94224809Y-79741428D02*
X94224809Y-79622380D01*
X94224809Y-79622380D02*
X94248619Y-79574761D01*
X94248619Y-79574761D02*
X94272428Y-79550952D01*
X94272428Y-79550952D02*
X94320047Y-79527142D01*
X94320047Y-79527142D02*
X94367666Y-79527142D01*
X94367666Y-79527142D02*
X94439095Y-79550952D01*
X94439095Y-79550952D02*
X94724809Y-79836666D01*
X94724809Y-79836666D02*
X94724809Y-79527142D01*
X105687190Y-80201428D02*
X105711000Y-80225237D01*
X105711000Y-80225237D02*
X105734809Y-80296666D01*
X105734809Y-80296666D02*
X105734809Y-80344285D01*
X105734809Y-80344285D02*
X105711000Y-80415713D01*
X105711000Y-80415713D02*
X105663380Y-80463332D01*
X105663380Y-80463332D02*
X105615761Y-80487142D01*
X105615761Y-80487142D02*
X105520523Y-80510951D01*
X105520523Y-80510951D02*
X105449095Y-80510951D01*
X105449095Y-80510951D02*
X105353857Y-80487142D01*
X105353857Y-80487142D02*
X105306238Y-80463332D01*
X105306238Y-80463332D02*
X105258619Y-80415713D01*
X105258619Y-80415713D02*
X105234809Y-80344285D01*
X105234809Y-80344285D02*
X105234809Y-80296666D01*
X105234809Y-80296666D02*
X105258619Y-80225237D01*
X105258619Y-80225237D02*
X105282428Y-80201428D01*
X105734809Y-79725237D02*
X105734809Y-80010951D01*
X105734809Y-79868094D02*
X105234809Y-79868094D01*
X105234809Y-79868094D02*
X105306238Y-79915713D01*
X105306238Y-79915713D02*
X105353857Y-79963332D01*
X105353857Y-79963332D02*
X105377666Y-80010951D01*
X105401476Y-79296666D02*
X105734809Y-79296666D01*
X105211000Y-79415714D02*
X105568142Y-79534761D01*
X105568142Y-79534761D02*
X105568142Y-79225238D01*
X81974809Y-79769047D02*
X81474809Y-79769047D01*
X81474809Y-79769047D02*
X81474809Y-79649999D01*
X81474809Y-79649999D02*
X81498619Y-79578571D01*
X81498619Y-79578571D02*
X81546238Y-79530952D01*
X81546238Y-79530952D02*
X81593857Y-79507142D01*
X81593857Y-79507142D02*
X81689095Y-79483333D01*
X81689095Y-79483333D02*
X81760523Y-79483333D01*
X81760523Y-79483333D02*
X81855761Y-79507142D01*
X81855761Y-79507142D02*
X81903380Y-79530952D01*
X81903380Y-79530952D02*
X81951000Y-79578571D01*
X81951000Y-79578571D02*
X81974809Y-79649999D01*
X81974809Y-79649999D02*
X81974809Y-79769047D01*
X81641476Y-79054761D02*
X81974809Y-79054761D01*
X81451000Y-79173809D02*
X81808142Y-79292856D01*
X81808142Y-79292856D02*
X81808142Y-78983333D01*
X83078571Y-73424809D02*
X82911905Y-73186714D01*
X82792857Y-73424809D02*
X82792857Y-72924809D01*
X82792857Y-72924809D02*
X82983333Y-72924809D01*
X82983333Y-72924809D02*
X83030952Y-72948619D01*
X83030952Y-72948619D02*
X83054762Y-72972428D01*
X83054762Y-72972428D02*
X83078571Y-73020047D01*
X83078571Y-73020047D02*
X83078571Y-73091476D01*
X83078571Y-73091476D02*
X83054762Y-73139095D01*
X83054762Y-73139095D02*
X83030952Y-73162904D01*
X83030952Y-73162904D02*
X82983333Y-73186714D01*
X82983333Y-73186714D02*
X82792857Y-73186714D01*
X83269048Y-72972428D02*
X83292857Y-72948619D01*
X83292857Y-72948619D02*
X83340476Y-72924809D01*
X83340476Y-72924809D02*
X83459524Y-72924809D01*
X83459524Y-72924809D02*
X83507143Y-72948619D01*
X83507143Y-72948619D02*
X83530952Y-72972428D01*
X83530952Y-72972428D02*
X83554762Y-73020047D01*
X83554762Y-73020047D02*
X83554762Y-73067666D01*
X83554762Y-73067666D02*
X83530952Y-73139095D01*
X83530952Y-73139095D02*
X83245238Y-73424809D01*
X83245238Y-73424809D02*
X83554762Y-73424809D01*
X83983333Y-72924809D02*
X83888095Y-72924809D01*
X83888095Y-72924809D02*
X83840476Y-72948619D01*
X83840476Y-72948619D02*
X83816666Y-72972428D01*
X83816666Y-72972428D02*
X83769047Y-73043857D01*
X83769047Y-73043857D02*
X83745238Y-73139095D01*
X83745238Y-73139095D02*
X83745238Y-73329571D01*
X83745238Y-73329571D02*
X83769047Y-73377190D01*
X83769047Y-73377190D02*
X83792857Y-73401000D01*
X83792857Y-73401000D02*
X83840476Y-73424809D01*
X83840476Y-73424809D02*
X83935714Y-73424809D01*
X83935714Y-73424809D02*
X83983333Y-73401000D01*
X83983333Y-73401000D02*
X84007142Y-73377190D01*
X84007142Y-73377190D02*
X84030952Y-73329571D01*
X84030952Y-73329571D02*
X84030952Y-73210523D01*
X84030952Y-73210523D02*
X84007142Y-73162904D01*
X84007142Y-73162904D02*
X83983333Y-73139095D01*
X83983333Y-73139095D02*
X83935714Y-73115285D01*
X83935714Y-73115285D02*
X83840476Y-73115285D01*
X83840476Y-73115285D02*
X83792857Y-73139095D01*
X83792857Y-73139095D02*
X83769047Y-73162904D01*
X83769047Y-73162904D02*
X83745238Y-73210523D01*
X85978571Y-73324809D02*
X85811905Y-73086714D01*
X85692857Y-73324809D02*
X85692857Y-72824809D01*
X85692857Y-72824809D02*
X85883333Y-72824809D01*
X85883333Y-72824809D02*
X85930952Y-72848619D01*
X85930952Y-72848619D02*
X85954762Y-72872428D01*
X85954762Y-72872428D02*
X85978571Y-72920047D01*
X85978571Y-72920047D02*
X85978571Y-72991476D01*
X85978571Y-72991476D02*
X85954762Y-73039095D01*
X85954762Y-73039095D02*
X85930952Y-73062904D01*
X85930952Y-73062904D02*
X85883333Y-73086714D01*
X85883333Y-73086714D02*
X85692857Y-73086714D01*
X86169048Y-72872428D02*
X86192857Y-72848619D01*
X86192857Y-72848619D02*
X86240476Y-72824809D01*
X86240476Y-72824809D02*
X86359524Y-72824809D01*
X86359524Y-72824809D02*
X86407143Y-72848619D01*
X86407143Y-72848619D02*
X86430952Y-72872428D01*
X86430952Y-72872428D02*
X86454762Y-72920047D01*
X86454762Y-72920047D02*
X86454762Y-72967666D01*
X86454762Y-72967666D02*
X86430952Y-73039095D01*
X86430952Y-73039095D02*
X86145238Y-73324809D01*
X86145238Y-73324809D02*
X86454762Y-73324809D01*
X86907142Y-72824809D02*
X86669047Y-72824809D01*
X86669047Y-72824809D02*
X86645238Y-73062904D01*
X86645238Y-73062904D02*
X86669047Y-73039095D01*
X86669047Y-73039095D02*
X86716666Y-73015285D01*
X86716666Y-73015285D02*
X86835714Y-73015285D01*
X86835714Y-73015285D02*
X86883333Y-73039095D01*
X86883333Y-73039095D02*
X86907142Y-73062904D01*
X86907142Y-73062904D02*
X86930952Y-73110523D01*
X86930952Y-73110523D02*
X86930952Y-73229571D01*
X86930952Y-73229571D02*
X86907142Y-73277190D01*
X86907142Y-73277190D02*
X86883333Y-73301000D01*
X86883333Y-73301000D02*
X86835714Y-73324809D01*
X86835714Y-73324809D02*
X86716666Y-73324809D01*
X86716666Y-73324809D02*
X86669047Y-73301000D01*
X86669047Y-73301000D02*
X86645238Y-73277190D01*
X87024809Y-79769047D02*
X86524809Y-79769047D01*
X86524809Y-79769047D02*
X86524809Y-79649999D01*
X86524809Y-79649999D02*
X86548619Y-79578571D01*
X86548619Y-79578571D02*
X86596238Y-79530952D01*
X86596238Y-79530952D02*
X86643857Y-79507142D01*
X86643857Y-79507142D02*
X86739095Y-79483333D01*
X86739095Y-79483333D02*
X86810523Y-79483333D01*
X86810523Y-79483333D02*
X86905761Y-79507142D01*
X86905761Y-79507142D02*
X86953380Y-79530952D01*
X86953380Y-79530952D02*
X87001000Y-79578571D01*
X87001000Y-79578571D02*
X87024809Y-79649999D01*
X87024809Y-79649999D02*
X87024809Y-79769047D01*
X86524809Y-79054761D02*
X86524809Y-79149999D01*
X86524809Y-79149999D02*
X86548619Y-79197618D01*
X86548619Y-79197618D02*
X86572428Y-79221428D01*
X86572428Y-79221428D02*
X86643857Y-79269047D01*
X86643857Y-79269047D02*
X86739095Y-79292856D01*
X86739095Y-79292856D02*
X86929571Y-79292856D01*
X86929571Y-79292856D02*
X86977190Y-79269047D01*
X86977190Y-79269047D02*
X87001000Y-79245237D01*
X87001000Y-79245237D02*
X87024809Y-79197618D01*
X87024809Y-79197618D02*
X87024809Y-79102380D01*
X87024809Y-79102380D02*
X87001000Y-79054761D01*
X87001000Y-79054761D02*
X86977190Y-79030952D01*
X86977190Y-79030952D02*
X86929571Y-79007142D01*
X86929571Y-79007142D02*
X86810523Y-79007142D01*
X86810523Y-79007142D02*
X86762904Y-79030952D01*
X86762904Y-79030952D02*
X86739095Y-79054761D01*
X86739095Y-79054761D02*
X86715285Y-79102380D01*
X86715285Y-79102380D02*
X86715285Y-79197618D01*
X86715285Y-79197618D02*
X86739095Y-79245237D01*
X86739095Y-79245237D02*
X86762904Y-79269047D01*
X86762904Y-79269047D02*
X86810523Y-79292856D01*
X84624809Y-79769047D02*
X84124809Y-79769047D01*
X84124809Y-79769047D02*
X84124809Y-79649999D01*
X84124809Y-79649999D02*
X84148619Y-79578571D01*
X84148619Y-79578571D02*
X84196238Y-79530952D01*
X84196238Y-79530952D02*
X84243857Y-79507142D01*
X84243857Y-79507142D02*
X84339095Y-79483333D01*
X84339095Y-79483333D02*
X84410523Y-79483333D01*
X84410523Y-79483333D02*
X84505761Y-79507142D01*
X84505761Y-79507142D02*
X84553380Y-79530952D01*
X84553380Y-79530952D02*
X84601000Y-79578571D01*
X84601000Y-79578571D02*
X84624809Y-79649999D01*
X84624809Y-79649999D02*
X84624809Y-79769047D01*
X84124809Y-79030952D02*
X84124809Y-79269047D01*
X84124809Y-79269047D02*
X84362904Y-79292856D01*
X84362904Y-79292856D02*
X84339095Y-79269047D01*
X84339095Y-79269047D02*
X84315285Y-79221428D01*
X84315285Y-79221428D02*
X84315285Y-79102380D01*
X84315285Y-79102380D02*
X84339095Y-79054761D01*
X84339095Y-79054761D02*
X84362904Y-79030952D01*
X84362904Y-79030952D02*
X84410523Y-79007142D01*
X84410523Y-79007142D02*
X84529571Y-79007142D01*
X84529571Y-79007142D02*
X84577190Y-79030952D01*
X84577190Y-79030952D02*
X84601000Y-79054761D01*
X84601000Y-79054761D02*
X84624809Y-79102380D01*
X84624809Y-79102380D02*
X84624809Y-79221428D01*
X84624809Y-79221428D02*
X84601000Y-79269047D01*
X84601000Y-79269047D02*
X84577190Y-79292856D01*
X79502380Y-72022428D02*
X79454761Y-71998619D01*
X79454761Y-71998619D02*
X79407142Y-71951000D01*
X79407142Y-71951000D02*
X79335714Y-71879571D01*
X79335714Y-71879571D02*
X79288095Y-71855761D01*
X79288095Y-71855761D02*
X79240476Y-71855761D01*
X79264285Y-71974809D02*
X79216666Y-71951000D01*
X79216666Y-71951000D02*
X79169047Y-71903380D01*
X79169047Y-71903380D02*
X79145238Y-71808142D01*
X79145238Y-71808142D02*
X79145238Y-71641476D01*
X79145238Y-71641476D02*
X79169047Y-71546238D01*
X79169047Y-71546238D02*
X79216666Y-71498619D01*
X79216666Y-71498619D02*
X79264285Y-71474809D01*
X79264285Y-71474809D02*
X79359523Y-71474809D01*
X79359523Y-71474809D02*
X79407142Y-71498619D01*
X79407142Y-71498619D02*
X79454761Y-71546238D01*
X79454761Y-71546238D02*
X79478571Y-71641476D01*
X79478571Y-71641476D02*
X79478571Y-71808142D01*
X79478571Y-71808142D02*
X79454761Y-71903380D01*
X79454761Y-71903380D02*
X79407142Y-71951000D01*
X79407142Y-71951000D02*
X79359523Y-71974809D01*
X79359523Y-71974809D02*
X79264285Y-71974809D01*
X79907143Y-71641476D02*
X79907143Y-71974809D01*
X79788095Y-71451000D02*
X79669048Y-71808142D01*
X79669048Y-71808142D02*
X79978571Y-71808142D01*
X83502380Y-72022428D02*
X83454761Y-71998619D01*
X83454761Y-71998619D02*
X83407142Y-71951000D01*
X83407142Y-71951000D02*
X83335714Y-71879571D01*
X83335714Y-71879571D02*
X83288095Y-71855761D01*
X83288095Y-71855761D02*
X83240476Y-71855761D01*
X83264285Y-71974809D02*
X83216666Y-71951000D01*
X83216666Y-71951000D02*
X83169047Y-71903380D01*
X83169047Y-71903380D02*
X83145238Y-71808142D01*
X83145238Y-71808142D02*
X83145238Y-71641476D01*
X83145238Y-71641476D02*
X83169047Y-71546238D01*
X83169047Y-71546238D02*
X83216666Y-71498619D01*
X83216666Y-71498619D02*
X83264285Y-71474809D01*
X83264285Y-71474809D02*
X83359523Y-71474809D01*
X83359523Y-71474809D02*
X83407142Y-71498619D01*
X83407142Y-71498619D02*
X83454761Y-71546238D01*
X83454761Y-71546238D02*
X83478571Y-71641476D01*
X83478571Y-71641476D02*
X83478571Y-71808142D01*
X83478571Y-71808142D02*
X83454761Y-71903380D01*
X83454761Y-71903380D02*
X83407142Y-71951000D01*
X83407142Y-71951000D02*
X83359523Y-71974809D01*
X83359523Y-71974809D02*
X83264285Y-71974809D01*
X83645238Y-71474809D02*
X83954762Y-71474809D01*
X83954762Y-71474809D02*
X83788095Y-71665285D01*
X83788095Y-71665285D02*
X83859524Y-71665285D01*
X83859524Y-71665285D02*
X83907143Y-71689095D01*
X83907143Y-71689095D02*
X83930952Y-71712904D01*
X83930952Y-71712904D02*
X83954762Y-71760523D01*
X83954762Y-71760523D02*
X83954762Y-71879571D01*
X83954762Y-71879571D02*
X83930952Y-71927190D01*
X83930952Y-71927190D02*
X83907143Y-71951000D01*
X83907143Y-71951000D02*
X83859524Y-71974809D01*
X83859524Y-71974809D02*
X83716667Y-71974809D01*
X83716667Y-71974809D02*
X83669048Y-71951000D01*
X83669048Y-71951000D02*
X83645238Y-71927190D01*
X78530952Y-74412309D02*
X78530952Y-73912309D01*
X78530952Y-73912309D02*
X78650000Y-73912309D01*
X78650000Y-73912309D02*
X78721428Y-73936119D01*
X78721428Y-73936119D02*
X78769047Y-73983738D01*
X78769047Y-73983738D02*
X78792857Y-74031357D01*
X78792857Y-74031357D02*
X78816666Y-74126595D01*
X78816666Y-74126595D02*
X78816666Y-74198023D01*
X78816666Y-74198023D02*
X78792857Y-74293261D01*
X78792857Y-74293261D02*
X78769047Y-74340880D01*
X78769047Y-74340880D02*
X78721428Y-74388500D01*
X78721428Y-74388500D02*
X78650000Y-74412309D01*
X78650000Y-74412309D02*
X78530952Y-74412309D01*
X79292857Y-74412309D02*
X79007143Y-74412309D01*
X79150000Y-74412309D02*
X79150000Y-73912309D01*
X79150000Y-73912309D02*
X79102381Y-73983738D01*
X79102381Y-73983738D02*
X79054762Y-74031357D01*
X79054762Y-74031357D02*
X79007143Y-74055166D01*
X87452380Y-70972428D02*
X87404761Y-70948619D01*
X87404761Y-70948619D02*
X87357142Y-70901000D01*
X87357142Y-70901000D02*
X87285714Y-70829571D01*
X87285714Y-70829571D02*
X87238095Y-70805761D01*
X87238095Y-70805761D02*
X87190476Y-70805761D01*
X87214285Y-70924809D02*
X87166666Y-70901000D01*
X87166666Y-70901000D02*
X87119047Y-70853380D01*
X87119047Y-70853380D02*
X87095238Y-70758142D01*
X87095238Y-70758142D02*
X87095238Y-70591476D01*
X87095238Y-70591476D02*
X87119047Y-70496238D01*
X87119047Y-70496238D02*
X87166666Y-70448619D01*
X87166666Y-70448619D02*
X87214285Y-70424809D01*
X87214285Y-70424809D02*
X87309523Y-70424809D01*
X87309523Y-70424809D02*
X87357142Y-70448619D01*
X87357142Y-70448619D02*
X87404761Y-70496238D01*
X87404761Y-70496238D02*
X87428571Y-70591476D01*
X87428571Y-70591476D02*
X87428571Y-70758142D01*
X87428571Y-70758142D02*
X87404761Y-70853380D01*
X87404761Y-70853380D02*
X87357142Y-70901000D01*
X87357142Y-70901000D02*
X87309523Y-70924809D01*
X87309523Y-70924809D02*
X87214285Y-70924809D01*
X87619048Y-70472428D02*
X87642857Y-70448619D01*
X87642857Y-70448619D02*
X87690476Y-70424809D01*
X87690476Y-70424809D02*
X87809524Y-70424809D01*
X87809524Y-70424809D02*
X87857143Y-70448619D01*
X87857143Y-70448619D02*
X87880952Y-70472428D01*
X87880952Y-70472428D02*
X87904762Y-70520047D01*
X87904762Y-70520047D02*
X87904762Y-70567666D01*
X87904762Y-70567666D02*
X87880952Y-70639095D01*
X87880952Y-70639095D02*
X87595238Y-70924809D01*
X87595238Y-70924809D02*
X87904762Y-70924809D01*
X77152380Y-68072428D02*
X77104761Y-68048619D01*
X77104761Y-68048619D02*
X77057142Y-68001000D01*
X77057142Y-68001000D02*
X76985714Y-67929571D01*
X76985714Y-67929571D02*
X76938095Y-67905761D01*
X76938095Y-67905761D02*
X76890476Y-67905761D01*
X76914285Y-68024809D02*
X76866666Y-68001000D01*
X76866666Y-68001000D02*
X76819047Y-67953380D01*
X76819047Y-67953380D02*
X76795238Y-67858142D01*
X76795238Y-67858142D02*
X76795238Y-67691476D01*
X76795238Y-67691476D02*
X76819047Y-67596238D01*
X76819047Y-67596238D02*
X76866666Y-67548619D01*
X76866666Y-67548619D02*
X76914285Y-67524809D01*
X76914285Y-67524809D02*
X77009523Y-67524809D01*
X77009523Y-67524809D02*
X77057142Y-67548619D01*
X77057142Y-67548619D02*
X77104761Y-67596238D01*
X77104761Y-67596238D02*
X77128571Y-67691476D01*
X77128571Y-67691476D02*
X77128571Y-67858142D01*
X77128571Y-67858142D02*
X77104761Y-67953380D01*
X77104761Y-67953380D02*
X77057142Y-68001000D01*
X77057142Y-68001000D02*
X77009523Y-68024809D01*
X77009523Y-68024809D02*
X76914285Y-68024809D01*
X77438095Y-67524809D02*
X77485714Y-67524809D01*
X77485714Y-67524809D02*
X77533333Y-67548619D01*
X77533333Y-67548619D02*
X77557143Y-67572428D01*
X77557143Y-67572428D02*
X77580952Y-67620047D01*
X77580952Y-67620047D02*
X77604762Y-67715285D01*
X77604762Y-67715285D02*
X77604762Y-67834333D01*
X77604762Y-67834333D02*
X77580952Y-67929571D01*
X77580952Y-67929571D02*
X77557143Y-67977190D01*
X77557143Y-67977190D02*
X77533333Y-68001000D01*
X77533333Y-68001000D02*
X77485714Y-68024809D01*
X77485714Y-68024809D02*
X77438095Y-68024809D01*
X77438095Y-68024809D02*
X77390476Y-68001000D01*
X77390476Y-68001000D02*
X77366667Y-67977190D01*
X77366667Y-67977190D02*
X77342857Y-67929571D01*
X77342857Y-67929571D02*
X77319048Y-67834333D01*
X77319048Y-67834333D02*
X77319048Y-67715285D01*
X77319048Y-67715285D02*
X77342857Y-67620047D01*
X77342857Y-67620047D02*
X77366667Y-67572428D01*
X77366667Y-67572428D02*
X77390476Y-67548619D01*
X77390476Y-67548619D02*
X77438095Y-67524809D01*
X81152380Y-68072428D02*
X81104761Y-68048619D01*
X81104761Y-68048619D02*
X81057142Y-68001000D01*
X81057142Y-68001000D02*
X80985714Y-67929571D01*
X80985714Y-67929571D02*
X80938095Y-67905761D01*
X80938095Y-67905761D02*
X80890476Y-67905761D01*
X80914285Y-68024809D02*
X80866666Y-68001000D01*
X80866666Y-68001000D02*
X80819047Y-67953380D01*
X80819047Y-67953380D02*
X80795238Y-67858142D01*
X80795238Y-67858142D02*
X80795238Y-67691476D01*
X80795238Y-67691476D02*
X80819047Y-67596238D01*
X80819047Y-67596238D02*
X80866666Y-67548619D01*
X80866666Y-67548619D02*
X80914285Y-67524809D01*
X80914285Y-67524809D02*
X81009523Y-67524809D01*
X81009523Y-67524809D02*
X81057142Y-67548619D01*
X81057142Y-67548619D02*
X81104761Y-67596238D01*
X81104761Y-67596238D02*
X81128571Y-67691476D01*
X81128571Y-67691476D02*
X81128571Y-67858142D01*
X81128571Y-67858142D02*
X81104761Y-67953380D01*
X81104761Y-67953380D02*
X81057142Y-68001000D01*
X81057142Y-68001000D02*
X81009523Y-68024809D01*
X81009523Y-68024809D02*
X80914285Y-68024809D01*
X81604762Y-68024809D02*
X81319048Y-68024809D01*
X81461905Y-68024809D02*
X81461905Y-67524809D01*
X81461905Y-67524809D02*
X81414286Y-67596238D01*
X81414286Y-67596238D02*
X81366667Y-67643857D01*
X81366667Y-67643857D02*
X81319048Y-67667666D01*
X113991071Y-69974809D02*
X113824405Y-69736714D01*
X113705357Y-69974809D02*
X113705357Y-69474809D01*
X113705357Y-69474809D02*
X113895833Y-69474809D01*
X113895833Y-69474809D02*
X113943452Y-69498619D01*
X113943452Y-69498619D02*
X113967262Y-69522428D01*
X113967262Y-69522428D02*
X113991071Y-69570047D01*
X113991071Y-69570047D02*
X113991071Y-69641476D01*
X113991071Y-69641476D02*
X113967262Y-69689095D01*
X113967262Y-69689095D02*
X113943452Y-69712904D01*
X113943452Y-69712904D02*
X113895833Y-69736714D01*
X113895833Y-69736714D02*
X113705357Y-69736714D01*
X114181548Y-69522428D02*
X114205357Y-69498619D01*
X114205357Y-69498619D02*
X114252976Y-69474809D01*
X114252976Y-69474809D02*
X114372024Y-69474809D01*
X114372024Y-69474809D02*
X114419643Y-69498619D01*
X114419643Y-69498619D02*
X114443452Y-69522428D01*
X114443452Y-69522428D02*
X114467262Y-69570047D01*
X114467262Y-69570047D02*
X114467262Y-69617666D01*
X114467262Y-69617666D02*
X114443452Y-69689095D01*
X114443452Y-69689095D02*
X114157738Y-69974809D01*
X114157738Y-69974809D02*
X114467262Y-69974809D01*
X114633928Y-69474809D02*
X114967261Y-69474809D01*
X114967261Y-69474809D02*
X114752976Y-69974809D01*
X109091071Y-77777190D02*
X109067262Y-77801000D01*
X109067262Y-77801000D02*
X108995833Y-77824809D01*
X108995833Y-77824809D02*
X108948214Y-77824809D01*
X108948214Y-77824809D02*
X108876786Y-77801000D01*
X108876786Y-77801000D02*
X108829167Y-77753380D01*
X108829167Y-77753380D02*
X108805357Y-77705761D01*
X108805357Y-77705761D02*
X108781548Y-77610523D01*
X108781548Y-77610523D02*
X108781548Y-77539095D01*
X108781548Y-77539095D02*
X108805357Y-77443857D01*
X108805357Y-77443857D02*
X108829167Y-77396238D01*
X108829167Y-77396238D02*
X108876786Y-77348619D01*
X108876786Y-77348619D02*
X108948214Y-77324809D01*
X108948214Y-77324809D02*
X108995833Y-77324809D01*
X108995833Y-77324809D02*
X109067262Y-77348619D01*
X109067262Y-77348619D02*
X109091071Y-77372428D01*
X109567262Y-77824809D02*
X109281548Y-77824809D01*
X109424405Y-77824809D02*
X109424405Y-77324809D01*
X109424405Y-77324809D02*
X109376786Y-77396238D01*
X109376786Y-77396238D02*
X109329167Y-77443857D01*
X109329167Y-77443857D02*
X109281548Y-77467666D01*
X110019642Y-77324809D02*
X109781547Y-77324809D01*
X109781547Y-77324809D02*
X109757738Y-77562904D01*
X109757738Y-77562904D02*
X109781547Y-77539095D01*
X109781547Y-77539095D02*
X109829166Y-77515285D01*
X109829166Y-77515285D02*
X109948214Y-77515285D01*
X109948214Y-77515285D02*
X109995833Y-77539095D01*
X109995833Y-77539095D02*
X110019642Y-77562904D01*
X110019642Y-77562904D02*
X110043452Y-77610523D01*
X110043452Y-77610523D02*
X110043452Y-77729571D01*
X110043452Y-77729571D02*
X110019642Y-77777190D01*
X110019642Y-77777190D02*
X109995833Y-77801000D01*
X109995833Y-77801000D02*
X109948214Y-77824809D01*
X109948214Y-77824809D02*
X109829166Y-77824809D01*
X109829166Y-77824809D02*
X109781547Y-77801000D01*
X109781547Y-77801000D02*
X109757738Y-77777190D01*
X110843452Y-78224809D02*
X110843452Y-77724809D01*
X110843452Y-77724809D02*
X110962500Y-77724809D01*
X110962500Y-77724809D02*
X111033928Y-77748619D01*
X111033928Y-77748619D02*
X111081547Y-77796238D01*
X111081547Y-77796238D02*
X111105357Y-77843857D01*
X111105357Y-77843857D02*
X111129166Y-77939095D01*
X111129166Y-77939095D02*
X111129166Y-78010523D01*
X111129166Y-78010523D02*
X111105357Y-78105761D01*
X111105357Y-78105761D02*
X111081547Y-78153380D01*
X111081547Y-78153380D02*
X111033928Y-78201000D01*
X111033928Y-78201000D02*
X110962500Y-78224809D01*
X110962500Y-78224809D02*
X110843452Y-78224809D01*
X111367262Y-78224809D02*
X111462500Y-78224809D01*
X111462500Y-78224809D02*
X111510119Y-78201000D01*
X111510119Y-78201000D02*
X111533928Y-78177190D01*
X111533928Y-78177190D02*
X111581547Y-78105761D01*
X111581547Y-78105761D02*
X111605357Y-78010523D01*
X111605357Y-78010523D02*
X111605357Y-77820047D01*
X111605357Y-77820047D02*
X111581547Y-77772428D01*
X111581547Y-77772428D02*
X111557738Y-77748619D01*
X111557738Y-77748619D02*
X111510119Y-77724809D01*
X111510119Y-77724809D02*
X111414881Y-77724809D01*
X111414881Y-77724809D02*
X111367262Y-77748619D01*
X111367262Y-77748619D02*
X111343452Y-77772428D01*
X111343452Y-77772428D02*
X111319643Y-77820047D01*
X111319643Y-77820047D02*
X111319643Y-77939095D01*
X111319643Y-77939095D02*
X111343452Y-77986714D01*
X111343452Y-77986714D02*
X111367262Y-78010523D01*
X111367262Y-78010523D02*
X111414881Y-78034333D01*
X111414881Y-78034333D02*
X111510119Y-78034333D01*
X111510119Y-78034333D02*
X111557738Y-78010523D01*
X111557738Y-78010523D02*
X111581547Y-77986714D01*
X111581547Y-77986714D02*
X111605357Y-77939095D01*
X109752380Y-69487428D02*
X109704761Y-69463619D01*
X109704761Y-69463619D02*
X109657142Y-69416000D01*
X109657142Y-69416000D02*
X109585714Y-69344571D01*
X109585714Y-69344571D02*
X109538095Y-69320761D01*
X109538095Y-69320761D02*
X109490476Y-69320761D01*
X109514285Y-69439809D02*
X109466666Y-69416000D01*
X109466666Y-69416000D02*
X109419047Y-69368380D01*
X109419047Y-69368380D02*
X109395238Y-69273142D01*
X109395238Y-69273142D02*
X109395238Y-69106476D01*
X109395238Y-69106476D02*
X109419047Y-69011238D01*
X109419047Y-69011238D02*
X109466666Y-68963619D01*
X109466666Y-68963619D02*
X109514285Y-68939809D01*
X109514285Y-68939809D02*
X109609523Y-68939809D01*
X109609523Y-68939809D02*
X109657142Y-68963619D01*
X109657142Y-68963619D02*
X109704761Y-69011238D01*
X109704761Y-69011238D02*
X109728571Y-69106476D01*
X109728571Y-69106476D02*
X109728571Y-69273142D01*
X109728571Y-69273142D02*
X109704761Y-69368380D01*
X109704761Y-69368380D02*
X109657142Y-69416000D01*
X109657142Y-69416000D02*
X109609523Y-69439809D01*
X109609523Y-69439809D02*
X109514285Y-69439809D01*
X110180952Y-68939809D02*
X109942857Y-68939809D01*
X109942857Y-68939809D02*
X109919048Y-69177904D01*
X109919048Y-69177904D02*
X109942857Y-69154095D01*
X109942857Y-69154095D02*
X109990476Y-69130285D01*
X109990476Y-69130285D02*
X110109524Y-69130285D01*
X110109524Y-69130285D02*
X110157143Y-69154095D01*
X110157143Y-69154095D02*
X110180952Y-69177904D01*
X110180952Y-69177904D02*
X110204762Y-69225523D01*
X110204762Y-69225523D02*
X110204762Y-69344571D01*
X110204762Y-69344571D02*
X110180952Y-69392190D01*
X110180952Y-69392190D02*
X110157143Y-69416000D01*
X110157143Y-69416000D02*
X110109524Y-69439809D01*
X110109524Y-69439809D02*
X109990476Y-69439809D01*
X109990476Y-69439809D02*
X109942857Y-69416000D01*
X109942857Y-69416000D02*
X109919048Y-69392190D01*
X117078571Y-74724809D02*
X116911905Y-74486714D01*
X116792857Y-74724809D02*
X116792857Y-74224809D01*
X116792857Y-74224809D02*
X116983333Y-74224809D01*
X116983333Y-74224809D02*
X117030952Y-74248619D01*
X117030952Y-74248619D02*
X117054762Y-74272428D01*
X117054762Y-74272428D02*
X117078571Y-74320047D01*
X117078571Y-74320047D02*
X117078571Y-74391476D01*
X117078571Y-74391476D02*
X117054762Y-74439095D01*
X117054762Y-74439095D02*
X117030952Y-74462904D01*
X117030952Y-74462904D02*
X116983333Y-74486714D01*
X116983333Y-74486714D02*
X116792857Y-74486714D01*
X117269048Y-74272428D02*
X117292857Y-74248619D01*
X117292857Y-74248619D02*
X117340476Y-74224809D01*
X117340476Y-74224809D02*
X117459524Y-74224809D01*
X117459524Y-74224809D02*
X117507143Y-74248619D01*
X117507143Y-74248619D02*
X117530952Y-74272428D01*
X117530952Y-74272428D02*
X117554762Y-74320047D01*
X117554762Y-74320047D02*
X117554762Y-74367666D01*
X117554762Y-74367666D02*
X117530952Y-74439095D01*
X117530952Y-74439095D02*
X117245238Y-74724809D01*
X117245238Y-74724809D02*
X117554762Y-74724809D01*
X117745238Y-74272428D02*
X117769047Y-74248619D01*
X117769047Y-74248619D02*
X117816666Y-74224809D01*
X117816666Y-74224809D02*
X117935714Y-74224809D01*
X117935714Y-74224809D02*
X117983333Y-74248619D01*
X117983333Y-74248619D02*
X118007142Y-74272428D01*
X118007142Y-74272428D02*
X118030952Y-74320047D01*
X118030952Y-74320047D02*
X118030952Y-74367666D01*
X118030952Y-74367666D02*
X118007142Y-74439095D01*
X118007142Y-74439095D02*
X117721428Y-74724809D01*
X117721428Y-74724809D02*
X118030952Y-74724809D01*
X123078571Y-74674809D02*
X122911905Y-74436714D01*
X122792857Y-74674809D02*
X122792857Y-74174809D01*
X122792857Y-74174809D02*
X122983333Y-74174809D01*
X122983333Y-74174809D02*
X123030952Y-74198619D01*
X123030952Y-74198619D02*
X123054762Y-74222428D01*
X123054762Y-74222428D02*
X123078571Y-74270047D01*
X123078571Y-74270047D02*
X123078571Y-74341476D01*
X123078571Y-74341476D02*
X123054762Y-74389095D01*
X123054762Y-74389095D02*
X123030952Y-74412904D01*
X123030952Y-74412904D02*
X122983333Y-74436714D01*
X122983333Y-74436714D02*
X122792857Y-74436714D01*
X123269048Y-74222428D02*
X123292857Y-74198619D01*
X123292857Y-74198619D02*
X123340476Y-74174809D01*
X123340476Y-74174809D02*
X123459524Y-74174809D01*
X123459524Y-74174809D02*
X123507143Y-74198619D01*
X123507143Y-74198619D02*
X123530952Y-74222428D01*
X123530952Y-74222428D02*
X123554762Y-74270047D01*
X123554762Y-74270047D02*
X123554762Y-74317666D01*
X123554762Y-74317666D02*
X123530952Y-74389095D01*
X123530952Y-74389095D02*
X123245238Y-74674809D01*
X123245238Y-74674809D02*
X123554762Y-74674809D01*
X123983333Y-74341476D02*
X123983333Y-74674809D01*
X123864285Y-74151000D02*
X123745238Y-74508142D01*
X123745238Y-74508142D02*
X124054761Y-74508142D01*
X120078571Y-74724809D02*
X119911905Y-74486714D01*
X119792857Y-74724809D02*
X119792857Y-74224809D01*
X119792857Y-74224809D02*
X119983333Y-74224809D01*
X119983333Y-74224809D02*
X120030952Y-74248619D01*
X120030952Y-74248619D02*
X120054762Y-74272428D01*
X120054762Y-74272428D02*
X120078571Y-74320047D01*
X120078571Y-74320047D02*
X120078571Y-74391476D01*
X120078571Y-74391476D02*
X120054762Y-74439095D01*
X120054762Y-74439095D02*
X120030952Y-74462904D01*
X120030952Y-74462904D02*
X119983333Y-74486714D01*
X119983333Y-74486714D02*
X119792857Y-74486714D01*
X120269048Y-74272428D02*
X120292857Y-74248619D01*
X120292857Y-74248619D02*
X120340476Y-74224809D01*
X120340476Y-74224809D02*
X120459524Y-74224809D01*
X120459524Y-74224809D02*
X120507143Y-74248619D01*
X120507143Y-74248619D02*
X120530952Y-74272428D01*
X120530952Y-74272428D02*
X120554762Y-74320047D01*
X120554762Y-74320047D02*
X120554762Y-74367666D01*
X120554762Y-74367666D02*
X120530952Y-74439095D01*
X120530952Y-74439095D02*
X120245238Y-74724809D01*
X120245238Y-74724809D02*
X120554762Y-74724809D01*
X120721428Y-74224809D02*
X121030952Y-74224809D01*
X121030952Y-74224809D02*
X120864285Y-74415285D01*
X120864285Y-74415285D02*
X120935714Y-74415285D01*
X120935714Y-74415285D02*
X120983333Y-74439095D01*
X120983333Y-74439095D02*
X121007142Y-74462904D01*
X121007142Y-74462904D02*
X121030952Y-74510523D01*
X121030952Y-74510523D02*
X121030952Y-74629571D01*
X121030952Y-74629571D02*
X121007142Y-74677190D01*
X121007142Y-74677190D02*
X120983333Y-74701000D01*
X120983333Y-74701000D02*
X120935714Y-74724809D01*
X120935714Y-74724809D02*
X120792857Y-74724809D01*
X120792857Y-74724809D02*
X120745238Y-74701000D01*
X120745238Y-74701000D02*
X120721428Y-74677190D01*
X76306119Y-60324404D02*
X77115642Y-60324404D01*
X77115642Y-60324404D02*
X77210880Y-60276785D01*
X77210880Y-60276785D02*
X77258500Y-60229166D01*
X77258500Y-60229166D02*
X77306119Y-60133928D01*
X77306119Y-60133928D02*
X77306119Y-59943452D01*
X77306119Y-59943452D02*
X77258500Y-59848214D01*
X77258500Y-59848214D02*
X77210880Y-59800595D01*
X77210880Y-59800595D02*
X77115642Y-59752976D01*
X77115642Y-59752976D02*
X76306119Y-59752976D01*
X76639452Y-58848214D02*
X77306119Y-58848214D01*
X76258500Y-59086309D02*
X76972785Y-59324404D01*
X76972785Y-59324404D02*
X76972785Y-58705357D01*
D11*
%TO.C,J14*%
X96670000Y-75020000D02*
X99320000Y-75020000D01*
X99320000Y-77780000D02*
X99320000Y-75020000D01*
X96670000Y-77780000D02*
X96670000Y-75020000D01*
X96670000Y-77780000D02*
X99320000Y-77780000D01*
X95400000Y-77780000D02*
X94020000Y-77780000D01*
X94020000Y-77780000D02*
X94020000Y-76400000D01*
%TO.C,J13*%
X96670000Y-71020000D02*
X99320000Y-71020000D01*
X99320000Y-73780000D02*
X99320000Y-71020000D01*
X96670000Y-73780000D02*
X96670000Y-71020000D01*
X96670000Y-73780000D02*
X99320000Y-73780000D01*
X95400000Y-73780000D02*
X94020000Y-73780000D01*
X94020000Y-73780000D02*
X94020000Y-72400000D01*
%TO.C,D7*%
X91000000Y-78700000D02*
X91000000Y-80660000D01*
X89800000Y-80660000D02*
X91000000Y-80660000D01*
X89800000Y-78700000D02*
X89800000Y-80660000D01*
%TO.C,D8*%
X93450000Y-78700000D02*
X93450000Y-80660000D01*
X92250000Y-80660000D02*
X93450000Y-80660000D01*
X92250000Y-78700000D02*
X92250000Y-80660000D01*
%TO.C,J15*%
X103670000Y-71020000D02*
X106320000Y-71020000D01*
X106320000Y-73780000D02*
X106320000Y-71020000D01*
X103670000Y-73780000D02*
X103670000Y-71020000D01*
X103670000Y-73780000D02*
X106320000Y-73780000D01*
X102400000Y-73780000D02*
X101020000Y-73780000D01*
X101020000Y-73780000D02*
X101020000Y-72400000D01*
%TO.C,J12*%
X92780000Y-73670000D02*
X92780000Y-76320000D01*
X90020000Y-76320000D02*
X92780000Y-76320000D01*
X90020000Y-73670000D02*
X92780000Y-73670000D01*
X90020000Y-73670000D02*
X90020000Y-76320000D01*
X90020000Y-72400000D02*
X90020000Y-71020000D01*
X90020000Y-71020000D02*
X91400000Y-71020000D01*
%TO.C,J16*%
X103670000Y-75020000D02*
X106320000Y-75020000D01*
X106320000Y-77780000D02*
X106320000Y-75020000D01*
X103670000Y-77780000D02*
X103670000Y-75020000D01*
X103670000Y-77780000D02*
X106320000Y-77780000D01*
X102400000Y-77780000D02*
X101020000Y-77780000D01*
X101020000Y-77780000D02*
X101020000Y-76400000D01*
%TO.C,D4*%
X83650000Y-78700000D02*
X83650000Y-80660000D01*
X82450000Y-80660000D02*
X83650000Y-80660000D01*
X82450000Y-78700000D02*
X82450000Y-80660000D01*
%TO.C,R26*%
X82665000Y-75085436D02*
X82665000Y-75539564D01*
X84135000Y-75085436D02*
X84135000Y-75539564D01*
%TO.C,R25*%
X85665000Y-75085436D02*
X85665000Y-75539564D01*
X87135000Y-75085436D02*
X87135000Y-75539564D01*
%TO.C,D6*%
X88550000Y-78700000D02*
X88550000Y-80660000D01*
X87350000Y-80660000D02*
X88550000Y-80660000D01*
X87350000Y-78700000D02*
X87350000Y-80660000D01*
%TO.C,D5*%
X86100000Y-78700000D02*
X86100000Y-80660000D01*
X84900000Y-80660000D02*
X86100000Y-80660000D01*
X84900000Y-78700000D02*
X84900000Y-80660000D01*
%TO.C,Q4*%
X78780000Y-69100000D02*
X78450000Y-69340000D01*
X78450000Y-68860000D01*
X78780000Y-69100000D01*
G36*
X78780000Y-69100000D02*
G01*
X78450000Y-69340000D01*
X78450000Y-68860000D01*
X78780000Y-69100000D01*
G37*
X76840000Y-71160000D02*
X76840000Y-69640000D01*
X77840000Y-71160000D02*
X76840000Y-71160000D01*
X79960000Y-71160000D02*
X78960000Y-71160000D01*
X76840000Y-69640000D02*
X76890000Y-69640000D01*
X78010000Y-69640000D02*
X78790000Y-69640000D01*
X79910000Y-69640000D02*
X79960000Y-69640000D01*
X79960000Y-69640000D02*
X79960000Y-71160000D01*
%TO.C,Q3*%
X82780000Y-69100000D02*
X82450000Y-69340000D01*
X82450000Y-68860000D01*
X82780000Y-69100000D01*
G36*
X82780000Y-69100000D02*
G01*
X82450000Y-69340000D01*
X82450000Y-68860000D01*
X82780000Y-69100000D01*
G37*
X80840000Y-71160000D02*
X80840000Y-69640000D01*
X81840000Y-71160000D02*
X80840000Y-71160000D01*
X83960000Y-71160000D02*
X82960000Y-71160000D01*
X80840000Y-69640000D02*
X80890000Y-69640000D01*
X82010000Y-69640000D02*
X82790000Y-69640000D01*
X83910000Y-69640000D02*
X83960000Y-69640000D01*
X83960000Y-69640000D02*
X83960000Y-71160000D01*
%TO.C,D1*%
X81135000Y-74987500D02*
X81135000Y-72702500D01*
X79665000Y-72702500D02*
X79665000Y-74987500D01*
X81135000Y-72702500D02*
X79665000Y-72702500D01*
%TO.C,Q2*%
X86730000Y-68037500D02*
X86400000Y-68277500D01*
X86400000Y-67797500D01*
X86730000Y-68037500D01*
G36*
X86730000Y-68037500D02*
G01*
X86400000Y-68277500D01*
X86400000Y-67797500D01*
X86730000Y-68037500D01*
G37*
X84790000Y-70097500D02*
X84790000Y-68577500D01*
X85790000Y-70097500D02*
X84790000Y-70097500D01*
X87910000Y-70097500D02*
X86910000Y-70097500D01*
X84790000Y-68577500D02*
X84840000Y-68577500D01*
X85960000Y-68577500D02*
X86740000Y-68577500D01*
X87860000Y-68577500D02*
X87910000Y-68577500D01*
X87910000Y-68577500D02*
X87910000Y-70097500D01*
%TO.C,Q0*%
X78730000Y-65037500D02*
X78400000Y-65277500D01*
X78400000Y-64797500D01*
X78730000Y-65037500D01*
G36*
X78730000Y-65037500D02*
G01*
X78400000Y-65277500D01*
X78400000Y-64797500D01*
X78730000Y-65037500D01*
G37*
X76790000Y-67097500D02*
X76790000Y-65577500D01*
X77790000Y-67097500D02*
X76790000Y-67097500D01*
X79910000Y-67097500D02*
X78910000Y-67097500D01*
X76790000Y-65577500D02*
X76840000Y-65577500D01*
X77960000Y-65577500D02*
X78740000Y-65577500D01*
X79860000Y-65577500D02*
X79910000Y-65577500D01*
X79910000Y-65577500D02*
X79910000Y-67097500D01*
%TO.C,Q1*%
X82730000Y-65037500D02*
X82400000Y-65277500D01*
X82400000Y-64797500D01*
X82730000Y-65037500D01*
G36*
X82730000Y-65037500D02*
G01*
X82400000Y-65277500D01*
X82400000Y-64797500D01*
X82730000Y-65037500D01*
G37*
X80790000Y-67097500D02*
X80790000Y-65577500D01*
X81790000Y-67097500D02*
X80790000Y-67097500D01*
X83910000Y-67097500D02*
X82910000Y-67097500D01*
X80790000Y-65577500D02*
X80840000Y-65577500D01*
X81960000Y-65577500D02*
X82740000Y-65577500D01*
X83860000Y-65577500D02*
X83910000Y-65577500D01*
X83910000Y-65577500D02*
X83910000Y-67097500D01*
%TO.C,R27*%
X114085436Y-72135000D02*
X114539564Y-72135000D01*
X114085436Y-70665000D02*
X114539564Y-70665000D01*
%TO.C,D9*%
X110712500Y-75200000D02*
X110712500Y-77160000D01*
X110712500Y-77160000D02*
X111912500Y-77160000D01*
X111912500Y-75200000D02*
X111912500Y-77160000D01*
%TO.C,Q5*%
X109040000Y-70055000D02*
X110560000Y-70055000D01*
X109040000Y-70105000D02*
X109040000Y-70055000D01*
X109040000Y-72005000D02*
X109040000Y-71225000D01*
X109040000Y-73175000D02*
X109040000Y-73125000D01*
X110560000Y-70055000D02*
X110560000Y-71055000D01*
X110560000Y-72175000D02*
X110560000Y-73175000D01*
X110560000Y-73175000D02*
X109040000Y-73175000D01*
X108740000Y-71565000D02*
X108260000Y-71565000D01*
X108500000Y-71235000D01*
X108740000Y-71565000D01*
G36*
X108740000Y-71565000D02*
G01*
X108260000Y-71565000D01*
X108500000Y-71235000D01*
X108740000Y-71565000D01*
G37*
%TO.C,J17*%
X115592500Y-75845000D02*
X115592500Y-78495000D01*
X112832500Y-78495000D02*
X115592500Y-78495000D01*
X112832500Y-75845000D02*
X115592500Y-75845000D01*
X112832500Y-75845000D02*
X112832500Y-78495000D01*
X112832500Y-74575000D02*
X112832500Y-73195000D01*
X112832500Y-73195000D02*
X114212500Y-73195000D01*
%TO.C,R22*%
X116665000Y-72085436D02*
X116665000Y-72539564D01*
X118135000Y-72085436D02*
X118135000Y-72539564D01*
%TO.C,R24*%
X122665000Y-72085436D02*
X122665000Y-72539564D01*
X124135000Y-72085436D02*
X124135000Y-72539564D01*
%TO.C,R23*%
X119665000Y-72085436D02*
X119665000Y-72539564D01*
X121135000Y-72085436D02*
X121135000Y-72539564D01*
D12*
%TO.C,SW1*%
X106600000Y-58300000D02*
X106600000Y-54300000D01*
X106850000Y-58300000D02*
X106600000Y-58300000D01*
X109350000Y-58300000D02*
X109600000Y-58300000D01*
X109600000Y-58300000D02*
X109600000Y-54300000D01*
X106600000Y-54300000D02*
X106850000Y-54300000D01*
X109600000Y-54300000D02*
X109350000Y-54300000D01*
D11*
%TO.C,J6*%
X96735302Y-43881661D02*
X96735302Y-49071661D01*
X93975302Y-49071661D02*
X96735302Y-49071661D01*
X93975302Y-43881661D02*
X96735302Y-43881661D01*
X93975302Y-43881661D02*
X93975302Y-49071661D01*
X93975302Y-42611661D02*
X93975302Y-41231661D01*
X93975302Y-41231661D02*
X95355302Y-41231661D01*
%TO.C,Q6*%
X117840000Y-68310000D02*
X117840000Y-66490000D01*
X117890000Y-68310000D02*
X117840000Y-68310000D01*
X119790000Y-68310000D02*
X119010000Y-68310000D01*
X120960000Y-68310000D02*
X120910000Y-68310000D01*
X117840000Y-66490000D02*
X118840000Y-66490000D01*
X119960000Y-66490000D02*
X120960000Y-66490000D01*
X120960000Y-66490000D02*
X120960000Y-68310000D01*
X119350000Y-69090000D02*
X119020000Y-68850000D01*
X119350000Y-68610000D01*
X119350000Y-69090000D01*
G36*
X119350000Y-69090000D02*
G01*
X119020000Y-68850000D01*
X119350000Y-68610000D01*
X119350000Y-69090000D01*
G37*
%TO.C,J9*%
X85808978Y-43874055D02*
X85808978Y-49064055D01*
X83048978Y-49064055D02*
X85808978Y-49064055D01*
X83048978Y-43874055D02*
X85808978Y-43874055D01*
X83048978Y-43874055D02*
X83048978Y-49064055D01*
X83048978Y-42604055D02*
X83048978Y-41224055D01*
X83048978Y-41224055D02*
X84428978Y-41224055D01*
%TO.C,D2*%
X99085000Y-55535000D02*
X99085000Y-54065000D01*
X99085000Y-54065000D02*
X96800000Y-54065000D01*
X96800000Y-55535000D02*
X99085000Y-55535000D01*
%TO.C,D1*%
X110955001Y-53865000D02*
X110955001Y-55785000D01*
X110955001Y-55785000D02*
X113640001Y-55785000D01*
X113640001Y-53865000D02*
X110955001Y-53865000D01*
%TO.C,L1*%
X117779999Y-57290000D02*
X118979999Y-57290000D01*
X117779999Y-62710000D02*
X117779999Y-57290000D01*
X118979999Y-62710000D02*
X117779999Y-62710000D01*
X121999999Y-57290000D02*
X123199999Y-57290000D01*
X123199999Y-57290000D02*
X123199999Y-62710000D01*
X123199999Y-62710000D02*
X121999999Y-62710000D01*
%TO.C,C10*%
X116027257Y-56977500D02*
X115552741Y-56977500D01*
X116027257Y-58022500D02*
X115552741Y-58022500D01*
%TO.C,J1*%
X112211965Y-41220694D02*
X113591965Y-41220694D01*
X112211965Y-42600694D02*
X112211965Y-41220694D01*
X112211965Y-43870694D02*
X112211965Y-49060694D01*
X112211965Y-43870694D02*
X114971965Y-43870694D01*
X112211965Y-49060694D02*
X114971965Y-49060694D01*
X114971965Y-43870694D02*
X114971965Y-49060694D01*
%TO.C,J11*%
X88340000Y-64120000D02*
X88340000Y-66880000D01*
X98610000Y-64120000D02*
X88340000Y-64120000D01*
X98610000Y-64120000D02*
X98610000Y-66880000D01*
X98610000Y-66880000D02*
X88340000Y-66880000D01*
X99880000Y-64120000D02*
X101260000Y-64120000D01*
X101260000Y-64120000D02*
X101260000Y-65500000D01*
%TO.C,J5*%
X97623141Y-41222709D02*
X99003141Y-41222709D01*
X97623141Y-42602709D02*
X97623141Y-41222709D01*
X97623141Y-43872709D02*
X97623141Y-49062709D01*
X97623141Y-43872709D02*
X100383141Y-43872709D01*
X97623141Y-49062709D02*
X100383141Y-49062709D01*
X100383141Y-43872709D02*
X100383141Y-49062709D01*
%TO.C,J2*%
X108578130Y-41218290D02*
X109958130Y-41218290D01*
X108578130Y-42598290D02*
X108578130Y-41218290D01*
X108578130Y-43868290D02*
X108578130Y-49058290D01*
X108578130Y-43868290D02*
X111338130Y-43868290D01*
X108578130Y-49058290D02*
X111338130Y-49058290D01*
X111338130Y-43868290D02*
X111338130Y-49058290D01*
%TO.C,C8*%
X115542742Y-63877500D02*
X116017258Y-63877500D01*
X115542742Y-64922500D02*
X116017258Y-64922500D01*
%TO.C,J4*%
X101280000Y-41220000D02*
X102660000Y-41220000D01*
X101280000Y-42600000D02*
X101280000Y-41220000D01*
X101280000Y-43870000D02*
X101280000Y-49060000D01*
X101280000Y-43870000D02*
X104040000Y-43870000D01*
X101280000Y-49060000D02*
X104040000Y-49060000D01*
X104040000Y-43870000D02*
X104040000Y-49060000D01*
%TO.C,U1*%
X93002500Y-56215000D02*
X97622500Y-56215000D01*
X97622500Y-62985000D02*
X93002500Y-62985000D01*
X99502500Y-62770000D02*
X99172500Y-62530000D01*
X99502500Y-62290000D01*
X99502500Y-62770000D01*
G36*
X99502500Y-62770000D02*
G01*
X99172500Y-62530000D01*
X99502500Y-62290000D01*
X99502500Y-62770000D01*
G37*
%TO.C,J10*%
X113200000Y-64120000D02*
X113200000Y-65500000D01*
X111820000Y-64120000D02*
X113200000Y-64120000D01*
X110550000Y-66880000D02*
X102820000Y-66880000D01*
X110550000Y-64120000D02*
X110550000Y-66880000D01*
X110550000Y-64120000D02*
X102820000Y-64120000D01*
X102820000Y-64120000D02*
X102820000Y-66880000D01*
%TO.C,JP1*%
X116650000Y-55025000D02*
X116650000Y-54425000D01*
X117350000Y-53725000D02*
X118750000Y-53725000D01*
X118750000Y-55725000D02*
X117350000Y-55725000D01*
X119450000Y-54425000D02*
X119450000Y-55025000D01*
X116650000Y-54425000D02*
G75*
G02*
X117350000Y-53725000I700000J0D01*
G01*
X117350000Y-55725000D02*
G75*
G02*
X116650000Y-55025000I0J700000D01*
G01*
X118750000Y-53725000D02*
G75*
G02*
X119450000Y-54425000I1J-699999D01*
G01*
X119450000Y-55025000D02*
G75*
G02*
X118750000Y-55725000I-699999J-1D01*
G01*
%TO.C,J8*%
X86697111Y-41227679D02*
X88077111Y-41227679D01*
X86697111Y-42607679D02*
X86697111Y-41227679D01*
X86697111Y-43877679D02*
X86697111Y-49067679D01*
X86697111Y-43877679D02*
X89457111Y-43877679D01*
X86697111Y-49067679D02*
X89457111Y-49067679D01*
X89457111Y-43877679D02*
X89457111Y-49067679D01*
%TO.C,J0*%
X115845665Y-41223361D02*
X117225665Y-41223361D01*
X115845665Y-42603361D02*
X115845665Y-41223361D01*
X115845665Y-43873361D02*
X115845665Y-49063361D01*
X115845665Y-43873361D02*
X118605665Y-43873361D01*
X115845665Y-49063361D02*
X118605665Y-49063361D01*
X118605665Y-43873361D02*
X118605665Y-49063361D01*
%TO.C,J7*%
X90334956Y-41238742D02*
X91714956Y-41238742D01*
X90334956Y-42618742D02*
X90334956Y-41238742D01*
X90334956Y-43888742D02*
X90334956Y-49078742D01*
X90334956Y-43888742D02*
X93094956Y-43888742D01*
X90334956Y-49078742D02*
X93094956Y-49078742D01*
X93094956Y-43888742D02*
X93094956Y-49078742D01*
%TO.C,R1*%
X103760436Y-55035000D02*
X104214564Y-55035000D01*
X103760436Y-53565000D02*
X104214564Y-53565000D01*
%TO.C,C11*%
X122077500Y-55062258D02*
X122077500Y-54587742D01*
X123122500Y-55062258D02*
X123122500Y-54587742D01*
%TO.C,D3*%
X92500000Y-54065000D02*
X90215000Y-54065000D01*
X90215000Y-55535000D02*
X92500000Y-55535000D01*
X90215000Y-54065000D02*
X90215000Y-55535000D01*
%TO.C,R5*%
X109645000Y-61827064D02*
X109645000Y-61372936D01*
X111115000Y-61827064D02*
X111115000Y-61372936D01*
%TO.C,J3*%
X104938130Y-41218290D02*
X106318130Y-41218290D01*
X104938130Y-42598290D02*
X104938130Y-41218290D01*
X104938130Y-43868290D02*
X104938130Y-49058290D01*
X104938130Y-43868290D02*
X107698130Y-43868290D01*
X104938130Y-49058290D02*
X107698130Y-49058290D01*
X107698130Y-43868290D02*
X107698130Y-49058290D01*
%TO.C,U2*%
X100067322Y-57540000D02*
X100162322Y-57540000D01*
X100067322Y-61660000D02*
X100067322Y-57540000D01*
X100162322Y-61660000D02*
X100067322Y-61660000D01*
X105092322Y-57540000D02*
X105187322Y-57540000D01*
X105187322Y-57540000D02*
X105187322Y-61660000D01*
X105187322Y-61660000D02*
X105092322Y-61660000D01*
X105427322Y-57240000D02*
X105097322Y-57000000D01*
X105427322Y-56760000D01*
X105427322Y-57240000D01*
G36*
X105427322Y-57240000D02*
G01*
X105097322Y-57000000D01*
X105427322Y-56760000D01*
X105427322Y-57240000D01*
G37*
%TO.C,U3*%
X112879999Y-59940000D02*
X114699999Y-59940000D01*
X112879999Y-59990000D02*
X112879999Y-59940000D01*
X112879999Y-63060000D02*
X112879999Y-63010000D01*
X114699999Y-59940000D02*
X114699999Y-59990000D01*
X114699999Y-63010000D02*
X114699999Y-63060000D01*
X114699999Y-63060000D02*
X112879999Y-63060000D01*
X112339999Y-59990000D02*
X112099999Y-59660000D01*
X112579999Y-59660000D01*
X112339999Y-59990000D01*
G36*
X112339999Y-59990000D02*
G01*
X112099999Y-59660000D01*
X112579999Y-59660000D01*
X112339999Y-59990000D01*
G37*
%TO.C,U4*%
X77852500Y-57290000D02*
X78127500Y-57290000D01*
X77852500Y-61910000D02*
X77852500Y-57290000D01*
X78127500Y-61910000D02*
X77852500Y-61910000D01*
X87497500Y-57290000D02*
X87772500Y-57290000D01*
X87772500Y-57290000D02*
X87772500Y-61910000D01*
X87772500Y-61910000D02*
X87497500Y-61910000D01*
X87972500Y-56990000D02*
X87502500Y-56650000D01*
X87972500Y-56310000D01*
X87972500Y-56990000D01*
G36*
X87972500Y-56990000D02*
G01*
X87502500Y-56650000D01*
X87972500Y-56310000D01*
X87972500Y-56990000D01*
G37*
%TD*%
M02*
