%TF.GenerationSoftware,KiCad,Pcbnew,9.0.7-9.0.7~ubuntu25.10.1*%
%TF.CreationDate,2026-02-28T17:49:31+01:00*%
%TF.ProjectId,pwm_board,70776d5f-626f-4617-9264-2e6b69636164,rev?*%
%TF.SameCoordinates,Original*%
%TF.FileFunction,Paste,Top*%
%TF.FilePolarity,Positive*%
%FSLAX46Y46*%
G04 Gerber Fmt 4.6, Leading zero omitted, Abs format (unit mm)*
G04 Created by KiCad (PCBNEW 9.0.7-9.0.7~ubuntu25.10.1) date 2026-02-28 17:49:31*
%MOMM*%
%LPD*%
G01*
G04 APERTURE LIST*
G04 Aperture macros list*
%AMRoundRect*
0 Rectangle with rounded corners*
0 $1 Rounding radius*
0 $2 $3 $4 $5 $6 $7 $8 $9 X,Y pos of 4 corners*
0 Add a 4 corners polygon primitive as box body*
4,1,4,$2,$3,$4,$5,$6,$7,$8,$9,$2,$3,0*
0 Add four circle primitives for the rounded corners*
1,1,$1+$1,$2,$3*
1,1,$1+$1,$4,$5*
1,1,$1+$1,$6,$7*
1,1,$1+$1,$8,$9*
0 Add four rect primitives between the rounded corners*
20,1,$1+$1,$2,$3,$4,$5,0*
20,1,$1+$1,$4,$5,$6,$7,0*
20,1,$1+$1,$6,$7,$8,$9,0*
20,1,$1+$1,$8,$9,$2,$3,0*%
G04 Aperture macros list end*
%ADD10RoundRect,0.140000X0.170000X-0.140000X0.170000X0.140000X-0.170000X0.140000X-0.170000X-0.140000X0*%
%ADD11RoundRect,0.150000X-0.200000X0.150000X-0.200000X-0.150000X0.200000X-0.150000X0.200000X0.150000X0*%
%ADD12RoundRect,0.140000X-0.170000X0.140000X-0.170000X-0.140000X0.170000X-0.140000X0.170000X0.140000X0*%
%ADD13RoundRect,0.250000X-0.450000X0.262500X-0.450000X-0.262500X0.450000X-0.262500X0.450000X0.262500X0*%
%ADD14RoundRect,0.150000X-0.150000X0.587500X-0.150000X-0.587500X0.150000X-0.587500X0.150000X0.587500X0*%
%ADD15RoundRect,0.218750X-0.256250X0.218750X-0.256250X-0.218750X0.256250X-0.218750X0.256250X0.218750X0*%
%ADD16RoundRect,0.250000X-0.262500X-0.450000X0.262500X-0.450000X0.262500X0.450000X-0.262500X0.450000X0*%
%ADD17RoundRect,0.150000X-0.587500X-0.150000X0.587500X-0.150000X0.587500X0.150000X-0.587500X0.150000X0*%
%ADD18RoundRect,0.140000X-0.140000X-0.170000X0.140000X-0.170000X0.140000X0.170000X-0.140000X0.170000X0*%
%ADD19RoundRect,0.135000X-0.135000X-0.185000X0.135000X-0.185000X0.135000X0.185000X-0.135000X0.185000X0*%
%ADD20RoundRect,0.157500X0.842500X-0.367500X0.842500X0.367500X-0.842500X0.367500X-0.842500X-0.367500X0*%
%ADD21RoundRect,0.150000X0.150000X-0.512500X0.150000X0.512500X-0.150000X0.512500X-0.150000X-0.512500X0*%
%ADD22RoundRect,0.218750X0.218750X0.256250X-0.218750X0.256250X-0.218750X-0.256250X0.218750X-0.256250X0*%
%ADD23RoundRect,0.079500X0.079500X0.100500X-0.079500X0.100500X-0.079500X-0.100500X0.079500X-0.100500X0*%
%ADD24RoundRect,0.243750X-0.243750X-0.456250X0.243750X-0.456250X0.243750X0.456250X-0.243750X0.456250X0*%
%ADD25RoundRect,0.250000X1.000000X-0.550000X1.000000X0.550000X-1.000000X0.550000X-1.000000X-0.550000X0*%
%ADD26RoundRect,0.200000X0.200000X0.275000X-0.200000X0.275000X-0.200000X-0.275000X0.200000X-0.275000X0*%
%ADD27RoundRect,0.079500X-0.079500X-0.100500X0.079500X-0.100500X0.079500X0.100500X-0.079500X0.100500X0*%
%ADD28RoundRect,0.200000X-0.200000X-0.275000X0.200000X-0.275000X0.200000X0.275000X-0.200000X0.275000X0*%
%ADD29RoundRect,0.100000X0.637500X0.100000X-0.637500X0.100000X-0.637500X-0.100000X0.637500X-0.100000X0*%
%ADD30RoundRect,0.079500X0.100500X-0.079500X0.100500X0.079500X-0.100500X0.079500X-0.100500X-0.079500X0*%
%ADD31RoundRect,0.200000X0.275000X-0.200000X0.275000X0.200000X-0.275000X0.200000X-0.275000X-0.200000X0*%
%ADD32RoundRect,0.218750X-0.218750X-0.256250X0.218750X-0.256250X0.218750X0.256250X-0.218750X0.256250X0*%
%ADD33RoundRect,0.250000X0.450000X-0.262500X0.450000X0.262500X-0.450000X0.262500X-0.450000X-0.262500X0*%
%ADD34RoundRect,0.079500X-0.100500X0.079500X-0.100500X-0.079500X0.100500X-0.079500X0.100500X0.079500X0*%
%ADD35RoundRect,0.150000X-0.150000X0.825000X-0.150000X-0.825000X0.150000X-0.825000X0.150000X0.825000X0*%
%ADD36RoundRect,0.150000X-0.512500X-0.150000X0.512500X-0.150000X0.512500X0.150000X-0.512500X0.150000X0*%
%ADD37RoundRect,0.100000X-0.100000X0.637500X-0.100000X-0.637500X0.100000X-0.637500X0.100000X0.637500X0*%
G04 APERTURE END LIST*
D10*
%TO.C,C5*%
X97460000Y-79440000D03*
X97460000Y-80400000D03*
%TD*%
%TO.C,C6*%
X99430000Y-79440000D03*
X99430000Y-80400000D03*
%TD*%
D11*
%TO.C,D7*%
X90400000Y-78700000D03*
X90400000Y-80100000D03*
%TD*%
D10*
%TO.C,C7*%
X101400000Y-79440000D03*
X101400000Y-80400000D03*
%TD*%
D11*
%TO.C,D8*%
X92850000Y-78700000D03*
X92850000Y-80100000D03*
%TD*%
D10*
%TO.C,C2*%
X95490000Y-79440000D03*
X95490000Y-80400000D03*
%TD*%
D12*
%TO.C,C14*%
X103400000Y-80360000D03*
X103400000Y-79400000D03*
%TD*%
D11*
%TO.C,D4*%
X83050000Y-78700000D03*
X83050000Y-80100000D03*
%TD*%
D13*
%TO.C,R26*%
X83400000Y-76225000D03*
X83400000Y-74400000D03*
%TD*%
%TO.C,R25*%
X86400000Y-76225000D03*
X86400000Y-74400000D03*
%TD*%
D11*
%TO.C,D6*%
X87950000Y-78700000D03*
X87950000Y-80100000D03*
%TD*%
%TO.C,D5*%
X85500000Y-78700000D03*
X85500000Y-80100000D03*
%TD*%
D14*
%TO.C,Q4*%
X78400000Y-71337500D03*
X77450000Y-69462500D03*
X79350000Y-69462500D03*
%TD*%
%TO.C,Q3*%
X82400000Y-71337500D03*
X81450000Y-69462500D03*
X83350000Y-69462500D03*
%TD*%
D15*
%TO.C,D1*%
X80400000Y-74975000D03*
X80400000Y-73400000D03*
%TD*%
D14*
%TO.C,Q2*%
X86350000Y-70275000D03*
X85400000Y-68400000D03*
X87300000Y-68400000D03*
%TD*%
%TO.C,Q0*%
X78350000Y-67275000D03*
X77400000Y-65400000D03*
X79300000Y-65400000D03*
%TD*%
%TO.C,Q1*%
X82350000Y-67275000D03*
X81400000Y-65400000D03*
X83300000Y-65400000D03*
%TD*%
D16*
%TO.C,R27*%
X115225000Y-71400000D03*
X113400000Y-71400000D03*
%TD*%
D10*
%TO.C,C15*%
X109412500Y-76400000D03*
X109412500Y-75440000D03*
%TD*%
D11*
%TO.C,D9*%
X111312500Y-76600000D03*
X111312500Y-75200000D03*
%TD*%
D17*
%TO.C,Q5*%
X108862500Y-70665000D03*
X108862500Y-72565000D03*
X110737500Y-71615000D03*
%TD*%
D13*
%TO.C,R22*%
X117400000Y-73225000D03*
X117400000Y-71400000D03*
%TD*%
%TO.C,R24*%
X123400000Y-73225000D03*
X123400000Y-71400000D03*
%TD*%
%TO.C,R23*%
X120400000Y-73225000D03*
X120400000Y-71400000D03*
%TD*%
D18*
%TO.C,C1*%
X106000000Y-62000000D03*
X106960000Y-62000000D03*
%TD*%
D19*
%TO.C,R19*%
X84428978Y-50404055D03*
X83408978Y-50404055D03*
%TD*%
%TO.C,R18*%
X87047111Y-50387679D03*
X88067111Y-50387679D03*
%TD*%
%TO.C,R17*%
X90694956Y-50418742D03*
X91714956Y-50418742D03*
%TD*%
%TO.C,R16*%
X95355302Y-50451661D03*
X94335302Y-50451661D03*
%TD*%
%TO.C,R15*%
X97983141Y-50442709D03*
X99003141Y-50442709D03*
%TD*%
%TO.C,R14*%
X101640000Y-50400000D03*
X102660000Y-50400000D03*
%TD*%
%TO.C,R13*%
X105298130Y-50438290D03*
X106318130Y-50438290D03*
%TD*%
%TO.C,R12*%
X108938130Y-50438290D03*
X109958130Y-50438290D03*
%TD*%
%TO.C,R11*%
X112571965Y-50400694D03*
X113591965Y-50400694D03*
%TD*%
%TO.C,R10*%
X116205665Y-50403361D03*
X117225665Y-50403361D03*
%TD*%
D10*
%TO.C,C12*%
X121200000Y-55505000D03*
X121200000Y-54545000D03*
%TD*%
D18*
%TO.C,C13*%
X86077973Y-64118012D03*
X87037973Y-64118012D03*
%TD*%
D12*
%TO.C,C4*%
X90708556Y-58964837D03*
X90708556Y-59924837D03*
%TD*%
D10*
%TO.C,C3*%
X89508556Y-59924837D03*
X89508556Y-58964837D03*
%TD*%
D12*
%TO.C,C9*%
X116739999Y-60520000D03*
X116739999Y-61480000D03*
%TD*%
D20*
%TO.C,SW1*%
X108100000Y-58550000D03*
X108100000Y-54050000D03*
%TD*%
D21*
%TO.C,Q6*%
X118450000Y-68537500D03*
X120350000Y-68537500D03*
X119400000Y-66262500D03*
%TD*%
D22*
%TO.C,D2*%
X98387500Y-54800000D03*
X96812500Y-54800000D03*
%TD*%
D23*
%TO.C,R3*%
X100525000Y-54800000D03*
X99835000Y-54800000D03*
%TD*%
D24*
%TO.C,D1*%
X111702501Y-54825000D03*
X113577501Y-54825000D03*
%TD*%
D25*
%TO.C,L1*%
X120489999Y-62200000D03*
X120489999Y-57800000D03*
%TD*%
D26*
%TO.C,C10*%
X116614999Y-57500000D03*
X114964999Y-57500000D03*
%TD*%
D27*
%TO.C,R4*%
X88755000Y-54800000D03*
X89445000Y-54800000D03*
%TD*%
D23*
%TO.C,R6*%
X114225000Y-59000000D03*
X113535000Y-59000000D03*
%TD*%
D27*
%TO.C,R2*%
X106155000Y-59900000D03*
X106845000Y-59900000D03*
%TD*%
D23*
%TO.C,R7*%
X112370001Y-59000000D03*
X111680001Y-59000000D03*
%TD*%
D28*
%TO.C,C8*%
X114955000Y-64400000D03*
X116605000Y-64400000D03*
%TD*%
D29*
%TO.C,U1*%
X98175000Y-62525000D03*
X98175000Y-61875000D03*
X98175000Y-61225000D03*
X98175000Y-60575000D03*
X98175000Y-59925000D03*
X98175000Y-59275000D03*
X98175000Y-58625000D03*
X98175000Y-57975000D03*
X98175000Y-57325000D03*
X98175000Y-56675000D03*
X92450000Y-56675000D03*
X92450000Y-57325000D03*
X92450000Y-57975000D03*
X92450000Y-58625000D03*
X92450000Y-59275000D03*
X92450000Y-59925000D03*
X92450000Y-60575000D03*
X92450000Y-61225000D03*
X92450000Y-61875000D03*
X92450000Y-62525000D03*
%TD*%
D30*
%TO.C,R21*%
X88500000Y-62245000D03*
X88500000Y-61555000D03*
%TD*%
D16*
%TO.C,R1*%
X103075000Y-54300000D03*
X104900000Y-54300000D03*
%TD*%
D31*
%TO.C,C11*%
X122600000Y-55650000D03*
X122600000Y-54000000D03*
%TD*%
D32*
%TO.C,D3*%
X90912500Y-54800000D03*
X92487500Y-54800000D03*
%TD*%
D23*
%TO.C,R8*%
X112345000Y-56625000D03*
X111655000Y-56625000D03*
%TD*%
D33*
%TO.C,R5*%
X110380000Y-62512500D03*
X110380000Y-60687500D03*
%TD*%
D34*
%TO.C,R20*%
X88500000Y-60010000D03*
X88500000Y-60700000D03*
%TD*%
D35*
%TO.C,U2*%
X104532322Y-57125000D03*
X103262322Y-57125000D03*
X101992322Y-57125000D03*
X100722322Y-57125000D03*
X100722322Y-62075000D03*
X101992322Y-62075000D03*
X103262322Y-62075000D03*
X104532322Y-62075000D03*
%TD*%
D36*
%TO.C,U3*%
X112652499Y-60550000D03*
X112652499Y-61500000D03*
X112652499Y-62450000D03*
X114927499Y-62450000D03*
X114927499Y-61500000D03*
X114927499Y-60550000D03*
%TD*%
D37*
%TO.C,U4*%
X87037500Y-56737500D03*
X86387500Y-56737500D03*
X85737500Y-56737500D03*
X85087500Y-56737500D03*
X84437500Y-56737500D03*
X83787500Y-56737500D03*
X83137500Y-56737500D03*
X82487500Y-56737500D03*
X81837500Y-56737500D03*
X81187500Y-56737500D03*
X80537500Y-56737500D03*
X79887500Y-56737500D03*
X79237500Y-56737500D03*
X78587500Y-56737500D03*
X78587500Y-62462500D03*
X79237500Y-62462500D03*
X79887500Y-62462500D03*
X80537500Y-62462500D03*
X81187500Y-62462500D03*
X81837500Y-62462500D03*
X82487500Y-62462500D03*
X83137500Y-62462500D03*
X83787500Y-62462500D03*
X84437500Y-62462500D03*
X85087500Y-62462500D03*
X85737500Y-62462500D03*
X86387500Y-62462500D03*
X87037500Y-62462500D03*
%TD*%
M02*
