M48
; DRILL file {KiCad 9.0.7-9.0.7~ubuntu25.10.1} date 2026-02-28T17:49:29+0100
; FORMAT={-:-/ absolute / metric / decimal}
; #@! TF.CreationDate,2026-02-28T17:49:29+01:00
; #@! TF.GenerationSoftware,Kicad,Pcbnew,9.0.7-9.0.7~ubuntu25.10.1
; #@! TF.FileFunction,MixedPlating,1,4
FMAT,2
METRIC
; #@! TA.AperFunction,Plated,PTH,ViaDrill
T1C0.300
; #@! TA.AperFunction,Plated,PTH,ComponentDrill
T2C1.000
; #@! TA.AperFunction,NonPlated,NPTH,ComponentDrill
T3C2.200
%
G90
G05
T1
X78.0Y-55.2
X78.586Y-60.813
X79.242Y-58.752
X79.242Y-52.258
X81.15Y-54.65
X81.8Y-55.277
X82.279Y-51.263
X82.491Y-54.793
X83.156Y-55.403
X84.15Y-55.4
X84.8Y-64.1
X88.5Y-59.2
X88.6Y-56.3
X93.9Y-57.3
X94.0Y-59.3
X100.65Y-50.9
X101.4Y-55.4
X104.308Y-50.938
X106.1Y-61.0
X106.15Y-55.4
X107.948Y-50.938
X111.582Y-50.901
X111.68Y-57.6
X112.652Y-63.424
X114.89Y-53.825
X114.89Y-54.825
X114.89Y-55.825
X115.216Y-50.903
X115.89Y-53.825
X115.89Y-54.825
X115.89Y-55.825
X117.98Y-64.4
X120.4Y-54.525
T2
X84.429Y-42.604
X84.429Y-45.144
X84.429Y-47.684
X88.077Y-42.608
X88.077Y-45.148
X88.077Y-47.688
X89.72Y-65.5
X91.4Y-72.4
X91.4Y-74.94
X91.715Y-42.619
X91.715Y-45.159
X91.715Y-47.699
X92.26Y-65.5
X94.8Y-65.5
X95.355Y-42.612
X95.355Y-45.152
X95.355Y-47.692
X95.4Y-72.4
X95.4Y-76.4
X97.34Y-65.5
X97.94Y-72.4
X97.94Y-76.4
X99.003Y-42.603
X99.003Y-45.143
X99.003Y-47.683
X99.88Y-65.5
X102.4Y-72.4
X102.4Y-76.4
X102.66Y-42.6
X102.66Y-45.14
X102.66Y-47.68
X104.2Y-65.5
X104.94Y-72.4
X104.94Y-76.4
X106.318Y-42.598
X106.318Y-45.138
X106.318Y-47.678
X106.74Y-65.5
X109.28Y-65.5
X109.958Y-42.598
X109.958Y-45.138
X109.958Y-47.678
X111.82Y-65.5
X113.592Y-42.601
X113.592Y-45.141
X113.592Y-47.681
X114.212Y-74.575
X114.212Y-77.115
X117.226Y-42.603
X117.226Y-45.143
X117.226Y-47.683
T3
X78.4Y-43.4
X78.4Y-78.4
X123.4Y-43.4
X123.4Y-78.4
M30
