%TF.GenerationSoftware,KiCad,Pcbnew,9.0.7-9.0.7~ubuntu25.10.1*%
%TF.CreationDate,2026-02-28T17:49:31+01:00*%
%TF.ProjectId,pwm_board,70776d5f-626f-4617-9264-2e6b69636164,rev?*%
%TF.SameCoordinates,Original*%
%TF.FileFunction,Copper,L3,Inr*%
%TF.FilePolarity,Positive*%
%FSLAX46Y46*%
G04 Gerber Fmt 4.6, Leading zero omitted, Abs format (unit mm)*
G04 Created by KiCad (PCBNEW 9.0.7-9.0.7~ubuntu25.10.1) date 2026-02-28 17:49:31*
%MOMM*%
%LPD*%
G01*
G04 APERTURE LIST*
%TA.AperFunction,ComponentPad*%
%ADD10C,1.700000*%
%TD*%
%TA.AperFunction,ComponentPad*%
%ADD11R,1.700000X1.700000*%
%TD*%
%TA.AperFunction,ViaPad*%
%ADD12C,0.600000*%
%TD*%
%TA.AperFunction,ViaPad*%
%ADD13C,0.700000*%
%TD*%
G04 APERTURE END LIST*
D10*
%TO.N,+12V*%
%TO.C,J14*%
X97940000Y-76400000D03*
D11*
%TO.N,Net-(D6-A)*%
X95400000Y-76400000D03*
%TD*%
D10*
%TO.N,+12V*%
%TO.C,J13*%
X97940000Y-72400000D03*
D11*
%TO.N,Net-(D5-A)*%
X95400000Y-72400000D03*
%TD*%
D10*
%TO.N,+12V*%
%TO.C,J15*%
X104940000Y-72400000D03*
D11*
%TO.N,Net-(D7-A)*%
X102400000Y-72400000D03*
%TD*%
D10*
%TO.N,+12V*%
%TO.C,J12*%
X91400000Y-74940000D03*
D11*
%TO.N,Net-(D4-A)*%
X91400000Y-72400000D03*
%TD*%
D10*
%TO.N,+12V*%
%TO.C,J16*%
X104940000Y-76400000D03*
D11*
%TO.N,Net-(D8-A)*%
X102400000Y-76400000D03*
%TD*%
D10*
%TO.N,+12V*%
%TO.C,J17*%
X114212500Y-77115000D03*
D11*
%TO.N,Net-(D9-A)*%
X114212500Y-74575000D03*
%TD*%
D10*
%TO.N,Net-(J6-Pin_3)*%
%TO.C,J6*%
X95355302Y-47691661D03*
%TO.N,+3V3*%
X95355302Y-45151661D03*
D11*
%TO.N,GND*%
X95355302Y-42611661D03*
%TD*%
D10*
%TO.N,Net-(J9-Pin_3)*%
%TO.C,J9*%
X84428978Y-47684055D03*
%TO.N,+3V3*%
X84428978Y-45144055D03*
D11*
%TO.N,GND*%
X84428978Y-42604055D03*
%TD*%
%TO.N,GND*%
%TO.C,J1*%
X113591965Y-42600694D03*
D10*
%TO.N,+3V3*%
X113591965Y-45140694D03*
%TO.N,Net-(J1-Pin_3)*%
X113591965Y-47680694D03*
%TD*%
D11*
%TO.N,GND*%
%TO.C,J11*%
X99880000Y-65500000D03*
D10*
%TO.N,/MCU/NRST*%
X97340000Y-65500000D03*
%TO.N,/MCU/SWCLK*%
X94800000Y-65500000D03*
%TO.N,/MCU/SWDIO*%
X92260000Y-65500000D03*
%TO.N,+3V3*%
X89720000Y-65500000D03*
%TD*%
D11*
%TO.N,GND*%
%TO.C,J5*%
X99003141Y-42602709D03*
D10*
%TO.N,+3V3*%
X99003141Y-45142709D03*
%TO.N,Net-(J5-Pin_3)*%
X99003141Y-47682709D03*
%TD*%
D11*
%TO.N,GND*%
%TO.C,J2*%
X109958130Y-42598290D03*
D10*
%TO.N,+3V3*%
X109958130Y-45138290D03*
%TO.N,Net-(J2-Pin_3)*%
X109958130Y-47678290D03*
%TD*%
D11*
%TO.N,GND*%
%TO.C,J4*%
X102660000Y-42600000D03*
D10*
%TO.N,+3V3*%
X102660000Y-45140000D03*
%TO.N,Net-(J4-Pin_3)*%
X102660000Y-47680000D03*
%TD*%
%TO.N,/RS-485_to_UART/UART_A*%
%TO.C,J10*%
X104200000Y-65500000D03*
%TO.N,/RS-485_to_UART/UART_B*%
X106740000Y-65500000D03*
%TO.N,GND*%
X109280000Y-65500000D03*
D11*
%TO.N,+12V*%
X111820000Y-65500000D03*
%TD*%
%TO.N,GND*%
%TO.C,J8*%
X88077111Y-42607679D03*
D10*
%TO.N,+3V3*%
X88077111Y-45147679D03*
%TO.N,Net-(J8-Pin_3)*%
X88077111Y-47687679D03*
%TD*%
D11*
%TO.N,GND*%
%TO.C,J0*%
X117225665Y-42603361D03*
D10*
%TO.N,+3V3*%
X117225665Y-45143361D03*
%TO.N,Net-(J0-Pin_3)*%
X117225665Y-47683361D03*
%TD*%
D11*
%TO.N,GND*%
%TO.C,J7*%
X91714956Y-42618742D03*
D10*
%TO.N,+3V3*%
X91714956Y-45158742D03*
%TO.N,Net-(J7-Pin_3)*%
X91714956Y-47698742D03*
%TD*%
D11*
%TO.N,GND*%
%TO.C,J3*%
X106318130Y-42598290D03*
D10*
%TO.N,+3V3*%
X106318130Y-45138290D03*
%TO.N,Net-(J3-Pin_3)*%
X106318130Y-47678290D03*
%TD*%
D12*
%TO.N,/pwm/SERVO_PWM_9*%
X79242029Y-52257970D03*
%TO.N,/pwm/SERVO_PWM_8*%
X82279430Y-51262752D03*
%TO.N,GND*%
X78000000Y-55200000D03*
%TO.N,/pwm/SERVO_PWM_9*%
X79241609Y-58751521D03*
%TO.N,/pwm/SERVO_PWM_8*%
X78586464Y-60812963D03*
%TO.N,/pwm/SERVO_PWM_4*%
X100650000Y-50900000D03*
X81150000Y-54650000D03*
%TO.N,/pwm/SERVO_PWM_3*%
X104308130Y-50938290D03*
X81800383Y-55277174D03*
%TO.N,/pwm/SERVO_PWM_0*%
X84150000Y-55400000D03*
%TO.N,/pwm/SERVO_PWM_2*%
X82491446Y-54792689D03*
%TO.N,/pwm/SERVO_PWM_1*%
X83155737Y-55402684D03*
%TO.N,/pwm/SERVO_PWM_2*%
X107948130Y-50938290D03*
%TO.N,/pwm/SERVO_PWM_1*%
X111581965Y-50900694D03*
%TO.N,/pwm/SERVO_PWM_0*%
X115215665Y-50903361D03*
%TO.N,Net-(SW1A-B)*%
X106150000Y-55400000D03*
%TO.N,GND*%
X101400000Y-55400000D03*
X88600000Y-56300000D03*
%TO.N,Net-(SW1A-B)*%
X93900000Y-57300000D03*
%TO.N,+3V3*%
X106100000Y-61000000D03*
D13*
%TO.N,GND*%
X120400000Y-54525000D03*
D12*
X94000000Y-59300000D03*
X111680000Y-57600000D03*
X84800000Y-64100000D03*
D13*
X117980000Y-64400000D03*
X112652499Y-63423659D03*
%TO.N,+3V3*%
X115890001Y-55825000D03*
X114890001Y-53825000D03*
X114890001Y-54825000D03*
X115890001Y-54825000D03*
X115890001Y-53825000D03*
X114890001Y-55825000D03*
D12*
X88500000Y-59200000D03*
%TD*%
%TA.AperFunction,Conductor*%
%TO.N,GND*%
G36*
X123403736Y-40900726D02*
G01*
X123693796Y-40918271D01*
X123708659Y-40920076D01*
X123990798Y-40971780D01*
X124005335Y-40975363D01*
X124279172Y-41060695D01*
X124293163Y-41066000D01*
X124554743Y-41183727D01*
X124567989Y-41190680D01*
X124813465Y-41339075D01*
X124825776Y-41347573D01*
X125040228Y-41515585D01*
X125051573Y-41524473D01*
X125062781Y-41534403D01*
X125265596Y-41737218D01*
X125275526Y-41748426D01*
X125395481Y-41901538D01*
X125452422Y-41974217D01*
X125460926Y-41986537D01*
X125552148Y-42137436D01*
X125609316Y-42232004D01*
X125616275Y-42245263D01*
X125733997Y-42506831D01*
X125739306Y-42520832D01*
X125824635Y-42794663D01*
X125828219Y-42809201D01*
X125879923Y-43091340D01*
X125881728Y-43106205D01*
X125899274Y-43396263D01*
X125899500Y-43403750D01*
X125899500Y-78396249D01*
X125899274Y-78403736D01*
X125881728Y-78693794D01*
X125879923Y-78708659D01*
X125828219Y-78990798D01*
X125824635Y-79005336D01*
X125739306Y-79279167D01*
X125733997Y-79293168D01*
X125616275Y-79554736D01*
X125609316Y-79567995D01*
X125460928Y-79813459D01*
X125452422Y-79825782D01*
X125275526Y-80051573D01*
X125265596Y-80062781D01*
X125062781Y-80265596D01*
X125051573Y-80275526D01*
X124825782Y-80452422D01*
X124813459Y-80460928D01*
X124567995Y-80609316D01*
X124554736Y-80616275D01*
X124293168Y-80733997D01*
X124279167Y-80739306D01*
X124005336Y-80824635D01*
X123990798Y-80828219D01*
X123708659Y-80879923D01*
X123693794Y-80881728D01*
X123403736Y-80899274D01*
X123396249Y-80899500D01*
X78403751Y-80899500D01*
X78396264Y-80899274D01*
X78106205Y-80881728D01*
X78091340Y-80879923D01*
X77809201Y-80828219D01*
X77794663Y-80824635D01*
X77520832Y-80739306D01*
X77506831Y-80733997D01*
X77245263Y-80616275D01*
X77232004Y-80609316D01*
X76986540Y-80460928D01*
X76974217Y-80452422D01*
X76748426Y-80275526D01*
X76737218Y-80265596D01*
X76534403Y-80062781D01*
X76524473Y-80051573D01*
X76347573Y-79825776D01*
X76339075Y-79813465D01*
X76190680Y-79567989D01*
X76183727Y-79554743D01*
X76066000Y-79293163D01*
X76060693Y-79279167D01*
X75975364Y-79005336D01*
X75971780Y-78990798D01*
X75920076Y-78708659D01*
X75918271Y-78693794D01*
X75900726Y-78403736D01*
X75900500Y-78396249D01*
X75900500Y-78293713D01*
X77049500Y-78293713D01*
X77049500Y-78506286D01*
X77082753Y-78716239D01*
X77148444Y-78918414D01*
X77244951Y-79107820D01*
X77369890Y-79279786D01*
X77520213Y-79430109D01*
X77692179Y-79555048D01*
X77692181Y-79555049D01*
X77692184Y-79555051D01*
X77881588Y-79651557D01*
X78083757Y-79717246D01*
X78293713Y-79750500D01*
X78293714Y-79750500D01*
X78506286Y-79750500D01*
X78506287Y-79750500D01*
X78716243Y-79717246D01*
X78918412Y-79651557D01*
X79107816Y-79555051D01*
X79129789Y-79539086D01*
X79279786Y-79430109D01*
X79279788Y-79430106D01*
X79279792Y-79430104D01*
X79430104Y-79279792D01*
X79430106Y-79279788D01*
X79430109Y-79279786D01*
X79555048Y-79107820D01*
X79555047Y-79107820D01*
X79555051Y-79107816D01*
X79651557Y-78918412D01*
X79717246Y-78716243D01*
X79750500Y-78506287D01*
X79750500Y-78293713D01*
X79717246Y-78083757D01*
X79651557Y-77881588D01*
X79555051Y-77692184D01*
X79555049Y-77692181D01*
X79555048Y-77692179D01*
X79430109Y-77520213D01*
X79279786Y-77369890D01*
X79107820Y-77244951D01*
X78918414Y-77148444D01*
X78918413Y-77148443D01*
X78918412Y-77148443D01*
X78716243Y-77082754D01*
X78716241Y-77082753D01*
X78716240Y-77082753D01*
X78554957Y-77057208D01*
X78506287Y-77049500D01*
X78293713Y-77049500D01*
X78245042Y-77057208D01*
X78083760Y-77082753D01*
X77881585Y-77148444D01*
X77692179Y-77244951D01*
X77520213Y-77369890D01*
X77369890Y-77520213D01*
X77244951Y-77692179D01*
X77148444Y-77881585D01*
X77082753Y-78083760D01*
X77049500Y-78293713D01*
X75900500Y-78293713D01*
X75900500Y-71502135D01*
X90049500Y-71502135D01*
X90049500Y-73297870D01*
X90049501Y-73297876D01*
X90055908Y-73357483D01*
X90106202Y-73492328D01*
X90106206Y-73492335D01*
X90192452Y-73607544D01*
X90192455Y-73607547D01*
X90307664Y-73693793D01*
X90307671Y-73693797D01*
X90439082Y-73742810D01*
X90495016Y-73784681D01*
X90519433Y-73850145D01*
X90504582Y-73918418D01*
X90483431Y-73946673D01*
X90369889Y-74060215D01*
X90244951Y-74232179D01*
X90148444Y-74421585D01*
X90082753Y-74623760D01*
X90049500Y-74833713D01*
X90049500Y-75046286D01*
X90080965Y-75244951D01*
X90082754Y-75256243D01*
X90143278Y-75442517D01*
X90148444Y-75458414D01*
X90244951Y-75647820D01*
X90369890Y-75819786D01*
X90520213Y-75970109D01*
X90692179Y-76095048D01*
X90692181Y-76095049D01*
X90692184Y-76095051D01*
X90881588Y-76191557D01*
X91083757Y-76257246D01*
X91293713Y-76290500D01*
X91293714Y-76290500D01*
X91506286Y-76290500D01*
X91506287Y-76290500D01*
X91716243Y-76257246D01*
X91918412Y-76191557D01*
X92107816Y-76095051D01*
X92251502Y-75990658D01*
X92279786Y-75970109D01*
X92279788Y-75970106D01*
X92279792Y-75970104D01*
X92430104Y-75819792D01*
X92430106Y-75819788D01*
X92430109Y-75819786D01*
X92555048Y-75647820D01*
X92555047Y-75647820D01*
X92555051Y-75647816D01*
X92629279Y-75502135D01*
X94049500Y-75502135D01*
X94049500Y-77297870D01*
X94049501Y-77297876D01*
X94055908Y-77357483D01*
X94106202Y-77492328D01*
X94106206Y-77492335D01*
X94192452Y-77607544D01*
X94192455Y-77607547D01*
X94307664Y-77693793D01*
X94307671Y-77693797D01*
X94442517Y-77744091D01*
X94442516Y-77744091D01*
X94449444Y-77744835D01*
X94502127Y-77750500D01*
X96297872Y-77750499D01*
X96357483Y-77744091D01*
X96492331Y-77693796D01*
X96607546Y-77607546D01*
X96693796Y-77492331D01*
X96742810Y-77360916D01*
X96784681Y-77304984D01*
X96850145Y-77280566D01*
X96918418Y-77295417D01*
X96946673Y-77316569D01*
X97060213Y-77430109D01*
X97232179Y-77555048D01*
X97232181Y-77555049D01*
X97232184Y-77555051D01*
X97421588Y-77651557D01*
X97623757Y-77717246D01*
X97833713Y-77750500D01*
X97833714Y-77750500D01*
X98046286Y-77750500D01*
X98046287Y-77750500D01*
X98256243Y-77717246D01*
X98458412Y-77651557D01*
X98647816Y-77555051D01*
X98734138Y-77492335D01*
X98819786Y-77430109D01*
X98819788Y-77430106D01*
X98819792Y-77430104D01*
X98970104Y-77279792D01*
X98970106Y-77279788D01*
X98970109Y-77279786D01*
X99095048Y-77107820D01*
X99095047Y-77107820D01*
X99095051Y-77107816D01*
X99191557Y-76918412D01*
X99257246Y-76716243D01*
X99290500Y-76506287D01*
X99290500Y-76293713D01*
X99257246Y-76083757D01*
X99191557Y-75881588D01*
X99095051Y-75692184D01*
X98970104Y-75520208D01*
X98952031Y-75502135D01*
X101049500Y-75502135D01*
X101049500Y-77297870D01*
X101049501Y-77297876D01*
X101055908Y-77357483D01*
X101106202Y-77492328D01*
X101106206Y-77492335D01*
X101192452Y-77607544D01*
X101192455Y-77607547D01*
X101307664Y-77693793D01*
X101307671Y-77693797D01*
X101442517Y-77744091D01*
X101442516Y-77744091D01*
X101449444Y-77744835D01*
X101502127Y-77750500D01*
X103297872Y-77750499D01*
X103357483Y-77744091D01*
X103492331Y-77693796D01*
X103607546Y-77607546D01*
X103693796Y-77492331D01*
X103742810Y-77360916D01*
X103784681Y-77304984D01*
X103850145Y-77280566D01*
X103918418Y-77295417D01*
X103946673Y-77316569D01*
X104060213Y-77430109D01*
X104232179Y-77555048D01*
X104232181Y-77555049D01*
X104232184Y-77555051D01*
X104421588Y-77651557D01*
X104623757Y-77717246D01*
X104833713Y-77750500D01*
X104833714Y-77750500D01*
X105046286Y-77750500D01*
X105046287Y-77750500D01*
X105256243Y-77717246D01*
X105458412Y-77651557D01*
X105647816Y-77555051D01*
X105734138Y-77492335D01*
X105819786Y-77430109D01*
X105819788Y-77430106D01*
X105819792Y-77430104D01*
X105970104Y-77279792D01*
X105970106Y-77279788D01*
X105970109Y-77279786D01*
X106095048Y-77107820D01*
X106095047Y-77107820D01*
X106095051Y-77107816D01*
X106191557Y-76918412D01*
X106257246Y-76716243D01*
X106290500Y-76506287D01*
X106290500Y-76293713D01*
X106257246Y-76083757D01*
X106191557Y-75881588D01*
X106095051Y-75692184D01*
X106095049Y-75692181D01*
X106095048Y-75692179D01*
X105970109Y-75520213D01*
X105819786Y-75369890D01*
X105647820Y-75244951D01*
X105458414Y-75148444D01*
X105458413Y-75148443D01*
X105458412Y-75148443D01*
X105256243Y-75082754D01*
X105256241Y-75082753D01*
X105256240Y-75082753D01*
X105094957Y-75057208D01*
X105046287Y-75049500D01*
X104833713Y-75049500D01*
X104785042Y-75057208D01*
X104623760Y-75082753D01*
X104421585Y-75148444D01*
X104232179Y-75244951D01*
X104060215Y-75369889D01*
X103946673Y-75483431D01*
X103885350Y-75516915D01*
X103815658Y-75511931D01*
X103759725Y-75470059D01*
X103742810Y-75439082D01*
X103693797Y-75307671D01*
X103693793Y-75307664D01*
X103607547Y-75192455D01*
X103607544Y-75192452D01*
X103492335Y-75106206D01*
X103492328Y-75106202D01*
X103357482Y-75055908D01*
X103357483Y-75055908D01*
X103297883Y-75049501D01*
X103297881Y-75049500D01*
X103297873Y-75049500D01*
X103297864Y-75049500D01*
X101502129Y-75049500D01*
X101502123Y-75049501D01*
X101442516Y-75055908D01*
X101307671Y-75106202D01*
X101307664Y-75106206D01*
X101192455Y-75192452D01*
X101192452Y-75192455D01*
X101106206Y-75307664D01*
X101106202Y-75307671D01*
X101055908Y-75442517D01*
X101049501Y-75502116D01*
X101049500Y-75502135D01*
X98952031Y-75502135D01*
X98819792Y-75369896D01*
X98819786Y-75369890D01*
X98647820Y-75244951D01*
X98458414Y-75148444D01*
X98458413Y-75148443D01*
X98458412Y-75148443D01*
X98256243Y-75082754D01*
X98256241Y-75082753D01*
X98256240Y-75082753D01*
X98094957Y-75057208D01*
X98046287Y-75049500D01*
X97833713Y-75049500D01*
X97785042Y-75057208D01*
X97623760Y-75082753D01*
X97421585Y-75148444D01*
X97232179Y-75244951D01*
X97060215Y-75369889D01*
X96946673Y-75483431D01*
X96885350Y-75516915D01*
X96815658Y-75511931D01*
X96759725Y-75470059D01*
X96742810Y-75439082D01*
X96693797Y-75307671D01*
X96693793Y-75307664D01*
X96607547Y-75192455D01*
X96607544Y-75192452D01*
X96492335Y-75106206D01*
X96492328Y-75106202D01*
X96357482Y-75055908D01*
X96357483Y-75055908D01*
X96297883Y-75049501D01*
X96297881Y-75049500D01*
X96297873Y-75049500D01*
X96297864Y-75049500D01*
X94502129Y-75049500D01*
X94502123Y-75049501D01*
X94442516Y-75055908D01*
X94307671Y-75106202D01*
X94307664Y-75106206D01*
X94192455Y-75192452D01*
X94192452Y-75192455D01*
X94106206Y-75307664D01*
X94106202Y-75307671D01*
X94055908Y-75442517D01*
X94049501Y-75502116D01*
X94049500Y-75502135D01*
X92629279Y-75502135D01*
X92651557Y-75458412D01*
X92717246Y-75256243D01*
X92750500Y-75046287D01*
X92750500Y-74833713D01*
X92717246Y-74623757D01*
X92651557Y-74421588D01*
X92555051Y-74232184D01*
X92555049Y-74232181D01*
X92555048Y-74232179D01*
X92430109Y-74060213D01*
X92316569Y-73946673D01*
X92283084Y-73885350D01*
X92288068Y-73815658D01*
X92329940Y-73759725D01*
X92360915Y-73742810D01*
X92492331Y-73693796D01*
X92607546Y-73607546D01*
X92693796Y-73492331D01*
X92744091Y-73357483D01*
X92750500Y-73297873D01*
X92750499Y-71502135D01*
X94049500Y-71502135D01*
X94049500Y-73297870D01*
X94049501Y-73297876D01*
X94055908Y-73357483D01*
X94106202Y-73492328D01*
X94106206Y-73492335D01*
X94192452Y-73607544D01*
X94192455Y-73607547D01*
X94307664Y-73693793D01*
X94307671Y-73693797D01*
X94442517Y-73744091D01*
X94442516Y-73744091D01*
X94449444Y-73744835D01*
X94502127Y-73750500D01*
X96297872Y-73750499D01*
X96357483Y-73744091D01*
X96492331Y-73693796D01*
X96607546Y-73607546D01*
X96693796Y-73492331D01*
X96742810Y-73360916D01*
X96784681Y-73304984D01*
X96850145Y-73280566D01*
X96918418Y-73295417D01*
X96946673Y-73316569D01*
X97060213Y-73430109D01*
X97232179Y-73555048D01*
X97232181Y-73555049D01*
X97232184Y-73555051D01*
X97421588Y-73651557D01*
X97623757Y-73717246D01*
X97833713Y-73750500D01*
X97833714Y-73750500D01*
X98046286Y-73750500D01*
X98046287Y-73750500D01*
X98256243Y-73717246D01*
X98458412Y-73651557D01*
X98647816Y-73555051D01*
X98734138Y-73492335D01*
X98819786Y-73430109D01*
X98819788Y-73430106D01*
X98819792Y-73430104D01*
X98970104Y-73279792D01*
X98970106Y-73279788D01*
X98970109Y-73279786D01*
X99095048Y-73107820D01*
X99095047Y-73107820D01*
X99095051Y-73107816D01*
X99191557Y-72918412D01*
X99257246Y-72716243D01*
X99290500Y-72506287D01*
X99290500Y-72293713D01*
X99257246Y-72083757D01*
X99191557Y-71881588D01*
X99095051Y-71692184D01*
X98970104Y-71520208D01*
X98952031Y-71502135D01*
X101049500Y-71502135D01*
X101049500Y-73297870D01*
X101049501Y-73297876D01*
X101055908Y-73357483D01*
X101106202Y-73492328D01*
X101106206Y-73492335D01*
X101192452Y-73607544D01*
X101192455Y-73607547D01*
X101307664Y-73693793D01*
X101307671Y-73693797D01*
X101442517Y-73744091D01*
X101442516Y-73744091D01*
X101449444Y-73744835D01*
X101502127Y-73750500D01*
X103297872Y-73750499D01*
X103357483Y-73744091D01*
X103492331Y-73693796D01*
X103607546Y-73607546D01*
X103693796Y-73492331D01*
X103742810Y-73360916D01*
X103784681Y-73304984D01*
X103850145Y-73280566D01*
X103918418Y-73295417D01*
X103946673Y-73316569D01*
X104060213Y-73430109D01*
X104232179Y-73555048D01*
X104232181Y-73555049D01*
X104232184Y-73555051D01*
X104421588Y-73651557D01*
X104623757Y-73717246D01*
X104833713Y-73750500D01*
X104833714Y-73750500D01*
X105046286Y-73750500D01*
X105046287Y-73750500D01*
X105256243Y-73717246D01*
X105379691Y-73677135D01*
X112862000Y-73677135D01*
X112862000Y-75472870D01*
X112862001Y-75472876D01*
X112868408Y-75532483D01*
X112918702Y-75667328D01*
X112918706Y-75667335D01*
X113004952Y-75782544D01*
X113004955Y-75782547D01*
X113120164Y-75868793D01*
X113120171Y-75868797D01*
X113251582Y-75917810D01*
X113307516Y-75959681D01*
X113331933Y-76025145D01*
X113317082Y-76093418D01*
X113295931Y-76121673D01*
X113182389Y-76235215D01*
X113057451Y-76407179D01*
X112960944Y-76596585D01*
X112895253Y-76798760D01*
X112862000Y-77008713D01*
X112862000Y-77221286D01*
X112895073Y-77430104D01*
X112895254Y-77431243D01*
X112924162Y-77520213D01*
X112960944Y-77633414D01*
X113057451Y-77822820D01*
X113182390Y-77994786D01*
X113332713Y-78145109D01*
X113504679Y-78270048D01*
X113504681Y-78270049D01*
X113504684Y-78270051D01*
X113694088Y-78366557D01*
X113896257Y-78432246D01*
X114106213Y-78465500D01*
X114106214Y-78465500D01*
X114318786Y-78465500D01*
X114318787Y-78465500D01*
X114528743Y-78432246D01*
X114730912Y-78366557D01*
X114873877Y-78293713D01*
X122049500Y-78293713D01*
X122049500Y-78506286D01*
X122082753Y-78716239D01*
X122148444Y-78918414D01*
X122244951Y-79107820D01*
X122369890Y-79279786D01*
X122520213Y-79430109D01*
X122692179Y-79555048D01*
X122692181Y-79555049D01*
X122692184Y-79555051D01*
X122881588Y-79651557D01*
X123083757Y-79717246D01*
X123293713Y-79750500D01*
X123293714Y-79750500D01*
X123506286Y-79750500D01*
X123506287Y-79750500D01*
X123716243Y-79717246D01*
X123918412Y-79651557D01*
X124107816Y-79555051D01*
X124129789Y-79539086D01*
X124279786Y-79430109D01*
X124279788Y-79430106D01*
X124279792Y-79430104D01*
X124430104Y-79279792D01*
X124430106Y-79279788D01*
X124430109Y-79279786D01*
X124555048Y-79107820D01*
X124555047Y-79107820D01*
X124555051Y-79107816D01*
X124651557Y-78918412D01*
X124717246Y-78716243D01*
X124750500Y-78506287D01*
X124750500Y-78293713D01*
X124717246Y-78083757D01*
X124651557Y-77881588D01*
X124555051Y-77692184D01*
X124555049Y-77692181D01*
X124555048Y-77692179D01*
X124430109Y-77520213D01*
X124279786Y-77369890D01*
X124107820Y-77244951D01*
X123918414Y-77148444D01*
X123918413Y-77148443D01*
X123918412Y-77148443D01*
X123716243Y-77082754D01*
X123716241Y-77082753D01*
X123716240Y-77082753D01*
X123554957Y-77057208D01*
X123506287Y-77049500D01*
X123293713Y-77049500D01*
X123245042Y-77057208D01*
X123083760Y-77082753D01*
X122881585Y-77148444D01*
X122692179Y-77244951D01*
X122520213Y-77369890D01*
X122369890Y-77520213D01*
X122244951Y-77692179D01*
X122148444Y-77881585D01*
X122082753Y-78083760D01*
X122049500Y-78293713D01*
X114873877Y-78293713D01*
X114920316Y-78270051D01*
X115032532Y-78188522D01*
X115032534Y-78188521D01*
X115092285Y-78145109D01*
X115092283Y-78145109D01*
X115092292Y-78145104D01*
X115242604Y-77994792D01*
X115242606Y-77994788D01*
X115242609Y-77994786D01*
X115367548Y-77822820D01*
X115367547Y-77822820D01*
X115367551Y-77822816D01*
X115464057Y-77633412D01*
X115529746Y-77431243D01*
X115563000Y-77221287D01*
X115563000Y-77008713D01*
X115529746Y-76798757D01*
X115464057Y-76596588D01*
X115367551Y-76407184D01*
X115367549Y-76407181D01*
X115367548Y-76407179D01*
X115242609Y-76235213D01*
X115129069Y-76121673D01*
X115095584Y-76060350D01*
X115100568Y-75990658D01*
X115142440Y-75934725D01*
X115173415Y-75917810D01*
X115304831Y-75868796D01*
X115420046Y-75782546D01*
X115506296Y-75667331D01*
X115556591Y-75532483D01*
X115563000Y-75472873D01*
X115562999Y-73677128D01*
X115556591Y-73617517D01*
X115552872Y-73607547D01*
X115506297Y-73482671D01*
X115506293Y-73482664D01*
X115420047Y-73367455D01*
X115420044Y-73367452D01*
X115304835Y-73281206D01*
X115304828Y-73281202D01*
X115169982Y-73230908D01*
X115169983Y-73230908D01*
X115110383Y-73224501D01*
X115110381Y-73224500D01*
X115110373Y-73224500D01*
X115110364Y-73224500D01*
X113314629Y-73224500D01*
X113314623Y-73224501D01*
X113255016Y-73230908D01*
X113120171Y-73281202D01*
X113120164Y-73281206D01*
X113004955Y-73367452D01*
X113004952Y-73367455D01*
X112918706Y-73482664D01*
X112918702Y-73482671D01*
X112868408Y-73617517D01*
X112864749Y-73651555D01*
X112862001Y-73677123D01*
X112862000Y-73677135D01*
X105379691Y-73677135D01*
X105458412Y-73651557D01*
X105647816Y-73555051D01*
X105747449Y-73482664D01*
X105819786Y-73430109D01*
X105819788Y-73430106D01*
X105819792Y-73430104D01*
X105970104Y-73279792D01*
X105970106Y-73279788D01*
X105970109Y-73279786D01*
X106095048Y-73107820D01*
X106095047Y-73107820D01*
X106095051Y-73107816D01*
X106191557Y-72918412D01*
X106257246Y-72716243D01*
X106290500Y-72506287D01*
X106290500Y-72293713D01*
X106257246Y-72083757D01*
X106191557Y-71881588D01*
X106095051Y-71692184D01*
X106095049Y-71692181D01*
X106095048Y-71692179D01*
X105970109Y-71520213D01*
X105819786Y-71369890D01*
X105647820Y-71244951D01*
X105458414Y-71148444D01*
X105458413Y-71148443D01*
X105458412Y-71148443D01*
X105256243Y-71082754D01*
X105256241Y-71082753D01*
X105256240Y-71082753D01*
X105094957Y-71057208D01*
X105046287Y-71049500D01*
X104833713Y-71049500D01*
X104785042Y-71057208D01*
X104623760Y-71082753D01*
X104421585Y-71148444D01*
X104232179Y-71244951D01*
X104060215Y-71369889D01*
X103946673Y-71483431D01*
X103885350Y-71516915D01*
X103815658Y-71511931D01*
X103759725Y-71470059D01*
X103742810Y-71439082D01*
X103693797Y-71307671D01*
X103693793Y-71307664D01*
X103607547Y-71192455D01*
X103607544Y-71192452D01*
X103492335Y-71106206D01*
X103492328Y-71106202D01*
X103357482Y-71055908D01*
X103357483Y-71055908D01*
X103297883Y-71049501D01*
X103297881Y-71049500D01*
X103297873Y-71049500D01*
X103297864Y-71049500D01*
X101502129Y-71049500D01*
X101502123Y-71049501D01*
X101442516Y-71055908D01*
X101307671Y-71106202D01*
X101307664Y-71106206D01*
X101192455Y-71192452D01*
X101192452Y-71192455D01*
X101106206Y-71307664D01*
X101106202Y-71307671D01*
X101055908Y-71442517D01*
X101049501Y-71502116D01*
X101049500Y-71502135D01*
X98952031Y-71502135D01*
X98819792Y-71369896D01*
X98819786Y-71369890D01*
X98647820Y-71244951D01*
X98458414Y-71148444D01*
X98458413Y-71148443D01*
X98458412Y-71148443D01*
X98256243Y-71082754D01*
X98256241Y-71082753D01*
X98256240Y-71082753D01*
X98094957Y-71057208D01*
X98046287Y-71049500D01*
X97833713Y-71049500D01*
X97785042Y-71057208D01*
X97623760Y-71082753D01*
X97421585Y-71148444D01*
X97232179Y-71244951D01*
X97060215Y-71369889D01*
X96946673Y-71483431D01*
X96885350Y-71516915D01*
X96815658Y-71511931D01*
X96759725Y-71470059D01*
X96742810Y-71439082D01*
X96693797Y-71307671D01*
X96693793Y-71307664D01*
X96607547Y-71192455D01*
X96607544Y-71192452D01*
X96492335Y-71106206D01*
X96492328Y-71106202D01*
X96357482Y-71055908D01*
X96357483Y-71055908D01*
X96297883Y-71049501D01*
X96297881Y-71049500D01*
X96297873Y-71049500D01*
X96297864Y-71049500D01*
X94502129Y-71049500D01*
X94502123Y-71049501D01*
X94442516Y-71055908D01*
X94307671Y-71106202D01*
X94307664Y-71106206D01*
X94192455Y-71192452D01*
X94192452Y-71192455D01*
X94106206Y-71307664D01*
X94106202Y-71307671D01*
X94055908Y-71442517D01*
X94049501Y-71502116D01*
X94049500Y-71502135D01*
X92750499Y-71502135D01*
X92750499Y-71502128D01*
X92744091Y-71442517D01*
X92693796Y-71307669D01*
X92693795Y-71307668D01*
X92693793Y-71307664D01*
X92607547Y-71192455D01*
X92607544Y-71192452D01*
X92492335Y-71106206D01*
X92492328Y-71106202D01*
X92357482Y-71055908D01*
X92357483Y-71055908D01*
X92297883Y-71049501D01*
X92297881Y-71049500D01*
X92297873Y-71049500D01*
X92297864Y-71049500D01*
X90502129Y-71049500D01*
X90502123Y-71049501D01*
X90442516Y-71055908D01*
X90307671Y-71106202D01*
X90307664Y-71106206D01*
X90192455Y-71192452D01*
X90192452Y-71192455D01*
X90106206Y-71307664D01*
X90106202Y-71307671D01*
X90055908Y-71442517D01*
X90049501Y-71502116D01*
X90049500Y-71502135D01*
X75900500Y-71502135D01*
X75900500Y-65393713D01*
X88369500Y-65393713D01*
X88369500Y-65606286D01*
X88402753Y-65816239D01*
X88468444Y-66018414D01*
X88564951Y-66207820D01*
X88689890Y-66379786D01*
X88840213Y-66530109D01*
X89012179Y-66655048D01*
X89012181Y-66655049D01*
X89012184Y-66655051D01*
X89201588Y-66751557D01*
X89403757Y-66817246D01*
X89613713Y-66850500D01*
X89613714Y-66850500D01*
X89826286Y-66850500D01*
X89826287Y-66850500D01*
X90036243Y-66817246D01*
X90238412Y-66751557D01*
X90427816Y-66655051D01*
X90514138Y-66592335D01*
X90599786Y-66530109D01*
X90599788Y-66530106D01*
X90599792Y-66530104D01*
X90750104Y-66379792D01*
X90750106Y-66379788D01*
X90750109Y-66379786D01*
X90875048Y-66207820D01*
X90875047Y-66207820D01*
X90875051Y-66207816D01*
X90879514Y-66199054D01*
X90927488Y-66148259D01*
X90995308Y-66131463D01*
X91061444Y-66153999D01*
X91100486Y-66199056D01*
X91104951Y-66207820D01*
X91229890Y-66379786D01*
X91380213Y-66530109D01*
X91552179Y-66655048D01*
X91552181Y-66655049D01*
X91552184Y-66655051D01*
X91741588Y-66751557D01*
X91943757Y-66817246D01*
X92153713Y-66850500D01*
X92153714Y-66850500D01*
X92366286Y-66850500D01*
X92366287Y-66850500D01*
X92576243Y-66817246D01*
X92778412Y-66751557D01*
X92967816Y-66655051D01*
X93054138Y-66592335D01*
X93139786Y-66530109D01*
X93139788Y-66530106D01*
X93139792Y-66530104D01*
X93290104Y-66379792D01*
X93290106Y-66379788D01*
X93290109Y-66379786D01*
X93415048Y-66207820D01*
X93415047Y-66207820D01*
X93415051Y-66207816D01*
X93419514Y-66199054D01*
X93467488Y-66148259D01*
X93535308Y-66131463D01*
X93601444Y-66153999D01*
X93640486Y-66199056D01*
X93644951Y-66207820D01*
X93769890Y-66379786D01*
X93920213Y-66530109D01*
X94092179Y-66655048D01*
X94092181Y-66655049D01*
X94092184Y-66655051D01*
X94281588Y-66751557D01*
X94483757Y-66817246D01*
X94693713Y-66850500D01*
X94693714Y-66850500D01*
X94906286Y-66850500D01*
X94906287Y-66850500D01*
X95116243Y-66817246D01*
X95318412Y-66751557D01*
X95507816Y-66655051D01*
X95594138Y-66592335D01*
X95679786Y-66530109D01*
X95679788Y-66530106D01*
X95679792Y-66530104D01*
X95830104Y-66379792D01*
X95830106Y-66379788D01*
X95830109Y-66379786D01*
X95955048Y-66207820D01*
X95955047Y-66207820D01*
X95955051Y-66207816D01*
X95959514Y-66199054D01*
X96007488Y-66148259D01*
X96075308Y-66131463D01*
X96141444Y-66153999D01*
X96180486Y-66199056D01*
X96184951Y-66207820D01*
X96309890Y-66379786D01*
X96460213Y-66530109D01*
X96632179Y-66655048D01*
X96632181Y-66655049D01*
X96632184Y-66655051D01*
X96821588Y-66751557D01*
X97023757Y-66817246D01*
X97233713Y-66850500D01*
X97233714Y-66850500D01*
X97446286Y-66850500D01*
X97446287Y-66850500D01*
X97656243Y-66817246D01*
X97858412Y-66751557D01*
X98047816Y-66655051D01*
X98134478Y-66592088D01*
X98219784Y-66530110D01*
X98219784Y-66530109D01*
X98219792Y-66530104D01*
X98333717Y-66416178D01*
X98395036Y-66382696D01*
X98464728Y-66387680D01*
X98520662Y-66429551D01*
X98537577Y-66460528D01*
X98586646Y-66592088D01*
X98586649Y-66592093D01*
X98672809Y-66707187D01*
X98672812Y-66707190D01*
X98787906Y-66793350D01*
X98787913Y-66793354D01*
X98922620Y-66843596D01*
X98922627Y-66843598D01*
X98982155Y-66849999D01*
X98982172Y-66850000D01*
X99630000Y-66850000D01*
X99630000Y-65933012D01*
X99687007Y-65965925D01*
X99814174Y-66000000D01*
X99945826Y-66000000D01*
X100072993Y-65965925D01*
X100130000Y-65933012D01*
X100130000Y-66850000D01*
X100777828Y-66850000D01*
X100777844Y-66849999D01*
X100837372Y-66843598D01*
X100837379Y-66843596D01*
X100972086Y-66793354D01*
X100972093Y-66793350D01*
X101087187Y-66707190D01*
X101087190Y-66707187D01*
X101173350Y-66592093D01*
X101173354Y-66592086D01*
X101223596Y-66457379D01*
X101223598Y-66457372D01*
X101229999Y-66397844D01*
X101230000Y-66397827D01*
X101230000Y-65750000D01*
X100313012Y-65750000D01*
X100345925Y-65692993D01*
X100380000Y-65565826D01*
X100380000Y-65434174D01*
X100369158Y-65393713D01*
X102849500Y-65393713D01*
X102849500Y-65606286D01*
X102882753Y-65816239D01*
X102948444Y-66018414D01*
X103044951Y-66207820D01*
X103169890Y-66379786D01*
X103320213Y-66530109D01*
X103492179Y-66655048D01*
X103492181Y-66655049D01*
X103492184Y-66655051D01*
X103681588Y-66751557D01*
X103883757Y-66817246D01*
X104093713Y-66850500D01*
X104093714Y-66850500D01*
X104306286Y-66850500D01*
X104306287Y-66850500D01*
X104516243Y-66817246D01*
X104718412Y-66751557D01*
X104907816Y-66655051D01*
X104994138Y-66592335D01*
X105079786Y-66530109D01*
X105079788Y-66530106D01*
X105079792Y-66530104D01*
X105230104Y-66379792D01*
X105230106Y-66379788D01*
X105230109Y-66379786D01*
X105355048Y-66207820D01*
X105355047Y-66207820D01*
X105355051Y-66207816D01*
X105359514Y-66199054D01*
X105407488Y-66148259D01*
X105475308Y-66131463D01*
X105541444Y-66153999D01*
X105580486Y-66199056D01*
X105584951Y-66207820D01*
X105709890Y-66379786D01*
X105860213Y-66530109D01*
X106032179Y-66655048D01*
X106032181Y-66655049D01*
X106032184Y-66655051D01*
X106221588Y-66751557D01*
X106423757Y-66817246D01*
X106633713Y-66850500D01*
X106633714Y-66850500D01*
X106846286Y-66850500D01*
X106846287Y-66850500D01*
X107056243Y-66817246D01*
X107258412Y-66751557D01*
X107447816Y-66655051D01*
X107534138Y-66592335D01*
X107619786Y-66530109D01*
X107619788Y-66530106D01*
X107619792Y-66530104D01*
X107770104Y-66379792D01*
X107770106Y-66379788D01*
X107770109Y-66379786D01*
X107837515Y-66287007D01*
X107895051Y-66207816D01*
X107899793Y-66198508D01*
X107947763Y-66147711D01*
X108015583Y-66130911D01*
X108081719Y-66153445D01*
X108120763Y-66198500D01*
X108125373Y-66207547D01*
X108164728Y-66261716D01*
X108797037Y-65629408D01*
X108814075Y-65692993D01*
X108879901Y-65807007D01*
X108972993Y-65900099D01*
X109087007Y-65965925D01*
X109150590Y-65982962D01*
X108518282Y-66615269D01*
X108518282Y-66615270D01*
X108572449Y-66654624D01*
X108761782Y-66751095D01*
X108963870Y-66816757D01*
X109173754Y-66850000D01*
X109386246Y-66850000D01*
X109596127Y-66816757D01*
X109596130Y-66816757D01*
X109798217Y-66751095D01*
X109987554Y-66654622D01*
X110041716Y-66615270D01*
X110041717Y-66615270D01*
X109409408Y-65982962D01*
X109472993Y-65965925D01*
X109587007Y-65900099D01*
X109680099Y-65807007D01*
X109745925Y-65692993D01*
X109762962Y-65629409D01*
X110433181Y-66299628D01*
X110466666Y-66360951D01*
X110469500Y-66387300D01*
X110469500Y-66397865D01*
X110469501Y-66397876D01*
X110475908Y-66457483D01*
X110526202Y-66592328D01*
X110526206Y-66592335D01*
X110612452Y-66707544D01*
X110612455Y-66707547D01*
X110727664Y-66793793D01*
X110727671Y-66793797D01*
X110862517Y-66844091D01*
X110862516Y-66844091D01*
X110869444Y-66844835D01*
X110922127Y-66850500D01*
X112717872Y-66850499D01*
X112777483Y-66844091D01*
X112912331Y-66793796D01*
X113027546Y-66707546D01*
X113113796Y-66592331D01*
X113164091Y-66457483D01*
X113170500Y-66397873D01*
X113170499Y-64602128D01*
X113164091Y-64542517D01*
X113113884Y-64407906D01*
X113113797Y-64407671D01*
X113113793Y-64407664D01*
X113027547Y-64292455D01*
X113027544Y-64292452D01*
X112912335Y-64206206D01*
X112912328Y-64206202D01*
X112777482Y-64155908D01*
X112777483Y-64155908D01*
X112717883Y-64149501D01*
X112717881Y-64149500D01*
X112717873Y-64149500D01*
X112717864Y-64149500D01*
X110922129Y-64149500D01*
X110922123Y-64149501D01*
X110862516Y-64155908D01*
X110727671Y-64206202D01*
X110727664Y-64206206D01*
X110612455Y-64292452D01*
X110612452Y-64292455D01*
X110526206Y-64407664D01*
X110526202Y-64407671D01*
X110475908Y-64542517D01*
X110470223Y-64595404D01*
X110469501Y-64602123D01*
X110469500Y-64602135D01*
X110469500Y-64612690D01*
X110449815Y-64679729D01*
X110433181Y-64700371D01*
X109762962Y-65370590D01*
X109745925Y-65307007D01*
X109680099Y-65192993D01*
X109587007Y-65099901D01*
X109472993Y-65034075D01*
X109409409Y-65017037D01*
X110041716Y-64384728D01*
X109987550Y-64345375D01*
X109798217Y-64248904D01*
X109596129Y-64183242D01*
X109386246Y-64150000D01*
X109173754Y-64150000D01*
X108963872Y-64183242D01*
X108963869Y-64183242D01*
X108761782Y-64248904D01*
X108572439Y-64345380D01*
X108518282Y-64384727D01*
X108518282Y-64384728D01*
X109150591Y-65017037D01*
X109087007Y-65034075D01*
X108972993Y-65099901D01*
X108879901Y-65192993D01*
X108814075Y-65307007D01*
X108797037Y-65370591D01*
X108164728Y-64738282D01*
X108164727Y-64738282D01*
X108125380Y-64792440D01*
X108125376Y-64792446D01*
X108120760Y-64801505D01*
X108072781Y-64852297D01*
X108004959Y-64869087D01*
X107938826Y-64846543D01*
X107899794Y-64801493D01*
X107895051Y-64792184D01*
X107895049Y-64792181D01*
X107895048Y-64792179D01*
X107770109Y-64620213D01*
X107619786Y-64469890D01*
X107447820Y-64344951D01*
X107258414Y-64248444D01*
X107258413Y-64248443D01*
X107258412Y-64248443D01*
X107056243Y-64182754D01*
X107056241Y-64182753D01*
X107056240Y-64182753D01*
X106894957Y-64157208D01*
X106846287Y-64149500D01*
X106633713Y-64149500D01*
X106585042Y-64157208D01*
X106423760Y-64182753D01*
X106221585Y-64248444D01*
X106032179Y-64344951D01*
X105860213Y-64469890D01*
X105709890Y-64620213D01*
X105584949Y-64792182D01*
X105580484Y-64800946D01*
X105532509Y-64851742D01*
X105464688Y-64868536D01*
X105398553Y-64845998D01*
X105359516Y-64800946D01*
X105355050Y-64792182D01*
X105230109Y-64620213D01*
X105079786Y-64469890D01*
X104907820Y-64344951D01*
X104718414Y-64248444D01*
X104718413Y-64248443D01*
X104718412Y-64248443D01*
X104516243Y-64182754D01*
X104516241Y-64182753D01*
X104516240Y-64182753D01*
X104354957Y-64157208D01*
X104306287Y-64149500D01*
X104093713Y-64149500D01*
X104045042Y-64157208D01*
X103883760Y-64182753D01*
X103681585Y-64248444D01*
X103492179Y-64344951D01*
X103320213Y-64469890D01*
X103169890Y-64620213D01*
X103044951Y-64792179D01*
X102948444Y-64981585D01*
X102882753Y-65183760D01*
X102849500Y-65393713D01*
X100369158Y-65393713D01*
X100345925Y-65307007D01*
X100313012Y-65250000D01*
X101230000Y-65250000D01*
X101230000Y-64602172D01*
X101229999Y-64602155D01*
X101223598Y-64542627D01*
X101223596Y-64542620D01*
X101173354Y-64407913D01*
X101173350Y-64407906D01*
X101087190Y-64292812D01*
X101087187Y-64292809D01*
X100972093Y-64206649D01*
X100972086Y-64206645D01*
X100837379Y-64156403D01*
X100837372Y-64156401D01*
X100777844Y-64150000D01*
X100130000Y-64150000D01*
X100130000Y-65066988D01*
X100072993Y-65034075D01*
X99945826Y-65000000D01*
X99814174Y-65000000D01*
X99687007Y-65034075D01*
X99630000Y-65066988D01*
X99630000Y-64150000D01*
X98982155Y-64150000D01*
X98922627Y-64156401D01*
X98922620Y-64156403D01*
X98787913Y-64206645D01*
X98787906Y-64206649D01*
X98672812Y-64292809D01*
X98672809Y-64292812D01*
X98586649Y-64407906D01*
X98586646Y-64407912D01*
X98537577Y-64539471D01*
X98495705Y-64595404D01*
X98430241Y-64619821D01*
X98361968Y-64604969D01*
X98333714Y-64583818D01*
X98219786Y-64469890D01*
X98047820Y-64344951D01*
X97858414Y-64248444D01*
X97858413Y-64248443D01*
X97858412Y-64248443D01*
X97656243Y-64182754D01*
X97656241Y-64182753D01*
X97656240Y-64182753D01*
X97494957Y-64157208D01*
X97446287Y-64149500D01*
X97233713Y-64149500D01*
X97185042Y-64157208D01*
X97023760Y-64182753D01*
X96821585Y-64248444D01*
X96632179Y-64344951D01*
X96460213Y-64469890D01*
X96309890Y-64620213D01*
X96184949Y-64792182D01*
X96180484Y-64800946D01*
X96132509Y-64851742D01*
X96064688Y-64868536D01*
X95998553Y-64845998D01*
X95959516Y-64800946D01*
X95955050Y-64792182D01*
X95830109Y-64620213D01*
X95679786Y-64469890D01*
X95507820Y-64344951D01*
X95318414Y-64248444D01*
X95318413Y-64248443D01*
X95318412Y-64248443D01*
X95116243Y-64182754D01*
X95116241Y-64182753D01*
X95116240Y-64182753D01*
X94954957Y-64157208D01*
X94906287Y-64149500D01*
X94693713Y-64149500D01*
X94645042Y-64157208D01*
X94483760Y-64182753D01*
X94281585Y-64248444D01*
X94092179Y-64344951D01*
X93920213Y-64469890D01*
X93769890Y-64620213D01*
X93644949Y-64792182D01*
X93640484Y-64800946D01*
X93592509Y-64851742D01*
X93524688Y-64868536D01*
X93458553Y-64845998D01*
X93419516Y-64800946D01*
X93415050Y-64792182D01*
X93290109Y-64620213D01*
X93139786Y-64469890D01*
X92967820Y-64344951D01*
X92778414Y-64248444D01*
X92778413Y-64248443D01*
X92778412Y-64248443D01*
X92576243Y-64182754D01*
X92576241Y-64182753D01*
X92576240Y-64182753D01*
X92414957Y-64157208D01*
X92366287Y-64149500D01*
X92153713Y-64149500D01*
X92105042Y-64157208D01*
X91943760Y-64182753D01*
X91741585Y-64248444D01*
X91552179Y-64344951D01*
X91380213Y-64469890D01*
X91229890Y-64620213D01*
X91104949Y-64792182D01*
X91100484Y-64800946D01*
X91052509Y-64851742D01*
X90984688Y-64868536D01*
X90918553Y-64845998D01*
X90879516Y-64800946D01*
X90875050Y-64792182D01*
X90750109Y-64620213D01*
X90599786Y-64469890D01*
X90427820Y-64344951D01*
X90238414Y-64248444D01*
X90238413Y-64248443D01*
X90238412Y-64248443D01*
X90036243Y-64182754D01*
X90036241Y-64182753D01*
X90036240Y-64182753D01*
X89874957Y-64157208D01*
X89826287Y-64149500D01*
X89613713Y-64149500D01*
X89565042Y-64157208D01*
X89403760Y-64182753D01*
X89201585Y-64248444D01*
X89012179Y-64344951D01*
X88840213Y-64469890D01*
X88689890Y-64620213D01*
X88564951Y-64792179D01*
X88468444Y-64981585D01*
X88402753Y-65183760D01*
X88369500Y-65393713D01*
X75900500Y-65393713D01*
X75900500Y-60734116D01*
X77785964Y-60734116D01*
X77785964Y-60891809D01*
X77816725Y-61046452D01*
X77816728Y-61046464D01*
X77877066Y-61192135D01*
X77877073Y-61192148D01*
X77964674Y-61323251D01*
X77964677Y-61323255D01*
X78076171Y-61434749D01*
X78076175Y-61434752D01*
X78207278Y-61522353D01*
X78207291Y-61522360D01*
X78352962Y-61582698D01*
X78352967Y-61582700D01*
X78507617Y-61613462D01*
X78507620Y-61613463D01*
X78507622Y-61613463D01*
X78665308Y-61613463D01*
X78665309Y-61613462D01*
X78819961Y-61582700D01*
X78965643Y-61522357D01*
X79096753Y-61434752D01*
X79208253Y-61323252D01*
X79295858Y-61192142D01*
X79356201Y-61046460D01*
X79381126Y-60921153D01*
X105299500Y-60921153D01*
X105299500Y-61078846D01*
X105330261Y-61233489D01*
X105330264Y-61233501D01*
X105390602Y-61379172D01*
X105390609Y-61379185D01*
X105478210Y-61510288D01*
X105478213Y-61510292D01*
X105589707Y-61621786D01*
X105589711Y-61621789D01*
X105720814Y-61709390D01*
X105720827Y-61709397D01*
X105866498Y-61769735D01*
X105866503Y-61769737D01*
X106021153Y-61800499D01*
X106021156Y-61800500D01*
X106021158Y-61800500D01*
X106178844Y-61800500D01*
X106178845Y-61800499D01*
X106333497Y-61769737D01*
X106479179Y-61709394D01*
X106610289Y-61621789D01*
X106721789Y-61510289D01*
X106809394Y-61379179D01*
X106869737Y-61233497D01*
X106900500Y-61078842D01*
X106900500Y-60921158D01*
X106900500Y-60921155D01*
X106900499Y-60921153D01*
X106869738Y-60766510D01*
X106869737Y-60766503D01*
X106856322Y-60734116D01*
X106809397Y-60620827D01*
X106809390Y-60620814D01*
X106721789Y-60489711D01*
X106721786Y-60489707D01*
X106610292Y-60378213D01*
X106610288Y-60378210D01*
X106479185Y-60290609D01*
X106479172Y-60290602D01*
X106333501Y-60230264D01*
X106333489Y-60230261D01*
X106178845Y-60199500D01*
X106178842Y-60199500D01*
X106021158Y-60199500D01*
X106021155Y-60199500D01*
X105866510Y-60230261D01*
X105866498Y-60230264D01*
X105720827Y-60290602D01*
X105720814Y-60290609D01*
X105589711Y-60378210D01*
X105589707Y-60378213D01*
X105478213Y-60489707D01*
X105478210Y-60489711D01*
X105390609Y-60620814D01*
X105390602Y-60620827D01*
X105330264Y-60766498D01*
X105330261Y-60766510D01*
X105299500Y-60921153D01*
X79381126Y-60921153D01*
X79386964Y-60891805D01*
X79386964Y-60734121D01*
X79386964Y-60734118D01*
X79386963Y-60734116D01*
X79364427Y-60620821D01*
X79356201Y-60579466D01*
X79319022Y-60489707D01*
X79295861Y-60433790D01*
X79295854Y-60433777D01*
X79208253Y-60302674D01*
X79208250Y-60302670D01*
X79096756Y-60191176D01*
X79096752Y-60191173D01*
X78965649Y-60103572D01*
X78965636Y-60103565D01*
X78819965Y-60043227D01*
X78819953Y-60043224D01*
X78665309Y-60012463D01*
X78665306Y-60012463D01*
X78507622Y-60012463D01*
X78507619Y-60012463D01*
X78352974Y-60043224D01*
X78352962Y-60043227D01*
X78207291Y-60103565D01*
X78207278Y-60103572D01*
X78076175Y-60191173D01*
X78076171Y-60191176D01*
X77964677Y-60302670D01*
X77964674Y-60302674D01*
X77877073Y-60433777D01*
X77877066Y-60433790D01*
X77816728Y-60579461D01*
X77816725Y-60579473D01*
X77785964Y-60734116D01*
X75900500Y-60734116D01*
X75900500Y-58672674D01*
X78441109Y-58672674D01*
X78441109Y-58830367D01*
X78471870Y-58985010D01*
X78471873Y-58985022D01*
X78532211Y-59130693D01*
X78532218Y-59130706D01*
X78619819Y-59261809D01*
X78619822Y-59261813D01*
X78731316Y-59373307D01*
X78731320Y-59373310D01*
X78862423Y-59460911D01*
X78862436Y-59460918D01*
X79008107Y-59521256D01*
X79008112Y-59521258D01*
X79162762Y-59552020D01*
X79162765Y-59552021D01*
X79162767Y-59552021D01*
X79320453Y-59552021D01*
X79320454Y-59552020D01*
X79475106Y-59521258D01*
X79620788Y-59460915D01*
X79751898Y-59373310D01*
X79863398Y-59261810D01*
X79951003Y-59130700D01*
X79951004Y-59130697D01*
X79951006Y-59130694D01*
X79954958Y-59121153D01*
X87699500Y-59121153D01*
X87699500Y-59278846D01*
X87730261Y-59433489D01*
X87730264Y-59433501D01*
X87790602Y-59579172D01*
X87790609Y-59579185D01*
X87878210Y-59710288D01*
X87878213Y-59710292D01*
X87989707Y-59821786D01*
X87989711Y-59821789D01*
X88120814Y-59909390D01*
X88120827Y-59909397D01*
X88266498Y-59969735D01*
X88266503Y-59969737D01*
X88421153Y-60000499D01*
X88421156Y-60000500D01*
X88421158Y-60000500D01*
X88578844Y-60000500D01*
X88578845Y-60000499D01*
X88733497Y-59969737D01*
X88879179Y-59909394D01*
X89010289Y-59821789D01*
X89121789Y-59710289D01*
X89209394Y-59579179D01*
X89269737Y-59433497D01*
X89300500Y-59278842D01*
X89300500Y-59121158D01*
X89300500Y-59121155D01*
X89300499Y-59121153D01*
X89289849Y-59067613D01*
X89269737Y-58966503D01*
X89269735Y-58966498D01*
X89209397Y-58820827D01*
X89209390Y-58820814D01*
X89121789Y-58689711D01*
X89121786Y-58689707D01*
X89010292Y-58578213D01*
X89010288Y-58578210D01*
X88879185Y-58490609D01*
X88879172Y-58490602D01*
X88733501Y-58430264D01*
X88733489Y-58430261D01*
X88578845Y-58399500D01*
X88578842Y-58399500D01*
X88421158Y-58399500D01*
X88421155Y-58399500D01*
X88266510Y-58430261D01*
X88266498Y-58430264D01*
X88120827Y-58490602D01*
X88120814Y-58490609D01*
X87989711Y-58578210D01*
X87989707Y-58578213D01*
X87878213Y-58689707D01*
X87878210Y-58689711D01*
X87790609Y-58820814D01*
X87790602Y-58820827D01*
X87730264Y-58966498D01*
X87730261Y-58966510D01*
X87699500Y-59121153D01*
X79954958Y-59121153D01*
X79977134Y-59067614D01*
X79977134Y-59067613D01*
X80011346Y-58985018D01*
X80042109Y-58830363D01*
X80042109Y-58672679D01*
X80042109Y-58672676D01*
X80042108Y-58672674D01*
X80011347Y-58518031D01*
X80011346Y-58518024D01*
X80011344Y-58518019D01*
X79951006Y-58372348D01*
X79950999Y-58372335D01*
X79863398Y-58241232D01*
X79863395Y-58241228D01*
X79751901Y-58129734D01*
X79751897Y-58129731D01*
X79620794Y-58042130D01*
X79620781Y-58042123D01*
X79475110Y-57981785D01*
X79475098Y-57981782D01*
X79320454Y-57951021D01*
X79320451Y-57951021D01*
X79162767Y-57951021D01*
X79162764Y-57951021D01*
X79008119Y-57981782D01*
X79008107Y-57981785D01*
X78862436Y-58042123D01*
X78862423Y-58042130D01*
X78731320Y-58129731D01*
X78731316Y-58129734D01*
X78619822Y-58241228D01*
X78619819Y-58241232D01*
X78532218Y-58372335D01*
X78532211Y-58372348D01*
X78471873Y-58518019D01*
X78471870Y-58518031D01*
X78441109Y-58672674D01*
X75900500Y-58672674D01*
X75900500Y-57221153D01*
X93099500Y-57221153D01*
X93099500Y-57378846D01*
X93130261Y-57533489D01*
X93130264Y-57533501D01*
X93190602Y-57679172D01*
X93190609Y-57679185D01*
X93278210Y-57810288D01*
X93278213Y-57810292D01*
X93389707Y-57921786D01*
X93389711Y-57921789D01*
X93520814Y-58009390D01*
X93520827Y-58009397D01*
X93599853Y-58042130D01*
X93666503Y-58069737D01*
X93821153Y-58100499D01*
X93821156Y-58100500D01*
X93821158Y-58100500D01*
X93978844Y-58100500D01*
X93978845Y-58100499D01*
X94133497Y-58069737D01*
X94279179Y-58009394D01*
X94410289Y-57921789D01*
X94521789Y-57810289D01*
X94609394Y-57679179D01*
X94669737Y-57533497D01*
X94700500Y-57378842D01*
X94700500Y-57221158D01*
X94700500Y-57221155D01*
X94700499Y-57221153D01*
X94669738Y-57066510D01*
X94669737Y-57066503D01*
X94669735Y-57066498D01*
X94609397Y-56920827D01*
X94609390Y-56920814D01*
X94521789Y-56789711D01*
X94521786Y-56789707D01*
X94410292Y-56678213D01*
X94410288Y-56678210D01*
X94279185Y-56590609D01*
X94279172Y-56590602D01*
X94133501Y-56530264D01*
X94133489Y-56530261D01*
X93978845Y-56499500D01*
X93978842Y-56499500D01*
X93821158Y-56499500D01*
X93821155Y-56499500D01*
X93666510Y-56530261D01*
X93666498Y-56530264D01*
X93520827Y-56590602D01*
X93520814Y-56590609D01*
X93389711Y-56678210D01*
X93389707Y-56678213D01*
X93278213Y-56789707D01*
X93278210Y-56789711D01*
X93190609Y-56920814D01*
X93190602Y-56920827D01*
X93130264Y-57066498D01*
X93130261Y-57066510D01*
X93099500Y-57221153D01*
X75900500Y-57221153D01*
X75900500Y-54571153D01*
X80349500Y-54571153D01*
X80349500Y-54728846D01*
X80380261Y-54883489D01*
X80380264Y-54883501D01*
X80440602Y-55029172D01*
X80440609Y-55029185D01*
X80528210Y-55160288D01*
X80528213Y-55160292D01*
X80639707Y-55271786D01*
X80639711Y-55271789D01*
X80770814Y-55359390D01*
X80770827Y-55359397D01*
X80854100Y-55393889D01*
X80916503Y-55419737D01*
X80935722Y-55423559D01*
X80997633Y-55455943D01*
X81027797Y-55505258D01*
X81028315Y-55505044D01*
X81029675Y-55508329D01*
X81030190Y-55509170D01*
X81030644Y-55510668D01*
X81090985Y-55656346D01*
X81090992Y-55656359D01*
X81178593Y-55787462D01*
X81178596Y-55787466D01*
X81290090Y-55898960D01*
X81290094Y-55898963D01*
X81421197Y-55986564D01*
X81421210Y-55986571D01*
X81512708Y-56024470D01*
X81566886Y-56046911D01*
X81698456Y-56073082D01*
X81721536Y-56077673D01*
X81721539Y-56077674D01*
X81721541Y-56077674D01*
X81879227Y-56077674D01*
X81879228Y-56077673D01*
X82033880Y-56046911D01*
X82179562Y-55986568D01*
X82310672Y-55898963D01*
X82332064Y-55877570D01*
X82393382Y-55844086D01*
X82463074Y-55849068D01*
X82519009Y-55890937D01*
X82522847Y-55896360D01*
X82533947Y-55912972D01*
X82533950Y-55912976D01*
X82645444Y-56024470D01*
X82645448Y-56024473D01*
X82776551Y-56112074D01*
X82776564Y-56112081D01*
X82922235Y-56172419D01*
X82922240Y-56172421D01*
X83063397Y-56200499D01*
X83076890Y-56203183D01*
X83076893Y-56203184D01*
X83076895Y-56203184D01*
X83234581Y-56203184D01*
X83234582Y-56203183D01*
X83389234Y-56172421D01*
X83534916Y-56112078D01*
X83585987Y-56077952D01*
X83652660Y-56057075D01*
X83720041Y-56075558D01*
X83723768Y-56077954D01*
X83770813Y-56109389D01*
X83770815Y-56109390D01*
X83770821Y-56109394D01*
X83770823Y-56109395D01*
X83770827Y-56109397D01*
X83916498Y-56169735D01*
X83916503Y-56169737D01*
X84071153Y-56200499D01*
X84071156Y-56200500D01*
X84071158Y-56200500D01*
X84228844Y-56200500D01*
X84228845Y-56200499D01*
X84383497Y-56169737D01*
X84522692Y-56112081D01*
X84529172Y-56109397D01*
X84529172Y-56109396D01*
X84529179Y-56109394D01*
X84660289Y-56021789D01*
X84771789Y-55910289D01*
X84859394Y-55779179D01*
X84866101Y-55762988D01*
X84910270Y-55656353D01*
X84919737Y-55633497D01*
X84950500Y-55478842D01*
X84950500Y-55321158D01*
X84950500Y-55321155D01*
X84950499Y-55321153D01*
X105349500Y-55321153D01*
X105349500Y-55478846D01*
X105380261Y-55633489D01*
X105380264Y-55633501D01*
X105440602Y-55779172D01*
X105440609Y-55779185D01*
X105528210Y-55910288D01*
X105528213Y-55910292D01*
X105639707Y-56021786D01*
X105639711Y-56021789D01*
X105770814Y-56109390D01*
X105770827Y-56109397D01*
X105916498Y-56169735D01*
X105916503Y-56169737D01*
X106071153Y-56200499D01*
X106071156Y-56200500D01*
X106071158Y-56200500D01*
X106228844Y-56200500D01*
X106228845Y-56200499D01*
X106383497Y-56169737D01*
X106522692Y-56112081D01*
X106529172Y-56109397D01*
X106529172Y-56109396D01*
X106529179Y-56109394D01*
X106660289Y-56021789D01*
X106771789Y-55910289D01*
X106859394Y-55779179D01*
X106866101Y-55762988D01*
X106910270Y-55656353D01*
X106919737Y-55633497D01*
X106950500Y-55478842D01*
X106950500Y-55321158D01*
X106950500Y-55321155D01*
X106950499Y-55321153D01*
X106931942Y-55227860D01*
X106919737Y-55166503D01*
X106881038Y-55073074D01*
X106859397Y-55020827D01*
X106859390Y-55020814D01*
X106771789Y-54889711D01*
X106771786Y-54889707D01*
X106660292Y-54778213D01*
X106660288Y-54778210D01*
X106529185Y-54690609D01*
X106529172Y-54690602D01*
X106383501Y-54630264D01*
X106383489Y-54630261D01*
X106228845Y-54599500D01*
X106228842Y-54599500D01*
X106071158Y-54599500D01*
X106071155Y-54599500D01*
X105916510Y-54630261D01*
X105916498Y-54630264D01*
X105770827Y-54690602D01*
X105770814Y-54690609D01*
X105639711Y-54778210D01*
X105639707Y-54778213D01*
X105528213Y-54889707D01*
X105528210Y-54889711D01*
X105440609Y-55020814D01*
X105440602Y-55020827D01*
X105380264Y-55166498D01*
X105380261Y-55166510D01*
X105349500Y-55321153D01*
X84950499Y-55321153D01*
X84931942Y-55227860D01*
X84919737Y-55166503D01*
X84881038Y-55073074D01*
X84859397Y-55020827D01*
X84859390Y-55020814D01*
X84771789Y-54889711D01*
X84771786Y-54889707D01*
X84660292Y-54778213D01*
X84660288Y-54778210D01*
X84529185Y-54690609D01*
X84529172Y-54690602D01*
X84383501Y-54630264D01*
X84383489Y-54630261D01*
X84228845Y-54599500D01*
X84228842Y-54599500D01*
X84071158Y-54599500D01*
X84071155Y-54599500D01*
X83916510Y-54630261D01*
X83916498Y-54630264D01*
X83770828Y-54690602D01*
X83770817Y-54690608D01*
X83719750Y-54724730D01*
X83653072Y-54745607D01*
X83585692Y-54727122D01*
X83581970Y-54724730D01*
X83534919Y-54693292D01*
X83534918Y-54693291D01*
X83534916Y-54693290D01*
X83534913Y-54693288D01*
X83534908Y-54693286D01*
X83389235Y-54632947D01*
X83389229Y-54632945D01*
X83347983Y-54624741D01*
X83286073Y-54592355D01*
X83257615Y-54550577D01*
X83200841Y-54413512D01*
X83200836Y-54413503D01*
X83113235Y-54282400D01*
X83113232Y-54282396D01*
X83001738Y-54170902D01*
X83001734Y-54170899D01*
X82870631Y-54083298D01*
X82870618Y-54083291D01*
X82724947Y-54022953D01*
X82724935Y-54022950D01*
X82570291Y-53992189D01*
X82570288Y-53992189D01*
X82412604Y-53992189D01*
X82412601Y-53992189D01*
X82257956Y-54022950D01*
X82257944Y-54022953D01*
X82112273Y-54083291D01*
X82112260Y-54083298D01*
X81981157Y-54170899D01*
X81981150Y-54170904D01*
X81974978Y-54177077D01*
X81913653Y-54210559D01*
X81843962Y-54205572D01*
X81788030Y-54163698D01*
X81784199Y-54158283D01*
X81771789Y-54139711D01*
X81771786Y-54139707D01*
X81660292Y-54028213D01*
X81660288Y-54028210D01*
X81529185Y-53940609D01*
X81529172Y-53940602D01*
X81383501Y-53880264D01*
X81383489Y-53880261D01*
X81265333Y-53856758D01*
X81265332Y-53856758D01*
X81228844Y-53849500D01*
X81228842Y-53849500D01*
X81071158Y-53849500D01*
X81071155Y-53849500D01*
X80916510Y-53880261D01*
X80916498Y-53880264D01*
X80770827Y-53940602D01*
X80770814Y-53940609D01*
X80639711Y-54028210D01*
X80639707Y-54028213D01*
X80528213Y-54139707D01*
X80528210Y-54139711D01*
X80440609Y-54270814D01*
X80440602Y-54270827D01*
X80380264Y-54416498D01*
X80380261Y-54416509D01*
X80349500Y-54571153D01*
X75900500Y-54571153D01*
X75900500Y-53741228D01*
X114039501Y-53741228D01*
X114039501Y-53908771D01*
X114072183Y-54073074D01*
X114072185Y-54073082D01*
X114136296Y-54227859D01*
X114136303Y-54227872D01*
X114155171Y-54256111D01*
X114176048Y-54322789D01*
X114157562Y-54390168D01*
X114155171Y-54393889D01*
X114136303Y-54422127D01*
X114136296Y-54422140D01*
X114072185Y-54576917D01*
X114072183Y-54576925D01*
X114039501Y-54741228D01*
X114039501Y-54908771D01*
X114072183Y-55073074D01*
X114072185Y-55073082D01*
X114136296Y-55227859D01*
X114136303Y-55227872D01*
X114155171Y-55256111D01*
X114176048Y-55322789D01*
X114157562Y-55390168D01*
X114155171Y-55393889D01*
X114136303Y-55422127D01*
X114136296Y-55422140D01*
X114072185Y-55576917D01*
X114072183Y-55576925D01*
X114039501Y-55741228D01*
X114039501Y-55908771D01*
X114072183Y-56073074D01*
X114072185Y-56073082D01*
X114136296Y-56227860D01*
X114229374Y-56367162D01*
X114347838Y-56485626D01*
X114414644Y-56530264D01*
X114487138Y-56578703D01*
X114641919Y-56642816D01*
X114806229Y-56675499D01*
X114806233Y-56675500D01*
X114806234Y-56675500D01*
X114973769Y-56675500D01*
X114973770Y-56675499D01*
X115138083Y-56642816D01*
X115292864Y-56578703D01*
X115321110Y-56559828D01*
X115387787Y-56538951D01*
X115455167Y-56557435D01*
X115458880Y-56559821D01*
X115487138Y-56578703D01*
X115641919Y-56642816D01*
X115806229Y-56675499D01*
X115806233Y-56675500D01*
X115806234Y-56675500D01*
X115973769Y-56675500D01*
X115973770Y-56675499D01*
X116138083Y-56642816D01*
X116292864Y-56578703D01*
X116432163Y-56485626D01*
X116550627Y-56367162D01*
X116643704Y-56227863D01*
X116707817Y-56073082D01*
X116740501Y-55908767D01*
X116740501Y-55741233D01*
X116707817Y-55576918D01*
X116643704Y-55422137D01*
X116624829Y-55393889D01*
X116603952Y-55327214D01*
X116622436Y-55259834D01*
X116624830Y-55256109D01*
X116643704Y-55227863D01*
X116707817Y-55073082D01*
X116740501Y-54908767D01*
X116740501Y-54741233D01*
X116707817Y-54576918D01*
X116643704Y-54422137D01*
X116624829Y-54393889D01*
X116603952Y-54327214D01*
X116622436Y-54259834D01*
X116624830Y-54256109D01*
X116643704Y-54227863D01*
X116707817Y-54073082D01*
X116740501Y-53908767D01*
X116740501Y-53741233D01*
X116707817Y-53576918D01*
X116643704Y-53422137D01*
X116612538Y-53375494D01*
X116550627Y-53282837D01*
X116432163Y-53164373D01*
X116292861Y-53071295D01*
X116138083Y-53007184D01*
X116138075Y-53007182D01*
X115973772Y-52974500D01*
X115973768Y-52974500D01*
X115806234Y-52974500D01*
X115806229Y-52974500D01*
X115641926Y-53007182D01*
X115641918Y-53007184D01*
X115487141Y-53071295D01*
X115487128Y-53071302D01*
X115458890Y-53090170D01*
X115392212Y-53111047D01*
X115324833Y-53092561D01*
X115321112Y-53090170D01*
X115292873Y-53071302D01*
X115292860Y-53071295D01*
X115138083Y-53007184D01*
X115138075Y-53007182D01*
X114973772Y-52974500D01*
X114973768Y-52974500D01*
X114806234Y-52974500D01*
X114806229Y-52974500D01*
X114641926Y-53007182D01*
X114641918Y-53007184D01*
X114487140Y-53071295D01*
X114347838Y-53164373D01*
X114229374Y-53282837D01*
X114136296Y-53422139D01*
X114072185Y-53576917D01*
X114072183Y-53576925D01*
X114039501Y-53741228D01*
X75900500Y-53741228D01*
X75900500Y-52179123D01*
X78441529Y-52179123D01*
X78441529Y-52336816D01*
X78472290Y-52491459D01*
X78472293Y-52491471D01*
X78532631Y-52637142D01*
X78532638Y-52637155D01*
X78620239Y-52768258D01*
X78620242Y-52768262D01*
X78731736Y-52879756D01*
X78731740Y-52879759D01*
X78862843Y-52967360D01*
X78862856Y-52967367D01*
X79008527Y-53027705D01*
X79008532Y-53027707D01*
X79163182Y-53058469D01*
X79163185Y-53058470D01*
X79163187Y-53058470D01*
X79320873Y-53058470D01*
X79320874Y-53058469D01*
X79475526Y-53027707D01*
X79621208Y-52967364D01*
X79752318Y-52879759D01*
X79863818Y-52768259D01*
X79951423Y-52637149D01*
X80011766Y-52491467D01*
X80042529Y-52336812D01*
X80042529Y-52179128D01*
X80042529Y-52179125D01*
X80042528Y-52179123D01*
X80011766Y-52024473D01*
X79953805Y-51884541D01*
X79951426Y-51878797D01*
X79951419Y-51878784D01*
X79863818Y-51747681D01*
X79863815Y-51747677D01*
X79752321Y-51636183D01*
X79752317Y-51636180D01*
X79621214Y-51548579D01*
X79621201Y-51548572D01*
X79475530Y-51488234D01*
X79475518Y-51488231D01*
X79320874Y-51457470D01*
X79320871Y-51457470D01*
X79163187Y-51457470D01*
X79163184Y-51457470D01*
X79008539Y-51488231D01*
X79008527Y-51488234D01*
X78862856Y-51548572D01*
X78862843Y-51548579D01*
X78731740Y-51636180D01*
X78731736Y-51636183D01*
X78620242Y-51747677D01*
X78620239Y-51747681D01*
X78532638Y-51878784D01*
X78532631Y-51878797D01*
X78472293Y-52024468D01*
X78472290Y-52024480D01*
X78441529Y-52179123D01*
X75900500Y-52179123D01*
X75900500Y-51183905D01*
X81478930Y-51183905D01*
X81478930Y-51341598D01*
X81509691Y-51496241D01*
X81509694Y-51496253D01*
X81570032Y-51641924D01*
X81570039Y-51641937D01*
X81657640Y-51773040D01*
X81657643Y-51773044D01*
X81769137Y-51884538D01*
X81769141Y-51884541D01*
X81900244Y-51972142D01*
X81900257Y-51972149D01*
X82026597Y-52024480D01*
X82045933Y-52032489D01*
X82200583Y-52063251D01*
X82200586Y-52063252D01*
X82200588Y-52063252D01*
X82358274Y-52063252D01*
X82358275Y-52063251D01*
X82512927Y-52032489D01*
X82658609Y-51972146D01*
X82789719Y-51884541D01*
X82901219Y-51773041D01*
X82988824Y-51641931D01*
X83049167Y-51496249D01*
X83079930Y-51341594D01*
X83079930Y-51183910D01*
X83079930Y-51183907D01*
X83079929Y-51183905D01*
X83077517Y-51171779D01*
X83049167Y-51029255D01*
X83029679Y-50982207D01*
X82988827Y-50883579D01*
X82988821Y-50883568D01*
X82947116Y-50821153D01*
X99849500Y-50821153D01*
X99849500Y-50978846D01*
X99880261Y-51133489D01*
X99880264Y-51133501D01*
X99940602Y-51279172D01*
X99940609Y-51279185D01*
X100028210Y-51410288D01*
X100028213Y-51410292D01*
X100139707Y-51521786D01*
X100139711Y-51521789D01*
X100270814Y-51609390D01*
X100270827Y-51609397D01*
X100363269Y-51647687D01*
X100416503Y-51669737D01*
X100571153Y-51700499D01*
X100571156Y-51700500D01*
X100571158Y-51700500D01*
X100728844Y-51700500D01*
X100728845Y-51700499D01*
X100883497Y-51669737D01*
X101021065Y-51612755D01*
X101029172Y-51609397D01*
X101029172Y-51609396D01*
X101029179Y-51609394D01*
X101160289Y-51521789D01*
X101271789Y-51410289D01*
X101359394Y-51279179D01*
X101419737Y-51133497D01*
X101450500Y-50978842D01*
X101450500Y-50859443D01*
X103507630Y-50859443D01*
X103507630Y-51017136D01*
X103538391Y-51171779D01*
X103538394Y-51171791D01*
X103598732Y-51317462D01*
X103598739Y-51317475D01*
X103686340Y-51448578D01*
X103686343Y-51448582D01*
X103797837Y-51560076D01*
X103797841Y-51560079D01*
X103928944Y-51647680D01*
X103928957Y-51647687D01*
X104064573Y-51703860D01*
X104074633Y-51708027D01*
X104229283Y-51738789D01*
X104229286Y-51738790D01*
X104229288Y-51738790D01*
X104386974Y-51738790D01*
X104386975Y-51738789D01*
X104541627Y-51708027D01*
X104687309Y-51647684D01*
X104818419Y-51560079D01*
X104929919Y-51448579D01*
X105017524Y-51317469D01*
X105077867Y-51171787D01*
X105108630Y-51017132D01*
X105108630Y-50859448D01*
X105108630Y-50859445D01*
X105108629Y-50859443D01*
X107147630Y-50859443D01*
X107147630Y-51017136D01*
X107178391Y-51171779D01*
X107178394Y-51171791D01*
X107238732Y-51317462D01*
X107238739Y-51317475D01*
X107326340Y-51448578D01*
X107326343Y-51448582D01*
X107437837Y-51560076D01*
X107437841Y-51560079D01*
X107568944Y-51647680D01*
X107568957Y-51647687D01*
X107704573Y-51703860D01*
X107714633Y-51708027D01*
X107869283Y-51738789D01*
X107869286Y-51738790D01*
X107869288Y-51738790D01*
X108026974Y-51738790D01*
X108026975Y-51738789D01*
X108181627Y-51708027D01*
X108327309Y-51647684D01*
X108458419Y-51560079D01*
X108569919Y-51448579D01*
X108657524Y-51317469D01*
X108717867Y-51171787D01*
X108748630Y-51017132D01*
X108748630Y-50859448D01*
X108741151Y-50821847D01*
X110781465Y-50821847D01*
X110781465Y-50979540D01*
X110812226Y-51134183D01*
X110812229Y-51134195D01*
X110872567Y-51279866D01*
X110872574Y-51279879D01*
X110960175Y-51410982D01*
X110960178Y-51410986D01*
X111071672Y-51522480D01*
X111071676Y-51522483D01*
X111202779Y-51610084D01*
X111202792Y-51610091D01*
X111346795Y-51669738D01*
X111348468Y-51670431D01*
X111499629Y-51700499D01*
X111503118Y-51701193D01*
X111503121Y-51701194D01*
X111503123Y-51701194D01*
X111660809Y-51701194D01*
X111660810Y-51701193D01*
X111815462Y-51670431D01*
X111961144Y-51610088D01*
X112092254Y-51522483D01*
X112203754Y-51410983D01*
X112291359Y-51279873D01*
X112291647Y-51279179D01*
X112331110Y-51183905D01*
X112351702Y-51134191D01*
X112382465Y-50979536D01*
X112382465Y-50824514D01*
X114415165Y-50824514D01*
X114415165Y-50982207D01*
X114445926Y-51136850D01*
X114445929Y-51136862D01*
X114506267Y-51282533D01*
X114506274Y-51282546D01*
X114593875Y-51413649D01*
X114593878Y-51413653D01*
X114705372Y-51525147D01*
X114705376Y-51525150D01*
X114836479Y-51612751D01*
X114836492Y-51612758D01*
X114982163Y-51673096D01*
X114982168Y-51673098D01*
X115119921Y-51700499D01*
X115136818Y-51703860D01*
X115136821Y-51703861D01*
X115136823Y-51703861D01*
X115294509Y-51703861D01*
X115294510Y-51703860D01*
X115449162Y-51673098D01*
X115594844Y-51612755D01*
X115725954Y-51525150D01*
X115837454Y-51413650D01*
X115925059Y-51282540D01*
X115985402Y-51136858D01*
X116016165Y-50982203D01*
X116016165Y-50824519D01*
X116016165Y-50824516D01*
X116016164Y-50824514D01*
X116015634Y-50821849D01*
X115985402Y-50669864D01*
X115973431Y-50640963D01*
X115925062Y-50524188D01*
X115925055Y-50524175D01*
X115837454Y-50393072D01*
X115837451Y-50393068D01*
X115725957Y-50281574D01*
X115725953Y-50281571D01*
X115594850Y-50193970D01*
X115594837Y-50193963D01*
X115449166Y-50133625D01*
X115449154Y-50133622D01*
X115294510Y-50102861D01*
X115294507Y-50102861D01*
X115136823Y-50102861D01*
X115136820Y-50102861D01*
X114982175Y-50133622D01*
X114982163Y-50133625D01*
X114836492Y-50193963D01*
X114836479Y-50193970D01*
X114705376Y-50281571D01*
X114705372Y-50281574D01*
X114593878Y-50393068D01*
X114593875Y-50393072D01*
X114506274Y-50524175D01*
X114506267Y-50524188D01*
X114445929Y-50669859D01*
X114445926Y-50669871D01*
X114415165Y-50824514D01*
X112382465Y-50824514D01*
X112382465Y-50821852D01*
X112382465Y-50821849D01*
X112382464Y-50821847D01*
X112382326Y-50821153D01*
X112351702Y-50667197D01*
X112351700Y-50667192D01*
X112291362Y-50521521D01*
X112291355Y-50521508D01*
X112203754Y-50390405D01*
X112203751Y-50390401D01*
X112092257Y-50278907D01*
X112092253Y-50278904D01*
X111961150Y-50191303D01*
X111961137Y-50191296D01*
X111815466Y-50130958D01*
X111815454Y-50130955D01*
X111660810Y-50100194D01*
X111660807Y-50100194D01*
X111503123Y-50100194D01*
X111503120Y-50100194D01*
X111348475Y-50130955D01*
X111348463Y-50130958D01*
X111202792Y-50191296D01*
X111202779Y-50191303D01*
X111071676Y-50278904D01*
X111071672Y-50278907D01*
X110960178Y-50390401D01*
X110960175Y-50390405D01*
X110872574Y-50521508D01*
X110872567Y-50521521D01*
X110812229Y-50667192D01*
X110812226Y-50667204D01*
X110781465Y-50821847D01*
X108741151Y-50821847D01*
X108717867Y-50704793D01*
X108702297Y-50667204D01*
X108657527Y-50559117D01*
X108657520Y-50559104D01*
X108569919Y-50428001D01*
X108569916Y-50427997D01*
X108458422Y-50316503D01*
X108458418Y-50316500D01*
X108327315Y-50228899D01*
X108327302Y-50228892D01*
X108181631Y-50168554D01*
X108181619Y-50168551D01*
X108026975Y-50137790D01*
X108026972Y-50137790D01*
X107869288Y-50137790D01*
X107869285Y-50137790D01*
X107714640Y-50168551D01*
X107714628Y-50168554D01*
X107568957Y-50228892D01*
X107568944Y-50228899D01*
X107437841Y-50316500D01*
X107437837Y-50316503D01*
X107326343Y-50427997D01*
X107326340Y-50428001D01*
X107238739Y-50559104D01*
X107238732Y-50559117D01*
X107178394Y-50704788D01*
X107178391Y-50704800D01*
X107147630Y-50859443D01*
X105108629Y-50859443D01*
X105101682Y-50824519D01*
X105077867Y-50704793D01*
X105062297Y-50667204D01*
X105017527Y-50559117D01*
X105017520Y-50559104D01*
X104929919Y-50428001D01*
X104929916Y-50427997D01*
X104818422Y-50316503D01*
X104818418Y-50316500D01*
X104687315Y-50228899D01*
X104687302Y-50228892D01*
X104541631Y-50168554D01*
X104541619Y-50168551D01*
X104386975Y-50137790D01*
X104386972Y-50137790D01*
X104229288Y-50137790D01*
X104229285Y-50137790D01*
X104074640Y-50168551D01*
X104074628Y-50168554D01*
X103928957Y-50228892D01*
X103928944Y-50228899D01*
X103797841Y-50316500D01*
X103797837Y-50316503D01*
X103686343Y-50427997D01*
X103686340Y-50428001D01*
X103598739Y-50559104D01*
X103598732Y-50559117D01*
X103538394Y-50704788D01*
X103538391Y-50704800D01*
X103507630Y-50859443D01*
X101450500Y-50859443D01*
X101450500Y-50821158D01*
X101450500Y-50821155D01*
X101450499Y-50821153D01*
X101419737Y-50666503D01*
X101375257Y-50559117D01*
X101359397Y-50520827D01*
X101359390Y-50520814D01*
X101271789Y-50389711D01*
X101271786Y-50389707D01*
X101160292Y-50278213D01*
X101160288Y-50278210D01*
X101029185Y-50190609D01*
X101029172Y-50190602D01*
X100883501Y-50130264D01*
X100883489Y-50130261D01*
X100728845Y-50099500D01*
X100728842Y-50099500D01*
X100571158Y-50099500D01*
X100571155Y-50099500D01*
X100416510Y-50130261D01*
X100416498Y-50130264D01*
X100270827Y-50190602D01*
X100270814Y-50190609D01*
X100139711Y-50278210D01*
X100139707Y-50278213D01*
X100028213Y-50389707D01*
X100028210Y-50389711D01*
X99940609Y-50520814D01*
X99940602Y-50520827D01*
X99880264Y-50666498D01*
X99880261Y-50666510D01*
X99849500Y-50821153D01*
X82947116Y-50821153D01*
X82901219Y-50752463D01*
X82901216Y-50752459D01*
X82789722Y-50640965D01*
X82789718Y-50640962D01*
X82658615Y-50553361D01*
X82658602Y-50553354D01*
X82512931Y-50493016D01*
X82512919Y-50493013D01*
X82358275Y-50462252D01*
X82358272Y-50462252D01*
X82200588Y-50462252D01*
X82200585Y-50462252D01*
X82045940Y-50493013D01*
X82045928Y-50493016D01*
X81900257Y-50553354D01*
X81900244Y-50553361D01*
X81769141Y-50640962D01*
X81769137Y-50640965D01*
X81657643Y-50752459D01*
X81657640Y-50752463D01*
X81570039Y-50883566D01*
X81570032Y-50883579D01*
X81509694Y-51029250D01*
X81509691Y-51029262D01*
X81478930Y-51183905D01*
X75900500Y-51183905D01*
X75900500Y-45037768D01*
X83078478Y-45037768D01*
X83078478Y-45250341D01*
X83111518Y-45458952D01*
X83111732Y-45460298D01*
X83177196Y-45661775D01*
X83177422Y-45662469D01*
X83273929Y-45851875D01*
X83398868Y-46023841D01*
X83549191Y-46174164D01*
X83721160Y-46299105D01*
X83729924Y-46303571D01*
X83780720Y-46351546D01*
X83797514Y-46419367D01*
X83774976Y-46485502D01*
X83729924Y-46524539D01*
X83721160Y-46529004D01*
X83549191Y-46653945D01*
X83398868Y-46804268D01*
X83273929Y-46976234D01*
X83177422Y-47165640D01*
X83177421Y-47165642D01*
X83177421Y-47165643D01*
X83174951Y-47173246D01*
X83111731Y-47367815D01*
X83078478Y-47577768D01*
X83078478Y-47790341D01*
X83111518Y-47998952D01*
X83111732Y-48000298D01*
X83177196Y-48201775D01*
X83177422Y-48202469D01*
X83273929Y-48391875D01*
X83398868Y-48563841D01*
X83549191Y-48714164D01*
X83721157Y-48839103D01*
X83721159Y-48839104D01*
X83721162Y-48839106D01*
X83910566Y-48935612D01*
X84112735Y-49001301D01*
X84322691Y-49034555D01*
X84322692Y-49034555D01*
X84535264Y-49034555D01*
X84535265Y-49034555D01*
X84745221Y-49001301D01*
X84947390Y-48935612D01*
X85136794Y-48839106D01*
X85158767Y-48823141D01*
X85308764Y-48714164D01*
X85308766Y-48714161D01*
X85308770Y-48714159D01*
X85459082Y-48563847D01*
X85459084Y-48563843D01*
X85459087Y-48563841D01*
X85584026Y-48391875D01*
X85584025Y-48391875D01*
X85584029Y-48391871D01*
X85680535Y-48202467D01*
X85746224Y-48000298D01*
X85779478Y-47790342D01*
X85779478Y-47577768D01*
X85746224Y-47367812D01*
X85680535Y-47165643D01*
X85584029Y-46976239D01*
X85584027Y-46976236D01*
X85584026Y-46976234D01*
X85459087Y-46804268D01*
X85308764Y-46653945D01*
X85136798Y-46529006D01*
X85134152Y-46527658D01*
X85128032Y-46524540D01*
X85077237Y-46476567D01*
X85060441Y-46408747D01*
X85082977Y-46342611D01*
X85128032Y-46303570D01*
X85136794Y-46299106D01*
X85158767Y-46283141D01*
X85308764Y-46174164D01*
X85308766Y-46174161D01*
X85308770Y-46174159D01*
X85459082Y-46023847D01*
X85459084Y-46023843D01*
X85459087Y-46023841D01*
X85584026Y-45851875D01*
X85584025Y-45851875D01*
X85584029Y-45851871D01*
X85680535Y-45662467D01*
X85746224Y-45460298D01*
X85779478Y-45250342D01*
X85779478Y-45041392D01*
X86726611Y-45041392D01*
X86726611Y-45253965D01*
X86759077Y-45458952D01*
X86759865Y-45463922D01*
X86824376Y-45662467D01*
X86825555Y-45666093D01*
X86922062Y-45855499D01*
X87047001Y-46027465D01*
X87197324Y-46177788D01*
X87369293Y-46302729D01*
X87378057Y-46307195D01*
X87428853Y-46355170D01*
X87445647Y-46422991D01*
X87423109Y-46489126D01*
X87378057Y-46528163D01*
X87369293Y-46532628D01*
X87197324Y-46657569D01*
X87047001Y-46807892D01*
X86922062Y-46979858D01*
X86825555Y-47169264D01*
X86759864Y-47371439D01*
X86726611Y-47581392D01*
X86726611Y-47793965D01*
X86759077Y-47998952D01*
X86759865Y-48003922D01*
X86824376Y-48202467D01*
X86825555Y-48206093D01*
X86922062Y-48395499D01*
X87047001Y-48567465D01*
X87197324Y-48717788D01*
X87369290Y-48842727D01*
X87369292Y-48842728D01*
X87369295Y-48842730D01*
X87558699Y-48939236D01*
X87760868Y-49004925D01*
X87970824Y-49038179D01*
X87970825Y-49038179D01*
X88183397Y-49038179D01*
X88183398Y-49038179D01*
X88393354Y-49004925D01*
X88595523Y-48939236D01*
X88784927Y-48842730D01*
X88806900Y-48826765D01*
X88956897Y-48717788D01*
X88956899Y-48717785D01*
X88956903Y-48717783D01*
X89107215Y-48567471D01*
X89107217Y-48567467D01*
X89107220Y-48567465D01*
X89232159Y-48395499D01*
X89232158Y-48395499D01*
X89232162Y-48395495D01*
X89328668Y-48206091D01*
X89394357Y-48003922D01*
X89427611Y-47793966D01*
X89427611Y-47581392D01*
X89394357Y-47371436D01*
X89328668Y-47169267D01*
X89232162Y-46979863D01*
X89232160Y-46979860D01*
X89232159Y-46979858D01*
X89107220Y-46807892D01*
X88956897Y-46657569D01*
X88784931Y-46532630D01*
X88776452Y-46528310D01*
X88776165Y-46528164D01*
X88725370Y-46480191D01*
X88708574Y-46412371D01*
X88731110Y-46346235D01*
X88776165Y-46307194D01*
X88784927Y-46302730D01*
X88806900Y-46286765D01*
X88956897Y-46177788D01*
X88956899Y-46177785D01*
X88956903Y-46177783D01*
X89107215Y-46027471D01*
X89107217Y-46027467D01*
X89107220Y-46027465D01*
X89232159Y-45855499D01*
X89232158Y-45855499D01*
X89232162Y-45855495D01*
X89328668Y-45666091D01*
X89394357Y-45463922D01*
X89427611Y-45253966D01*
X89427611Y-45052455D01*
X90364456Y-45052455D01*
X90364456Y-45265028D01*
X90396587Y-45467900D01*
X90397710Y-45474985D01*
X90461098Y-45670073D01*
X90463400Y-45677156D01*
X90559907Y-45866562D01*
X90684846Y-46038528D01*
X90835169Y-46188851D01*
X91007138Y-46313792D01*
X91015902Y-46318258D01*
X91066698Y-46366233D01*
X91083492Y-46434054D01*
X91060954Y-46500189D01*
X91015902Y-46539226D01*
X91007138Y-46543691D01*
X90835169Y-46668632D01*
X90684846Y-46818955D01*
X90559907Y-46990921D01*
X90463400Y-47180327D01*
X90397709Y-47382502D01*
X90364456Y-47592455D01*
X90364456Y-47805028D01*
X90396587Y-48007900D01*
X90397710Y-48014985D01*
X90461098Y-48210073D01*
X90463400Y-48217156D01*
X90559907Y-48406562D01*
X90684846Y-48578528D01*
X90835169Y-48728851D01*
X91007135Y-48853790D01*
X91007137Y-48853791D01*
X91007140Y-48853793D01*
X91196544Y-48950299D01*
X91398713Y-49015988D01*
X91608669Y-49049242D01*
X91608670Y-49049242D01*
X91821242Y-49049242D01*
X91821243Y-49049242D01*
X92031199Y-49015988D01*
X92233368Y-48950299D01*
X92422772Y-48853793D01*
X92450926Y-48833338D01*
X92594742Y-48728851D01*
X92594744Y-48728848D01*
X92594748Y-48728846D01*
X92745060Y-48578534D01*
X92745062Y-48578530D01*
X92745065Y-48578528D01*
X92870004Y-48406562D01*
X92870003Y-48406562D01*
X92870007Y-48406558D01*
X92966513Y-48217154D01*
X93032202Y-48014985D01*
X93065456Y-47805029D01*
X93065456Y-47592455D01*
X93032202Y-47382499D01*
X92966513Y-47180330D01*
X92870007Y-46990926D01*
X92870005Y-46990923D01*
X92870004Y-46990921D01*
X92745065Y-46818955D01*
X92594742Y-46668632D01*
X92422776Y-46543693D01*
X92422071Y-46543333D01*
X92414010Y-46539227D01*
X92363215Y-46491254D01*
X92346419Y-46423434D01*
X92368955Y-46357298D01*
X92414010Y-46318257D01*
X92422772Y-46313793D01*
X92447613Y-46295745D01*
X92594742Y-46188851D01*
X92594744Y-46188848D01*
X92594748Y-46188846D01*
X92745060Y-46038534D01*
X92745062Y-46038530D01*
X92745065Y-46038528D01*
X92870004Y-45866562D01*
X92870003Y-45866562D01*
X92870007Y-45866558D01*
X92966513Y-45677154D01*
X93032202Y-45474985D01*
X93065456Y-45265029D01*
X93065456Y-45052455D01*
X93064334Y-45045374D01*
X94004802Y-45045374D01*
X94004802Y-45257948D01*
X94005924Y-45265029D01*
X94037424Y-45463918D01*
X94038056Y-45467904D01*
X94102451Y-45666091D01*
X94103746Y-45670075D01*
X94200253Y-45859481D01*
X94325192Y-46031447D01*
X94475515Y-46181770D01*
X94647484Y-46306711D01*
X94656248Y-46311177D01*
X94707044Y-46359152D01*
X94723838Y-46426973D01*
X94701300Y-46493108D01*
X94656248Y-46532145D01*
X94647484Y-46536610D01*
X94475515Y-46661551D01*
X94325192Y-46811874D01*
X94200253Y-46983840D01*
X94103746Y-47173246D01*
X94038055Y-47375421D01*
X94006920Y-47572003D01*
X94004802Y-47585374D01*
X94004802Y-47797948D01*
X94005924Y-47805029D01*
X94037424Y-48003918D01*
X94038056Y-48007904D01*
X94102451Y-48206091D01*
X94103746Y-48210075D01*
X94200253Y-48399481D01*
X94325192Y-48571447D01*
X94475515Y-48721770D01*
X94647481Y-48846709D01*
X94647483Y-48846710D01*
X94647486Y-48846712D01*
X94836890Y-48943218D01*
X95039059Y-49008907D01*
X95249015Y-49042161D01*
X95249016Y-49042161D01*
X95461588Y-49042161D01*
X95461589Y-49042161D01*
X95671545Y-49008907D01*
X95873714Y-48943218D01*
X96063118Y-48846712D01*
X96085091Y-48830747D01*
X96235088Y-48721770D01*
X96235090Y-48721767D01*
X96235094Y-48721765D01*
X96385406Y-48571453D01*
X96385408Y-48571449D01*
X96385411Y-48571447D01*
X96510350Y-48399481D01*
X96510349Y-48399481D01*
X96510353Y-48399477D01*
X96606859Y-48210073D01*
X96672548Y-48007904D01*
X96705802Y-47797948D01*
X96705802Y-47585374D01*
X96672548Y-47375418D01*
X96606859Y-47173249D01*
X96510353Y-46983845D01*
X96510351Y-46983842D01*
X96510350Y-46983840D01*
X96385411Y-46811874D01*
X96235088Y-46661551D01*
X96063122Y-46536612D01*
X96062417Y-46536252D01*
X96054356Y-46532146D01*
X96003561Y-46484173D01*
X95986765Y-46416353D01*
X96009301Y-46350217D01*
X96054356Y-46311176D01*
X96063118Y-46306712D01*
X96085091Y-46290747D01*
X96235088Y-46181770D01*
X96235090Y-46181767D01*
X96235094Y-46181765D01*
X96385406Y-46031453D01*
X96385408Y-46031449D01*
X96385411Y-46031447D01*
X96510350Y-45859481D01*
X96510349Y-45859481D01*
X96510353Y-45859477D01*
X96606859Y-45670073D01*
X96672548Y-45467904D01*
X96705802Y-45257948D01*
X96705802Y-45045374D01*
X96704384Y-45036422D01*
X97652641Y-45036422D01*
X97652641Y-45248996D01*
X97662675Y-45312353D01*
X97685575Y-45456937D01*
X97685895Y-45458952D01*
X97750929Y-45659106D01*
X97751585Y-45661123D01*
X97848092Y-45850529D01*
X97973031Y-46022495D01*
X98123354Y-46172818D01*
X98295323Y-46297759D01*
X98304087Y-46302225D01*
X98354883Y-46350200D01*
X98371677Y-46418021D01*
X98349139Y-46484156D01*
X98304087Y-46523193D01*
X98295323Y-46527658D01*
X98123354Y-46652599D01*
X97973031Y-46802922D01*
X97848092Y-46974888D01*
X97751585Y-47164294D01*
X97685894Y-47366469D01*
X97683355Y-47382502D01*
X97652641Y-47576422D01*
X97652641Y-47788996D01*
X97662675Y-47852353D01*
X97685575Y-47996937D01*
X97685895Y-47998952D01*
X97750929Y-48199106D01*
X97751585Y-48201123D01*
X97848092Y-48390529D01*
X97973031Y-48562495D01*
X98123354Y-48712818D01*
X98295320Y-48837757D01*
X98295322Y-48837758D01*
X98295325Y-48837760D01*
X98484729Y-48934266D01*
X98686898Y-48999955D01*
X98896854Y-49033209D01*
X98896855Y-49033209D01*
X99109427Y-49033209D01*
X99109428Y-49033209D01*
X99319384Y-48999955D01*
X99521553Y-48934266D01*
X99710957Y-48837760D01*
X99732930Y-48821795D01*
X99882927Y-48712818D01*
X99882929Y-48712815D01*
X99882933Y-48712813D01*
X100033245Y-48562501D01*
X100033247Y-48562497D01*
X100033250Y-48562495D01*
X100142227Y-48412498D01*
X100158192Y-48390525D01*
X100254698Y-48201121D01*
X100320387Y-47998952D01*
X100353641Y-47788996D01*
X100353641Y-47576422D01*
X100320387Y-47366466D01*
X100254698Y-47164297D01*
X100158192Y-46974893D01*
X100158190Y-46974890D01*
X100158189Y-46974888D01*
X100033250Y-46802922D01*
X99882927Y-46652599D01*
X99710961Y-46527660D01*
X99705640Y-46524949D01*
X99702195Y-46523194D01*
X99651400Y-46475221D01*
X99634604Y-46407401D01*
X99657140Y-46341265D01*
X99702195Y-46302224D01*
X99710957Y-46297760D01*
X99732930Y-46281795D01*
X99882927Y-46172818D01*
X99882929Y-46172815D01*
X99882933Y-46172813D01*
X100033245Y-46022501D01*
X100033247Y-46022497D01*
X100033250Y-46022495D01*
X100142227Y-45872498D01*
X100158192Y-45850525D01*
X100254698Y-45661121D01*
X100320387Y-45458952D01*
X100353641Y-45248996D01*
X100353641Y-45036422D01*
X100353212Y-45033713D01*
X101309500Y-45033713D01*
X101309500Y-45246287D01*
X101319534Y-45309644D01*
X101342482Y-45454529D01*
X101342754Y-45456243D01*
X101407887Y-45656702D01*
X101408444Y-45658414D01*
X101504951Y-45847820D01*
X101629890Y-46019786D01*
X101780213Y-46170109D01*
X101952182Y-46295050D01*
X101960946Y-46299516D01*
X102011742Y-46347491D01*
X102028536Y-46415312D01*
X102005998Y-46481447D01*
X101960946Y-46520484D01*
X101952182Y-46524949D01*
X101780213Y-46649890D01*
X101629890Y-46800213D01*
X101504951Y-46972179D01*
X101408444Y-47161585D01*
X101408443Y-47161587D01*
X101408443Y-47161588D01*
X101408218Y-47162282D01*
X101342753Y-47363760D01*
X101339785Y-47382502D01*
X101309500Y-47573713D01*
X101309500Y-47786287D01*
X101319534Y-47849644D01*
X101342482Y-47994529D01*
X101342754Y-47996243D01*
X101407887Y-48196702D01*
X101408444Y-48198414D01*
X101504951Y-48387820D01*
X101629890Y-48559786D01*
X101780213Y-48710109D01*
X101952179Y-48835048D01*
X101952181Y-48835049D01*
X101952184Y-48835051D01*
X102141588Y-48931557D01*
X102343757Y-48997246D01*
X102553713Y-49030500D01*
X102553714Y-49030500D01*
X102766286Y-49030500D01*
X102766287Y-49030500D01*
X102976243Y-48997246D01*
X103178412Y-48931557D01*
X103367816Y-48835051D01*
X103389789Y-48819086D01*
X103539786Y-48710109D01*
X103539788Y-48710106D01*
X103539792Y-48710104D01*
X103690104Y-48559792D01*
X103690106Y-48559788D01*
X103690109Y-48559786D01*
X103815048Y-48387820D01*
X103815047Y-48387820D01*
X103815051Y-48387816D01*
X103911557Y-48198412D01*
X103977246Y-47996243D01*
X104010500Y-47786287D01*
X104010500Y-47573713D01*
X103977246Y-47363757D01*
X103911557Y-47161588D01*
X103815051Y-46972184D01*
X103815049Y-46972181D01*
X103815048Y-46972179D01*
X103690109Y-46800213D01*
X103539786Y-46649890D01*
X103367820Y-46524951D01*
X103364460Y-46523239D01*
X103359054Y-46520485D01*
X103308259Y-46472512D01*
X103291463Y-46404692D01*
X103313999Y-46338556D01*
X103359054Y-46299515D01*
X103367816Y-46295051D01*
X103389789Y-46279086D01*
X103539786Y-46170109D01*
X103539788Y-46170106D01*
X103539792Y-46170104D01*
X103690104Y-46019792D01*
X103690106Y-46019788D01*
X103690109Y-46019786D01*
X103815048Y-45847820D01*
X103815047Y-45847820D01*
X103815051Y-45847816D01*
X103911557Y-45658412D01*
X103977246Y-45456243D01*
X104010500Y-45246287D01*
X104010500Y-45033713D01*
X104010229Y-45032003D01*
X104967630Y-45032003D01*
X104967630Y-45244577D01*
X105000884Y-45454533D01*
X105007529Y-45474985D01*
X105066574Y-45656704D01*
X105163081Y-45846110D01*
X105288020Y-46018076D01*
X105438343Y-46168399D01*
X105610312Y-46293340D01*
X105619076Y-46297806D01*
X105669872Y-46345781D01*
X105686666Y-46413602D01*
X105664128Y-46479737D01*
X105619076Y-46518774D01*
X105610312Y-46523239D01*
X105438343Y-46648180D01*
X105288020Y-46798503D01*
X105163081Y-46970469D01*
X105066574Y-47159875D01*
X105066573Y-47159877D01*
X105066573Y-47159878D01*
X105059929Y-47180327D01*
X105000883Y-47362050D01*
X104997644Y-47382502D01*
X104967630Y-47572003D01*
X104967630Y-47784577D01*
X105000884Y-47994533D01*
X105007529Y-48014985D01*
X105066574Y-48196704D01*
X105163081Y-48386110D01*
X105288020Y-48558076D01*
X105438343Y-48708399D01*
X105610309Y-48833338D01*
X105610311Y-48833339D01*
X105610314Y-48833341D01*
X105799718Y-48929847D01*
X106001887Y-48995536D01*
X106211843Y-49028790D01*
X106211844Y-49028790D01*
X106424416Y-49028790D01*
X106424417Y-49028790D01*
X106634373Y-48995536D01*
X106836542Y-48929847D01*
X107025946Y-48833341D01*
X107047919Y-48817376D01*
X107197916Y-48708399D01*
X107197918Y-48708396D01*
X107197922Y-48708394D01*
X107348234Y-48558082D01*
X107348236Y-48558078D01*
X107348239Y-48558076D01*
X107466357Y-48395499D01*
X107473181Y-48386106D01*
X107569687Y-48196702D01*
X107635376Y-47994533D01*
X107668630Y-47784577D01*
X107668630Y-47572003D01*
X107635376Y-47362047D01*
X107569687Y-47159878D01*
X107473181Y-46970474D01*
X107473179Y-46970471D01*
X107473178Y-46970469D01*
X107348239Y-46798503D01*
X107197916Y-46648180D01*
X107025950Y-46523241D01*
X107021901Y-46521178D01*
X107017184Y-46518775D01*
X106966389Y-46470802D01*
X106949593Y-46402982D01*
X106972129Y-46336846D01*
X107017184Y-46297805D01*
X107025946Y-46293341D01*
X107047919Y-46277376D01*
X107197916Y-46168399D01*
X107197918Y-46168396D01*
X107197922Y-46168394D01*
X107348234Y-46018082D01*
X107348236Y-46018078D01*
X107348239Y-46018076D01*
X107466357Y-45855499D01*
X107473181Y-45846106D01*
X107569687Y-45656702D01*
X107635376Y-45454533D01*
X107668630Y-45244577D01*
X107668630Y-45032003D01*
X108607630Y-45032003D01*
X108607630Y-45244577D01*
X108640884Y-45454533D01*
X108647529Y-45474985D01*
X108706574Y-45656704D01*
X108803081Y-45846110D01*
X108928020Y-46018076D01*
X109078343Y-46168399D01*
X109250312Y-46293340D01*
X109259076Y-46297806D01*
X109309872Y-46345781D01*
X109326666Y-46413602D01*
X109304128Y-46479737D01*
X109259076Y-46518774D01*
X109250312Y-46523239D01*
X109078343Y-46648180D01*
X108928020Y-46798503D01*
X108803081Y-46970469D01*
X108706574Y-47159875D01*
X108706573Y-47159877D01*
X108706573Y-47159878D01*
X108699929Y-47180327D01*
X108640883Y-47362050D01*
X108637644Y-47382502D01*
X108607630Y-47572003D01*
X108607630Y-47784577D01*
X108640884Y-47994533D01*
X108647529Y-48014985D01*
X108706574Y-48196704D01*
X108803081Y-48386110D01*
X108928020Y-48558076D01*
X109078343Y-48708399D01*
X109250309Y-48833338D01*
X109250311Y-48833339D01*
X109250314Y-48833341D01*
X109439718Y-48929847D01*
X109641887Y-48995536D01*
X109851843Y-49028790D01*
X109851844Y-49028790D01*
X110064416Y-49028790D01*
X110064417Y-49028790D01*
X110274373Y-48995536D01*
X110476542Y-48929847D01*
X110665946Y-48833341D01*
X110687919Y-48817376D01*
X110837916Y-48708399D01*
X110837918Y-48708396D01*
X110837922Y-48708394D01*
X110988234Y-48558082D01*
X110988236Y-48558078D01*
X110988239Y-48558076D01*
X111106357Y-48395499D01*
X111113181Y-48386106D01*
X111209687Y-48196702D01*
X111275376Y-47994533D01*
X111308630Y-47784577D01*
X111308630Y-47572003D01*
X111275376Y-47362047D01*
X111209687Y-47159878D01*
X111113181Y-46970474D01*
X111113179Y-46970471D01*
X111113178Y-46970469D01*
X110988239Y-46798503D01*
X110837916Y-46648180D01*
X110665950Y-46523241D01*
X110661901Y-46521178D01*
X110657184Y-46518775D01*
X110606389Y-46470802D01*
X110589593Y-46402982D01*
X110612129Y-46336846D01*
X110657184Y-46297805D01*
X110665946Y-46293341D01*
X110687919Y-46277376D01*
X110837916Y-46168399D01*
X110837918Y-46168396D01*
X110837922Y-46168394D01*
X110988234Y-46018082D01*
X110988236Y-46018078D01*
X110988239Y-46018076D01*
X111106357Y-45855499D01*
X111113181Y-45846106D01*
X111209687Y-45656702D01*
X111275376Y-45454533D01*
X111308630Y-45244577D01*
X111308630Y-45034407D01*
X112241465Y-45034407D01*
X112241465Y-45246981D01*
X112241997Y-45250341D01*
X112274337Y-45454529D01*
X112274719Y-45456937D01*
X112340183Y-45658414D01*
X112340409Y-45659108D01*
X112436916Y-45848514D01*
X112561855Y-46020480D01*
X112712178Y-46170803D01*
X112884147Y-46295744D01*
X112892911Y-46300210D01*
X112943707Y-46348185D01*
X112960501Y-46416006D01*
X112937963Y-46482141D01*
X112892911Y-46521178D01*
X112884147Y-46525643D01*
X112712178Y-46650584D01*
X112561855Y-46800907D01*
X112436916Y-46972873D01*
X112340409Y-47162279D01*
X112274718Y-47364454D01*
X112271860Y-47382499D01*
X112241465Y-47574407D01*
X112241465Y-47786981D01*
X112241997Y-47790341D01*
X112274337Y-47994529D01*
X112274719Y-47996937D01*
X112340183Y-48198414D01*
X112340409Y-48199108D01*
X112436916Y-48388514D01*
X112561855Y-48560480D01*
X112712178Y-48710803D01*
X112884144Y-48835742D01*
X112884146Y-48835743D01*
X112884149Y-48835745D01*
X113073553Y-48932251D01*
X113275722Y-48997940D01*
X113485678Y-49031194D01*
X113485679Y-49031194D01*
X113698251Y-49031194D01*
X113698252Y-49031194D01*
X113908208Y-48997940D01*
X114110377Y-48932251D01*
X114299781Y-48835745D01*
X114321754Y-48819780D01*
X114471751Y-48710803D01*
X114471753Y-48710800D01*
X114471757Y-48710798D01*
X114622069Y-48560486D01*
X114622071Y-48560482D01*
X114622074Y-48560480D01*
X114747013Y-48388514D01*
X114747012Y-48388514D01*
X114747016Y-48388510D01*
X114843522Y-48199106D01*
X114909211Y-47996937D01*
X114942465Y-47786981D01*
X114942465Y-47574407D01*
X114909211Y-47364451D01*
X114843522Y-47162282D01*
X114747016Y-46972878D01*
X114747014Y-46972875D01*
X114747013Y-46972873D01*
X114622074Y-46800907D01*
X114471751Y-46650584D01*
X114299785Y-46525645D01*
X114296252Y-46523845D01*
X114291019Y-46521179D01*
X114240224Y-46473206D01*
X114223428Y-46405386D01*
X114245964Y-46339250D01*
X114291019Y-46300209D01*
X114299781Y-46295745D01*
X114321754Y-46279780D01*
X114471751Y-46170803D01*
X114471753Y-46170800D01*
X114471757Y-46170798D01*
X114622069Y-46020486D01*
X114622071Y-46020482D01*
X114622074Y-46020480D01*
X114747013Y-45848514D01*
X114747012Y-45848514D01*
X114747016Y-45848510D01*
X114843522Y-45659106D01*
X114909211Y-45456937D01*
X114942465Y-45246981D01*
X114942465Y-45037074D01*
X115875165Y-45037074D01*
X115875165Y-45249648D01*
X115876480Y-45257948D01*
X115908315Y-45458952D01*
X115908419Y-45459604D01*
X115973896Y-45661121D01*
X115974109Y-45661775D01*
X116070616Y-45851181D01*
X116195555Y-46023147D01*
X116345878Y-46173470D01*
X116517847Y-46298411D01*
X116526611Y-46302877D01*
X116577407Y-46350852D01*
X116594201Y-46418673D01*
X116571663Y-46484808D01*
X116526611Y-46523845D01*
X116517847Y-46528310D01*
X116345878Y-46653251D01*
X116195555Y-46803574D01*
X116070616Y-46975540D01*
X115974109Y-47164946D01*
X115974108Y-47164948D01*
X115974108Y-47164949D01*
X115973883Y-47165643D01*
X115908418Y-47367121D01*
X115905982Y-47382502D01*
X115875165Y-47577074D01*
X115875165Y-47789648D01*
X115876480Y-47797948D01*
X115908315Y-47998952D01*
X115908419Y-47999604D01*
X115973896Y-48201121D01*
X115974109Y-48201775D01*
X116070616Y-48391181D01*
X116195555Y-48563147D01*
X116345878Y-48713470D01*
X116517844Y-48838409D01*
X116517846Y-48838410D01*
X116517849Y-48838412D01*
X116707253Y-48934918D01*
X116909422Y-49000607D01*
X117119378Y-49033861D01*
X117119379Y-49033861D01*
X117331951Y-49033861D01*
X117331952Y-49033861D01*
X117541908Y-49000607D01*
X117744077Y-48934918D01*
X117933481Y-48838412D01*
X117955454Y-48822447D01*
X118105451Y-48713470D01*
X118105453Y-48713467D01*
X118105457Y-48713465D01*
X118255769Y-48563153D01*
X118255771Y-48563149D01*
X118255774Y-48563147D01*
X118380713Y-48391181D01*
X118380712Y-48391181D01*
X118380716Y-48391177D01*
X118477222Y-48201773D01*
X118542911Y-47999604D01*
X118576165Y-47789648D01*
X118576165Y-47577074D01*
X118542911Y-47367118D01*
X118477222Y-47164949D01*
X118380716Y-46975545D01*
X118380714Y-46975542D01*
X118380713Y-46975540D01*
X118255774Y-46803574D01*
X118105451Y-46653251D01*
X117933485Y-46528312D01*
X117932201Y-46527658D01*
X117924719Y-46523846D01*
X117873924Y-46475873D01*
X117857128Y-46408053D01*
X117879664Y-46341917D01*
X117924719Y-46302876D01*
X117933481Y-46298412D01*
X117955454Y-46282447D01*
X118105451Y-46173470D01*
X118105453Y-46173467D01*
X118105457Y-46173465D01*
X118255769Y-46023153D01*
X118255771Y-46023149D01*
X118255774Y-46023147D01*
X118380713Y-45851181D01*
X118380712Y-45851181D01*
X118380716Y-45851177D01*
X118477222Y-45661773D01*
X118542911Y-45459604D01*
X118576165Y-45249648D01*
X118576165Y-45037074D01*
X118542911Y-44827118D01*
X118477222Y-44624949D01*
X118380716Y-44435545D01*
X118380714Y-44435542D01*
X118380713Y-44435540D01*
X118255774Y-44263574D01*
X118141846Y-44149646D01*
X118108361Y-44088323D01*
X118113345Y-44018631D01*
X118155217Y-43962698D01*
X118186194Y-43945783D01*
X118317751Y-43896715D01*
X118317758Y-43896711D01*
X118432852Y-43810551D01*
X118432855Y-43810548D01*
X118519015Y-43695454D01*
X118519019Y-43695447D01*
X118569261Y-43560740D01*
X118569263Y-43560733D01*
X118575664Y-43501205D01*
X118575665Y-43501188D01*
X118575665Y-43293713D01*
X122049500Y-43293713D01*
X122049500Y-43506287D01*
X122058807Y-43565051D01*
X122080774Y-43703747D01*
X122082754Y-43716243D01*
X122146389Y-43912092D01*
X122148444Y-43918414D01*
X122244951Y-44107820D01*
X122369890Y-44279786D01*
X122520213Y-44430109D01*
X122692179Y-44555048D01*
X122692181Y-44555049D01*
X122692184Y-44555051D01*
X122881588Y-44651557D01*
X123083757Y-44717246D01*
X123293713Y-44750500D01*
X123293714Y-44750500D01*
X123506286Y-44750500D01*
X123506287Y-44750500D01*
X123716243Y-44717246D01*
X123918412Y-44651557D01*
X124107816Y-44555051D01*
X124251140Y-44450921D01*
X124279786Y-44430109D01*
X124279788Y-44430106D01*
X124279792Y-44430104D01*
X124430104Y-44279792D01*
X124430106Y-44279788D01*
X124430109Y-44279786D01*
X124545068Y-44121557D01*
X124555051Y-44107816D01*
X124651557Y-43918412D01*
X124717246Y-43716243D01*
X124750500Y-43506287D01*
X124750500Y-43293713D01*
X124717246Y-43083757D01*
X124651557Y-42881588D01*
X124555051Y-42692184D01*
X124555049Y-42692181D01*
X124555048Y-42692179D01*
X124430109Y-42520213D01*
X124279786Y-42369890D01*
X124107820Y-42244951D01*
X123918414Y-42148444D01*
X123918413Y-42148443D01*
X123918412Y-42148443D01*
X123716243Y-42082754D01*
X123716241Y-42082753D01*
X123716240Y-42082753D01*
X123554957Y-42057208D01*
X123506287Y-42049500D01*
X123293713Y-42049500D01*
X123245042Y-42057208D01*
X123083760Y-42082753D01*
X122881585Y-42148444D01*
X122692179Y-42244951D01*
X122520213Y-42369890D01*
X122369890Y-42520213D01*
X122244951Y-42692179D01*
X122148444Y-42881585D01*
X122082753Y-43083760D01*
X122059903Y-43228031D01*
X122049500Y-43293713D01*
X118575665Y-43293713D01*
X118575665Y-42853361D01*
X117658677Y-42853361D01*
X117691590Y-42796354D01*
X117725665Y-42669187D01*
X117725665Y-42537535D01*
X117691590Y-42410368D01*
X117658677Y-42353361D01*
X118575665Y-42353361D01*
X118575665Y-41705533D01*
X118575664Y-41705513D01*
X118569263Y-41645988D01*
X118569261Y-41645981D01*
X118519019Y-41511274D01*
X118519015Y-41511267D01*
X118432855Y-41396173D01*
X118432852Y-41396170D01*
X118317758Y-41310010D01*
X118317751Y-41310006D01*
X118183044Y-41259764D01*
X118183037Y-41259762D01*
X118123509Y-41253361D01*
X117475665Y-41253361D01*
X117475665Y-42170349D01*
X117418658Y-42137436D01*
X117291491Y-42103361D01*
X117159839Y-42103361D01*
X117032672Y-42137436D01*
X116975665Y-42170349D01*
X116975665Y-41253361D01*
X116327820Y-41253361D01*
X116268292Y-41259762D01*
X116268285Y-41259764D01*
X116133578Y-41310006D01*
X116133571Y-41310010D01*
X116018477Y-41396170D01*
X116018474Y-41396173D01*
X115932314Y-41511267D01*
X115932310Y-41511274D01*
X115882068Y-41645981D01*
X115882066Y-41645988D01*
X115875666Y-41705513D01*
X115875665Y-41705533D01*
X115875665Y-42353361D01*
X116792653Y-42353361D01*
X116759740Y-42410368D01*
X116725665Y-42537535D01*
X116725665Y-42669187D01*
X116759740Y-42796354D01*
X116792653Y-42853361D01*
X115875665Y-42853361D01*
X115875665Y-43501205D01*
X115882066Y-43560733D01*
X115882068Y-43560740D01*
X115932310Y-43695447D01*
X115932314Y-43695454D01*
X116018474Y-43810548D01*
X116018477Y-43810551D01*
X116133571Y-43896711D01*
X116133578Y-43896715D01*
X116265135Y-43945783D01*
X116321069Y-43987654D01*
X116345486Y-44053119D01*
X116330634Y-44121392D01*
X116309484Y-44149646D01*
X116195554Y-44263576D01*
X116070616Y-44435540D01*
X115974109Y-44624946D01*
X115974108Y-44624948D01*
X115974108Y-44624949D01*
X115944119Y-44717246D01*
X115908418Y-44827121D01*
X115905982Y-44842502D01*
X115875165Y-45037074D01*
X114942465Y-45037074D01*
X114942465Y-45034407D01*
X114909211Y-44824451D01*
X114843522Y-44622282D01*
X114747016Y-44432878D01*
X114747014Y-44432875D01*
X114747013Y-44432873D01*
X114622074Y-44260907D01*
X114508146Y-44146979D01*
X114474661Y-44085656D01*
X114479645Y-44015964D01*
X114521517Y-43960031D01*
X114552494Y-43943116D01*
X114684051Y-43894048D01*
X114684058Y-43894044D01*
X114799152Y-43807884D01*
X114799155Y-43807881D01*
X114885315Y-43692787D01*
X114885319Y-43692780D01*
X114935561Y-43558073D01*
X114935563Y-43558066D01*
X114941964Y-43498538D01*
X114941965Y-43498521D01*
X114941965Y-42850694D01*
X114024977Y-42850694D01*
X114057890Y-42793687D01*
X114091965Y-42666520D01*
X114091965Y-42534868D01*
X114057890Y-42407701D01*
X114024977Y-42350694D01*
X114941965Y-42350694D01*
X114941965Y-41702866D01*
X114941964Y-41702849D01*
X114935563Y-41643321D01*
X114935561Y-41643314D01*
X114885319Y-41508607D01*
X114885315Y-41508600D01*
X114799155Y-41393506D01*
X114799152Y-41393503D01*
X114684058Y-41307343D01*
X114684051Y-41307339D01*
X114549344Y-41257097D01*
X114549337Y-41257095D01*
X114489809Y-41250694D01*
X113841965Y-41250694D01*
X113841965Y-42167682D01*
X113784958Y-42134769D01*
X113657791Y-42100694D01*
X113526139Y-42100694D01*
X113398972Y-42134769D01*
X113341965Y-42167682D01*
X113341965Y-41250694D01*
X112694120Y-41250694D01*
X112634592Y-41257095D01*
X112634585Y-41257097D01*
X112499878Y-41307339D01*
X112499871Y-41307343D01*
X112384777Y-41393503D01*
X112384774Y-41393506D01*
X112298614Y-41508600D01*
X112298610Y-41508607D01*
X112248368Y-41643314D01*
X112248366Y-41643321D01*
X112241965Y-41702849D01*
X112241965Y-42350694D01*
X113158953Y-42350694D01*
X113126040Y-42407701D01*
X113091965Y-42534868D01*
X113091965Y-42666520D01*
X113126040Y-42793687D01*
X113158953Y-42850694D01*
X112241965Y-42850694D01*
X112241965Y-43498538D01*
X112248366Y-43558066D01*
X112248368Y-43558073D01*
X112298610Y-43692780D01*
X112298614Y-43692787D01*
X112384774Y-43807881D01*
X112384777Y-43807884D01*
X112499871Y-43894044D01*
X112499878Y-43894048D01*
X112631435Y-43943116D01*
X112687369Y-43984987D01*
X112711786Y-44050452D01*
X112696934Y-44118725D01*
X112675784Y-44146979D01*
X112561854Y-44260909D01*
X112436916Y-44432873D01*
X112340409Y-44622279D01*
X112274718Y-44824454D01*
X112271860Y-44842499D01*
X112241465Y-45034407D01*
X111308630Y-45034407D01*
X111308630Y-45032003D01*
X111275376Y-44822047D01*
X111209687Y-44619878D01*
X111113181Y-44430474D01*
X111113179Y-44430471D01*
X111113178Y-44430469D01*
X110988239Y-44258503D01*
X110874311Y-44144575D01*
X110840826Y-44083252D01*
X110845810Y-44013560D01*
X110887682Y-43957627D01*
X110918659Y-43940712D01*
X111050216Y-43891644D01*
X111050223Y-43891640D01*
X111165317Y-43805480D01*
X111165320Y-43805477D01*
X111251480Y-43690383D01*
X111251484Y-43690376D01*
X111301726Y-43555669D01*
X111301728Y-43555662D01*
X111308129Y-43496134D01*
X111308130Y-43496117D01*
X111308130Y-42848290D01*
X110391142Y-42848290D01*
X110424055Y-42791283D01*
X110458130Y-42664116D01*
X110458130Y-42532464D01*
X110424055Y-42405297D01*
X110391142Y-42348290D01*
X111308130Y-42348290D01*
X111308130Y-41700462D01*
X111308129Y-41700445D01*
X111301728Y-41640917D01*
X111301726Y-41640910D01*
X111251484Y-41506203D01*
X111251480Y-41506196D01*
X111165320Y-41391102D01*
X111165317Y-41391099D01*
X111050223Y-41304939D01*
X111050216Y-41304935D01*
X110915509Y-41254693D01*
X110915502Y-41254691D01*
X110855974Y-41248290D01*
X110208130Y-41248290D01*
X110208130Y-42165278D01*
X110151123Y-42132365D01*
X110023956Y-42098290D01*
X109892304Y-42098290D01*
X109765137Y-42132365D01*
X109708130Y-42165278D01*
X109708130Y-41248290D01*
X109060285Y-41248290D01*
X109000757Y-41254691D01*
X109000750Y-41254693D01*
X108866043Y-41304935D01*
X108866036Y-41304939D01*
X108750942Y-41391099D01*
X108750939Y-41391102D01*
X108664779Y-41506196D01*
X108664775Y-41506203D01*
X108614533Y-41640910D01*
X108614531Y-41640917D01*
X108608130Y-41700445D01*
X108608130Y-42348290D01*
X109525118Y-42348290D01*
X109492205Y-42405297D01*
X109458130Y-42532464D01*
X109458130Y-42664116D01*
X109492205Y-42791283D01*
X109525118Y-42848290D01*
X108608130Y-42848290D01*
X108608130Y-43496134D01*
X108614531Y-43555662D01*
X108614533Y-43555669D01*
X108664775Y-43690376D01*
X108664779Y-43690383D01*
X108750939Y-43805477D01*
X108750942Y-43805480D01*
X108866036Y-43891640D01*
X108866043Y-43891644D01*
X108997600Y-43940712D01*
X109053534Y-43982583D01*
X109077951Y-44048048D01*
X109063099Y-44116321D01*
X109041949Y-44144575D01*
X108928019Y-44258505D01*
X108803081Y-44430469D01*
X108706574Y-44619875D01*
X108706573Y-44619877D01*
X108706573Y-44619878D01*
X108699929Y-44640327D01*
X108640883Y-44822050D01*
X108637644Y-44842502D01*
X108607630Y-45032003D01*
X107668630Y-45032003D01*
X107635376Y-44822047D01*
X107569687Y-44619878D01*
X107473181Y-44430474D01*
X107473179Y-44430471D01*
X107473178Y-44430469D01*
X107348239Y-44258503D01*
X107234311Y-44144575D01*
X107200826Y-44083252D01*
X107205810Y-44013560D01*
X107247682Y-43957627D01*
X107278659Y-43940712D01*
X107410216Y-43891644D01*
X107410223Y-43891640D01*
X107525317Y-43805480D01*
X107525320Y-43805477D01*
X107611480Y-43690383D01*
X107611484Y-43690376D01*
X107661726Y-43555669D01*
X107661728Y-43555662D01*
X107668129Y-43496134D01*
X107668130Y-43496117D01*
X107668130Y-42848290D01*
X106751142Y-42848290D01*
X106784055Y-42791283D01*
X106818130Y-42664116D01*
X106818130Y-42532464D01*
X106784055Y-42405297D01*
X106751142Y-42348290D01*
X107668130Y-42348290D01*
X107668130Y-41700462D01*
X107668129Y-41700445D01*
X107661728Y-41640917D01*
X107661726Y-41640910D01*
X107611484Y-41506203D01*
X107611480Y-41506196D01*
X107525320Y-41391102D01*
X107525317Y-41391099D01*
X107410223Y-41304939D01*
X107410216Y-41304935D01*
X107275509Y-41254693D01*
X107275502Y-41254691D01*
X107215974Y-41248290D01*
X106568130Y-41248290D01*
X106568130Y-42165278D01*
X106511123Y-42132365D01*
X106383956Y-42098290D01*
X106252304Y-42098290D01*
X106125137Y-42132365D01*
X106068130Y-42165278D01*
X106068130Y-41248290D01*
X105420285Y-41248290D01*
X105360757Y-41254691D01*
X105360750Y-41254693D01*
X105226043Y-41304935D01*
X105226036Y-41304939D01*
X105110942Y-41391099D01*
X105110939Y-41391102D01*
X105024779Y-41506196D01*
X105024775Y-41506203D01*
X104974533Y-41640910D01*
X104974531Y-41640917D01*
X104968130Y-41700445D01*
X104968130Y-42348290D01*
X105885118Y-42348290D01*
X105852205Y-42405297D01*
X105818130Y-42532464D01*
X105818130Y-42664116D01*
X105852205Y-42791283D01*
X105885118Y-42848290D01*
X104968130Y-42848290D01*
X104968130Y-43496134D01*
X104974531Y-43555662D01*
X104974533Y-43555669D01*
X105024775Y-43690376D01*
X105024779Y-43690383D01*
X105110939Y-43805477D01*
X105110942Y-43805480D01*
X105226036Y-43891640D01*
X105226043Y-43891644D01*
X105357600Y-43940712D01*
X105413534Y-43982583D01*
X105437951Y-44048048D01*
X105423099Y-44116321D01*
X105401949Y-44144575D01*
X105288019Y-44258505D01*
X105163081Y-44430469D01*
X105066574Y-44619875D01*
X105066573Y-44619877D01*
X105066573Y-44619878D01*
X105059929Y-44640327D01*
X105000883Y-44822050D01*
X104997644Y-44842502D01*
X104967630Y-45032003D01*
X104010229Y-45032003D01*
X103977246Y-44823757D01*
X103911557Y-44621588D01*
X103815051Y-44432184D01*
X103815049Y-44432181D01*
X103815048Y-44432179D01*
X103690109Y-44260213D01*
X103576181Y-44146285D01*
X103542696Y-44084962D01*
X103547680Y-44015270D01*
X103589552Y-43959337D01*
X103620529Y-43942422D01*
X103752086Y-43893354D01*
X103752093Y-43893350D01*
X103867187Y-43807190D01*
X103867190Y-43807187D01*
X103953350Y-43692093D01*
X103953354Y-43692086D01*
X104003596Y-43557379D01*
X104003598Y-43557372D01*
X104009999Y-43497844D01*
X104010000Y-43497827D01*
X104010000Y-42850000D01*
X103093012Y-42850000D01*
X103125925Y-42792993D01*
X103160000Y-42665826D01*
X103160000Y-42534174D01*
X103125925Y-42407007D01*
X103093012Y-42350000D01*
X104010000Y-42350000D01*
X104010000Y-41702166D01*
X104009999Y-41702161D01*
X104003598Y-41642627D01*
X104003596Y-41642620D01*
X103953354Y-41507913D01*
X103953350Y-41507906D01*
X103867190Y-41392812D01*
X103867187Y-41392809D01*
X103752093Y-41306649D01*
X103752086Y-41306645D01*
X103617379Y-41256403D01*
X103617372Y-41256401D01*
X103557844Y-41250000D01*
X102910000Y-41250000D01*
X102910000Y-42166988D01*
X102852993Y-42134075D01*
X102725826Y-42100000D01*
X102594174Y-42100000D01*
X102467007Y-42134075D01*
X102410000Y-42166988D01*
X102410000Y-41250000D01*
X101762155Y-41250000D01*
X101702627Y-41256401D01*
X101702620Y-41256403D01*
X101567913Y-41306645D01*
X101567906Y-41306649D01*
X101452812Y-41392809D01*
X101452809Y-41392812D01*
X101366649Y-41507906D01*
X101366645Y-41507913D01*
X101316403Y-41642620D01*
X101316401Y-41642627D01*
X101310000Y-41702155D01*
X101310000Y-42350000D01*
X102226988Y-42350000D01*
X102194075Y-42407007D01*
X102160000Y-42534174D01*
X102160000Y-42665826D01*
X102194075Y-42792993D01*
X102226988Y-42850000D01*
X101310000Y-42850000D01*
X101310000Y-43497844D01*
X101316401Y-43557372D01*
X101316403Y-43557379D01*
X101366645Y-43692086D01*
X101366649Y-43692093D01*
X101452809Y-43807187D01*
X101452812Y-43807190D01*
X101567906Y-43893350D01*
X101567913Y-43893354D01*
X101699470Y-43942422D01*
X101755404Y-43984293D01*
X101779821Y-44049758D01*
X101764969Y-44118031D01*
X101743819Y-44146285D01*
X101629889Y-44260215D01*
X101504951Y-44432179D01*
X101408444Y-44621585D01*
X101408443Y-44621587D01*
X101408443Y-44621588D01*
X101408218Y-44622282D01*
X101342753Y-44823760D01*
X101339785Y-44842502D01*
X101309500Y-45033713D01*
X100353212Y-45033713D01*
X100320387Y-44826466D01*
X100254698Y-44624297D01*
X100158192Y-44434893D01*
X100158190Y-44434890D01*
X100158189Y-44434888D01*
X100033250Y-44262922D01*
X99919322Y-44148994D01*
X99885837Y-44087671D01*
X99890821Y-44017979D01*
X99932693Y-43962046D01*
X99963670Y-43945131D01*
X100095227Y-43896063D01*
X100095234Y-43896059D01*
X100210328Y-43809899D01*
X100210331Y-43809896D01*
X100296491Y-43694802D01*
X100296495Y-43694795D01*
X100346737Y-43560088D01*
X100346739Y-43560081D01*
X100353140Y-43500553D01*
X100353141Y-43500536D01*
X100353141Y-42852709D01*
X99436153Y-42852709D01*
X99469066Y-42795702D01*
X99503141Y-42668535D01*
X99503141Y-42536883D01*
X99469066Y-42409716D01*
X99436153Y-42352709D01*
X100353141Y-42352709D01*
X100353141Y-41704881D01*
X100353140Y-41704864D01*
X100346739Y-41645336D01*
X100346737Y-41645329D01*
X100296495Y-41510622D01*
X100296491Y-41510615D01*
X100210331Y-41395521D01*
X100210328Y-41395518D01*
X100095234Y-41309358D01*
X100095227Y-41309354D01*
X99960520Y-41259112D01*
X99960513Y-41259110D01*
X99900985Y-41252709D01*
X99253141Y-41252709D01*
X99253141Y-42169697D01*
X99196134Y-42136784D01*
X99068967Y-42102709D01*
X98937315Y-42102709D01*
X98810148Y-42136784D01*
X98753141Y-42169697D01*
X98753141Y-41252709D01*
X98105296Y-41252709D01*
X98045768Y-41259110D01*
X98045761Y-41259112D01*
X97911054Y-41309354D01*
X97911047Y-41309358D01*
X97795953Y-41395518D01*
X97795950Y-41395521D01*
X97709790Y-41510615D01*
X97709786Y-41510622D01*
X97659544Y-41645329D01*
X97659542Y-41645336D01*
X97653141Y-41704864D01*
X97653141Y-42352709D01*
X98570129Y-42352709D01*
X98537216Y-42409716D01*
X98503141Y-42536883D01*
X98503141Y-42668535D01*
X98537216Y-42795702D01*
X98570129Y-42852709D01*
X97653141Y-42852709D01*
X97653141Y-43500553D01*
X97659542Y-43560081D01*
X97659544Y-43560088D01*
X97709786Y-43694795D01*
X97709790Y-43694802D01*
X97795950Y-43809896D01*
X97795953Y-43809899D01*
X97911047Y-43896059D01*
X97911054Y-43896063D01*
X98042611Y-43945131D01*
X98098545Y-43987002D01*
X98122962Y-44052467D01*
X98108110Y-44120740D01*
X98086960Y-44148994D01*
X97973030Y-44262924D01*
X97848092Y-44434888D01*
X97751585Y-44624294D01*
X97685894Y-44826469D01*
X97683355Y-44842502D01*
X97652641Y-45036422D01*
X96704384Y-45036422D01*
X96672548Y-44835418D01*
X96606859Y-44633249D01*
X96510353Y-44443845D01*
X96510351Y-44443842D01*
X96510350Y-44443840D01*
X96385411Y-44271874D01*
X96271483Y-44157946D01*
X96237998Y-44096623D01*
X96242982Y-44026931D01*
X96284854Y-43970998D01*
X96315831Y-43954083D01*
X96447388Y-43905015D01*
X96447395Y-43905011D01*
X96562489Y-43818851D01*
X96562492Y-43818848D01*
X96648652Y-43703754D01*
X96648656Y-43703747D01*
X96698898Y-43569040D01*
X96698900Y-43569033D01*
X96705301Y-43509505D01*
X96705302Y-43509488D01*
X96705302Y-42861661D01*
X95788314Y-42861661D01*
X95821227Y-42804654D01*
X95855302Y-42677487D01*
X95855302Y-42545835D01*
X95821227Y-42418668D01*
X95788314Y-42361661D01*
X96705302Y-42361661D01*
X96705302Y-41713833D01*
X96705300Y-41713810D01*
X96698900Y-41654287D01*
X96698898Y-41654281D01*
X96648656Y-41519574D01*
X96648652Y-41519567D01*
X96562492Y-41404473D01*
X96562489Y-41404470D01*
X96447395Y-41318310D01*
X96447388Y-41318306D01*
X96312681Y-41268064D01*
X96312674Y-41268062D01*
X96253146Y-41261661D01*
X95605302Y-41261661D01*
X95605302Y-42178649D01*
X95548295Y-42145736D01*
X95421128Y-42111661D01*
X95289476Y-42111661D01*
X95162309Y-42145736D01*
X95105302Y-42178649D01*
X95105302Y-41261661D01*
X94457457Y-41261661D01*
X94397929Y-41268062D01*
X94397922Y-41268064D01*
X94263215Y-41318306D01*
X94263208Y-41318310D01*
X94148114Y-41404470D01*
X94148111Y-41404473D01*
X94061951Y-41519567D01*
X94061947Y-41519574D01*
X94011705Y-41654281D01*
X94011703Y-41654288D01*
X94005302Y-41713816D01*
X94005302Y-42361661D01*
X94922290Y-42361661D01*
X94889377Y-42418668D01*
X94855302Y-42545835D01*
X94855302Y-42677487D01*
X94889377Y-42804654D01*
X94922290Y-42861661D01*
X94005302Y-42861661D01*
X94005302Y-43509505D01*
X94011703Y-43569033D01*
X94011705Y-43569040D01*
X94061947Y-43703747D01*
X94061951Y-43703754D01*
X94148111Y-43818848D01*
X94148114Y-43818851D01*
X94263208Y-43905011D01*
X94263215Y-43905015D01*
X94394772Y-43954083D01*
X94450706Y-43995954D01*
X94475123Y-44061419D01*
X94460271Y-44129692D01*
X94439121Y-44157946D01*
X94325191Y-44271876D01*
X94200253Y-44443840D01*
X94103746Y-44633246D01*
X94038055Y-44835421D01*
X94006539Y-45034407D01*
X94004802Y-45045374D01*
X93064334Y-45045374D01*
X93032202Y-44842499D01*
X92966513Y-44640330D01*
X92870007Y-44450926D01*
X92870005Y-44450923D01*
X92870004Y-44450921D01*
X92745065Y-44278955D01*
X92631137Y-44165027D01*
X92597652Y-44103704D01*
X92602636Y-44034012D01*
X92644508Y-43978079D01*
X92675485Y-43961164D01*
X92807042Y-43912096D01*
X92807049Y-43912092D01*
X92922143Y-43825932D01*
X92922146Y-43825929D01*
X93008306Y-43710835D01*
X93008310Y-43710828D01*
X93058552Y-43576121D01*
X93058554Y-43576114D01*
X93064955Y-43516586D01*
X93064956Y-43516569D01*
X93064956Y-42868742D01*
X92147968Y-42868742D01*
X92180881Y-42811735D01*
X92214956Y-42684568D01*
X92214956Y-42552916D01*
X92180881Y-42425749D01*
X92147968Y-42368742D01*
X93064956Y-42368742D01*
X93064956Y-41720914D01*
X93064954Y-41720894D01*
X93058554Y-41661368D01*
X93058552Y-41661362D01*
X93008310Y-41526655D01*
X93008306Y-41526648D01*
X92922146Y-41411554D01*
X92922143Y-41411551D01*
X92807049Y-41325391D01*
X92807042Y-41325387D01*
X92672335Y-41275145D01*
X92672328Y-41275143D01*
X92612800Y-41268742D01*
X91964956Y-41268742D01*
X91964956Y-42185730D01*
X91907949Y-42152817D01*
X91780782Y-42118742D01*
X91649130Y-42118742D01*
X91521963Y-42152817D01*
X91464956Y-42185730D01*
X91464956Y-41268742D01*
X90817111Y-41268742D01*
X90757583Y-41275143D01*
X90757576Y-41275145D01*
X90622869Y-41325387D01*
X90622862Y-41325391D01*
X90507768Y-41411551D01*
X90507765Y-41411554D01*
X90421605Y-41526648D01*
X90421601Y-41526655D01*
X90371359Y-41661362D01*
X90371357Y-41661369D01*
X90364956Y-41720897D01*
X90364956Y-42368742D01*
X91281944Y-42368742D01*
X91249031Y-42425749D01*
X91214956Y-42552916D01*
X91214956Y-42684568D01*
X91249031Y-42811735D01*
X91281944Y-42868742D01*
X90364956Y-42868742D01*
X90364956Y-43516586D01*
X90371357Y-43576114D01*
X90371359Y-43576121D01*
X90421601Y-43710828D01*
X90421605Y-43710835D01*
X90507765Y-43825929D01*
X90507768Y-43825932D01*
X90622862Y-43912092D01*
X90622869Y-43912096D01*
X90754426Y-43961164D01*
X90810360Y-44003035D01*
X90834777Y-44068500D01*
X90819925Y-44136773D01*
X90798775Y-44165027D01*
X90684845Y-44278957D01*
X90559907Y-44450921D01*
X90463400Y-44640327D01*
X90397709Y-44842502D01*
X90364456Y-45052455D01*
X89427611Y-45052455D01*
X89427611Y-45041392D01*
X89394357Y-44831436D01*
X89328668Y-44629267D01*
X89232162Y-44439863D01*
X89232160Y-44439860D01*
X89232159Y-44439858D01*
X89107220Y-44267892D01*
X88993292Y-44153964D01*
X88959807Y-44092641D01*
X88964791Y-44022949D01*
X89006663Y-43967016D01*
X89037640Y-43950101D01*
X89169197Y-43901033D01*
X89169204Y-43901029D01*
X89284298Y-43814869D01*
X89284301Y-43814866D01*
X89370461Y-43699772D01*
X89370465Y-43699765D01*
X89420707Y-43565058D01*
X89420709Y-43565051D01*
X89427110Y-43505523D01*
X89427111Y-43505506D01*
X89427111Y-42857679D01*
X88510123Y-42857679D01*
X88543036Y-42800672D01*
X88577111Y-42673505D01*
X88577111Y-42541853D01*
X88543036Y-42414686D01*
X88510123Y-42357679D01*
X89427111Y-42357679D01*
X89427111Y-41709851D01*
X89427110Y-41709834D01*
X89420709Y-41650306D01*
X89420707Y-41650299D01*
X89370465Y-41515592D01*
X89370461Y-41515585D01*
X89284301Y-41400491D01*
X89284298Y-41400488D01*
X89169204Y-41314328D01*
X89169197Y-41314324D01*
X89034490Y-41264082D01*
X89034483Y-41264080D01*
X88974955Y-41257679D01*
X88327111Y-41257679D01*
X88327111Y-42174667D01*
X88270104Y-42141754D01*
X88142937Y-42107679D01*
X88011285Y-42107679D01*
X87884118Y-42141754D01*
X87827111Y-42174667D01*
X87827111Y-41257679D01*
X87179266Y-41257679D01*
X87119738Y-41264080D01*
X87119731Y-41264082D01*
X86985024Y-41314324D01*
X86985017Y-41314328D01*
X86869923Y-41400488D01*
X86869920Y-41400491D01*
X86783760Y-41515585D01*
X86783756Y-41515592D01*
X86733514Y-41650299D01*
X86733512Y-41650306D01*
X86727111Y-41709834D01*
X86727111Y-42357679D01*
X87644099Y-42357679D01*
X87611186Y-42414686D01*
X87577111Y-42541853D01*
X87577111Y-42673505D01*
X87611186Y-42800672D01*
X87644099Y-42857679D01*
X86727111Y-42857679D01*
X86727111Y-43505523D01*
X86733512Y-43565051D01*
X86733514Y-43565058D01*
X86783756Y-43699765D01*
X86783760Y-43699772D01*
X86869920Y-43814866D01*
X86869923Y-43814869D01*
X86985017Y-43901029D01*
X86985024Y-43901033D01*
X87116581Y-43950101D01*
X87172515Y-43991972D01*
X87196932Y-44057437D01*
X87182080Y-44125710D01*
X87160930Y-44153964D01*
X87047000Y-44267894D01*
X86922062Y-44439858D01*
X86825555Y-44629264D01*
X86759864Y-44831439D01*
X86726611Y-45041392D01*
X85779478Y-45041392D01*
X85779478Y-45037768D01*
X85746224Y-44827812D01*
X85680535Y-44625643D01*
X85584029Y-44436239D01*
X85584027Y-44436236D01*
X85584026Y-44436234D01*
X85459087Y-44264268D01*
X85345159Y-44150340D01*
X85311674Y-44089017D01*
X85316658Y-44019325D01*
X85358530Y-43963392D01*
X85389507Y-43946477D01*
X85521064Y-43897409D01*
X85521071Y-43897405D01*
X85636165Y-43811245D01*
X85636168Y-43811242D01*
X85722328Y-43696148D01*
X85722332Y-43696141D01*
X85772574Y-43561434D01*
X85772576Y-43561427D01*
X85778977Y-43501899D01*
X85778978Y-43501882D01*
X85778978Y-42854055D01*
X84861990Y-42854055D01*
X84894903Y-42797048D01*
X84928978Y-42669881D01*
X84928978Y-42538229D01*
X84894903Y-42411062D01*
X84861990Y-42354055D01*
X85778978Y-42354055D01*
X85778978Y-41706227D01*
X85778977Y-41706210D01*
X85772576Y-41646682D01*
X85772574Y-41646675D01*
X85722332Y-41511968D01*
X85722328Y-41511961D01*
X85636168Y-41396867D01*
X85636165Y-41396864D01*
X85521071Y-41310704D01*
X85521064Y-41310700D01*
X85386357Y-41260458D01*
X85386350Y-41260456D01*
X85326822Y-41254055D01*
X84678978Y-41254055D01*
X84678978Y-42171043D01*
X84621971Y-42138130D01*
X84494804Y-42104055D01*
X84363152Y-42104055D01*
X84235985Y-42138130D01*
X84178978Y-42171043D01*
X84178978Y-41254055D01*
X83531133Y-41254055D01*
X83471605Y-41260456D01*
X83471598Y-41260458D01*
X83336891Y-41310700D01*
X83336884Y-41310704D01*
X83221790Y-41396864D01*
X83221787Y-41396867D01*
X83135627Y-41511961D01*
X83135623Y-41511968D01*
X83085381Y-41646675D01*
X83085379Y-41646682D01*
X83078978Y-41706210D01*
X83078978Y-42354055D01*
X83995966Y-42354055D01*
X83963053Y-42411062D01*
X83928978Y-42538229D01*
X83928978Y-42669881D01*
X83963053Y-42797048D01*
X83995966Y-42854055D01*
X83078978Y-42854055D01*
X83078978Y-43501899D01*
X83085379Y-43561427D01*
X83085381Y-43561434D01*
X83135623Y-43696141D01*
X83135627Y-43696148D01*
X83221787Y-43811242D01*
X83221790Y-43811245D01*
X83336884Y-43897405D01*
X83336891Y-43897409D01*
X83468448Y-43946477D01*
X83524382Y-43988348D01*
X83548799Y-44053813D01*
X83533947Y-44122086D01*
X83512797Y-44150340D01*
X83398867Y-44264270D01*
X83273929Y-44436234D01*
X83177422Y-44625640D01*
X83177421Y-44625642D01*
X83177421Y-44625643D01*
X83174951Y-44633246D01*
X83111731Y-44827815D01*
X83078478Y-45037768D01*
X75900500Y-45037768D01*
X75900500Y-43403750D01*
X75900726Y-43396263D01*
X75906929Y-43293713D01*
X77049500Y-43293713D01*
X77049500Y-43506287D01*
X77058807Y-43565051D01*
X77080774Y-43703747D01*
X77082754Y-43716243D01*
X77146389Y-43912092D01*
X77148444Y-43918414D01*
X77244951Y-44107820D01*
X77369890Y-44279786D01*
X77520213Y-44430109D01*
X77692179Y-44555048D01*
X77692181Y-44555049D01*
X77692184Y-44555051D01*
X77881588Y-44651557D01*
X78083757Y-44717246D01*
X78293713Y-44750500D01*
X78293714Y-44750500D01*
X78506286Y-44750500D01*
X78506287Y-44750500D01*
X78716243Y-44717246D01*
X78918412Y-44651557D01*
X79107816Y-44555051D01*
X79251140Y-44450921D01*
X79279786Y-44430109D01*
X79279788Y-44430106D01*
X79279792Y-44430104D01*
X79430104Y-44279792D01*
X79430106Y-44279788D01*
X79430109Y-44279786D01*
X79545068Y-44121557D01*
X79555051Y-44107816D01*
X79651557Y-43918412D01*
X79717246Y-43716243D01*
X79750500Y-43506287D01*
X79750500Y-43293713D01*
X79717246Y-43083757D01*
X79651557Y-42881588D01*
X79555051Y-42692184D01*
X79555049Y-42692181D01*
X79555048Y-42692179D01*
X79430109Y-42520213D01*
X79279786Y-42369890D01*
X79107820Y-42244951D01*
X78918414Y-42148444D01*
X78918413Y-42148443D01*
X78918412Y-42148443D01*
X78716243Y-42082754D01*
X78716241Y-42082753D01*
X78716240Y-42082753D01*
X78554957Y-42057208D01*
X78506287Y-42049500D01*
X78293713Y-42049500D01*
X78245042Y-42057208D01*
X78083760Y-42082753D01*
X77881585Y-42148444D01*
X77692179Y-42244951D01*
X77520213Y-42369890D01*
X77369890Y-42520213D01*
X77244951Y-42692179D01*
X77148444Y-42881585D01*
X77082753Y-43083760D01*
X77059903Y-43228031D01*
X77049500Y-43293713D01*
X75906929Y-43293713D01*
X75907677Y-43281354D01*
X75918271Y-43106205D01*
X75920076Y-43091340D01*
X75923327Y-43073604D01*
X75971780Y-42809197D01*
X75975364Y-42794663D01*
X75975668Y-42793687D01*
X76060696Y-42520822D01*
X76065998Y-42506841D01*
X76183731Y-42245249D01*
X76190676Y-42232016D01*
X76339080Y-41986526D01*
X76347567Y-41974230D01*
X76524480Y-41748417D01*
X76534395Y-41737226D01*
X76737226Y-41534395D01*
X76748417Y-41524480D01*
X76974230Y-41347567D01*
X76986526Y-41339080D01*
X77232016Y-41190676D01*
X77245249Y-41183731D01*
X77506841Y-41065998D01*
X77520822Y-41060696D01*
X77794668Y-40975362D01*
X77809197Y-40971780D01*
X78091344Y-40920075D01*
X78106201Y-40918271D01*
X78396264Y-40900726D01*
X78403751Y-40900500D01*
X78465892Y-40900500D01*
X123334108Y-40900500D01*
X123396249Y-40900500D01*
X123403736Y-40900726D01*
G37*
%TD.AperFunction*%
%TD*%
M02*
