%TF.GenerationSoftware,KiCad,Pcbnew,9.0.7-9.0.7~ubuntu25.10.1*%
%TF.CreationDate,2026-02-28T17:49:31+01:00*%
%TF.ProjectId,pwm_board,70776d5f-626f-4617-9264-2e6b69636164,rev?*%
%TF.SameCoordinates,Original*%
%TF.FileFunction,Soldermask,Top*%
%TF.FilePolarity,Negative*%
%FSLAX46Y46*%
G04 Gerber Fmt 4.6, Leading zero omitted, Abs format (unit mm)*
G04 Created by KiCad (PCBNEW 9.0.7-9.0.7~ubuntu25.10.1) date 2026-02-28 17:49:31*
%MOMM*%
%LPD*%
G01*
G04 APERTURE LIST*
G04 Aperture macros list*
%AMRoundRect*
0 Rectangle with rounded corners*
0 $1 Rounding radius*
0 $2 $3 $4 $5 $6 $7 $8 $9 X,Y pos of 4 corners*
0 Add a 4 corners polygon primitive as box body*
4,1,4,$2,$3,$4,$5,$6,$7,$8,$9,$2,$3,0*
0 Add four circle primitives for the rounded corners*
1,1,$1+$1,$2,$3*
1,1,$1+$1,$4,$5*
1,1,$1+$1,$6,$7*
1,1,$1+$1,$8,$9*
0 Add four rect primitives between the rounded corners*
20,1,$1+$1,$2,$3,$4,$5,0*
20,1,$1+$1,$4,$5,$6,$7,0*
20,1,$1+$1,$6,$7,$8,$9,0*
20,1,$1+$1,$8,$9,$2,$3,0*%
%AMFreePoly0*
4,1,23,0.500000,-0.750000,0.000000,-0.750000,0.000000,-0.745722,-0.065263,-0.745722,-0.191342,-0.711940,-0.304381,-0.646677,-0.396677,-0.554381,-0.461940,-0.441342,-0.495722,-0.315263,-0.495722,-0.250000,-0.500000,-0.250000,-0.500000,0.250000,-0.495722,0.250000,-0.495722,0.315263,-0.461940,0.441342,-0.396677,0.554381,-0.304381,0.646677,-0.191342,0.711940,-0.065263,0.745722,0.000000,0.745722,
0.000000,0.750000,0.500000,0.750000,0.500000,-0.750000,0.500000,-0.750000,$1*%
%AMFreePoly1*
4,1,23,0.000000,0.745722,0.065263,0.745722,0.191342,0.711940,0.304381,0.646677,0.396677,0.554381,0.461940,0.441342,0.495722,0.315263,0.495722,0.250000,0.500000,0.250000,0.500000,-0.250000,0.495722,-0.250000,0.495722,-0.315263,0.461940,-0.441342,0.396677,-0.554381,0.304381,-0.646677,0.191342,-0.711940,0.065263,-0.745722,0.000000,-0.745722,0.000000,-0.750000,-0.500000,-0.750000,
-0.500000,0.750000,0.000000,0.750000,0.000000,0.745722,0.000000,0.745722,$1*%
G04 Aperture macros list end*
%ADD10C,1.700000*%
%ADD11R,1.700000X1.700000*%
%ADD12RoundRect,0.140000X0.170000X-0.140000X0.170000X0.140000X-0.170000X0.140000X-0.170000X-0.140000X0*%
%ADD13RoundRect,0.150000X-0.200000X0.150000X-0.200000X-0.150000X0.200000X-0.150000X0.200000X0.150000X0*%
%ADD14RoundRect,0.140000X-0.170000X0.140000X-0.170000X-0.140000X0.170000X-0.140000X0.170000X0.140000X0*%
%ADD15RoundRect,0.250000X-0.450000X0.262500X-0.450000X-0.262500X0.450000X-0.262500X0.450000X0.262500X0*%
%ADD16RoundRect,0.150000X-0.150000X0.587500X-0.150000X-0.587500X0.150000X-0.587500X0.150000X0.587500X0*%
%ADD17RoundRect,0.218750X-0.256250X0.218750X-0.256250X-0.218750X0.256250X-0.218750X0.256250X0.218750X0*%
%ADD18RoundRect,0.250000X-0.262500X-0.450000X0.262500X-0.450000X0.262500X0.450000X-0.262500X0.450000X0*%
%ADD19RoundRect,0.150000X-0.587500X-0.150000X0.587500X-0.150000X0.587500X0.150000X-0.587500X0.150000X0*%
%ADD20RoundRect,0.140000X-0.140000X-0.170000X0.140000X-0.170000X0.140000X0.170000X-0.140000X0.170000X0*%
%ADD21RoundRect,0.135000X-0.135000X-0.185000X0.135000X-0.185000X0.135000X0.185000X-0.135000X0.185000X0*%
%ADD22RoundRect,0.157500X0.842500X-0.367500X0.842500X0.367500X-0.842500X0.367500X-0.842500X-0.367500X0*%
%ADD23C,2.200000*%
%ADD24RoundRect,0.150000X0.150000X-0.512500X0.150000X0.512500X-0.150000X0.512500X-0.150000X-0.512500X0*%
%ADD25RoundRect,0.218750X0.218750X0.256250X-0.218750X0.256250X-0.218750X-0.256250X0.218750X-0.256250X0*%
%ADD26RoundRect,0.100000X0.130000X0.100000X-0.130000X0.100000X-0.130000X-0.100000X0.130000X-0.100000X0*%
%ADD27RoundRect,0.243750X-0.243750X-0.456250X0.243750X-0.456250X0.243750X0.456250X-0.243750X0.456250X0*%
%ADD28RoundRect,0.250000X1.000000X-0.550000X1.000000X0.550000X-1.000000X0.550000X-1.000000X-0.550000X0*%
%ADD29RoundRect,0.200000X0.200000X0.275000X-0.200000X0.275000X-0.200000X-0.275000X0.200000X-0.275000X0*%
%ADD30RoundRect,0.100000X-0.130000X-0.100000X0.130000X-0.100000X0.130000X0.100000X-0.130000X0.100000X0*%
%ADD31RoundRect,0.200000X-0.200000X-0.275000X0.200000X-0.275000X0.200000X0.275000X-0.200000X0.275000X0*%
%ADD32RoundRect,0.100000X0.637500X0.100000X-0.637500X0.100000X-0.637500X-0.100000X0.637500X-0.100000X0*%
%ADD33RoundRect,0.100000X0.100000X-0.130000X0.100000X0.130000X-0.100000X0.130000X-0.100000X-0.130000X0*%
%ADD34FreePoly0,180.000000*%
%ADD35FreePoly1,180.000000*%
%ADD36RoundRect,0.200000X0.275000X-0.200000X0.275000X0.200000X-0.275000X0.200000X-0.275000X-0.200000X0*%
%ADD37RoundRect,0.218750X-0.218750X-0.256250X0.218750X-0.256250X0.218750X0.256250X-0.218750X0.256250X0*%
%ADD38RoundRect,0.250000X0.450000X-0.262500X0.450000X0.262500X-0.450000X0.262500X-0.450000X-0.262500X0*%
%ADD39RoundRect,0.100000X-0.100000X0.130000X-0.100000X-0.130000X0.100000X-0.130000X0.100000X0.130000X0*%
%ADD40RoundRect,0.150000X-0.150000X0.825000X-0.150000X-0.825000X0.150000X-0.825000X0.150000X0.825000X0*%
%ADD41RoundRect,0.150000X-0.512500X-0.150000X0.512500X-0.150000X0.512500X0.150000X-0.512500X0.150000X0*%
%ADD42RoundRect,0.100000X-0.100000X0.637500X-0.100000X-0.637500X0.100000X-0.637500X0.100000X0.637500X0*%
G04 APERTURE END LIST*
%TO.C,JP1*%
G36*
X118200000Y-55475000D02*
G01*
X117900000Y-55475000D01*
X117900000Y-53975000D01*
X118200000Y-53975000D01*
X118200000Y-55475000D01*
G37*
%TD*%
D10*
%TO.C,J14*%
X97940000Y-76400000D03*
D11*
X95400000Y-76400000D03*
%TD*%
D12*
%TO.C,C5*%
X97460000Y-79440000D03*
X97460000Y-80400000D03*
%TD*%
D10*
%TO.C,J13*%
X97940000Y-72400000D03*
D11*
X95400000Y-72400000D03*
%TD*%
D12*
%TO.C,C6*%
X99430000Y-79440000D03*
X99430000Y-80400000D03*
%TD*%
D13*
%TO.C,D7*%
X90400000Y-78700000D03*
X90400000Y-80100000D03*
%TD*%
D12*
%TO.C,C7*%
X101400000Y-79440000D03*
X101400000Y-80400000D03*
%TD*%
D13*
%TO.C,D8*%
X92850000Y-78700000D03*
X92850000Y-80100000D03*
%TD*%
D10*
%TO.C,J15*%
X104940000Y-72400000D03*
D11*
X102400000Y-72400000D03*
%TD*%
D10*
%TO.C,J12*%
X91400000Y-74940000D03*
D11*
X91400000Y-72400000D03*
%TD*%
D10*
%TO.C,J16*%
X104940000Y-76400000D03*
D11*
X102400000Y-76400000D03*
%TD*%
D12*
%TO.C,C2*%
X95490000Y-79440000D03*
X95490000Y-80400000D03*
%TD*%
D14*
%TO.C,C14*%
X103400000Y-80360000D03*
X103400000Y-79400000D03*
%TD*%
D13*
%TO.C,D4*%
X83050000Y-78700000D03*
X83050000Y-80100000D03*
%TD*%
D15*
%TO.C,R26*%
X83400000Y-76225000D03*
X83400000Y-74400000D03*
%TD*%
%TO.C,R25*%
X86400000Y-76225000D03*
X86400000Y-74400000D03*
%TD*%
D13*
%TO.C,D6*%
X87950000Y-78700000D03*
X87950000Y-80100000D03*
%TD*%
%TO.C,D5*%
X85500000Y-78700000D03*
X85500000Y-80100000D03*
%TD*%
D16*
%TO.C,Q4*%
X78400000Y-71337500D03*
X77450000Y-69462500D03*
X79350000Y-69462500D03*
%TD*%
%TO.C,Q3*%
X82400000Y-71337500D03*
X81450000Y-69462500D03*
X83350000Y-69462500D03*
%TD*%
D17*
%TO.C,D1*%
X80400000Y-74975000D03*
X80400000Y-73400000D03*
%TD*%
D16*
%TO.C,Q2*%
X86350000Y-70275000D03*
X85400000Y-68400000D03*
X87300000Y-68400000D03*
%TD*%
%TO.C,Q0*%
X78350000Y-67275000D03*
X77400000Y-65400000D03*
X79300000Y-65400000D03*
%TD*%
%TO.C,Q1*%
X82350000Y-67275000D03*
X81400000Y-65400000D03*
X83300000Y-65400000D03*
%TD*%
D18*
%TO.C,R27*%
X115225000Y-71400000D03*
X113400000Y-71400000D03*
%TD*%
D12*
%TO.C,C15*%
X109412500Y-76400000D03*
X109412500Y-75440000D03*
%TD*%
D13*
%TO.C,D9*%
X111312500Y-76600000D03*
X111312500Y-75200000D03*
%TD*%
D19*
%TO.C,Q5*%
X108862500Y-70665000D03*
X108862500Y-72565000D03*
X110737500Y-71615000D03*
%TD*%
D10*
%TO.C,J17*%
X114212500Y-77115000D03*
D11*
X114212500Y-74575000D03*
%TD*%
D15*
%TO.C,R22*%
X117400000Y-73225000D03*
X117400000Y-71400000D03*
%TD*%
%TO.C,R24*%
X123400000Y-73225000D03*
X123400000Y-71400000D03*
%TD*%
%TO.C,R23*%
X120400000Y-73225000D03*
X120400000Y-71400000D03*
%TD*%
D20*
%TO.C,C1*%
X106000000Y-62000000D03*
X106960000Y-62000000D03*
%TD*%
D21*
%TO.C,R19*%
X84428978Y-50404055D03*
X83408978Y-50404055D03*
%TD*%
%TO.C,R18*%
X87047111Y-50387679D03*
X88067111Y-50387679D03*
%TD*%
%TO.C,R17*%
X90694956Y-50418742D03*
X91714956Y-50418742D03*
%TD*%
%TO.C,R16*%
X95355302Y-50451661D03*
X94335302Y-50451661D03*
%TD*%
%TO.C,R15*%
X97983141Y-50442709D03*
X99003141Y-50442709D03*
%TD*%
%TO.C,R14*%
X101640000Y-50400000D03*
X102660000Y-50400000D03*
%TD*%
%TO.C,R13*%
X105298130Y-50438290D03*
X106318130Y-50438290D03*
%TD*%
%TO.C,R12*%
X108938130Y-50438290D03*
X109958130Y-50438290D03*
%TD*%
%TO.C,R11*%
X112571965Y-50400694D03*
X113591965Y-50400694D03*
%TD*%
%TO.C,R10*%
X116205665Y-50403361D03*
X117225665Y-50403361D03*
%TD*%
D12*
%TO.C,C12*%
X121200000Y-55505000D03*
X121200000Y-54545000D03*
%TD*%
D20*
%TO.C,C13*%
X86077973Y-64118012D03*
X87037973Y-64118012D03*
%TD*%
D14*
%TO.C,C4*%
X90708556Y-58964837D03*
X90708556Y-59924837D03*
%TD*%
D12*
%TO.C,C3*%
X89508556Y-59924837D03*
X89508556Y-58964837D03*
%TD*%
D14*
%TO.C,C9*%
X116739999Y-60520000D03*
X116739999Y-61480000D03*
%TD*%
D22*
%TO.C,SW1*%
X108100000Y-58550000D03*
X108100000Y-54050000D03*
%TD*%
D23*
%TO.C,H2*%
X123400000Y-43400000D03*
%TD*%
D10*
%TO.C,J6*%
X95355302Y-47691661D03*
X95355302Y-45151661D03*
D11*
X95355302Y-42611661D03*
%TD*%
D24*
%TO.C,Q6*%
X118450000Y-68537500D03*
X120350000Y-68537500D03*
X119400000Y-66262500D03*
%TD*%
D10*
%TO.C,J9*%
X84428978Y-47684055D03*
X84428978Y-45144055D03*
D11*
X84428978Y-42604055D03*
%TD*%
D25*
%TO.C,D2*%
X98387500Y-54800000D03*
X96812500Y-54800000D03*
%TD*%
D26*
%TO.C,R3*%
X100500000Y-54800000D03*
X99860000Y-54800000D03*
%TD*%
D27*
%TO.C,D1*%
X111702501Y-54825000D03*
X113577501Y-54825000D03*
%TD*%
D28*
%TO.C,L1*%
X120489999Y-62200000D03*
X120489999Y-57800000D03*
%TD*%
D29*
%TO.C,C10*%
X116614999Y-57500000D03*
X114964999Y-57500000D03*
%TD*%
D11*
%TO.C,J1*%
X113591965Y-42600694D03*
D10*
X113591965Y-45140694D03*
X113591965Y-47680694D03*
%TD*%
D30*
%TO.C,R4*%
X88780000Y-54800000D03*
X89420000Y-54800000D03*
%TD*%
D11*
%TO.C,J11*%
X99880000Y-65500000D03*
D10*
X97340000Y-65500000D03*
X94800000Y-65500000D03*
X92260000Y-65500000D03*
X89720000Y-65500000D03*
%TD*%
D11*
%TO.C,J5*%
X99003141Y-42602709D03*
D10*
X99003141Y-45142709D03*
X99003141Y-47682709D03*
%TD*%
D11*
%TO.C,J2*%
X109958130Y-42598290D03*
D10*
X109958130Y-45138290D03*
X109958130Y-47678290D03*
%TD*%
D26*
%TO.C,R6*%
X114200000Y-59000000D03*
X113560000Y-59000000D03*
%TD*%
D30*
%TO.C,R2*%
X106180000Y-59900000D03*
X106820000Y-59900000D03*
%TD*%
D26*
%TO.C,R7*%
X112345001Y-59000000D03*
X111705001Y-59000000D03*
%TD*%
D31*
%TO.C,C8*%
X114955000Y-64400000D03*
X116605000Y-64400000D03*
%TD*%
D11*
%TO.C,J4*%
X102660000Y-42600000D03*
D10*
X102660000Y-45140000D03*
X102660000Y-47680000D03*
%TD*%
D32*
%TO.C,U1*%
X98175000Y-62525000D03*
X98175000Y-61875000D03*
X98175000Y-61225000D03*
X98175000Y-60575000D03*
X98175000Y-59925000D03*
X98175000Y-59275000D03*
X98175000Y-58625000D03*
X98175000Y-57975000D03*
X98175000Y-57325000D03*
X98175000Y-56675000D03*
X92450000Y-56675000D03*
X92450000Y-57325000D03*
X92450000Y-57975000D03*
X92450000Y-58625000D03*
X92450000Y-59275000D03*
X92450000Y-59925000D03*
X92450000Y-60575000D03*
X92450000Y-61225000D03*
X92450000Y-61875000D03*
X92450000Y-62525000D03*
%TD*%
D10*
%TO.C,J10*%
X104200000Y-65500000D03*
X106740000Y-65500000D03*
X109280000Y-65500000D03*
D11*
X111820000Y-65500000D03*
%TD*%
D33*
%TO.C,R21*%
X88500000Y-62220000D03*
X88500000Y-61580000D03*
%TD*%
D34*
%TO.C,JP1*%
X118700000Y-54725000D03*
D35*
X117400000Y-54725000D03*
%TD*%
D11*
%TO.C,J8*%
X88077111Y-42607679D03*
D10*
X88077111Y-45147679D03*
X88077111Y-47687679D03*
%TD*%
D11*
%TO.C,J0*%
X117225665Y-42603361D03*
D10*
X117225665Y-45143361D03*
X117225665Y-47683361D03*
%TD*%
D11*
%TO.C,J7*%
X91714956Y-42618742D03*
D10*
X91714956Y-45158742D03*
X91714956Y-47698742D03*
%TD*%
D18*
%TO.C,R1*%
X103075000Y-54300000D03*
X104900000Y-54300000D03*
%TD*%
D36*
%TO.C,C11*%
X122600000Y-55650000D03*
X122600000Y-54000000D03*
%TD*%
D37*
%TO.C,D3*%
X90912500Y-54800000D03*
X92487500Y-54800000D03*
%TD*%
D26*
%TO.C,R8*%
X112320000Y-56625000D03*
X111680000Y-56625000D03*
%TD*%
D38*
%TO.C,R5*%
X110380000Y-62512500D03*
X110380000Y-60687500D03*
%TD*%
D11*
%TO.C,J3*%
X106318130Y-42598290D03*
D10*
X106318130Y-45138290D03*
X106318130Y-47678290D03*
%TD*%
D39*
%TO.C,R20*%
X88500000Y-60035000D03*
X88500000Y-60675000D03*
%TD*%
D40*
%TO.C,U2*%
X104532322Y-57125000D03*
X103262322Y-57125000D03*
X101992322Y-57125000D03*
X100722322Y-57125000D03*
X100722322Y-62075000D03*
X101992322Y-62075000D03*
X103262322Y-62075000D03*
X104532322Y-62075000D03*
%TD*%
D41*
%TO.C,U3*%
X112652499Y-60550000D03*
X112652499Y-61500000D03*
X112652499Y-62450000D03*
X114927499Y-62450000D03*
X114927499Y-61500000D03*
X114927499Y-60550000D03*
%TD*%
D23*
%TO.C,H4*%
X123400000Y-78400000D03*
%TD*%
%TO.C,H3*%
X78400000Y-78400000D03*
%TD*%
%TO.C,H1*%
X78400000Y-43400000D03*
%TD*%
D42*
%TO.C,U4*%
X87037500Y-56737500D03*
X86387500Y-56737500D03*
X85737500Y-56737500D03*
X85087500Y-56737500D03*
X84437500Y-56737500D03*
X83787500Y-56737500D03*
X83137500Y-56737500D03*
X82487500Y-56737500D03*
X81837500Y-56737500D03*
X81187500Y-56737500D03*
X80537500Y-56737500D03*
X79887500Y-56737500D03*
X79237500Y-56737500D03*
X78587500Y-56737500D03*
X78587500Y-62462500D03*
X79237500Y-62462500D03*
X79887500Y-62462500D03*
X80537500Y-62462500D03*
X81187500Y-62462500D03*
X81837500Y-62462500D03*
X82487500Y-62462500D03*
X83137500Y-62462500D03*
X83787500Y-62462500D03*
X84437500Y-62462500D03*
X85087500Y-62462500D03*
X85737500Y-62462500D03*
X86387500Y-62462500D03*
X87037500Y-62462500D03*
%TD*%
M02*
