%TF.GenerationSoftware,KiCad,Pcbnew,9.0.7-9.0.7~ubuntu25.10.1*%
%TF.CreationDate,2026-02-28T17:49:31+01:00*%
%TF.ProjectId,pwm_board,70776d5f-626f-4617-9264-2e6b69636164,rev?*%
%TF.SameCoordinates,Original*%
%TF.FileFunction,Copper,L2,Inr*%
%TF.FilePolarity,Positive*%
%FSLAX46Y46*%
G04 Gerber Fmt 4.6, Leading zero omitted, Abs format (unit mm)*
G04 Created by KiCad (PCBNEW 9.0.7-9.0.7~ubuntu25.10.1) date 2026-02-28 17:49:31*
%MOMM*%
%LPD*%
G01*
G04 APERTURE LIST*
%TA.AperFunction,ComponentPad*%
%ADD10C,1.700000*%
%TD*%
%TA.AperFunction,ComponentPad*%
%ADD11R,1.700000X1.700000*%
%TD*%
%TA.AperFunction,ViaPad*%
%ADD12C,0.600000*%
%TD*%
%TA.AperFunction,ViaPad*%
%ADD13C,0.700000*%
%TD*%
G04 APERTURE END LIST*
D10*
%TO.N,+12V*%
%TO.C,J14*%
X97940000Y-76400000D03*
D11*
%TO.N,Net-(D6-A)*%
X95400000Y-76400000D03*
%TD*%
D10*
%TO.N,+12V*%
%TO.C,J13*%
X97940000Y-72400000D03*
D11*
%TO.N,Net-(D5-A)*%
X95400000Y-72400000D03*
%TD*%
D10*
%TO.N,+12V*%
%TO.C,J15*%
X104940000Y-72400000D03*
D11*
%TO.N,Net-(D7-A)*%
X102400000Y-72400000D03*
%TD*%
D10*
%TO.N,+12V*%
%TO.C,J12*%
X91400000Y-74940000D03*
D11*
%TO.N,Net-(D4-A)*%
X91400000Y-72400000D03*
%TD*%
D10*
%TO.N,+12V*%
%TO.C,J16*%
X104940000Y-76400000D03*
D11*
%TO.N,Net-(D8-A)*%
X102400000Y-76400000D03*
%TD*%
D10*
%TO.N,+12V*%
%TO.C,J17*%
X114212500Y-77115000D03*
D11*
%TO.N,Net-(D9-A)*%
X114212500Y-74575000D03*
%TD*%
D10*
%TO.N,Net-(J6-Pin_3)*%
%TO.C,J6*%
X95355302Y-47691661D03*
%TO.N,+3V3*%
X95355302Y-45151661D03*
D11*
%TO.N,GND*%
X95355302Y-42611661D03*
%TD*%
D10*
%TO.N,Net-(J9-Pin_3)*%
%TO.C,J9*%
X84428978Y-47684055D03*
%TO.N,+3V3*%
X84428978Y-45144055D03*
D11*
%TO.N,GND*%
X84428978Y-42604055D03*
%TD*%
%TO.N,GND*%
%TO.C,J1*%
X113591965Y-42600694D03*
D10*
%TO.N,+3V3*%
X113591965Y-45140694D03*
%TO.N,Net-(J1-Pin_3)*%
X113591965Y-47680694D03*
%TD*%
D11*
%TO.N,GND*%
%TO.C,J11*%
X99880000Y-65500000D03*
D10*
%TO.N,/MCU/NRST*%
X97340000Y-65500000D03*
%TO.N,/MCU/SWCLK*%
X94800000Y-65500000D03*
%TO.N,/MCU/SWDIO*%
X92260000Y-65500000D03*
%TO.N,+3V3*%
X89720000Y-65500000D03*
%TD*%
D11*
%TO.N,GND*%
%TO.C,J5*%
X99003141Y-42602709D03*
D10*
%TO.N,+3V3*%
X99003141Y-45142709D03*
%TO.N,Net-(J5-Pin_3)*%
X99003141Y-47682709D03*
%TD*%
D11*
%TO.N,GND*%
%TO.C,J2*%
X109958130Y-42598290D03*
D10*
%TO.N,+3V3*%
X109958130Y-45138290D03*
%TO.N,Net-(J2-Pin_3)*%
X109958130Y-47678290D03*
%TD*%
D11*
%TO.N,GND*%
%TO.C,J4*%
X102660000Y-42600000D03*
D10*
%TO.N,+3V3*%
X102660000Y-45140000D03*
%TO.N,Net-(J4-Pin_3)*%
X102660000Y-47680000D03*
%TD*%
%TO.N,/RS-485_to_UART/UART_A*%
%TO.C,J10*%
X104200000Y-65500000D03*
%TO.N,/RS-485_to_UART/UART_B*%
X106740000Y-65500000D03*
%TO.N,GND*%
X109280000Y-65500000D03*
D11*
%TO.N,+12V*%
X111820000Y-65500000D03*
%TD*%
%TO.N,GND*%
%TO.C,J8*%
X88077111Y-42607679D03*
D10*
%TO.N,+3V3*%
X88077111Y-45147679D03*
%TO.N,Net-(J8-Pin_3)*%
X88077111Y-47687679D03*
%TD*%
D11*
%TO.N,GND*%
%TO.C,J0*%
X117225665Y-42603361D03*
D10*
%TO.N,+3V3*%
X117225665Y-45143361D03*
%TO.N,Net-(J0-Pin_3)*%
X117225665Y-47683361D03*
%TD*%
D11*
%TO.N,GND*%
%TO.C,J7*%
X91714956Y-42618742D03*
D10*
%TO.N,+3V3*%
X91714956Y-45158742D03*
%TO.N,Net-(J7-Pin_3)*%
X91714956Y-47698742D03*
%TD*%
D11*
%TO.N,GND*%
%TO.C,J3*%
X106318130Y-42598290D03*
D10*
%TO.N,+3V3*%
X106318130Y-45138290D03*
%TO.N,Net-(J3-Pin_3)*%
X106318130Y-47678290D03*
%TD*%
D12*
%TO.N,/pwm/SERVO_PWM_9*%
X79242029Y-52257970D03*
%TO.N,/pwm/SERVO_PWM_8*%
X82279430Y-51262752D03*
%TO.N,GND*%
X78000000Y-55200000D03*
%TO.N,/pwm/SERVO_PWM_9*%
X79241609Y-58751521D03*
%TO.N,/pwm/SERVO_PWM_8*%
X78586464Y-60812963D03*
%TO.N,/pwm/SERVO_PWM_4*%
X100650000Y-50900000D03*
X81150000Y-54650000D03*
%TO.N,/pwm/SERVO_PWM_3*%
X104308130Y-50938290D03*
X81800383Y-55277174D03*
%TO.N,/pwm/SERVO_PWM_0*%
X84150000Y-55400000D03*
%TO.N,/pwm/SERVO_PWM_2*%
X82491446Y-54792689D03*
%TO.N,/pwm/SERVO_PWM_1*%
X83155737Y-55402684D03*
%TO.N,/pwm/SERVO_PWM_2*%
X107948130Y-50938290D03*
%TO.N,/pwm/SERVO_PWM_1*%
X111581965Y-50900694D03*
%TO.N,/pwm/SERVO_PWM_0*%
X115215665Y-50903361D03*
%TO.N,Net-(SW1A-B)*%
X106150000Y-55400000D03*
%TO.N,GND*%
X101400000Y-55400000D03*
X88600000Y-56300000D03*
%TO.N,Net-(SW1A-B)*%
X93900000Y-57300000D03*
%TO.N,+3V3*%
X106100000Y-61000000D03*
D13*
%TO.N,GND*%
X120400000Y-54525000D03*
D12*
X94000000Y-59300000D03*
X111680000Y-57600000D03*
X84800000Y-64100000D03*
D13*
X117980000Y-64400000D03*
X112652499Y-63423659D03*
%TO.N,+3V3*%
X115890001Y-55825000D03*
X114890001Y-53825000D03*
X114890001Y-54825000D03*
X115890001Y-54825000D03*
X115890001Y-53825000D03*
X114890001Y-55825000D03*
D12*
X88500000Y-59200000D03*
%TD*%
%TA.AperFunction,Conductor*%
%TO.N,+3V3*%
G36*
X123403736Y-40900726D02*
G01*
X123693796Y-40918271D01*
X123708659Y-40920076D01*
X123990798Y-40971780D01*
X124005335Y-40975363D01*
X124279172Y-41060695D01*
X124293163Y-41066000D01*
X124554743Y-41183727D01*
X124567989Y-41190680D01*
X124813465Y-41339075D01*
X124825776Y-41347573D01*
X125034408Y-41511025D01*
X125051573Y-41524473D01*
X125062781Y-41534403D01*
X125265596Y-41737218D01*
X125275526Y-41748426D01*
X125395481Y-41901538D01*
X125452422Y-41974217D01*
X125460926Y-41986537D01*
X125519091Y-42082753D01*
X125609316Y-42232004D01*
X125616275Y-42245263D01*
X125733997Y-42506831D01*
X125739306Y-42520832D01*
X125824635Y-42794663D01*
X125828219Y-42809201D01*
X125879923Y-43091340D01*
X125881728Y-43106205D01*
X125899274Y-43396263D01*
X125899500Y-43403750D01*
X125899500Y-78396249D01*
X125899274Y-78403736D01*
X125881728Y-78693794D01*
X125879923Y-78708659D01*
X125828219Y-78990798D01*
X125824635Y-79005336D01*
X125739306Y-79279167D01*
X125733997Y-79293168D01*
X125616275Y-79554736D01*
X125609316Y-79567995D01*
X125460928Y-79813459D01*
X125452422Y-79825782D01*
X125275526Y-80051573D01*
X125265596Y-80062781D01*
X125062781Y-80265596D01*
X125051573Y-80275526D01*
X124825782Y-80452422D01*
X124813459Y-80460928D01*
X124567995Y-80609316D01*
X124554736Y-80616275D01*
X124293168Y-80733997D01*
X124279167Y-80739306D01*
X124005336Y-80824635D01*
X123990798Y-80828219D01*
X123708659Y-80879923D01*
X123693794Y-80881728D01*
X123403736Y-80899274D01*
X123396249Y-80899500D01*
X78403751Y-80899500D01*
X78396264Y-80899274D01*
X78106205Y-80881728D01*
X78091340Y-80879923D01*
X77809201Y-80828219D01*
X77794663Y-80824635D01*
X77520832Y-80739306D01*
X77506831Y-80733997D01*
X77245263Y-80616275D01*
X77232004Y-80609316D01*
X76986540Y-80460928D01*
X76974217Y-80452422D01*
X76748426Y-80275526D01*
X76737218Y-80265596D01*
X76534403Y-80062781D01*
X76524473Y-80051573D01*
X76347573Y-79825776D01*
X76339075Y-79813465D01*
X76190680Y-79567989D01*
X76183727Y-79554743D01*
X76066000Y-79293163D01*
X76060693Y-79279167D01*
X75975364Y-79005336D01*
X75971780Y-78990798D01*
X75920076Y-78708659D01*
X75918271Y-78693794D01*
X75900726Y-78403736D01*
X75900500Y-78396249D01*
X75900500Y-78293713D01*
X77049500Y-78293713D01*
X77049500Y-78506286D01*
X77082753Y-78716239D01*
X77148444Y-78918414D01*
X77244951Y-79107820D01*
X77369890Y-79279786D01*
X77520213Y-79430109D01*
X77692179Y-79555048D01*
X77692181Y-79555049D01*
X77692184Y-79555051D01*
X77881588Y-79651557D01*
X78083757Y-79717246D01*
X78293713Y-79750500D01*
X78293714Y-79750500D01*
X78506286Y-79750500D01*
X78506287Y-79750500D01*
X78716243Y-79717246D01*
X78918412Y-79651557D01*
X79107816Y-79555051D01*
X79129789Y-79539086D01*
X79279786Y-79430109D01*
X79279788Y-79430106D01*
X79279792Y-79430104D01*
X79430104Y-79279792D01*
X79430106Y-79279788D01*
X79430109Y-79279786D01*
X79555048Y-79107820D01*
X79555047Y-79107820D01*
X79555051Y-79107816D01*
X79651557Y-78918412D01*
X79717246Y-78716243D01*
X79750500Y-78506287D01*
X79750500Y-78293713D01*
X79717246Y-78083757D01*
X79651557Y-77881588D01*
X79555051Y-77692184D01*
X79555049Y-77692181D01*
X79555048Y-77692179D01*
X79430109Y-77520213D01*
X79279786Y-77369890D01*
X79107820Y-77244951D01*
X78918414Y-77148444D01*
X78918413Y-77148443D01*
X78918412Y-77148443D01*
X78716243Y-77082754D01*
X78716241Y-77082753D01*
X78716240Y-77082753D01*
X78554957Y-77057208D01*
X78506287Y-77049500D01*
X78293713Y-77049500D01*
X78245042Y-77057208D01*
X78083760Y-77082753D01*
X77881585Y-77148444D01*
X77692179Y-77244951D01*
X77520213Y-77369890D01*
X77369890Y-77520213D01*
X77244951Y-77692179D01*
X77148444Y-77881585D01*
X77082753Y-78083760D01*
X77049500Y-78293713D01*
X75900500Y-78293713D01*
X75900500Y-71502135D01*
X90049500Y-71502135D01*
X90049500Y-73297870D01*
X90049501Y-73297876D01*
X90055908Y-73357483D01*
X90106202Y-73492328D01*
X90106206Y-73492335D01*
X90192452Y-73607544D01*
X90192455Y-73607547D01*
X90307664Y-73693793D01*
X90307671Y-73693797D01*
X90439082Y-73742810D01*
X90495016Y-73784681D01*
X90519433Y-73850145D01*
X90504582Y-73918418D01*
X90483431Y-73946673D01*
X90369889Y-74060215D01*
X90244951Y-74232179D01*
X90148444Y-74421585D01*
X90082753Y-74623760D01*
X90049500Y-74833713D01*
X90049500Y-75046286D01*
X90080965Y-75244951D01*
X90082754Y-75256243D01*
X90143278Y-75442517D01*
X90148444Y-75458414D01*
X90244951Y-75647820D01*
X90369890Y-75819786D01*
X90520213Y-75970109D01*
X90692179Y-76095048D01*
X90692181Y-76095049D01*
X90692184Y-76095051D01*
X90881588Y-76191557D01*
X91083757Y-76257246D01*
X91293713Y-76290500D01*
X91293714Y-76290500D01*
X91506286Y-76290500D01*
X91506287Y-76290500D01*
X91716243Y-76257246D01*
X91918412Y-76191557D01*
X92107816Y-76095051D01*
X92251502Y-75990658D01*
X92279786Y-75970109D01*
X92279788Y-75970106D01*
X92279792Y-75970104D01*
X92430104Y-75819792D01*
X92430106Y-75819788D01*
X92430109Y-75819786D01*
X92555048Y-75647820D01*
X92555047Y-75647820D01*
X92555051Y-75647816D01*
X92629279Y-75502135D01*
X94049500Y-75502135D01*
X94049500Y-77297870D01*
X94049501Y-77297876D01*
X94055908Y-77357483D01*
X94106202Y-77492328D01*
X94106206Y-77492335D01*
X94192452Y-77607544D01*
X94192455Y-77607547D01*
X94307664Y-77693793D01*
X94307671Y-77693797D01*
X94442517Y-77744091D01*
X94442516Y-77744091D01*
X94449444Y-77744835D01*
X94502127Y-77750500D01*
X96297872Y-77750499D01*
X96357483Y-77744091D01*
X96492331Y-77693796D01*
X96607546Y-77607546D01*
X96693796Y-77492331D01*
X96742810Y-77360916D01*
X96784681Y-77304984D01*
X96850145Y-77280566D01*
X96918418Y-77295417D01*
X96946673Y-77316569D01*
X97060213Y-77430109D01*
X97232179Y-77555048D01*
X97232181Y-77555049D01*
X97232184Y-77555051D01*
X97421588Y-77651557D01*
X97623757Y-77717246D01*
X97833713Y-77750500D01*
X97833714Y-77750500D01*
X98046286Y-77750500D01*
X98046287Y-77750500D01*
X98256243Y-77717246D01*
X98458412Y-77651557D01*
X98647816Y-77555051D01*
X98734138Y-77492335D01*
X98819786Y-77430109D01*
X98819788Y-77430106D01*
X98819792Y-77430104D01*
X98970104Y-77279792D01*
X98970106Y-77279788D01*
X98970109Y-77279786D01*
X99095048Y-77107820D01*
X99095047Y-77107820D01*
X99095051Y-77107816D01*
X99191557Y-76918412D01*
X99257246Y-76716243D01*
X99290500Y-76506287D01*
X99290500Y-76293713D01*
X99257246Y-76083757D01*
X99191557Y-75881588D01*
X99095051Y-75692184D01*
X98970104Y-75520208D01*
X98952031Y-75502135D01*
X101049500Y-75502135D01*
X101049500Y-77297870D01*
X101049501Y-77297876D01*
X101055908Y-77357483D01*
X101106202Y-77492328D01*
X101106206Y-77492335D01*
X101192452Y-77607544D01*
X101192455Y-77607547D01*
X101307664Y-77693793D01*
X101307671Y-77693797D01*
X101442517Y-77744091D01*
X101442516Y-77744091D01*
X101449444Y-77744835D01*
X101502127Y-77750500D01*
X103297872Y-77750499D01*
X103357483Y-77744091D01*
X103492331Y-77693796D01*
X103607546Y-77607546D01*
X103693796Y-77492331D01*
X103742810Y-77360916D01*
X103784681Y-77304984D01*
X103850145Y-77280566D01*
X103918418Y-77295417D01*
X103946673Y-77316569D01*
X104060213Y-77430109D01*
X104232179Y-77555048D01*
X104232181Y-77555049D01*
X104232184Y-77555051D01*
X104421588Y-77651557D01*
X104623757Y-77717246D01*
X104833713Y-77750500D01*
X104833714Y-77750500D01*
X105046286Y-77750500D01*
X105046287Y-77750500D01*
X105256243Y-77717246D01*
X105458412Y-77651557D01*
X105647816Y-77555051D01*
X105734138Y-77492335D01*
X105819786Y-77430109D01*
X105819788Y-77430106D01*
X105819792Y-77430104D01*
X105970104Y-77279792D01*
X105970106Y-77279788D01*
X105970109Y-77279786D01*
X106095048Y-77107820D01*
X106095047Y-77107820D01*
X106095051Y-77107816D01*
X106191557Y-76918412D01*
X106257246Y-76716243D01*
X106290500Y-76506287D01*
X106290500Y-76293713D01*
X106257246Y-76083757D01*
X106191557Y-75881588D01*
X106095051Y-75692184D01*
X106095049Y-75692181D01*
X106095048Y-75692179D01*
X105970109Y-75520213D01*
X105819786Y-75369890D01*
X105647820Y-75244951D01*
X105458414Y-75148444D01*
X105458413Y-75148443D01*
X105458412Y-75148443D01*
X105256243Y-75082754D01*
X105256241Y-75082753D01*
X105256240Y-75082753D01*
X105094957Y-75057208D01*
X105046287Y-75049500D01*
X104833713Y-75049500D01*
X104785042Y-75057208D01*
X104623760Y-75082753D01*
X104421585Y-75148444D01*
X104232179Y-75244951D01*
X104060215Y-75369889D01*
X103946673Y-75483431D01*
X103885350Y-75516915D01*
X103815658Y-75511931D01*
X103759725Y-75470059D01*
X103742810Y-75439082D01*
X103693797Y-75307671D01*
X103693793Y-75307664D01*
X103607547Y-75192455D01*
X103607544Y-75192452D01*
X103492335Y-75106206D01*
X103492328Y-75106202D01*
X103357482Y-75055908D01*
X103357483Y-75055908D01*
X103297883Y-75049501D01*
X103297881Y-75049500D01*
X103297873Y-75049500D01*
X103297864Y-75049500D01*
X101502129Y-75049500D01*
X101502123Y-75049501D01*
X101442516Y-75055908D01*
X101307671Y-75106202D01*
X101307664Y-75106206D01*
X101192455Y-75192452D01*
X101192452Y-75192455D01*
X101106206Y-75307664D01*
X101106202Y-75307671D01*
X101055908Y-75442517D01*
X101049501Y-75502116D01*
X101049500Y-75502135D01*
X98952031Y-75502135D01*
X98819792Y-75369896D01*
X98819786Y-75369890D01*
X98647820Y-75244951D01*
X98458414Y-75148444D01*
X98458413Y-75148443D01*
X98458412Y-75148443D01*
X98256243Y-75082754D01*
X98256241Y-75082753D01*
X98256240Y-75082753D01*
X98094957Y-75057208D01*
X98046287Y-75049500D01*
X97833713Y-75049500D01*
X97785042Y-75057208D01*
X97623760Y-75082753D01*
X97421585Y-75148444D01*
X97232179Y-75244951D01*
X97060215Y-75369889D01*
X96946673Y-75483431D01*
X96885350Y-75516915D01*
X96815658Y-75511931D01*
X96759725Y-75470059D01*
X96742810Y-75439082D01*
X96693797Y-75307671D01*
X96693793Y-75307664D01*
X96607547Y-75192455D01*
X96607544Y-75192452D01*
X96492335Y-75106206D01*
X96492328Y-75106202D01*
X96357482Y-75055908D01*
X96357483Y-75055908D01*
X96297883Y-75049501D01*
X96297881Y-75049500D01*
X96297873Y-75049500D01*
X96297864Y-75049500D01*
X94502129Y-75049500D01*
X94502123Y-75049501D01*
X94442516Y-75055908D01*
X94307671Y-75106202D01*
X94307664Y-75106206D01*
X94192455Y-75192452D01*
X94192452Y-75192455D01*
X94106206Y-75307664D01*
X94106202Y-75307671D01*
X94055908Y-75442517D01*
X94049501Y-75502116D01*
X94049500Y-75502135D01*
X92629279Y-75502135D01*
X92651557Y-75458412D01*
X92717246Y-75256243D01*
X92750500Y-75046287D01*
X92750500Y-74833713D01*
X92717246Y-74623757D01*
X92651557Y-74421588D01*
X92555051Y-74232184D01*
X92555049Y-74232181D01*
X92555048Y-74232179D01*
X92430109Y-74060213D01*
X92316569Y-73946673D01*
X92283084Y-73885350D01*
X92288068Y-73815658D01*
X92329940Y-73759725D01*
X92360915Y-73742810D01*
X92492331Y-73693796D01*
X92607546Y-73607546D01*
X92693796Y-73492331D01*
X92744091Y-73357483D01*
X92750500Y-73297873D01*
X92750499Y-71502135D01*
X94049500Y-71502135D01*
X94049500Y-73297870D01*
X94049501Y-73297876D01*
X94055908Y-73357483D01*
X94106202Y-73492328D01*
X94106206Y-73492335D01*
X94192452Y-73607544D01*
X94192455Y-73607547D01*
X94307664Y-73693793D01*
X94307671Y-73693797D01*
X94442517Y-73744091D01*
X94442516Y-73744091D01*
X94449444Y-73744835D01*
X94502127Y-73750500D01*
X96297872Y-73750499D01*
X96357483Y-73744091D01*
X96492331Y-73693796D01*
X96607546Y-73607546D01*
X96693796Y-73492331D01*
X96742810Y-73360916D01*
X96784681Y-73304984D01*
X96850145Y-73280566D01*
X96918418Y-73295417D01*
X96946673Y-73316569D01*
X97060213Y-73430109D01*
X97232179Y-73555048D01*
X97232181Y-73555049D01*
X97232184Y-73555051D01*
X97421588Y-73651557D01*
X97623757Y-73717246D01*
X97833713Y-73750500D01*
X97833714Y-73750500D01*
X98046286Y-73750500D01*
X98046287Y-73750500D01*
X98256243Y-73717246D01*
X98458412Y-73651557D01*
X98647816Y-73555051D01*
X98734138Y-73492335D01*
X98819786Y-73430109D01*
X98819788Y-73430106D01*
X98819792Y-73430104D01*
X98970104Y-73279792D01*
X98970106Y-73279788D01*
X98970109Y-73279786D01*
X99095048Y-73107820D01*
X99095047Y-73107820D01*
X99095051Y-73107816D01*
X99191557Y-72918412D01*
X99257246Y-72716243D01*
X99290500Y-72506287D01*
X99290500Y-72293713D01*
X99257246Y-72083757D01*
X99191557Y-71881588D01*
X99095051Y-71692184D01*
X98970104Y-71520208D01*
X98952031Y-71502135D01*
X101049500Y-71502135D01*
X101049500Y-73297870D01*
X101049501Y-73297876D01*
X101055908Y-73357483D01*
X101106202Y-73492328D01*
X101106206Y-73492335D01*
X101192452Y-73607544D01*
X101192455Y-73607547D01*
X101307664Y-73693793D01*
X101307671Y-73693797D01*
X101442517Y-73744091D01*
X101442516Y-73744091D01*
X101449444Y-73744835D01*
X101502127Y-73750500D01*
X103297872Y-73750499D01*
X103357483Y-73744091D01*
X103492331Y-73693796D01*
X103607546Y-73607546D01*
X103693796Y-73492331D01*
X103742810Y-73360916D01*
X103784681Y-73304984D01*
X103850145Y-73280566D01*
X103918418Y-73295417D01*
X103946673Y-73316569D01*
X104060213Y-73430109D01*
X104232179Y-73555048D01*
X104232181Y-73555049D01*
X104232184Y-73555051D01*
X104421588Y-73651557D01*
X104623757Y-73717246D01*
X104833713Y-73750500D01*
X104833714Y-73750500D01*
X105046286Y-73750500D01*
X105046287Y-73750500D01*
X105256243Y-73717246D01*
X105379691Y-73677135D01*
X112862000Y-73677135D01*
X112862000Y-75472870D01*
X112862001Y-75472876D01*
X112868408Y-75532483D01*
X112918702Y-75667328D01*
X112918706Y-75667335D01*
X113004952Y-75782544D01*
X113004955Y-75782547D01*
X113120164Y-75868793D01*
X113120171Y-75868797D01*
X113251582Y-75917810D01*
X113307516Y-75959681D01*
X113331933Y-76025145D01*
X113317082Y-76093418D01*
X113295931Y-76121673D01*
X113182389Y-76235215D01*
X113057451Y-76407179D01*
X112960944Y-76596585D01*
X112895253Y-76798760D01*
X112862000Y-77008713D01*
X112862000Y-77221286D01*
X112895073Y-77430104D01*
X112895254Y-77431243D01*
X112924162Y-77520213D01*
X112960944Y-77633414D01*
X113057451Y-77822820D01*
X113182390Y-77994786D01*
X113332713Y-78145109D01*
X113504679Y-78270048D01*
X113504681Y-78270049D01*
X113504684Y-78270051D01*
X113694088Y-78366557D01*
X113896257Y-78432246D01*
X114106213Y-78465500D01*
X114106214Y-78465500D01*
X114318786Y-78465500D01*
X114318787Y-78465500D01*
X114528743Y-78432246D01*
X114730912Y-78366557D01*
X114873877Y-78293713D01*
X122049500Y-78293713D01*
X122049500Y-78506286D01*
X122082753Y-78716239D01*
X122148444Y-78918414D01*
X122244951Y-79107820D01*
X122369890Y-79279786D01*
X122520213Y-79430109D01*
X122692179Y-79555048D01*
X122692181Y-79555049D01*
X122692184Y-79555051D01*
X122881588Y-79651557D01*
X123083757Y-79717246D01*
X123293713Y-79750500D01*
X123293714Y-79750500D01*
X123506286Y-79750500D01*
X123506287Y-79750500D01*
X123716243Y-79717246D01*
X123918412Y-79651557D01*
X124107816Y-79555051D01*
X124129789Y-79539086D01*
X124279786Y-79430109D01*
X124279788Y-79430106D01*
X124279792Y-79430104D01*
X124430104Y-79279792D01*
X124430106Y-79279788D01*
X124430109Y-79279786D01*
X124555048Y-79107820D01*
X124555047Y-79107820D01*
X124555051Y-79107816D01*
X124651557Y-78918412D01*
X124717246Y-78716243D01*
X124750500Y-78506287D01*
X124750500Y-78293713D01*
X124717246Y-78083757D01*
X124651557Y-77881588D01*
X124555051Y-77692184D01*
X124555049Y-77692181D01*
X124555048Y-77692179D01*
X124430109Y-77520213D01*
X124279786Y-77369890D01*
X124107820Y-77244951D01*
X123918414Y-77148444D01*
X123918413Y-77148443D01*
X123918412Y-77148443D01*
X123716243Y-77082754D01*
X123716241Y-77082753D01*
X123716240Y-77082753D01*
X123554957Y-77057208D01*
X123506287Y-77049500D01*
X123293713Y-77049500D01*
X123245042Y-77057208D01*
X123083760Y-77082753D01*
X122881585Y-77148444D01*
X122692179Y-77244951D01*
X122520213Y-77369890D01*
X122369890Y-77520213D01*
X122244951Y-77692179D01*
X122148444Y-77881585D01*
X122082753Y-78083760D01*
X122049500Y-78293713D01*
X114873877Y-78293713D01*
X114920316Y-78270051D01*
X115032532Y-78188522D01*
X115032534Y-78188521D01*
X115092285Y-78145109D01*
X115092283Y-78145109D01*
X115092292Y-78145104D01*
X115242604Y-77994792D01*
X115242606Y-77994788D01*
X115242609Y-77994786D01*
X115367548Y-77822820D01*
X115367547Y-77822820D01*
X115367551Y-77822816D01*
X115464057Y-77633412D01*
X115529746Y-77431243D01*
X115563000Y-77221287D01*
X115563000Y-77008713D01*
X115529746Y-76798757D01*
X115464057Y-76596588D01*
X115367551Y-76407184D01*
X115367549Y-76407181D01*
X115367548Y-76407179D01*
X115242609Y-76235213D01*
X115129069Y-76121673D01*
X115095584Y-76060350D01*
X115100568Y-75990658D01*
X115142440Y-75934725D01*
X115173415Y-75917810D01*
X115304831Y-75868796D01*
X115420046Y-75782546D01*
X115506296Y-75667331D01*
X115556591Y-75532483D01*
X115563000Y-75472873D01*
X115562999Y-73677128D01*
X115556591Y-73617517D01*
X115552872Y-73607547D01*
X115506297Y-73482671D01*
X115506293Y-73482664D01*
X115420047Y-73367455D01*
X115420044Y-73367452D01*
X115304835Y-73281206D01*
X115304828Y-73281202D01*
X115169982Y-73230908D01*
X115169983Y-73230908D01*
X115110383Y-73224501D01*
X115110381Y-73224500D01*
X115110373Y-73224500D01*
X115110364Y-73224500D01*
X113314629Y-73224500D01*
X113314623Y-73224501D01*
X113255016Y-73230908D01*
X113120171Y-73281202D01*
X113120164Y-73281206D01*
X113004955Y-73367452D01*
X113004952Y-73367455D01*
X112918706Y-73482664D01*
X112918702Y-73482671D01*
X112868408Y-73617517D01*
X112864749Y-73651555D01*
X112862001Y-73677123D01*
X112862000Y-73677135D01*
X105379691Y-73677135D01*
X105458412Y-73651557D01*
X105647816Y-73555051D01*
X105747449Y-73482664D01*
X105819786Y-73430109D01*
X105819788Y-73430106D01*
X105819792Y-73430104D01*
X105970104Y-73279792D01*
X105970106Y-73279788D01*
X105970109Y-73279786D01*
X106095048Y-73107820D01*
X106095047Y-73107820D01*
X106095051Y-73107816D01*
X106191557Y-72918412D01*
X106257246Y-72716243D01*
X106290500Y-72506287D01*
X106290500Y-72293713D01*
X106257246Y-72083757D01*
X106191557Y-71881588D01*
X106095051Y-71692184D01*
X106095049Y-71692181D01*
X106095048Y-71692179D01*
X105970109Y-71520213D01*
X105819786Y-71369890D01*
X105647820Y-71244951D01*
X105458414Y-71148444D01*
X105458413Y-71148443D01*
X105458412Y-71148443D01*
X105256243Y-71082754D01*
X105256241Y-71082753D01*
X105256240Y-71082753D01*
X105094957Y-71057208D01*
X105046287Y-71049500D01*
X104833713Y-71049500D01*
X104785042Y-71057208D01*
X104623760Y-71082753D01*
X104421585Y-71148444D01*
X104232179Y-71244951D01*
X104060215Y-71369889D01*
X103946673Y-71483431D01*
X103885350Y-71516915D01*
X103815658Y-71511931D01*
X103759725Y-71470059D01*
X103742810Y-71439082D01*
X103693797Y-71307671D01*
X103693793Y-71307664D01*
X103607547Y-71192455D01*
X103607544Y-71192452D01*
X103492335Y-71106206D01*
X103492328Y-71106202D01*
X103357482Y-71055908D01*
X103357483Y-71055908D01*
X103297883Y-71049501D01*
X103297881Y-71049500D01*
X103297873Y-71049500D01*
X103297864Y-71049500D01*
X101502129Y-71049500D01*
X101502123Y-71049501D01*
X101442516Y-71055908D01*
X101307671Y-71106202D01*
X101307664Y-71106206D01*
X101192455Y-71192452D01*
X101192452Y-71192455D01*
X101106206Y-71307664D01*
X101106202Y-71307671D01*
X101055908Y-71442517D01*
X101049501Y-71502116D01*
X101049500Y-71502135D01*
X98952031Y-71502135D01*
X98819792Y-71369896D01*
X98819786Y-71369890D01*
X98647820Y-71244951D01*
X98458414Y-71148444D01*
X98458413Y-71148443D01*
X98458412Y-71148443D01*
X98256243Y-71082754D01*
X98256241Y-71082753D01*
X98256240Y-71082753D01*
X98094957Y-71057208D01*
X98046287Y-71049500D01*
X97833713Y-71049500D01*
X97785042Y-71057208D01*
X97623760Y-71082753D01*
X97421585Y-71148444D01*
X97232179Y-71244951D01*
X97060215Y-71369889D01*
X96946673Y-71483431D01*
X96885350Y-71516915D01*
X96815658Y-71511931D01*
X96759725Y-71470059D01*
X96742810Y-71439082D01*
X96693797Y-71307671D01*
X96693793Y-71307664D01*
X96607547Y-71192455D01*
X96607544Y-71192452D01*
X96492335Y-71106206D01*
X96492328Y-71106202D01*
X96357482Y-71055908D01*
X96357483Y-71055908D01*
X96297883Y-71049501D01*
X96297881Y-71049500D01*
X96297873Y-71049500D01*
X96297864Y-71049500D01*
X94502129Y-71049500D01*
X94502123Y-71049501D01*
X94442516Y-71055908D01*
X94307671Y-71106202D01*
X94307664Y-71106206D01*
X94192455Y-71192452D01*
X94192452Y-71192455D01*
X94106206Y-71307664D01*
X94106202Y-71307671D01*
X94055908Y-71442517D01*
X94049501Y-71502116D01*
X94049500Y-71502135D01*
X92750499Y-71502135D01*
X92750499Y-71502128D01*
X92744091Y-71442517D01*
X92693796Y-71307669D01*
X92693795Y-71307668D01*
X92693793Y-71307664D01*
X92607547Y-71192455D01*
X92607544Y-71192452D01*
X92492335Y-71106206D01*
X92492328Y-71106202D01*
X92357482Y-71055908D01*
X92357483Y-71055908D01*
X92297883Y-71049501D01*
X92297881Y-71049500D01*
X92297873Y-71049500D01*
X92297864Y-71049500D01*
X90502129Y-71049500D01*
X90502123Y-71049501D01*
X90442516Y-71055908D01*
X90307671Y-71106202D01*
X90307664Y-71106206D01*
X90192455Y-71192452D01*
X90192452Y-71192455D01*
X90106206Y-71307664D01*
X90106202Y-71307671D01*
X90055908Y-71442517D01*
X90049501Y-71502116D01*
X90049500Y-71502135D01*
X75900500Y-71502135D01*
X75900500Y-65393753D01*
X88370000Y-65393753D01*
X88370000Y-65606246D01*
X88403242Y-65816127D01*
X88403242Y-65816130D01*
X88468904Y-66018217D01*
X88565375Y-66207550D01*
X88604728Y-66261716D01*
X89237037Y-65629408D01*
X89254075Y-65692993D01*
X89319901Y-65807007D01*
X89412993Y-65900099D01*
X89527007Y-65965925D01*
X89590590Y-65982962D01*
X88958282Y-66615269D01*
X88958282Y-66615270D01*
X89012449Y-66654624D01*
X89201782Y-66751095D01*
X89403870Y-66816757D01*
X89613754Y-66850000D01*
X89826246Y-66850000D01*
X90036127Y-66816757D01*
X90036130Y-66816757D01*
X90238217Y-66751095D01*
X90427554Y-66654622D01*
X90481716Y-66615270D01*
X90481717Y-66615270D01*
X89849408Y-65982962D01*
X89912993Y-65965925D01*
X90027007Y-65900099D01*
X90120099Y-65807007D01*
X90185925Y-65692993D01*
X90202962Y-65629408D01*
X90835270Y-66261717D01*
X90835270Y-66261716D01*
X90874622Y-66207555D01*
X90879232Y-66198507D01*
X90927205Y-66147709D01*
X90995025Y-66130912D01*
X91061161Y-66153447D01*
X91100204Y-66198504D01*
X91104949Y-66207817D01*
X91229890Y-66379786D01*
X91380213Y-66530109D01*
X91552179Y-66655048D01*
X91552181Y-66655049D01*
X91552184Y-66655051D01*
X91741588Y-66751557D01*
X91943757Y-66817246D01*
X92153713Y-66850500D01*
X92153714Y-66850500D01*
X92366286Y-66850500D01*
X92366287Y-66850500D01*
X92576243Y-66817246D01*
X92778412Y-66751557D01*
X92967816Y-66655051D01*
X93054138Y-66592335D01*
X93139786Y-66530109D01*
X93139788Y-66530106D01*
X93139792Y-66530104D01*
X93290104Y-66379792D01*
X93290106Y-66379788D01*
X93290109Y-66379786D01*
X93415048Y-66207820D01*
X93415050Y-66207817D01*
X93415051Y-66207816D01*
X93419514Y-66199054D01*
X93467488Y-66148259D01*
X93535308Y-66131463D01*
X93601444Y-66153999D01*
X93640486Y-66199056D01*
X93644951Y-66207820D01*
X93769890Y-66379786D01*
X93920213Y-66530109D01*
X94092179Y-66655048D01*
X94092181Y-66655049D01*
X94092184Y-66655051D01*
X94281588Y-66751557D01*
X94483757Y-66817246D01*
X94693713Y-66850500D01*
X94693714Y-66850500D01*
X94906286Y-66850500D01*
X94906287Y-66850500D01*
X95116243Y-66817246D01*
X95318412Y-66751557D01*
X95507816Y-66655051D01*
X95594138Y-66592335D01*
X95679786Y-66530109D01*
X95679788Y-66530106D01*
X95679792Y-66530104D01*
X95830104Y-66379792D01*
X95830106Y-66379788D01*
X95830109Y-66379786D01*
X95955048Y-66207820D01*
X95955050Y-66207817D01*
X95955051Y-66207816D01*
X95959514Y-66199054D01*
X96007488Y-66148259D01*
X96075308Y-66131463D01*
X96141444Y-66153999D01*
X96180486Y-66199056D01*
X96184951Y-66207820D01*
X96309890Y-66379786D01*
X96460213Y-66530109D01*
X96632179Y-66655048D01*
X96632181Y-66655049D01*
X96632184Y-66655051D01*
X96821588Y-66751557D01*
X97023757Y-66817246D01*
X97233713Y-66850500D01*
X97233714Y-66850500D01*
X97446286Y-66850500D01*
X97446287Y-66850500D01*
X97656243Y-66817246D01*
X97858412Y-66751557D01*
X98047816Y-66655051D01*
X98219792Y-66530104D01*
X98333329Y-66416566D01*
X98394648Y-66383084D01*
X98464340Y-66388068D01*
X98520274Y-66429939D01*
X98537189Y-66460917D01*
X98586202Y-66592328D01*
X98586206Y-66592335D01*
X98672452Y-66707544D01*
X98672455Y-66707547D01*
X98787664Y-66793793D01*
X98787671Y-66793797D01*
X98922517Y-66844091D01*
X98922516Y-66844091D01*
X98929444Y-66844835D01*
X98982127Y-66850500D01*
X100777872Y-66850499D01*
X100837483Y-66844091D01*
X100972331Y-66793796D01*
X101087546Y-66707546D01*
X101173796Y-66592331D01*
X101224091Y-66457483D01*
X101230500Y-66397873D01*
X101230499Y-65393713D01*
X102849500Y-65393713D01*
X102849500Y-65606286D01*
X102882753Y-65816239D01*
X102948444Y-66018414D01*
X103044951Y-66207820D01*
X103169890Y-66379786D01*
X103320213Y-66530109D01*
X103492179Y-66655048D01*
X103492181Y-66655049D01*
X103492184Y-66655051D01*
X103681588Y-66751557D01*
X103883757Y-66817246D01*
X104093713Y-66850500D01*
X104093714Y-66850500D01*
X104306286Y-66850500D01*
X104306287Y-66850500D01*
X104516243Y-66817246D01*
X104718412Y-66751557D01*
X104907816Y-66655051D01*
X104994138Y-66592335D01*
X105079786Y-66530109D01*
X105079788Y-66530106D01*
X105079792Y-66530104D01*
X105230104Y-66379792D01*
X105230106Y-66379788D01*
X105230109Y-66379786D01*
X105355048Y-66207820D01*
X105355050Y-66207817D01*
X105355051Y-66207816D01*
X105359514Y-66199054D01*
X105407488Y-66148259D01*
X105475308Y-66131463D01*
X105541444Y-66153999D01*
X105580486Y-66199056D01*
X105584951Y-66207820D01*
X105709890Y-66379786D01*
X105860213Y-66530109D01*
X106032179Y-66655048D01*
X106032181Y-66655049D01*
X106032184Y-66655051D01*
X106221588Y-66751557D01*
X106423757Y-66817246D01*
X106633713Y-66850500D01*
X106633714Y-66850500D01*
X106846286Y-66850500D01*
X106846287Y-66850500D01*
X107056243Y-66817246D01*
X107258412Y-66751557D01*
X107447816Y-66655051D01*
X107534138Y-66592335D01*
X107619786Y-66530109D01*
X107619788Y-66530106D01*
X107619792Y-66530104D01*
X107770104Y-66379792D01*
X107770106Y-66379788D01*
X107770109Y-66379786D01*
X107895048Y-66207820D01*
X107895050Y-66207817D01*
X107895051Y-66207816D01*
X107899514Y-66199054D01*
X107947488Y-66148259D01*
X108015308Y-66131463D01*
X108081444Y-66153999D01*
X108120486Y-66199056D01*
X108124951Y-66207820D01*
X108249890Y-66379786D01*
X108400213Y-66530109D01*
X108572179Y-66655048D01*
X108572181Y-66655049D01*
X108572184Y-66655051D01*
X108761588Y-66751557D01*
X108963757Y-66817246D01*
X109173713Y-66850500D01*
X109173714Y-66850500D01*
X109386286Y-66850500D01*
X109386287Y-66850500D01*
X109596243Y-66817246D01*
X109798412Y-66751557D01*
X109987816Y-66655051D01*
X110159792Y-66530104D01*
X110273329Y-66416566D01*
X110334648Y-66383084D01*
X110404340Y-66388068D01*
X110460274Y-66429939D01*
X110477189Y-66460917D01*
X110526202Y-66592328D01*
X110526206Y-66592335D01*
X110612452Y-66707544D01*
X110612455Y-66707547D01*
X110727664Y-66793793D01*
X110727671Y-66793797D01*
X110862517Y-66844091D01*
X110862516Y-66844091D01*
X110869444Y-66844835D01*
X110922127Y-66850500D01*
X112717872Y-66850499D01*
X112777483Y-66844091D01*
X112912331Y-66793796D01*
X113027546Y-66707546D01*
X113113796Y-66592331D01*
X113164091Y-66457483D01*
X113170500Y-66397873D01*
X113170499Y-64602128D01*
X113164091Y-64542517D01*
X113162810Y-64539083D01*
X113113797Y-64407671D01*
X113113795Y-64407668D01*
X113096622Y-64384728D01*
X113067166Y-64345380D01*
X113057791Y-64332856D01*
X113051589Y-64316228D01*
X117129500Y-64316228D01*
X117129500Y-64483771D01*
X117162182Y-64648074D01*
X117162184Y-64648082D01*
X117226295Y-64802860D01*
X117319373Y-64942162D01*
X117437837Y-65060626D01*
X117496617Y-65099901D01*
X117577137Y-65153703D01*
X117731918Y-65217816D01*
X117896228Y-65250499D01*
X117896232Y-65250500D01*
X117896233Y-65250500D01*
X118063768Y-65250500D01*
X118063769Y-65250499D01*
X118228082Y-65217816D01*
X118382863Y-65153703D01*
X118522162Y-65060626D01*
X118640626Y-64942162D01*
X118733703Y-64802863D01*
X118797816Y-64648082D01*
X118830500Y-64483767D01*
X118830500Y-64316233D01*
X118797816Y-64151918D01*
X118733703Y-63997137D01*
X118702537Y-63950494D01*
X118640626Y-63857837D01*
X118522162Y-63739373D01*
X118382860Y-63646295D01*
X118228082Y-63582184D01*
X118228074Y-63582182D01*
X118063771Y-63549500D01*
X118063767Y-63549500D01*
X117896233Y-63549500D01*
X117896228Y-63549500D01*
X117731925Y-63582182D01*
X117731917Y-63582184D01*
X117577139Y-63646295D01*
X117437837Y-63739373D01*
X117319373Y-63857837D01*
X117226295Y-63997139D01*
X117162184Y-64151917D01*
X117162182Y-64151925D01*
X117129500Y-64316228D01*
X113051589Y-64316228D01*
X113033373Y-64267392D01*
X113048224Y-64199119D01*
X113088166Y-64155443D01*
X113115233Y-64137357D01*
X113194661Y-64084285D01*
X113313125Y-63965821D01*
X113406202Y-63826522D01*
X113470315Y-63671741D01*
X113502999Y-63507426D01*
X113502999Y-63339892D01*
X113470315Y-63175577D01*
X113406202Y-63020796D01*
X113375036Y-62974153D01*
X113313125Y-62881496D01*
X113194661Y-62763032D01*
X113055359Y-62669954D01*
X112900581Y-62605843D01*
X112900573Y-62605841D01*
X112736270Y-62573159D01*
X112736266Y-62573159D01*
X112568732Y-62573159D01*
X112568727Y-62573159D01*
X112404424Y-62605841D01*
X112404416Y-62605843D01*
X112249638Y-62669954D01*
X112110336Y-62763032D01*
X111991872Y-62881496D01*
X111898794Y-63020798D01*
X111834683Y-63175576D01*
X111834681Y-63175584D01*
X111801999Y-63339887D01*
X111801999Y-63507430D01*
X111834681Y-63671733D01*
X111834683Y-63671741D01*
X111898795Y-63826520D01*
X111898797Y-63826524D01*
X111985717Y-63956610D01*
X112006595Y-64023287D01*
X111988110Y-64090667D01*
X111936131Y-64137357D01*
X111882615Y-64149500D01*
X110922129Y-64149500D01*
X110922123Y-64149501D01*
X110862516Y-64155908D01*
X110727671Y-64206202D01*
X110727664Y-64206206D01*
X110612455Y-64292452D01*
X110612452Y-64292455D01*
X110526206Y-64407664D01*
X110526203Y-64407669D01*
X110477189Y-64539083D01*
X110435317Y-64595016D01*
X110369853Y-64619433D01*
X110301580Y-64604581D01*
X110273326Y-64583430D01*
X110159786Y-64469890D01*
X109987820Y-64344951D01*
X109798414Y-64248444D01*
X109798413Y-64248443D01*
X109798412Y-64248443D01*
X109596243Y-64182754D01*
X109596241Y-64182753D01*
X109596240Y-64182753D01*
X109434957Y-64157208D01*
X109386287Y-64149500D01*
X109173713Y-64149500D01*
X109125042Y-64157208D01*
X108963760Y-64182753D01*
X108761585Y-64248444D01*
X108572179Y-64344951D01*
X108400213Y-64469890D01*
X108249890Y-64620213D01*
X108124949Y-64792182D01*
X108120484Y-64800946D01*
X108072509Y-64851742D01*
X108004688Y-64868536D01*
X107938553Y-64845998D01*
X107899516Y-64800946D01*
X107895050Y-64792182D01*
X107770109Y-64620213D01*
X107619786Y-64469890D01*
X107447820Y-64344951D01*
X107258414Y-64248444D01*
X107258413Y-64248443D01*
X107258412Y-64248443D01*
X107056243Y-64182754D01*
X107056241Y-64182753D01*
X107056240Y-64182753D01*
X106894957Y-64157208D01*
X106846287Y-64149500D01*
X106633713Y-64149500D01*
X106585042Y-64157208D01*
X106423760Y-64182753D01*
X106221585Y-64248444D01*
X106032179Y-64344951D01*
X105860213Y-64469890D01*
X105709890Y-64620213D01*
X105584949Y-64792182D01*
X105580484Y-64800946D01*
X105532509Y-64851742D01*
X105464688Y-64868536D01*
X105398553Y-64845998D01*
X105359516Y-64800946D01*
X105355050Y-64792182D01*
X105230109Y-64620213D01*
X105079786Y-64469890D01*
X104907820Y-64344951D01*
X104718414Y-64248444D01*
X104718413Y-64248443D01*
X104718412Y-64248443D01*
X104516243Y-64182754D01*
X104516241Y-64182753D01*
X104516240Y-64182753D01*
X104354957Y-64157208D01*
X104306287Y-64149500D01*
X104093713Y-64149500D01*
X104045042Y-64157208D01*
X103883760Y-64182753D01*
X103681585Y-64248444D01*
X103492179Y-64344951D01*
X103320213Y-64469890D01*
X103169890Y-64620213D01*
X103044951Y-64792179D01*
X102948444Y-64981585D01*
X102882753Y-65183760D01*
X102849500Y-65393713D01*
X101230499Y-65393713D01*
X101230499Y-64602128D01*
X101224091Y-64542517D01*
X101222810Y-64539083D01*
X101173797Y-64407671D01*
X101173793Y-64407664D01*
X101087547Y-64292455D01*
X101087544Y-64292452D01*
X100972335Y-64206206D01*
X100972328Y-64206202D01*
X100837482Y-64155908D01*
X100837483Y-64155908D01*
X100777883Y-64149501D01*
X100777881Y-64149500D01*
X100777873Y-64149500D01*
X100777864Y-64149500D01*
X98982129Y-64149500D01*
X98982123Y-64149501D01*
X98922516Y-64155908D01*
X98787671Y-64206202D01*
X98787664Y-64206206D01*
X98672455Y-64292452D01*
X98672452Y-64292455D01*
X98586206Y-64407664D01*
X98586203Y-64407669D01*
X98537189Y-64539083D01*
X98495317Y-64595016D01*
X98429853Y-64619433D01*
X98361580Y-64604581D01*
X98333326Y-64583430D01*
X98219786Y-64469890D01*
X98047820Y-64344951D01*
X97858414Y-64248444D01*
X97858413Y-64248443D01*
X97858412Y-64248443D01*
X97656243Y-64182754D01*
X97656241Y-64182753D01*
X97656240Y-64182753D01*
X97494957Y-64157208D01*
X97446287Y-64149500D01*
X97233713Y-64149500D01*
X97185042Y-64157208D01*
X97023760Y-64182753D01*
X96821585Y-64248444D01*
X96632179Y-64344951D01*
X96460213Y-64469890D01*
X96309890Y-64620213D01*
X96184949Y-64792182D01*
X96180484Y-64800946D01*
X96132509Y-64851742D01*
X96064688Y-64868536D01*
X95998553Y-64845998D01*
X95959516Y-64800946D01*
X95955050Y-64792182D01*
X95830109Y-64620213D01*
X95679786Y-64469890D01*
X95507820Y-64344951D01*
X95318414Y-64248444D01*
X95318413Y-64248443D01*
X95318412Y-64248443D01*
X95116243Y-64182754D01*
X95116241Y-64182753D01*
X95116240Y-64182753D01*
X94954957Y-64157208D01*
X94906287Y-64149500D01*
X94693713Y-64149500D01*
X94645042Y-64157208D01*
X94483760Y-64182753D01*
X94281585Y-64248444D01*
X94092179Y-64344951D01*
X93920213Y-64469890D01*
X93769890Y-64620213D01*
X93644949Y-64792182D01*
X93640484Y-64800946D01*
X93592509Y-64851742D01*
X93524688Y-64868536D01*
X93458553Y-64845998D01*
X93419516Y-64800946D01*
X93415050Y-64792182D01*
X93290109Y-64620213D01*
X93139786Y-64469890D01*
X92967820Y-64344951D01*
X92778414Y-64248444D01*
X92778413Y-64248443D01*
X92778412Y-64248443D01*
X92576243Y-64182754D01*
X92576241Y-64182753D01*
X92576240Y-64182753D01*
X92414957Y-64157208D01*
X92366287Y-64149500D01*
X92153713Y-64149500D01*
X92105042Y-64157208D01*
X91943760Y-64182753D01*
X91741585Y-64248444D01*
X91552179Y-64344951D01*
X91380213Y-64469890D01*
X91229890Y-64620213D01*
X91104949Y-64792182D01*
X91100202Y-64801499D01*
X91052227Y-64852293D01*
X90984405Y-64869087D01*
X90918271Y-64846548D01*
X90879234Y-64801495D01*
X90874626Y-64792452D01*
X90835270Y-64738282D01*
X90835269Y-64738282D01*
X90202962Y-65370590D01*
X90185925Y-65307007D01*
X90120099Y-65192993D01*
X90027007Y-65099901D01*
X89912993Y-65034075D01*
X89849409Y-65017037D01*
X90481716Y-64384728D01*
X90427550Y-64345375D01*
X90238217Y-64248904D01*
X90036129Y-64183242D01*
X89826246Y-64150000D01*
X89613754Y-64150000D01*
X89403872Y-64183242D01*
X89403869Y-64183242D01*
X89201782Y-64248904D01*
X89012439Y-64345380D01*
X88958282Y-64384727D01*
X88958282Y-64384728D01*
X89590591Y-65017037D01*
X89527007Y-65034075D01*
X89412993Y-65099901D01*
X89319901Y-65192993D01*
X89254075Y-65307007D01*
X89237037Y-65370591D01*
X88604728Y-64738282D01*
X88604727Y-64738282D01*
X88565380Y-64792439D01*
X88468904Y-64981782D01*
X88403242Y-65183869D01*
X88403242Y-65183872D01*
X88370000Y-65393753D01*
X75900500Y-65393753D01*
X75900500Y-64021153D01*
X83999500Y-64021153D01*
X83999500Y-64178846D01*
X84030261Y-64333489D01*
X84030264Y-64333501D01*
X84090602Y-64479172D01*
X84090609Y-64479185D01*
X84178210Y-64610288D01*
X84178213Y-64610292D01*
X84289707Y-64721786D01*
X84289711Y-64721789D01*
X84420814Y-64809390D01*
X84420827Y-64809397D01*
X84564934Y-64869087D01*
X84566503Y-64869737D01*
X84721153Y-64900499D01*
X84721156Y-64900500D01*
X84721158Y-64900500D01*
X84878844Y-64900500D01*
X84878845Y-64900499D01*
X85033497Y-64869737D01*
X85179179Y-64809394D01*
X85310289Y-64721789D01*
X85421789Y-64610289D01*
X85509394Y-64479179D01*
X85513242Y-64469890D01*
X85548597Y-64384535D01*
X85564817Y-64345375D01*
X85569737Y-64333497D01*
X85600500Y-64178842D01*
X85600500Y-64021158D01*
X85600500Y-64021155D01*
X85600499Y-64021153D01*
X85589493Y-63965821D01*
X85569737Y-63866503D01*
X85566148Y-63857838D01*
X85509397Y-63720827D01*
X85509390Y-63720814D01*
X85421789Y-63589711D01*
X85421786Y-63589707D01*
X85310292Y-63478213D01*
X85310288Y-63478210D01*
X85179185Y-63390609D01*
X85179172Y-63390602D01*
X85033501Y-63330264D01*
X85033489Y-63330261D01*
X84878845Y-63299500D01*
X84878842Y-63299500D01*
X84721158Y-63299500D01*
X84721155Y-63299500D01*
X84566510Y-63330261D01*
X84566498Y-63330264D01*
X84420827Y-63390602D01*
X84420814Y-63390609D01*
X84289711Y-63478210D01*
X84289707Y-63478213D01*
X84178213Y-63589707D01*
X84178210Y-63589711D01*
X84090609Y-63720814D01*
X84090602Y-63720827D01*
X84030264Y-63866498D01*
X84030261Y-63866510D01*
X83999500Y-64021153D01*
X75900500Y-64021153D01*
X75900500Y-60734116D01*
X77785964Y-60734116D01*
X77785964Y-60891809D01*
X77816725Y-61046452D01*
X77816728Y-61046464D01*
X77877066Y-61192135D01*
X77877073Y-61192148D01*
X77964674Y-61323251D01*
X77964677Y-61323255D01*
X78076171Y-61434749D01*
X78076175Y-61434752D01*
X78207278Y-61522353D01*
X78207291Y-61522360D01*
X78352962Y-61582698D01*
X78352967Y-61582700D01*
X78507617Y-61613462D01*
X78507620Y-61613463D01*
X78507622Y-61613463D01*
X78665308Y-61613463D01*
X78665309Y-61613462D01*
X78819961Y-61582700D01*
X78965643Y-61522357D01*
X79096753Y-61434752D01*
X79208253Y-61323252D01*
X79295858Y-61192142D01*
X79356201Y-61046460D01*
X79386964Y-60891805D01*
X79386964Y-60734121D01*
X79386964Y-60734118D01*
X79386963Y-60734116D01*
X79356202Y-60579473D01*
X79356201Y-60579466D01*
X79356199Y-60579461D01*
X79295861Y-60433790D01*
X79295854Y-60433777D01*
X79208253Y-60302674D01*
X79208250Y-60302670D01*
X79096756Y-60191176D01*
X79096752Y-60191173D01*
X78965649Y-60103572D01*
X78965636Y-60103565D01*
X78819965Y-60043227D01*
X78819953Y-60043224D01*
X78665309Y-60012463D01*
X78665306Y-60012463D01*
X78507622Y-60012463D01*
X78507619Y-60012463D01*
X78352974Y-60043224D01*
X78352962Y-60043227D01*
X78207291Y-60103565D01*
X78207278Y-60103572D01*
X78076175Y-60191173D01*
X78076171Y-60191176D01*
X77964677Y-60302670D01*
X77964674Y-60302674D01*
X77877073Y-60433777D01*
X77877066Y-60433790D01*
X77816728Y-60579461D01*
X77816725Y-60579473D01*
X77785964Y-60734116D01*
X75900500Y-60734116D01*
X75900500Y-58672674D01*
X78441109Y-58672674D01*
X78441109Y-58830367D01*
X78471870Y-58985010D01*
X78471873Y-58985022D01*
X78532211Y-59130693D01*
X78532218Y-59130706D01*
X78619819Y-59261809D01*
X78619822Y-59261813D01*
X78731316Y-59373307D01*
X78731320Y-59373310D01*
X78862423Y-59460911D01*
X78862436Y-59460918D01*
X79008107Y-59521256D01*
X79008112Y-59521258D01*
X79162762Y-59552020D01*
X79162765Y-59552021D01*
X79162767Y-59552021D01*
X79320453Y-59552021D01*
X79320454Y-59552020D01*
X79475106Y-59521258D01*
X79620788Y-59460915D01*
X79751898Y-59373310D01*
X79863398Y-59261810D01*
X79890563Y-59221153D01*
X93199500Y-59221153D01*
X93199500Y-59378846D01*
X93230261Y-59533489D01*
X93230264Y-59533501D01*
X93290602Y-59679172D01*
X93290609Y-59679185D01*
X93378210Y-59810288D01*
X93378213Y-59810292D01*
X93489707Y-59921786D01*
X93489711Y-59921789D01*
X93620814Y-60009390D01*
X93620827Y-60009397D01*
X93766498Y-60069735D01*
X93766503Y-60069737D01*
X93921153Y-60100499D01*
X93921156Y-60100500D01*
X93921158Y-60100500D01*
X94078844Y-60100500D01*
X94078845Y-60100499D01*
X94233497Y-60069737D01*
X94379179Y-60009394D01*
X94510289Y-59921789D01*
X94621789Y-59810289D01*
X94709394Y-59679179D01*
X94769737Y-59533497D01*
X94800500Y-59378842D01*
X94800500Y-59221158D01*
X94800500Y-59221155D01*
X94800499Y-59221153D01*
X94785585Y-59146175D01*
X94769737Y-59066503D01*
X94735982Y-58985010D01*
X94709397Y-58920827D01*
X94709390Y-58920814D01*
X94621789Y-58789711D01*
X94621786Y-58789707D01*
X94510292Y-58678213D01*
X94510288Y-58678210D01*
X94379185Y-58590609D01*
X94379172Y-58590602D01*
X94233501Y-58530264D01*
X94233489Y-58530261D01*
X94078845Y-58499500D01*
X94078842Y-58499500D01*
X93921158Y-58499500D01*
X93921155Y-58499500D01*
X93766510Y-58530261D01*
X93766498Y-58530264D01*
X93620827Y-58590602D01*
X93620814Y-58590609D01*
X93489711Y-58678210D01*
X93489707Y-58678213D01*
X93378213Y-58789707D01*
X93378210Y-58789711D01*
X93290609Y-58920814D01*
X93290602Y-58920827D01*
X93230264Y-59066498D01*
X93230261Y-59066510D01*
X93199500Y-59221153D01*
X79890563Y-59221153D01*
X79892996Y-59217512D01*
X79940664Y-59146175D01*
X79940664Y-59146174D01*
X79950997Y-59130709D01*
X79950999Y-59130706D01*
X79951003Y-59130700D01*
X80011346Y-58985018D01*
X80042109Y-58830363D01*
X80042109Y-58672679D01*
X80042109Y-58672676D01*
X80042108Y-58672674D01*
X80025784Y-58590609D01*
X80011346Y-58518024D01*
X80003673Y-58499500D01*
X79951006Y-58372348D01*
X79950999Y-58372335D01*
X79863398Y-58241232D01*
X79863395Y-58241228D01*
X79751901Y-58129734D01*
X79751897Y-58129731D01*
X79620794Y-58042130D01*
X79620781Y-58042123D01*
X79475110Y-57981785D01*
X79475098Y-57981782D01*
X79320454Y-57951021D01*
X79320451Y-57951021D01*
X79162767Y-57951021D01*
X79162764Y-57951021D01*
X79008119Y-57981782D01*
X79008107Y-57981785D01*
X78862436Y-58042123D01*
X78862423Y-58042130D01*
X78731320Y-58129731D01*
X78731316Y-58129734D01*
X78619822Y-58241228D01*
X78619819Y-58241232D01*
X78532218Y-58372335D01*
X78532211Y-58372348D01*
X78471873Y-58518019D01*
X78471870Y-58518031D01*
X78441109Y-58672674D01*
X75900500Y-58672674D01*
X75900500Y-57221153D01*
X93099500Y-57221153D01*
X93099500Y-57378846D01*
X93130261Y-57533489D01*
X93130264Y-57533501D01*
X93190602Y-57679172D01*
X93190609Y-57679185D01*
X93278210Y-57810288D01*
X93278213Y-57810292D01*
X93389707Y-57921786D01*
X93389711Y-57921789D01*
X93520814Y-58009390D01*
X93520827Y-58009397D01*
X93599853Y-58042130D01*
X93666503Y-58069737D01*
X93821153Y-58100499D01*
X93821156Y-58100500D01*
X93821158Y-58100500D01*
X93978844Y-58100500D01*
X93978845Y-58100499D01*
X94133497Y-58069737D01*
X94279179Y-58009394D01*
X94410289Y-57921789D01*
X94521789Y-57810289D01*
X94609394Y-57679179D01*
X94669737Y-57533497D01*
X94672192Y-57521153D01*
X110879500Y-57521153D01*
X110879500Y-57678846D01*
X110910261Y-57833489D01*
X110910264Y-57833501D01*
X110970602Y-57979172D01*
X110970609Y-57979185D01*
X111058210Y-58110288D01*
X111058213Y-58110292D01*
X111169707Y-58221786D01*
X111169711Y-58221789D01*
X111300814Y-58309390D01*
X111300827Y-58309397D01*
X111446498Y-58369735D01*
X111446503Y-58369737D01*
X111601153Y-58400499D01*
X111601156Y-58400500D01*
X111601158Y-58400500D01*
X111758844Y-58400500D01*
X111758845Y-58400499D01*
X111913497Y-58369737D01*
X112059179Y-58309394D01*
X112190289Y-58221789D01*
X112301789Y-58110289D01*
X112389394Y-57979179D01*
X112449737Y-57833497D01*
X112480500Y-57678842D01*
X112480500Y-57521158D01*
X112480500Y-57521155D01*
X112480499Y-57521153D01*
X112452192Y-57378846D01*
X112449737Y-57366503D01*
X112389534Y-57221158D01*
X112389397Y-57220827D01*
X112389390Y-57220814D01*
X112301789Y-57089711D01*
X112301786Y-57089707D01*
X112190292Y-56978213D01*
X112190288Y-56978210D01*
X112059185Y-56890609D01*
X112059172Y-56890602D01*
X111913501Y-56830264D01*
X111913489Y-56830261D01*
X111758845Y-56799500D01*
X111758842Y-56799500D01*
X111601158Y-56799500D01*
X111601155Y-56799500D01*
X111446510Y-56830261D01*
X111446498Y-56830264D01*
X111300827Y-56890602D01*
X111300814Y-56890609D01*
X111169711Y-56978210D01*
X111169707Y-56978213D01*
X111058213Y-57089707D01*
X111058210Y-57089711D01*
X110970609Y-57220814D01*
X110970602Y-57220827D01*
X110910264Y-57366498D01*
X110910261Y-57366510D01*
X110879500Y-57521153D01*
X94672192Y-57521153D01*
X94678216Y-57490874D01*
X94678216Y-57490873D01*
X94700499Y-57378846D01*
X94700500Y-57378844D01*
X94700500Y-57221155D01*
X94700499Y-57221153D01*
X94674353Y-57089711D01*
X94669737Y-57066503D01*
X94646080Y-57009390D01*
X94609397Y-56920827D01*
X94609390Y-56920814D01*
X94521789Y-56789711D01*
X94521786Y-56789707D01*
X94410292Y-56678213D01*
X94410288Y-56678210D01*
X94279185Y-56590609D01*
X94279172Y-56590602D01*
X94133501Y-56530264D01*
X94133489Y-56530261D01*
X93978845Y-56499500D01*
X93978842Y-56499500D01*
X93821158Y-56499500D01*
X93821155Y-56499500D01*
X93666510Y-56530261D01*
X93666498Y-56530264D01*
X93520827Y-56590602D01*
X93520814Y-56590609D01*
X93389711Y-56678210D01*
X93389707Y-56678213D01*
X93278213Y-56789707D01*
X93278210Y-56789711D01*
X93190609Y-56920814D01*
X93190602Y-56920827D01*
X93130264Y-57066498D01*
X93130261Y-57066510D01*
X93099500Y-57221153D01*
X75900500Y-57221153D01*
X75900500Y-56221153D01*
X87799500Y-56221153D01*
X87799500Y-56378846D01*
X87830261Y-56533489D01*
X87830264Y-56533501D01*
X87890602Y-56679172D01*
X87890609Y-56679185D01*
X87978210Y-56810288D01*
X87978213Y-56810292D01*
X88089707Y-56921786D01*
X88089711Y-56921789D01*
X88220814Y-57009390D01*
X88220827Y-57009397D01*
X88358683Y-57066498D01*
X88366503Y-57069737D01*
X88521153Y-57100499D01*
X88521156Y-57100500D01*
X88521158Y-57100500D01*
X88678844Y-57100500D01*
X88678845Y-57100499D01*
X88689179Y-57098443D01*
X88714287Y-57093450D01*
X88714292Y-57093449D01*
X88799800Y-57076439D01*
X88833497Y-57069737D01*
X88979179Y-57009394D01*
X89110289Y-56921789D01*
X89221789Y-56810289D01*
X89309394Y-56679179D01*
X89369737Y-56533497D01*
X89400500Y-56378842D01*
X89400500Y-56221158D01*
X89400500Y-56221155D01*
X89400499Y-56221153D01*
X89396925Y-56203184D01*
X89369737Y-56066503D01*
X89352328Y-56024473D01*
X89309397Y-55920827D01*
X89309390Y-55920814D01*
X89221789Y-55789711D01*
X89221786Y-55789707D01*
X89110292Y-55678213D01*
X89110288Y-55678210D01*
X88979185Y-55590609D01*
X88979172Y-55590602D01*
X88833501Y-55530264D01*
X88833489Y-55530261D01*
X88678845Y-55499500D01*
X88678842Y-55499500D01*
X88521158Y-55499500D01*
X88521155Y-55499500D01*
X88366510Y-55530261D01*
X88366498Y-55530264D01*
X88220827Y-55590602D01*
X88220814Y-55590609D01*
X88089711Y-55678210D01*
X88089707Y-55678213D01*
X87978213Y-55789707D01*
X87978210Y-55789711D01*
X87890609Y-55920814D01*
X87890602Y-55920827D01*
X87830264Y-56066498D01*
X87830261Y-56066510D01*
X87799500Y-56221153D01*
X75900500Y-56221153D01*
X75900500Y-55121153D01*
X77199500Y-55121153D01*
X77199500Y-55278846D01*
X77230261Y-55433489D01*
X77230264Y-55433501D01*
X77290602Y-55579172D01*
X77290609Y-55579185D01*
X77378210Y-55710288D01*
X77378213Y-55710292D01*
X77489707Y-55821786D01*
X77489711Y-55821789D01*
X77620814Y-55909390D01*
X77620827Y-55909397D01*
X77766498Y-55969735D01*
X77766503Y-55969737D01*
X77921153Y-56000499D01*
X77921156Y-56000500D01*
X77921158Y-56000500D01*
X78078844Y-56000500D01*
X78078845Y-56000499D01*
X78233497Y-55969737D01*
X78351592Y-55920821D01*
X78379172Y-55909397D01*
X78379172Y-55909396D01*
X78379179Y-55909394D01*
X78510289Y-55821789D01*
X78621789Y-55710289D01*
X78709394Y-55579179D01*
X78769737Y-55433497D01*
X78800500Y-55278842D01*
X78800500Y-55121158D01*
X78800500Y-55121155D01*
X78800499Y-55121153D01*
X78782204Y-55029179D01*
X78769737Y-54966503D01*
X78737929Y-54889711D01*
X78709397Y-54820827D01*
X78709390Y-54820814D01*
X78621789Y-54689711D01*
X78621786Y-54689707D01*
X78510292Y-54578213D01*
X78510288Y-54578210D01*
X78499727Y-54571153D01*
X80349500Y-54571153D01*
X80349500Y-54728846D01*
X80380261Y-54883489D01*
X80380264Y-54883501D01*
X80440602Y-55029172D01*
X80440609Y-55029185D01*
X80528210Y-55160288D01*
X80528213Y-55160292D01*
X80639707Y-55271786D01*
X80639711Y-55271789D01*
X80770814Y-55359390D01*
X80770827Y-55359397D01*
X80858230Y-55395599D01*
X80916503Y-55419737D01*
X80935722Y-55423559D01*
X80997633Y-55455943D01*
X81027797Y-55505258D01*
X81028315Y-55505044D01*
X81029675Y-55508329D01*
X81030190Y-55509170D01*
X81030644Y-55510668D01*
X81090985Y-55656346D01*
X81090992Y-55656359D01*
X81178593Y-55787462D01*
X81178596Y-55787466D01*
X81290090Y-55898960D01*
X81290094Y-55898963D01*
X81421197Y-55986564D01*
X81421210Y-55986571D01*
X81512708Y-56024470D01*
X81566886Y-56046911D01*
X81710903Y-56075558D01*
X81721536Y-56077673D01*
X81721539Y-56077674D01*
X81721541Y-56077674D01*
X81879227Y-56077674D01*
X81879228Y-56077673D01*
X82033880Y-56046911D01*
X82179562Y-55986568D01*
X82310672Y-55898963D01*
X82332064Y-55877570D01*
X82393382Y-55844086D01*
X82463074Y-55849068D01*
X82519009Y-55890937D01*
X82522847Y-55896360D01*
X82533947Y-55912972D01*
X82533950Y-55912976D01*
X82645444Y-56024470D01*
X82645448Y-56024473D01*
X82776551Y-56112074D01*
X82776564Y-56112081D01*
X82922235Y-56172419D01*
X82922240Y-56172421D01*
X83063397Y-56200499D01*
X83076890Y-56203183D01*
X83076893Y-56203184D01*
X83076895Y-56203184D01*
X83234581Y-56203184D01*
X83234582Y-56203183D01*
X83389234Y-56172421D01*
X83534916Y-56112078D01*
X83585987Y-56077952D01*
X83652660Y-56057075D01*
X83720041Y-56075558D01*
X83723768Y-56077954D01*
X83770813Y-56109389D01*
X83770815Y-56109390D01*
X83770821Y-56109394D01*
X83770823Y-56109395D01*
X83770827Y-56109397D01*
X83916498Y-56169735D01*
X83916503Y-56169737D01*
X84071153Y-56200499D01*
X84071156Y-56200500D01*
X84071158Y-56200500D01*
X84228844Y-56200500D01*
X84228845Y-56200499D01*
X84383497Y-56169737D01*
X84522692Y-56112081D01*
X84529172Y-56109397D01*
X84529172Y-56109396D01*
X84529179Y-56109394D01*
X84660289Y-56021789D01*
X84771789Y-55910289D01*
X84859394Y-55779179D01*
X84866101Y-55762988D01*
X84910270Y-55656353D01*
X84919737Y-55633497D01*
X84950500Y-55478842D01*
X84950500Y-55321158D01*
X84950500Y-55321155D01*
X84950499Y-55321153D01*
X100599500Y-55321153D01*
X100599500Y-55478846D01*
X100630261Y-55633489D01*
X100630264Y-55633501D01*
X100690602Y-55779172D01*
X100690609Y-55779185D01*
X100778210Y-55910288D01*
X100778213Y-55910292D01*
X100889707Y-56021786D01*
X100889711Y-56021789D01*
X101020814Y-56109390D01*
X101020827Y-56109397D01*
X101166498Y-56169735D01*
X101166503Y-56169737D01*
X101321153Y-56200499D01*
X101321156Y-56200500D01*
X101321158Y-56200500D01*
X101478844Y-56200500D01*
X101478845Y-56200499D01*
X101633497Y-56169737D01*
X101772692Y-56112081D01*
X101779172Y-56109397D01*
X101779172Y-56109396D01*
X101779179Y-56109394D01*
X101910289Y-56021789D01*
X102021789Y-55910289D01*
X102109394Y-55779179D01*
X102116101Y-55762988D01*
X102160270Y-55656353D01*
X102169737Y-55633497D01*
X102200500Y-55478842D01*
X102200500Y-55321158D01*
X102200500Y-55321155D01*
X102200499Y-55321153D01*
X105349500Y-55321153D01*
X105349500Y-55478846D01*
X105380261Y-55633489D01*
X105380264Y-55633501D01*
X105440602Y-55779172D01*
X105440609Y-55779185D01*
X105528210Y-55910288D01*
X105528213Y-55910292D01*
X105639707Y-56021786D01*
X105639711Y-56021789D01*
X105770814Y-56109390D01*
X105770827Y-56109397D01*
X105916498Y-56169735D01*
X105916503Y-56169737D01*
X106071153Y-56200499D01*
X106071156Y-56200500D01*
X106071158Y-56200500D01*
X106228844Y-56200500D01*
X106228845Y-56200499D01*
X106383497Y-56169737D01*
X106522692Y-56112081D01*
X106529172Y-56109397D01*
X106529172Y-56109396D01*
X106529179Y-56109394D01*
X106660289Y-56021789D01*
X106771789Y-55910289D01*
X106859394Y-55779179D01*
X106866101Y-55762988D01*
X106910270Y-55656353D01*
X106919737Y-55633497D01*
X106950500Y-55478842D01*
X106950500Y-55321158D01*
X106950500Y-55321155D01*
X106950499Y-55321153D01*
X106919737Y-55166503D01*
X106900955Y-55121158D01*
X106859397Y-55020827D01*
X106859390Y-55020814D01*
X106771789Y-54889711D01*
X106771786Y-54889707D01*
X106660292Y-54778213D01*
X106660288Y-54778210D01*
X106529185Y-54690609D01*
X106529172Y-54690602D01*
X106383501Y-54630264D01*
X106383489Y-54630261D01*
X106228845Y-54599500D01*
X106228842Y-54599500D01*
X106071158Y-54599500D01*
X106071155Y-54599500D01*
X105916510Y-54630261D01*
X105916498Y-54630264D01*
X105770827Y-54690602D01*
X105770814Y-54690609D01*
X105639711Y-54778210D01*
X105639707Y-54778213D01*
X105528213Y-54889707D01*
X105528210Y-54889711D01*
X105440609Y-55020814D01*
X105440602Y-55020827D01*
X105380264Y-55166498D01*
X105380261Y-55166510D01*
X105349500Y-55321153D01*
X102200499Y-55321153D01*
X102169737Y-55166503D01*
X102150955Y-55121158D01*
X102109397Y-55020827D01*
X102109390Y-55020814D01*
X102021789Y-54889711D01*
X102021786Y-54889707D01*
X101910292Y-54778213D01*
X101910288Y-54778210D01*
X101779185Y-54690609D01*
X101779172Y-54690602D01*
X101633501Y-54630264D01*
X101633489Y-54630261D01*
X101478845Y-54599500D01*
X101478842Y-54599500D01*
X101321158Y-54599500D01*
X101321155Y-54599500D01*
X101166510Y-54630261D01*
X101166498Y-54630264D01*
X101020827Y-54690602D01*
X101020814Y-54690609D01*
X100889711Y-54778210D01*
X100889707Y-54778213D01*
X100778213Y-54889707D01*
X100778210Y-54889711D01*
X100690609Y-55020814D01*
X100690602Y-55020827D01*
X100630264Y-55166498D01*
X100630261Y-55166510D01*
X100599500Y-55321153D01*
X84950499Y-55321153D01*
X84919737Y-55166503D01*
X84900955Y-55121158D01*
X84859397Y-55020827D01*
X84859390Y-55020814D01*
X84771789Y-54889711D01*
X84771786Y-54889707D01*
X84660292Y-54778213D01*
X84660288Y-54778210D01*
X84529185Y-54690609D01*
X84529172Y-54690602D01*
X84383501Y-54630264D01*
X84383489Y-54630261D01*
X84228845Y-54599500D01*
X84228842Y-54599500D01*
X84071158Y-54599500D01*
X84071155Y-54599500D01*
X83916510Y-54630261D01*
X83916498Y-54630264D01*
X83770828Y-54690602D01*
X83770817Y-54690608D01*
X83719750Y-54724730D01*
X83653072Y-54745607D01*
X83585692Y-54727122D01*
X83581970Y-54724730D01*
X83534919Y-54693292D01*
X83534918Y-54693291D01*
X83534916Y-54693290D01*
X83534913Y-54693288D01*
X83534908Y-54693286D01*
X83389235Y-54632947D01*
X83389229Y-54632945D01*
X83347983Y-54624741D01*
X83340948Y-54621061D01*
X83333016Y-54620778D01*
X83310431Y-54605097D01*
X83286073Y-54592355D01*
X83280683Y-54584443D01*
X83275624Y-54580930D01*
X83257615Y-54550576D01*
X83229456Y-54482593D01*
X83212321Y-54441228D01*
X119549500Y-54441228D01*
X119549500Y-54608771D01*
X119582182Y-54773074D01*
X119582184Y-54773082D01*
X119646295Y-54927860D01*
X119739373Y-55067162D01*
X119857837Y-55185626D01*
X119950494Y-55247537D01*
X119997137Y-55278703D01*
X119997138Y-55278703D01*
X119997139Y-55278704D01*
X119997477Y-55278844D01*
X120151918Y-55342816D01*
X120316228Y-55375499D01*
X120316232Y-55375500D01*
X120316233Y-55375500D01*
X120483768Y-55375500D01*
X120483769Y-55375499D01*
X120648082Y-55342816D01*
X120802863Y-55278703D01*
X120942162Y-55185626D01*
X121060626Y-55067162D01*
X121153703Y-54927863D01*
X121217816Y-54773082D01*
X121250500Y-54608767D01*
X121250500Y-54441233D01*
X121217816Y-54276918D01*
X121168227Y-54157201D01*
X121153704Y-54122139D01*
X121127751Y-54083298D01*
X121090945Y-54028213D01*
X121060626Y-53982837D01*
X120942162Y-53864373D01*
X120802860Y-53771295D01*
X120648082Y-53707184D01*
X120648074Y-53707182D01*
X120483771Y-53674500D01*
X120483767Y-53674500D01*
X120316233Y-53674500D01*
X120316228Y-53674500D01*
X120151925Y-53707182D01*
X120151917Y-53707184D01*
X119997139Y-53771295D01*
X119857837Y-53864373D01*
X119739373Y-53982837D01*
X119646295Y-54122139D01*
X119582184Y-54276917D01*
X119582182Y-54276925D01*
X119549500Y-54441228D01*
X83212321Y-54441228D01*
X83206001Y-54425971D01*
X83200840Y-54413510D01*
X83200838Y-54413507D01*
X83200836Y-54413503D01*
X83113235Y-54282400D01*
X83113232Y-54282396D01*
X83001738Y-54170902D01*
X83001734Y-54170899D01*
X82870631Y-54083298D01*
X82870618Y-54083291D01*
X82724947Y-54022953D01*
X82724935Y-54022950D01*
X82570291Y-53992189D01*
X82570288Y-53992189D01*
X82412604Y-53992189D01*
X82412601Y-53992189D01*
X82257956Y-54022950D01*
X82257944Y-54022953D01*
X82112273Y-54083291D01*
X82112260Y-54083298D01*
X81981157Y-54170899D01*
X81981150Y-54170904D01*
X81974978Y-54177077D01*
X81913653Y-54210559D01*
X81843962Y-54205572D01*
X81788030Y-54163698D01*
X81784199Y-54158283D01*
X81771789Y-54139711D01*
X81771786Y-54139707D01*
X81660292Y-54028213D01*
X81660288Y-54028210D01*
X81529185Y-53940609D01*
X81529172Y-53940602D01*
X81383501Y-53880264D01*
X81383489Y-53880261D01*
X81228845Y-53849500D01*
X81228842Y-53849500D01*
X81071158Y-53849500D01*
X81071155Y-53849500D01*
X80916510Y-53880261D01*
X80916498Y-53880264D01*
X80770827Y-53940602D01*
X80770814Y-53940609D01*
X80639711Y-54028210D01*
X80639707Y-54028213D01*
X80528213Y-54139707D01*
X80528210Y-54139711D01*
X80440609Y-54270814D01*
X80440602Y-54270827D01*
X80380264Y-54416498D01*
X80380261Y-54416510D01*
X80349500Y-54571153D01*
X78499727Y-54571153D01*
X78379185Y-54490609D01*
X78379172Y-54490602D01*
X78233501Y-54430264D01*
X78233489Y-54430261D01*
X78078845Y-54399500D01*
X78078842Y-54399500D01*
X77921158Y-54399500D01*
X77921155Y-54399500D01*
X77766510Y-54430261D01*
X77766498Y-54430264D01*
X77620827Y-54490602D01*
X77620814Y-54490609D01*
X77489711Y-54578210D01*
X77489707Y-54578213D01*
X77378213Y-54689707D01*
X77378210Y-54689711D01*
X77290609Y-54820814D01*
X77290602Y-54820827D01*
X77230264Y-54966498D01*
X77230261Y-54966510D01*
X77199500Y-55121153D01*
X75900500Y-55121153D01*
X75900500Y-52179123D01*
X78441529Y-52179123D01*
X78441529Y-52336816D01*
X78472290Y-52491459D01*
X78472293Y-52491471D01*
X78532631Y-52637142D01*
X78532638Y-52637155D01*
X78620239Y-52768258D01*
X78620242Y-52768262D01*
X78731736Y-52879756D01*
X78731740Y-52879759D01*
X78862843Y-52967360D01*
X78862856Y-52967367D01*
X79008527Y-53027705D01*
X79008532Y-53027707D01*
X79163182Y-53058469D01*
X79163185Y-53058470D01*
X79163187Y-53058470D01*
X79320873Y-53058470D01*
X79320874Y-53058469D01*
X79475526Y-53027707D01*
X79621208Y-52967364D01*
X79752318Y-52879759D01*
X79863818Y-52768259D01*
X79951423Y-52637149D01*
X80011766Y-52491467D01*
X80042529Y-52336812D01*
X80042529Y-52179128D01*
X80042529Y-52179125D01*
X80042528Y-52179123D01*
X80011766Y-52024473D01*
X79953805Y-51884541D01*
X79951426Y-51878797D01*
X79951419Y-51878784D01*
X79863818Y-51747681D01*
X79863815Y-51747677D01*
X79752321Y-51636183D01*
X79752317Y-51636180D01*
X79621214Y-51548579D01*
X79621201Y-51548572D01*
X79475530Y-51488234D01*
X79475518Y-51488231D01*
X79320874Y-51457470D01*
X79320871Y-51457470D01*
X79163187Y-51457470D01*
X79163184Y-51457470D01*
X79008539Y-51488231D01*
X79008527Y-51488234D01*
X78862856Y-51548572D01*
X78862843Y-51548579D01*
X78731740Y-51636180D01*
X78731736Y-51636183D01*
X78620242Y-51747677D01*
X78620239Y-51747681D01*
X78532638Y-51878784D01*
X78532631Y-51878797D01*
X78472293Y-52024468D01*
X78472290Y-52024480D01*
X78441529Y-52179123D01*
X75900500Y-52179123D01*
X75900500Y-51183905D01*
X81478930Y-51183905D01*
X81478930Y-51341598D01*
X81509691Y-51496241D01*
X81509694Y-51496253D01*
X81570032Y-51641924D01*
X81570039Y-51641937D01*
X81657640Y-51773040D01*
X81657643Y-51773044D01*
X81769137Y-51884538D01*
X81769141Y-51884541D01*
X81900244Y-51972142D01*
X81900257Y-51972149D01*
X82026597Y-52024480D01*
X82045933Y-52032489D01*
X82200583Y-52063251D01*
X82200586Y-52063252D01*
X82200588Y-52063252D01*
X82358274Y-52063252D01*
X82358275Y-52063251D01*
X82512927Y-52032489D01*
X82658609Y-51972146D01*
X82789719Y-51884541D01*
X82901219Y-51773041D01*
X82988824Y-51641931D01*
X83049167Y-51496249D01*
X83079930Y-51341594D01*
X83079930Y-51183910D01*
X83079930Y-51183907D01*
X83079929Y-51183905D01*
X83077517Y-51171779D01*
X83049167Y-51029255D01*
X83029679Y-50982207D01*
X82988827Y-50883579D01*
X82988821Y-50883568D01*
X82947116Y-50821153D01*
X99849500Y-50821153D01*
X99849500Y-50978846D01*
X99880261Y-51133489D01*
X99880264Y-51133501D01*
X99940602Y-51279172D01*
X99940609Y-51279185D01*
X100028210Y-51410288D01*
X100028213Y-51410292D01*
X100139707Y-51521786D01*
X100139711Y-51521789D01*
X100270814Y-51609390D01*
X100270827Y-51609397D01*
X100363269Y-51647687D01*
X100416503Y-51669737D01*
X100571153Y-51700499D01*
X100571156Y-51700500D01*
X100571158Y-51700500D01*
X100728844Y-51700500D01*
X100728845Y-51700499D01*
X100883497Y-51669737D01*
X101021065Y-51612755D01*
X101029172Y-51609397D01*
X101029172Y-51609396D01*
X101029179Y-51609394D01*
X101160289Y-51521789D01*
X101271789Y-51410289D01*
X101359394Y-51279179D01*
X101419737Y-51133497D01*
X101450500Y-50978842D01*
X101450500Y-50859443D01*
X103507630Y-50859443D01*
X103507630Y-51017136D01*
X103538391Y-51171779D01*
X103538394Y-51171791D01*
X103598732Y-51317462D01*
X103598739Y-51317475D01*
X103686340Y-51448578D01*
X103686343Y-51448582D01*
X103797837Y-51560076D01*
X103797841Y-51560079D01*
X103928944Y-51647680D01*
X103928957Y-51647687D01*
X104064573Y-51703860D01*
X104074633Y-51708027D01*
X104229283Y-51738789D01*
X104229286Y-51738790D01*
X104229288Y-51738790D01*
X104386974Y-51738790D01*
X104386975Y-51738789D01*
X104541627Y-51708027D01*
X104687309Y-51647684D01*
X104818419Y-51560079D01*
X104929919Y-51448579D01*
X105017524Y-51317469D01*
X105077867Y-51171787D01*
X105108630Y-51017132D01*
X105108630Y-50859448D01*
X105108630Y-50859445D01*
X105108629Y-50859443D01*
X107147630Y-50859443D01*
X107147630Y-51017136D01*
X107178391Y-51171779D01*
X107178394Y-51171791D01*
X107238732Y-51317462D01*
X107238739Y-51317475D01*
X107326340Y-51448578D01*
X107326343Y-51448582D01*
X107437837Y-51560076D01*
X107437841Y-51560079D01*
X107568944Y-51647680D01*
X107568957Y-51647687D01*
X107704573Y-51703860D01*
X107714633Y-51708027D01*
X107869283Y-51738789D01*
X107869286Y-51738790D01*
X107869288Y-51738790D01*
X108026974Y-51738790D01*
X108026975Y-51738789D01*
X108181627Y-51708027D01*
X108327309Y-51647684D01*
X108458419Y-51560079D01*
X108569919Y-51448579D01*
X108657524Y-51317469D01*
X108717867Y-51171787D01*
X108748630Y-51017132D01*
X108748630Y-50859448D01*
X108741151Y-50821847D01*
X110781465Y-50821847D01*
X110781465Y-50979540D01*
X110812226Y-51134183D01*
X110812229Y-51134195D01*
X110872567Y-51279866D01*
X110872574Y-51279879D01*
X110960175Y-51410982D01*
X110960178Y-51410986D01*
X111071672Y-51522480D01*
X111071676Y-51522483D01*
X111202779Y-51610084D01*
X111202792Y-51610091D01*
X111346795Y-51669738D01*
X111348468Y-51670431D01*
X111499629Y-51700499D01*
X111503118Y-51701193D01*
X111503121Y-51701194D01*
X111503123Y-51701194D01*
X111660809Y-51701194D01*
X111660810Y-51701193D01*
X111815462Y-51670431D01*
X111961144Y-51610088D01*
X112092254Y-51522483D01*
X112203754Y-51410983D01*
X112291359Y-51279873D01*
X112291647Y-51279179D01*
X112331110Y-51183905D01*
X112351702Y-51134191D01*
X112382465Y-50979536D01*
X112382465Y-50824514D01*
X114415165Y-50824514D01*
X114415165Y-50982207D01*
X114445926Y-51136850D01*
X114445929Y-51136862D01*
X114506267Y-51282533D01*
X114506274Y-51282546D01*
X114593875Y-51413649D01*
X114593878Y-51413653D01*
X114705372Y-51525147D01*
X114705376Y-51525150D01*
X114836479Y-51612751D01*
X114836492Y-51612758D01*
X114982163Y-51673096D01*
X114982168Y-51673098D01*
X115119921Y-51700499D01*
X115136818Y-51703860D01*
X115136821Y-51703861D01*
X115136823Y-51703861D01*
X115294509Y-51703861D01*
X115294510Y-51703860D01*
X115449162Y-51673098D01*
X115594844Y-51612755D01*
X115725954Y-51525150D01*
X115837454Y-51413650D01*
X115925059Y-51282540D01*
X115985402Y-51136858D01*
X116016165Y-50982203D01*
X116016165Y-50824519D01*
X116016165Y-50824516D01*
X116016164Y-50824514D01*
X116015634Y-50821849D01*
X115985402Y-50669864D01*
X115973431Y-50640963D01*
X115925062Y-50524188D01*
X115925055Y-50524175D01*
X115837454Y-50393072D01*
X115837451Y-50393068D01*
X115725957Y-50281574D01*
X115725953Y-50281571D01*
X115594850Y-50193970D01*
X115594837Y-50193963D01*
X115449166Y-50133625D01*
X115449154Y-50133622D01*
X115294510Y-50102861D01*
X115294507Y-50102861D01*
X115136823Y-50102861D01*
X115136820Y-50102861D01*
X114982175Y-50133622D01*
X114982163Y-50133625D01*
X114836492Y-50193963D01*
X114836479Y-50193970D01*
X114705376Y-50281571D01*
X114705372Y-50281574D01*
X114593878Y-50393068D01*
X114593875Y-50393072D01*
X114506274Y-50524175D01*
X114506267Y-50524188D01*
X114445929Y-50669859D01*
X114445926Y-50669871D01*
X114415165Y-50824514D01*
X112382465Y-50824514D01*
X112382465Y-50821852D01*
X112382465Y-50821849D01*
X112382464Y-50821847D01*
X112382326Y-50821153D01*
X112351702Y-50667197D01*
X112351700Y-50667192D01*
X112291362Y-50521521D01*
X112291355Y-50521508D01*
X112203754Y-50390405D01*
X112203751Y-50390401D01*
X112092257Y-50278907D01*
X112092253Y-50278904D01*
X111961150Y-50191303D01*
X111961137Y-50191296D01*
X111815466Y-50130958D01*
X111815454Y-50130955D01*
X111660810Y-50100194D01*
X111660807Y-50100194D01*
X111503123Y-50100194D01*
X111503120Y-50100194D01*
X111348475Y-50130955D01*
X111348463Y-50130958D01*
X111202792Y-50191296D01*
X111202779Y-50191303D01*
X111071676Y-50278904D01*
X111071672Y-50278907D01*
X110960178Y-50390401D01*
X110960175Y-50390405D01*
X110872574Y-50521508D01*
X110872567Y-50521521D01*
X110812229Y-50667192D01*
X110812226Y-50667204D01*
X110781465Y-50821847D01*
X108741151Y-50821847D01*
X108717867Y-50704793D01*
X108702297Y-50667204D01*
X108657527Y-50559117D01*
X108657520Y-50559104D01*
X108569919Y-50428001D01*
X108569916Y-50427997D01*
X108458422Y-50316503D01*
X108458418Y-50316500D01*
X108327315Y-50228899D01*
X108327302Y-50228892D01*
X108181631Y-50168554D01*
X108181619Y-50168551D01*
X108026975Y-50137790D01*
X108026972Y-50137790D01*
X107869288Y-50137790D01*
X107869285Y-50137790D01*
X107714640Y-50168551D01*
X107714628Y-50168554D01*
X107568957Y-50228892D01*
X107568944Y-50228899D01*
X107437841Y-50316500D01*
X107437837Y-50316503D01*
X107326343Y-50427997D01*
X107326340Y-50428001D01*
X107238739Y-50559104D01*
X107238732Y-50559117D01*
X107178394Y-50704788D01*
X107178391Y-50704800D01*
X107147630Y-50859443D01*
X105108629Y-50859443D01*
X105101682Y-50824519D01*
X105077867Y-50704793D01*
X105062297Y-50667204D01*
X105017527Y-50559117D01*
X105017520Y-50559104D01*
X104929919Y-50428001D01*
X104929916Y-50427997D01*
X104818422Y-50316503D01*
X104818418Y-50316500D01*
X104687315Y-50228899D01*
X104687302Y-50228892D01*
X104541631Y-50168554D01*
X104541619Y-50168551D01*
X104386975Y-50137790D01*
X104386972Y-50137790D01*
X104229288Y-50137790D01*
X104229285Y-50137790D01*
X104074640Y-50168551D01*
X104074628Y-50168554D01*
X103928957Y-50228892D01*
X103928944Y-50228899D01*
X103797841Y-50316500D01*
X103797837Y-50316503D01*
X103686343Y-50427997D01*
X103686340Y-50428001D01*
X103598739Y-50559104D01*
X103598732Y-50559117D01*
X103538394Y-50704788D01*
X103538391Y-50704800D01*
X103507630Y-50859443D01*
X101450500Y-50859443D01*
X101450500Y-50821158D01*
X101450500Y-50821155D01*
X101450499Y-50821153D01*
X101419737Y-50666503D01*
X101375257Y-50559117D01*
X101359397Y-50520827D01*
X101359390Y-50520814D01*
X101271789Y-50389711D01*
X101271786Y-50389707D01*
X101160292Y-50278213D01*
X101160288Y-50278210D01*
X101029185Y-50190609D01*
X101029172Y-50190602D01*
X100883501Y-50130264D01*
X100883489Y-50130261D01*
X100728845Y-50099500D01*
X100728842Y-50099500D01*
X100571158Y-50099500D01*
X100571155Y-50099500D01*
X100416510Y-50130261D01*
X100416498Y-50130264D01*
X100270827Y-50190602D01*
X100270814Y-50190609D01*
X100139711Y-50278210D01*
X100139707Y-50278213D01*
X100028213Y-50389707D01*
X100028210Y-50389711D01*
X99940609Y-50520814D01*
X99940602Y-50520827D01*
X99880264Y-50666498D01*
X99880261Y-50666510D01*
X99849500Y-50821153D01*
X82947116Y-50821153D01*
X82901219Y-50752463D01*
X82901216Y-50752459D01*
X82789722Y-50640965D01*
X82789718Y-50640962D01*
X82658615Y-50553361D01*
X82658602Y-50553354D01*
X82512931Y-50493016D01*
X82512919Y-50493013D01*
X82358275Y-50462252D01*
X82358272Y-50462252D01*
X82200588Y-50462252D01*
X82200585Y-50462252D01*
X82045940Y-50493013D01*
X82045928Y-50493016D01*
X81900257Y-50553354D01*
X81900244Y-50553361D01*
X81769141Y-50640962D01*
X81769137Y-50640965D01*
X81657643Y-50752459D01*
X81657640Y-50752463D01*
X81570039Y-50883566D01*
X81570032Y-50883579D01*
X81509694Y-51029250D01*
X81509691Y-51029262D01*
X81478930Y-51183905D01*
X75900500Y-51183905D01*
X75900500Y-43403750D01*
X75900726Y-43396263D01*
X75906929Y-43293713D01*
X77049500Y-43293713D01*
X77049500Y-43506287D01*
X77057338Y-43555772D01*
X77081935Y-43711077D01*
X77082754Y-43716243D01*
X77146534Y-43912538D01*
X77148444Y-43918414D01*
X77244951Y-44107820D01*
X77369890Y-44279786D01*
X77520213Y-44430109D01*
X77692179Y-44555048D01*
X77692181Y-44555049D01*
X77692184Y-44555051D01*
X77881588Y-44651557D01*
X78083757Y-44717246D01*
X78293713Y-44750500D01*
X78293714Y-44750500D01*
X78506286Y-44750500D01*
X78506287Y-44750500D01*
X78716243Y-44717246D01*
X78918412Y-44651557D01*
X79107816Y-44555051D01*
X79129789Y-44539086D01*
X79279786Y-44430109D01*
X79279788Y-44430106D01*
X79279792Y-44430104D01*
X79430104Y-44279792D01*
X79430106Y-44279788D01*
X79430109Y-44279786D01*
X79555048Y-44107820D01*
X79555047Y-44107820D01*
X79555051Y-44107816D01*
X79651557Y-43918412D01*
X79717246Y-43716243D01*
X79750500Y-43506287D01*
X79750500Y-43293713D01*
X79717246Y-43083757D01*
X79651557Y-42881588D01*
X79555051Y-42692184D01*
X79555049Y-42692181D01*
X79555048Y-42692179D01*
X79430109Y-42520213D01*
X79279786Y-42369890D01*
X79107820Y-42244951D01*
X78918414Y-42148444D01*
X78918413Y-42148443D01*
X78918412Y-42148443D01*
X78716243Y-42082754D01*
X78716241Y-42082753D01*
X78716240Y-42082753D01*
X78554957Y-42057208D01*
X78506287Y-42049500D01*
X78293713Y-42049500D01*
X78245042Y-42057208D01*
X78083760Y-42082753D01*
X77881585Y-42148444D01*
X77692179Y-42244951D01*
X77520213Y-42369890D01*
X77369890Y-42520213D01*
X77244951Y-42692179D01*
X77148444Y-42881585D01*
X77082753Y-43083760D01*
X77059903Y-43228031D01*
X77049500Y-43293713D01*
X75906929Y-43293713D01*
X75907677Y-43281354D01*
X75918271Y-43106205D01*
X75920076Y-43091340D01*
X75971780Y-42809201D01*
X75975364Y-42794663D01*
X76007298Y-42692184D01*
X76060696Y-42520822D01*
X76065998Y-42506841D01*
X76183731Y-42245249D01*
X76190676Y-42232016D01*
X76339080Y-41986526D01*
X76347567Y-41974230D01*
X76524480Y-41748417D01*
X76534395Y-41737226D01*
X76565431Y-41706190D01*
X83078478Y-41706190D01*
X83078478Y-43501925D01*
X83078479Y-43501931D01*
X83084886Y-43561538D01*
X83135180Y-43696383D01*
X83135184Y-43696390D01*
X83221430Y-43811599D01*
X83221433Y-43811602D01*
X83336642Y-43897848D01*
X83336649Y-43897852D01*
X83357042Y-43905458D01*
X83471495Y-43948146D01*
X83531105Y-43954555D01*
X83541663Y-43954554D01*
X83608701Y-43974234D01*
X83629350Y-43990873D01*
X84299569Y-44661092D01*
X84235985Y-44678130D01*
X84121971Y-44743956D01*
X84028879Y-44837048D01*
X83963053Y-44951062D01*
X83946015Y-45014646D01*
X83313706Y-44382337D01*
X83313705Y-44382337D01*
X83274358Y-44436494D01*
X83177882Y-44625837D01*
X83112220Y-44827924D01*
X83112220Y-44827927D01*
X83078978Y-45037808D01*
X83078978Y-45250301D01*
X83112220Y-45460182D01*
X83112220Y-45460185D01*
X83177882Y-45662272D01*
X83274353Y-45851605D01*
X83313706Y-45905771D01*
X83946015Y-45273463D01*
X83963053Y-45337048D01*
X84028879Y-45451062D01*
X84121971Y-45544154D01*
X84235985Y-45609980D01*
X84299568Y-45627017D01*
X83667260Y-46259324D01*
X83667260Y-46259325D01*
X83721430Y-46298681D01*
X83721429Y-46298681D01*
X83730473Y-46303289D01*
X83781270Y-46351263D01*
X83798065Y-46419084D01*
X83775528Y-46485219D01*
X83730477Y-46524257D01*
X83721160Y-46529004D01*
X83549191Y-46653945D01*
X83398868Y-46804268D01*
X83273929Y-46976234D01*
X83177422Y-47165640D01*
X83177421Y-47165642D01*
X83177421Y-47165643D01*
X83174951Y-47173246D01*
X83111731Y-47367815D01*
X83078478Y-47577768D01*
X83078478Y-47790341D01*
X83111518Y-47998952D01*
X83111732Y-48000298D01*
X83177196Y-48201775D01*
X83177422Y-48202469D01*
X83273929Y-48391875D01*
X83398868Y-48563841D01*
X83549191Y-48714164D01*
X83721157Y-48839103D01*
X83721159Y-48839104D01*
X83721162Y-48839106D01*
X83910566Y-48935612D01*
X84112735Y-49001301D01*
X84322691Y-49034555D01*
X84322692Y-49034555D01*
X84535264Y-49034555D01*
X84535265Y-49034555D01*
X84745221Y-49001301D01*
X84947390Y-48935612D01*
X85136794Y-48839106D01*
X85158767Y-48823141D01*
X85308764Y-48714164D01*
X85308766Y-48714161D01*
X85308770Y-48714159D01*
X85459082Y-48563847D01*
X85459084Y-48563843D01*
X85459087Y-48563841D01*
X85584026Y-48391875D01*
X85584025Y-48391875D01*
X85584029Y-48391871D01*
X85680535Y-48202467D01*
X85746224Y-48000298D01*
X85779478Y-47790342D01*
X85779478Y-47577768D01*
X85746224Y-47367812D01*
X85680535Y-47165643D01*
X85584029Y-46976239D01*
X85584027Y-46976236D01*
X85584026Y-46976234D01*
X85459087Y-46804268D01*
X85308764Y-46653945D01*
X85136795Y-46529004D01*
X85127482Y-46524259D01*
X85076685Y-46476285D01*
X85059890Y-46408464D01*
X85082427Y-46342329D01*
X85127485Y-46303287D01*
X85136533Y-46298677D01*
X85190694Y-46259325D01*
X85190695Y-46259325D01*
X84558386Y-45627017D01*
X84621971Y-45609980D01*
X84735985Y-45544154D01*
X84829077Y-45451062D01*
X84894903Y-45337048D01*
X84911940Y-45273463D01*
X85544248Y-45905772D01*
X85544248Y-45905771D01*
X85583600Y-45851609D01*
X85680073Y-45662272D01*
X85745735Y-45460185D01*
X85745735Y-45460182D01*
X85778978Y-45250301D01*
X85778978Y-45037808D01*
X85745735Y-44827927D01*
X85745735Y-44827924D01*
X85680073Y-44625837D01*
X85583602Y-44436504D01*
X85544248Y-44382337D01*
X85544247Y-44382337D01*
X84911940Y-45014645D01*
X84894903Y-44951062D01*
X84829077Y-44837048D01*
X84735985Y-44743956D01*
X84621971Y-44678130D01*
X84558387Y-44661092D01*
X85228605Y-43990873D01*
X85289928Y-43957388D01*
X85316285Y-43954554D01*
X85326850Y-43954554D01*
X85386461Y-43948146D01*
X85521309Y-43897851D01*
X85636524Y-43811601D01*
X85722774Y-43696386D01*
X85773069Y-43561538D01*
X85779478Y-43501928D01*
X85779477Y-41709814D01*
X86726611Y-41709814D01*
X86726611Y-43505549D01*
X86726612Y-43505555D01*
X86733019Y-43565162D01*
X86783313Y-43700007D01*
X86783317Y-43700014D01*
X86869563Y-43815223D01*
X86869566Y-43815226D01*
X86984775Y-43901472D01*
X86984782Y-43901476D01*
X87014433Y-43912535D01*
X87119628Y-43951770D01*
X87179238Y-43958179D01*
X87189796Y-43958178D01*
X87256834Y-43977858D01*
X87277483Y-43994497D01*
X87947702Y-44664716D01*
X87884118Y-44681754D01*
X87770104Y-44747580D01*
X87677012Y-44840672D01*
X87611186Y-44954686D01*
X87594148Y-45018270D01*
X86961839Y-44385961D01*
X86961838Y-44385961D01*
X86922491Y-44440118D01*
X86826015Y-44629461D01*
X86760353Y-44831548D01*
X86760353Y-44831551D01*
X86727111Y-45041432D01*
X86727111Y-45253925D01*
X86760353Y-45463806D01*
X86760353Y-45463809D01*
X86826015Y-45665896D01*
X86922486Y-45855229D01*
X86961839Y-45909395D01*
X87594148Y-45277087D01*
X87611186Y-45340672D01*
X87677012Y-45454686D01*
X87770104Y-45547778D01*
X87884118Y-45613604D01*
X87947701Y-45630641D01*
X87315393Y-46262948D01*
X87315393Y-46262949D01*
X87369563Y-46302305D01*
X87369562Y-46302305D01*
X87378606Y-46306913D01*
X87429403Y-46354887D01*
X87446198Y-46422708D01*
X87423661Y-46488843D01*
X87378610Y-46527881D01*
X87369293Y-46532628D01*
X87197324Y-46657569D01*
X87047001Y-46807892D01*
X86922062Y-46979858D01*
X86825555Y-47169264D01*
X86759864Y-47371439D01*
X86726611Y-47581392D01*
X86726611Y-47793965D01*
X86759077Y-47998952D01*
X86759865Y-48003922D01*
X86824376Y-48202467D01*
X86825555Y-48206093D01*
X86922062Y-48395499D01*
X87047001Y-48567465D01*
X87197324Y-48717788D01*
X87369290Y-48842727D01*
X87369292Y-48842728D01*
X87369295Y-48842730D01*
X87558699Y-48939236D01*
X87760868Y-49004925D01*
X87970824Y-49038179D01*
X87970825Y-49038179D01*
X88183397Y-49038179D01*
X88183398Y-49038179D01*
X88393354Y-49004925D01*
X88595523Y-48939236D01*
X88784927Y-48842730D01*
X88806900Y-48826765D01*
X88956897Y-48717788D01*
X88956899Y-48717785D01*
X88956903Y-48717783D01*
X89107215Y-48567471D01*
X89107217Y-48567467D01*
X89107220Y-48567465D01*
X89232159Y-48395499D01*
X89232158Y-48395499D01*
X89232162Y-48395495D01*
X89328668Y-48206091D01*
X89394357Y-48003922D01*
X89427611Y-47793966D01*
X89427611Y-47581392D01*
X89394357Y-47371436D01*
X89328668Y-47169267D01*
X89232162Y-46979863D01*
X89232160Y-46979860D01*
X89232159Y-46979858D01*
X89107220Y-46807892D01*
X88956897Y-46657569D01*
X88784928Y-46532628D01*
X88775615Y-46527883D01*
X88724818Y-46479909D01*
X88708023Y-46412088D01*
X88730560Y-46345953D01*
X88775618Y-46306911D01*
X88784666Y-46302301D01*
X88838827Y-46262949D01*
X88838828Y-46262949D01*
X88206519Y-45630641D01*
X88270104Y-45613604D01*
X88384118Y-45547778D01*
X88477210Y-45454686D01*
X88543036Y-45340672D01*
X88560073Y-45277087D01*
X89192381Y-45909396D01*
X89192381Y-45909395D01*
X89231733Y-45855233D01*
X89328206Y-45665896D01*
X89393868Y-45463809D01*
X89393868Y-45463806D01*
X89427111Y-45253925D01*
X89427111Y-45041432D01*
X89393868Y-44831551D01*
X89393868Y-44831548D01*
X89328206Y-44629461D01*
X89231735Y-44440128D01*
X89192381Y-44385961D01*
X89192380Y-44385961D01*
X88560073Y-45018269D01*
X88543036Y-44954686D01*
X88477210Y-44840672D01*
X88384118Y-44747580D01*
X88270104Y-44681754D01*
X88206520Y-44664716D01*
X88876738Y-43994497D01*
X88938061Y-43961012D01*
X88964418Y-43958178D01*
X88974983Y-43958178D01*
X89034594Y-43951770D01*
X89169442Y-43901475D01*
X89284657Y-43815225D01*
X89370907Y-43700010D01*
X89421202Y-43565162D01*
X89427611Y-43505552D01*
X89427610Y-41720877D01*
X90364456Y-41720877D01*
X90364456Y-43516612D01*
X90364457Y-43516618D01*
X90370864Y-43576225D01*
X90421158Y-43711070D01*
X90421162Y-43711077D01*
X90507408Y-43826286D01*
X90507411Y-43826289D01*
X90622620Y-43912535D01*
X90622627Y-43912539D01*
X90638374Y-43918412D01*
X90757473Y-43962833D01*
X90817083Y-43969242D01*
X90827641Y-43969241D01*
X90894679Y-43988921D01*
X90915328Y-44005560D01*
X91585547Y-44675779D01*
X91521963Y-44692817D01*
X91407949Y-44758643D01*
X91314857Y-44851735D01*
X91249031Y-44965749D01*
X91231993Y-45029333D01*
X90599684Y-44397024D01*
X90599683Y-44397024D01*
X90560336Y-44451181D01*
X90463860Y-44640524D01*
X90398198Y-44842611D01*
X90398198Y-44842614D01*
X90364956Y-45052495D01*
X90364956Y-45264988D01*
X90398198Y-45474869D01*
X90398198Y-45474872D01*
X90463860Y-45676959D01*
X90560331Y-45866292D01*
X90599684Y-45920458D01*
X91231993Y-45288150D01*
X91249031Y-45351735D01*
X91314857Y-45465749D01*
X91407949Y-45558841D01*
X91521963Y-45624667D01*
X91585546Y-45641704D01*
X90953238Y-46274011D01*
X90953238Y-46274012D01*
X91007408Y-46313368D01*
X91007407Y-46313368D01*
X91016451Y-46317976D01*
X91067248Y-46365950D01*
X91084043Y-46433771D01*
X91061506Y-46499906D01*
X91016455Y-46538944D01*
X91007138Y-46543691D01*
X90835169Y-46668632D01*
X90684846Y-46818955D01*
X90559907Y-46990921D01*
X90463400Y-47180327D01*
X90397709Y-47382502D01*
X90364456Y-47592455D01*
X90364456Y-47805028D01*
X90396587Y-48007900D01*
X90397710Y-48014985D01*
X90461098Y-48210073D01*
X90463400Y-48217156D01*
X90559907Y-48406562D01*
X90684846Y-48578528D01*
X90835169Y-48728851D01*
X91007135Y-48853790D01*
X91007137Y-48853791D01*
X91007140Y-48853793D01*
X91196544Y-48950299D01*
X91398713Y-49015988D01*
X91608669Y-49049242D01*
X91608670Y-49049242D01*
X91821242Y-49049242D01*
X91821243Y-49049242D01*
X92031199Y-49015988D01*
X92233368Y-48950299D01*
X92422772Y-48853793D01*
X92450926Y-48833338D01*
X92594742Y-48728851D01*
X92594744Y-48728848D01*
X92594748Y-48728846D01*
X92745060Y-48578534D01*
X92745062Y-48578530D01*
X92745065Y-48578528D01*
X92870004Y-48406562D01*
X92870003Y-48406562D01*
X92870007Y-48406558D01*
X92966513Y-48217154D01*
X93032202Y-48014985D01*
X93065456Y-47805029D01*
X93065456Y-47592455D01*
X93032202Y-47382499D01*
X92966513Y-47180330D01*
X92870007Y-46990926D01*
X92870005Y-46990923D01*
X92870004Y-46990921D01*
X92745065Y-46818955D01*
X92594742Y-46668632D01*
X92422773Y-46543691D01*
X92413460Y-46538946D01*
X92362663Y-46490972D01*
X92345868Y-46423151D01*
X92368405Y-46357016D01*
X92413463Y-46317974D01*
X92422511Y-46313364D01*
X92476672Y-46274012D01*
X92476673Y-46274012D01*
X91844364Y-45641704D01*
X91907949Y-45624667D01*
X92021963Y-45558841D01*
X92115055Y-45465749D01*
X92180881Y-45351735D01*
X92197918Y-45288150D01*
X92830226Y-45920459D01*
X92830226Y-45920458D01*
X92869578Y-45866296D01*
X92966051Y-45676959D01*
X93031713Y-45474872D01*
X93031713Y-45474869D01*
X93064956Y-45264988D01*
X93064956Y-45052503D01*
X93064954Y-45052488D01*
X93031713Y-44842614D01*
X93031713Y-44842611D01*
X92966051Y-44640524D01*
X92869580Y-44451191D01*
X92830226Y-44397024D01*
X92830225Y-44397024D01*
X92197918Y-45029332D01*
X92180881Y-44965749D01*
X92115055Y-44851735D01*
X92021963Y-44758643D01*
X91907949Y-44692817D01*
X91844365Y-44675779D01*
X92514583Y-44005560D01*
X92575906Y-43972075D01*
X92602263Y-43969241D01*
X92612828Y-43969241D01*
X92672439Y-43962833D01*
X92807287Y-43912538D01*
X92922502Y-43826288D01*
X93008752Y-43711073D01*
X93059047Y-43576225D01*
X93065456Y-43516615D01*
X93065455Y-41720870D01*
X93064694Y-41713796D01*
X94004802Y-41713796D01*
X94004802Y-43509531D01*
X94004803Y-43509537D01*
X94011210Y-43569144D01*
X94061504Y-43703989D01*
X94061508Y-43703996D01*
X94147754Y-43819205D01*
X94147757Y-43819208D01*
X94262966Y-43905454D01*
X94262973Y-43905458D01*
X94307920Y-43922222D01*
X94397819Y-43955752D01*
X94457429Y-43962161D01*
X94467987Y-43962160D01*
X94535025Y-43981840D01*
X94555674Y-43998479D01*
X95225893Y-44668698D01*
X95162309Y-44685736D01*
X95048295Y-44751562D01*
X94955203Y-44844654D01*
X94889377Y-44958668D01*
X94872339Y-45022252D01*
X94240030Y-44389943D01*
X94240029Y-44389943D01*
X94200682Y-44444100D01*
X94104206Y-44633443D01*
X94038544Y-44835530D01*
X94038544Y-44835533D01*
X94005302Y-45045414D01*
X94005302Y-45257907D01*
X94038544Y-45467788D01*
X94038544Y-45467791D01*
X94104206Y-45669878D01*
X94200677Y-45859211D01*
X94240030Y-45913377D01*
X94872339Y-45281069D01*
X94889377Y-45344654D01*
X94955203Y-45458668D01*
X95048295Y-45551760D01*
X95162309Y-45617586D01*
X95225892Y-45634623D01*
X94593584Y-46266930D01*
X94593584Y-46266931D01*
X94647754Y-46306287D01*
X94647753Y-46306287D01*
X94656797Y-46310895D01*
X94707594Y-46358869D01*
X94724389Y-46426690D01*
X94701852Y-46492825D01*
X94656801Y-46531863D01*
X94647484Y-46536610D01*
X94475515Y-46661551D01*
X94325192Y-46811874D01*
X94200253Y-46983840D01*
X94103746Y-47173246D01*
X94038055Y-47375421D01*
X94006539Y-47574407D01*
X94004802Y-47585374D01*
X94004802Y-47797948D01*
X94005924Y-47805029D01*
X94037424Y-48003918D01*
X94038056Y-48007904D01*
X94102451Y-48206091D01*
X94103746Y-48210075D01*
X94200253Y-48399481D01*
X94325192Y-48571447D01*
X94475515Y-48721770D01*
X94647481Y-48846709D01*
X94647483Y-48846710D01*
X94647486Y-48846712D01*
X94836890Y-48943218D01*
X95039059Y-49008907D01*
X95249015Y-49042161D01*
X95249016Y-49042161D01*
X95461588Y-49042161D01*
X95461589Y-49042161D01*
X95671545Y-49008907D01*
X95873714Y-48943218D01*
X96063118Y-48846712D01*
X96085091Y-48830747D01*
X96235088Y-48721770D01*
X96235090Y-48721767D01*
X96235094Y-48721765D01*
X96385406Y-48571453D01*
X96385408Y-48571449D01*
X96385411Y-48571447D01*
X96510350Y-48399481D01*
X96510349Y-48399481D01*
X96510353Y-48399477D01*
X96606859Y-48210073D01*
X96672548Y-48007904D01*
X96705802Y-47797948D01*
X96705802Y-47585374D01*
X96672548Y-47375418D01*
X96606859Y-47173249D01*
X96510353Y-46983845D01*
X96510351Y-46983842D01*
X96510350Y-46983840D01*
X96385411Y-46811874D01*
X96235088Y-46661551D01*
X96063119Y-46536610D01*
X96053806Y-46531865D01*
X96003009Y-46483891D01*
X95986214Y-46416070D01*
X96008751Y-46349935D01*
X96053809Y-46310893D01*
X96062857Y-46306283D01*
X96117018Y-46266931D01*
X96117019Y-46266931D01*
X95484710Y-45634623D01*
X95548295Y-45617586D01*
X95662309Y-45551760D01*
X95755401Y-45458668D01*
X95821227Y-45344654D01*
X95838264Y-45281069D01*
X96470572Y-45913378D01*
X96470572Y-45913377D01*
X96509924Y-45859215D01*
X96606397Y-45669878D01*
X96672059Y-45467791D01*
X96672059Y-45467788D01*
X96705302Y-45257907D01*
X96705302Y-45045414D01*
X96672059Y-44835533D01*
X96672059Y-44835530D01*
X96606397Y-44633443D01*
X96509926Y-44444110D01*
X96470572Y-44389943D01*
X96470571Y-44389943D01*
X95838264Y-45022251D01*
X95821227Y-44958668D01*
X95755401Y-44844654D01*
X95662309Y-44751562D01*
X95548295Y-44685736D01*
X95484711Y-44668698D01*
X96154929Y-43998479D01*
X96216252Y-43964994D01*
X96242609Y-43962160D01*
X96253174Y-43962160D01*
X96312785Y-43955752D01*
X96447633Y-43905457D01*
X96562848Y-43819207D01*
X96649098Y-43703992D01*
X96699393Y-43569144D01*
X96705802Y-43509534D01*
X96705801Y-41713789D01*
X96704839Y-41704844D01*
X97652641Y-41704844D01*
X97652641Y-43500579D01*
X97652642Y-43500585D01*
X97659049Y-43560192D01*
X97709343Y-43695037D01*
X97709347Y-43695044D01*
X97795593Y-43810253D01*
X97795596Y-43810256D01*
X97910805Y-43896502D01*
X97910812Y-43896506D01*
X97934814Y-43905458D01*
X98045658Y-43946800D01*
X98105268Y-43953209D01*
X98115826Y-43953208D01*
X98182864Y-43972888D01*
X98203513Y-43989527D01*
X98873732Y-44659746D01*
X98810148Y-44676784D01*
X98696134Y-44742610D01*
X98603042Y-44835702D01*
X98537216Y-44949716D01*
X98520178Y-45013300D01*
X97887869Y-44380991D01*
X97887868Y-44380991D01*
X97848521Y-44435148D01*
X97752045Y-44624491D01*
X97686383Y-44826578D01*
X97686383Y-44826581D01*
X97653141Y-45036462D01*
X97653141Y-45248955D01*
X97686383Y-45458836D01*
X97686383Y-45458839D01*
X97752045Y-45660926D01*
X97848516Y-45850259D01*
X97887869Y-45904425D01*
X98520178Y-45272117D01*
X98537216Y-45335702D01*
X98603042Y-45449716D01*
X98696134Y-45542808D01*
X98810148Y-45608634D01*
X98873731Y-45625671D01*
X98241423Y-46257978D01*
X98241423Y-46257979D01*
X98295593Y-46297335D01*
X98295592Y-46297335D01*
X98304636Y-46301943D01*
X98355433Y-46349917D01*
X98372228Y-46417738D01*
X98349691Y-46483873D01*
X98304640Y-46522911D01*
X98295323Y-46527658D01*
X98123354Y-46652599D01*
X97973031Y-46802922D01*
X97848092Y-46974888D01*
X97751585Y-47164294D01*
X97685894Y-47366469D01*
X97683355Y-47382502D01*
X97652641Y-47576422D01*
X97652641Y-47788996D01*
X97662675Y-47852353D01*
X97685575Y-47996937D01*
X97685895Y-47998952D01*
X97750929Y-48199106D01*
X97751585Y-48201123D01*
X97848092Y-48390529D01*
X97973031Y-48562495D01*
X98123354Y-48712818D01*
X98295320Y-48837757D01*
X98295322Y-48837758D01*
X98295325Y-48837760D01*
X98484729Y-48934266D01*
X98686898Y-48999955D01*
X98896854Y-49033209D01*
X98896855Y-49033209D01*
X99109427Y-49033209D01*
X99109428Y-49033209D01*
X99319384Y-48999955D01*
X99521553Y-48934266D01*
X99710957Y-48837760D01*
X99732930Y-48821795D01*
X99882927Y-48712818D01*
X99882929Y-48712815D01*
X99882933Y-48712813D01*
X100033245Y-48562501D01*
X100033247Y-48562497D01*
X100033250Y-48562495D01*
X100142227Y-48412498D01*
X100158192Y-48390525D01*
X100254698Y-48201121D01*
X100320387Y-47998952D01*
X100353641Y-47788996D01*
X100353641Y-47576422D01*
X100320387Y-47366466D01*
X100254698Y-47164297D01*
X100158192Y-46974893D01*
X100158190Y-46974890D01*
X100158189Y-46974888D01*
X100033250Y-46802922D01*
X99882927Y-46652599D01*
X99710958Y-46527658D01*
X99701645Y-46522913D01*
X99650848Y-46474939D01*
X99634053Y-46407118D01*
X99656590Y-46340983D01*
X99701648Y-46301941D01*
X99710696Y-46297331D01*
X99764857Y-46257979D01*
X99764858Y-46257979D01*
X99132549Y-45625671D01*
X99196134Y-45608634D01*
X99310148Y-45542808D01*
X99403240Y-45449716D01*
X99469066Y-45335702D01*
X99486103Y-45272118D01*
X100118411Y-45904426D01*
X100118411Y-45904425D01*
X100157763Y-45850263D01*
X100254236Y-45660926D01*
X100319898Y-45458839D01*
X100319898Y-45458836D01*
X100353141Y-45248955D01*
X100353141Y-45036464D01*
X100353140Y-45036461D01*
X100319898Y-44826581D01*
X100319898Y-44826578D01*
X100254236Y-44624491D01*
X100157765Y-44435158D01*
X100118411Y-44380991D01*
X100118410Y-44380991D01*
X99486103Y-45013299D01*
X99469066Y-44949716D01*
X99403240Y-44835702D01*
X99310148Y-44742610D01*
X99196134Y-44676784D01*
X99132550Y-44659746D01*
X99802768Y-43989527D01*
X99864091Y-43956042D01*
X99890448Y-43953208D01*
X99901013Y-43953208D01*
X99960624Y-43946800D01*
X100095472Y-43896505D01*
X100210687Y-43810255D01*
X100296937Y-43695040D01*
X100347232Y-43560192D01*
X100353641Y-43500582D01*
X100353640Y-41704837D01*
X100353349Y-41702135D01*
X101309500Y-41702135D01*
X101309500Y-43497870D01*
X101309501Y-43497876D01*
X101315908Y-43557483D01*
X101366202Y-43692328D01*
X101366206Y-43692335D01*
X101452452Y-43807544D01*
X101452455Y-43807547D01*
X101567664Y-43893793D01*
X101567671Y-43893797D01*
X101588249Y-43901472D01*
X101702517Y-43944091D01*
X101762127Y-43950500D01*
X101772685Y-43950499D01*
X101839723Y-43970179D01*
X101860372Y-43986818D01*
X102530591Y-44657037D01*
X102467007Y-44674075D01*
X102352993Y-44739901D01*
X102259901Y-44832993D01*
X102194075Y-44947007D01*
X102177037Y-45010591D01*
X101544728Y-44378282D01*
X101544727Y-44378282D01*
X101505380Y-44432439D01*
X101408904Y-44621782D01*
X101343242Y-44823869D01*
X101343242Y-44823872D01*
X101310000Y-45033753D01*
X101310000Y-45246246D01*
X101343242Y-45456127D01*
X101343242Y-45456130D01*
X101408904Y-45658217D01*
X101505375Y-45847550D01*
X101544728Y-45901716D01*
X102177037Y-45269408D01*
X102194075Y-45332993D01*
X102259901Y-45447007D01*
X102352993Y-45540099D01*
X102467007Y-45605925D01*
X102530590Y-45622962D01*
X101898282Y-46255269D01*
X101898282Y-46255270D01*
X101952452Y-46294626D01*
X101952451Y-46294626D01*
X101961495Y-46299234D01*
X102012292Y-46347208D01*
X102029087Y-46415029D01*
X102006550Y-46481164D01*
X101961499Y-46520202D01*
X101952182Y-46524949D01*
X101780213Y-46649890D01*
X101629890Y-46800213D01*
X101504951Y-46972179D01*
X101408444Y-47161585D01*
X101408443Y-47161587D01*
X101408443Y-47161588D01*
X101408218Y-47162282D01*
X101342753Y-47363760D01*
X101339785Y-47382502D01*
X101309500Y-47573713D01*
X101309500Y-47786287D01*
X101319534Y-47849644D01*
X101342482Y-47994529D01*
X101342754Y-47996243D01*
X101407887Y-48196702D01*
X101408444Y-48198414D01*
X101504951Y-48387820D01*
X101629890Y-48559786D01*
X101780213Y-48710109D01*
X101952179Y-48835048D01*
X101952181Y-48835049D01*
X101952184Y-48835051D01*
X102141588Y-48931557D01*
X102343757Y-48997246D01*
X102553713Y-49030500D01*
X102553714Y-49030500D01*
X102766286Y-49030500D01*
X102766287Y-49030500D01*
X102976243Y-48997246D01*
X103178412Y-48931557D01*
X103367816Y-48835051D01*
X103389789Y-48819086D01*
X103539786Y-48710109D01*
X103539788Y-48710106D01*
X103539792Y-48710104D01*
X103690104Y-48559792D01*
X103690106Y-48559788D01*
X103690109Y-48559786D01*
X103815048Y-48387820D01*
X103815047Y-48387820D01*
X103815051Y-48387816D01*
X103911557Y-48198412D01*
X103977246Y-47996243D01*
X104010500Y-47786287D01*
X104010500Y-47573713D01*
X103977246Y-47363757D01*
X103911557Y-47161588D01*
X103815051Y-46972184D01*
X103815049Y-46972181D01*
X103815048Y-46972179D01*
X103690109Y-46800213D01*
X103539786Y-46649890D01*
X103367817Y-46524949D01*
X103358504Y-46520204D01*
X103307707Y-46472230D01*
X103290912Y-46404409D01*
X103313449Y-46338274D01*
X103358507Y-46299232D01*
X103367555Y-46294622D01*
X103421716Y-46255270D01*
X103421717Y-46255270D01*
X102789408Y-45622962D01*
X102852993Y-45605925D01*
X102967007Y-45540099D01*
X103060099Y-45447007D01*
X103125925Y-45332993D01*
X103142962Y-45269409D01*
X103775270Y-45901717D01*
X103775270Y-45901716D01*
X103814622Y-45847554D01*
X103911095Y-45658217D01*
X103976757Y-45456130D01*
X103976757Y-45456127D01*
X104010000Y-45246246D01*
X104010000Y-45033762D01*
X104009998Y-45033745D01*
X103976757Y-44823872D01*
X103976757Y-44823869D01*
X103911095Y-44621782D01*
X103814624Y-44432449D01*
X103775270Y-44378282D01*
X103775269Y-44378282D01*
X103142962Y-45010590D01*
X103125925Y-44947007D01*
X103060099Y-44832993D01*
X102967007Y-44739901D01*
X102852993Y-44674075D01*
X102789409Y-44657037D01*
X103459627Y-43986818D01*
X103520950Y-43953333D01*
X103547307Y-43950499D01*
X103557872Y-43950499D01*
X103617483Y-43944091D01*
X103752331Y-43893796D01*
X103867546Y-43807546D01*
X103953796Y-43692331D01*
X104004091Y-43557483D01*
X104010500Y-43497873D01*
X104010499Y-41702128D01*
X104010316Y-41700425D01*
X104967630Y-41700425D01*
X104967630Y-43496160D01*
X104967631Y-43496166D01*
X104974038Y-43555773D01*
X105024332Y-43690618D01*
X105024336Y-43690625D01*
X105110582Y-43805834D01*
X105110585Y-43805837D01*
X105225794Y-43892083D01*
X105225801Y-43892087D01*
X105261651Y-43905458D01*
X105360647Y-43942381D01*
X105420257Y-43948790D01*
X105430815Y-43948789D01*
X105497853Y-43968469D01*
X105518502Y-43985108D01*
X106188721Y-44655327D01*
X106125137Y-44672365D01*
X106011123Y-44738191D01*
X105918031Y-44831283D01*
X105852205Y-44945297D01*
X105835167Y-45008881D01*
X105202858Y-44376572D01*
X105202857Y-44376572D01*
X105163510Y-44430729D01*
X105067034Y-44620072D01*
X105001372Y-44822159D01*
X105001372Y-44822162D01*
X104968130Y-45032043D01*
X104968130Y-45244536D01*
X105001372Y-45454417D01*
X105001372Y-45454420D01*
X105067034Y-45656507D01*
X105163505Y-45845840D01*
X105202858Y-45900006D01*
X105835167Y-45267698D01*
X105852205Y-45331283D01*
X105918031Y-45445297D01*
X106011123Y-45538389D01*
X106125137Y-45604215D01*
X106188720Y-45621252D01*
X105556412Y-46253559D01*
X105556412Y-46253560D01*
X105610582Y-46292916D01*
X105610581Y-46292916D01*
X105619625Y-46297524D01*
X105670422Y-46345498D01*
X105687217Y-46413319D01*
X105664680Y-46479454D01*
X105619629Y-46518492D01*
X105610312Y-46523239D01*
X105438343Y-46648180D01*
X105288020Y-46798503D01*
X105163081Y-46970469D01*
X105066574Y-47159875D01*
X105066573Y-47159877D01*
X105066573Y-47159878D01*
X105059929Y-47180327D01*
X105000883Y-47362050D01*
X104997644Y-47382502D01*
X104967630Y-47572003D01*
X104967630Y-47784577D01*
X105000884Y-47994533D01*
X105007529Y-48014985D01*
X105066574Y-48196704D01*
X105163081Y-48386110D01*
X105288020Y-48558076D01*
X105438343Y-48708399D01*
X105610309Y-48833338D01*
X105610311Y-48833339D01*
X105610314Y-48833341D01*
X105799718Y-48929847D01*
X106001887Y-48995536D01*
X106211843Y-49028790D01*
X106211844Y-49028790D01*
X106424416Y-49028790D01*
X106424417Y-49028790D01*
X106634373Y-48995536D01*
X106836542Y-48929847D01*
X107025946Y-48833341D01*
X107047919Y-48817376D01*
X107197916Y-48708399D01*
X107197918Y-48708396D01*
X107197922Y-48708394D01*
X107348234Y-48558082D01*
X107348236Y-48558078D01*
X107348239Y-48558076D01*
X107466357Y-48395499D01*
X107473181Y-48386106D01*
X107569687Y-48196702D01*
X107635376Y-47994533D01*
X107668630Y-47784577D01*
X107668630Y-47572003D01*
X107635376Y-47362047D01*
X107569687Y-47159878D01*
X107473181Y-46970474D01*
X107473179Y-46970471D01*
X107473178Y-46970469D01*
X107348239Y-46798503D01*
X107197916Y-46648180D01*
X107025947Y-46523239D01*
X107016634Y-46518494D01*
X106965837Y-46470520D01*
X106949042Y-46402699D01*
X106971579Y-46336564D01*
X107016637Y-46297522D01*
X107025685Y-46292912D01*
X107079846Y-46253560D01*
X107079847Y-46253560D01*
X106447538Y-45621252D01*
X106511123Y-45604215D01*
X106625137Y-45538389D01*
X106718229Y-45445297D01*
X106784055Y-45331283D01*
X106801092Y-45267698D01*
X107433400Y-45900007D01*
X107433400Y-45900006D01*
X107472752Y-45845844D01*
X107569225Y-45656507D01*
X107634887Y-45454420D01*
X107634887Y-45454417D01*
X107668130Y-45244536D01*
X107668130Y-45032043D01*
X107634887Y-44822162D01*
X107634887Y-44822159D01*
X107569225Y-44620072D01*
X107472754Y-44430739D01*
X107433400Y-44376572D01*
X107433399Y-44376572D01*
X106801092Y-45008880D01*
X106784055Y-44945297D01*
X106718229Y-44831283D01*
X106625137Y-44738191D01*
X106511123Y-44672365D01*
X106447539Y-44655327D01*
X107117757Y-43985108D01*
X107179080Y-43951623D01*
X107205437Y-43948789D01*
X107216002Y-43948789D01*
X107275613Y-43942381D01*
X107410461Y-43892086D01*
X107525676Y-43805836D01*
X107611926Y-43690621D01*
X107662221Y-43555773D01*
X107668630Y-43496163D01*
X107668629Y-41700425D01*
X108607630Y-41700425D01*
X108607630Y-43496160D01*
X108607631Y-43496166D01*
X108614038Y-43555773D01*
X108664332Y-43690618D01*
X108664336Y-43690625D01*
X108750582Y-43805834D01*
X108750585Y-43805837D01*
X108865794Y-43892083D01*
X108865801Y-43892087D01*
X108901651Y-43905458D01*
X109000647Y-43942381D01*
X109060257Y-43948790D01*
X109070815Y-43948789D01*
X109137853Y-43968469D01*
X109158502Y-43985108D01*
X109828721Y-44655327D01*
X109765137Y-44672365D01*
X109651123Y-44738191D01*
X109558031Y-44831283D01*
X109492205Y-44945297D01*
X109475167Y-45008881D01*
X108842858Y-44376572D01*
X108842857Y-44376572D01*
X108803510Y-44430729D01*
X108707034Y-44620072D01*
X108641372Y-44822159D01*
X108641372Y-44822162D01*
X108608130Y-45032043D01*
X108608130Y-45244536D01*
X108641372Y-45454417D01*
X108641372Y-45454420D01*
X108707034Y-45656507D01*
X108803505Y-45845840D01*
X108842858Y-45900006D01*
X109475167Y-45267698D01*
X109492205Y-45331283D01*
X109558031Y-45445297D01*
X109651123Y-45538389D01*
X109765137Y-45604215D01*
X109828720Y-45621252D01*
X109196412Y-46253559D01*
X109196412Y-46253560D01*
X109250582Y-46292916D01*
X109250581Y-46292916D01*
X109259625Y-46297524D01*
X109310422Y-46345498D01*
X109327217Y-46413319D01*
X109304680Y-46479454D01*
X109259629Y-46518492D01*
X109250312Y-46523239D01*
X109078343Y-46648180D01*
X108928020Y-46798503D01*
X108803081Y-46970469D01*
X108706574Y-47159875D01*
X108706573Y-47159877D01*
X108706573Y-47159878D01*
X108699929Y-47180327D01*
X108640883Y-47362050D01*
X108637644Y-47382502D01*
X108607630Y-47572003D01*
X108607630Y-47784577D01*
X108640884Y-47994533D01*
X108647529Y-48014985D01*
X108706574Y-48196704D01*
X108803081Y-48386110D01*
X108928020Y-48558076D01*
X109078343Y-48708399D01*
X109250309Y-48833338D01*
X109250311Y-48833339D01*
X109250314Y-48833341D01*
X109439718Y-48929847D01*
X109641887Y-48995536D01*
X109851843Y-49028790D01*
X109851844Y-49028790D01*
X110064416Y-49028790D01*
X110064417Y-49028790D01*
X110274373Y-48995536D01*
X110476542Y-48929847D01*
X110665946Y-48833341D01*
X110687919Y-48817376D01*
X110837916Y-48708399D01*
X110837918Y-48708396D01*
X110837922Y-48708394D01*
X110988234Y-48558082D01*
X110988236Y-48558078D01*
X110988239Y-48558076D01*
X111106357Y-48395499D01*
X111113181Y-48386106D01*
X111209687Y-48196702D01*
X111275376Y-47994533D01*
X111308630Y-47784577D01*
X111308630Y-47572003D01*
X111275376Y-47362047D01*
X111209687Y-47159878D01*
X111113181Y-46970474D01*
X111113179Y-46970471D01*
X111113178Y-46970469D01*
X110988239Y-46798503D01*
X110837916Y-46648180D01*
X110665947Y-46523239D01*
X110656634Y-46518494D01*
X110605837Y-46470520D01*
X110589042Y-46402699D01*
X110611579Y-46336564D01*
X110656637Y-46297522D01*
X110665685Y-46292912D01*
X110719846Y-46253560D01*
X110719847Y-46253560D01*
X110087538Y-45621252D01*
X110151123Y-45604215D01*
X110265137Y-45538389D01*
X110358229Y-45445297D01*
X110424055Y-45331283D01*
X110441092Y-45267698D01*
X111073400Y-45900007D01*
X111073400Y-45900006D01*
X111112752Y-45845844D01*
X111209225Y-45656507D01*
X111274887Y-45454420D01*
X111274887Y-45454417D01*
X111308130Y-45244536D01*
X111308130Y-45032043D01*
X111274887Y-44822162D01*
X111274887Y-44822159D01*
X111209225Y-44620072D01*
X111112754Y-44430739D01*
X111073400Y-44376572D01*
X111073399Y-44376572D01*
X110441092Y-45008880D01*
X110424055Y-44945297D01*
X110358229Y-44831283D01*
X110265137Y-44738191D01*
X110151123Y-44672365D01*
X110087539Y-44655327D01*
X110757757Y-43985108D01*
X110819080Y-43951623D01*
X110845437Y-43948789D01*
X110856002Y-43948789D01*
X110915613Y-43942381D01*
X111050461Y-43892086D01*
X111165676Y-43805836D01*
X111251926Y-43690621D01*
X111302221Y-43555773D01*
X111308630Y-43496163D01*
X111308629Y-41702829D01*
X112241465Y-41702829D01*
X112241465Y-43498564D01*
X112241466Y-43498570D01*
X112247873Y-43558177D01*
X112298167Y-43693022D01*
X112298171Y-43693029D01*
X112384417Y-43808238D01*
X112384420Y-43808241D01*
X112499629Y-43894487D01*
X112499636Y-43894491D01*
X112518364Y-43901476D01*
X112634482Y-43944785D01*
X112694092Y-43951194D01*
X112704650Y-43951193D01*
X112771688Y-43970873D01*
X112792337Y-43987512D01*
X113462556Y-44657731D01*
X113398972Y-44674769D01*
X113284958Y-44740595D01*
X113191866Y-44833687D01*
X113126040Y-44947701D01*
X113109002Y-45011285D01*
X112476693Y-44378976D01*
X112476692Y-44378976D01*
X112437345Y-44433133D01*
X112340869Y-44622476D01*
X112275207Y-44824563D01*
X112275207Y-44824566D01*
X112241965Y-45034447D01*
X112241965Y-45246940D01*
X112275207Y-45456821D01*
X112275207Y-45456824D01*
X112340869Y-45658911D01*
X112437340Y-45848244D01*
X112476693Y-45902410D01*
X113109002Y-45270102D01*
X113126040Y-45333687D01*
X113191866Y-45447701D01*
X113284958Y-45540793D01*
X113398972Y-45606619D01*
X113462555Y-45623656D01*
X112830247Y-46255963D01*
X112830247Y-46255964D01*
X112884417Y-46295320D01*
X112884416Y-46295320D01*
X112893460Y-46299928D01*
X112944257Y-46347902D01*
X112961052Y-46415723D01*
X112938515Y-46481858D01*
X112893464Y-46520896D01*
X112884147Y-46525643D01*
X112712178Y-46650584D01*
X112561855Y-46800907D01*
X112436916Y-46972873D01*
X112340409Y-47162279D01*
X112274718Y-47364454D01*
X112271860Y-47382499D01*
X112241465Y-47574407D01*
X112241465Y-47786981D01*
X112241997Y-47790341D01*
X112274337Y-47994529D01*
X112274719Y-47996937D01*
X112340183Y-48198414D01*
X112340409Y-48199108D01*
X112436916Y-48388514D01*
X112561855Y-48560480D01*
X112712178Y-48710803D01*
X112884144Y-48835742D01*
X112884146Y-48835743D01*
X112884149Y-48835745D01*
X113073553Y-48932251D01*
X113275722Y-48997940D01*
X113485678Y-49031194D01*
X113485679Y-49031194D01*
X113698251Y-49031194D01*
X113698252Y-49031194D01*
X113908208Y-48997940D01*
X114110377Y-48932251D01*
X114299781Y-48835745D01*
X114321754Y-48819780D01*
X114471751Y-48710803D01*
X114471753Y-48710800D01*
X114471757Y-48710798D01*
X114622069Y-48560486D01*
X114622071Y-48560482D01*
X114622074Y-48560480D01*
X114747013Y-48388514D01*
X114747012Y-48388514D01*
X114747016Y-48388510D01*
X114843522Y-48199106D01*
X114909211Y-47996937D01*
X114942465Y-47786981D01*
X114942465Y-47574407D01*
X114909211Y-47364451D01*
X114843522Y-47162282D01*
X114747016Y-46972878D01*
X114747014Y-46972875D01*
X114747013Y-46972873D01*
X114622074Y-46800907D01*
X114471751Y-46650584D01*
X114299782Y-46525643D01*
X114290469Y-46520898D01*
X114239672Y-46472924D01*
X114222877Y-46405103D01*
X114245414Y-46338968D01*
X114290472Y-46299926D01*
X114299520Y-46295316D01*
X114353681Y-46255964D01*
X114353682Y-46255964D01*
X113721373Y-45623656D01*
X113784958Y-45606619D01*
X113898972Y-45540793D01*
X113992064Y-45447701D01*
X114057890Y-45333687D01*
X114074927Y-45270102D01*
X114707235Y-45902411D01*
X114707235Y-45902410D01*
X114746587Y-45848248D01*
X114843060Y-45658911D01*
X114908722Y-45456824D01*
X114908722Y-45456821D01*
X114941965Y-45246940D01*
X114941965Y-45034447D01*
X114908722Y-44824566D01*
X114908722Y-44824563D01*
X114843060Y-44622476D01*
X114746589Y-44433143D01*
X114707235Y-44378976D01*
X114707234Y-44378976D01*
X114074927Y-45011284D01*
X114057890Y-44947701D01*
X113992064Y-44833687D01*
X113898972Y-44740595D01*
X113784958Y-44674769D01*
X113721374Y-44657731D01*
X114391592Y-43987512D01*
X114452915Y-43954027D01*
X114479272Y-43951193D01*
X114489837Y-43951193D01*
X114549448Y-43944785D01*
X114684296Y-43894490D01*
X114799511Y-43808240D01*
X114885761Y-43693025D01*
X114936056Y-43558177D01*
X114942465Y-43498567D01*
X114942464Y-41705488D01*
X115875165Y-41705488D01*
X115875165Y-41705489D01*
X115875165Y-41705496D01*
X115875165Y-43501231D01*
X115875166Y-43501237D01*
X115881573Y-43560844D01*
X115931867Y-43695689D01*
X115931871Y-43695696D01*
X116018117Y-43810905D01*
X116018120Y-43810908D01*
X116133329Y-43897154D01*
X116133336Y-43897158D01*
X116155579Y-43905454D01*
X116268182Y-43947452D01*
X116327792Y-43953861D01*
X116338350Y-43953860D01*
X116405388Y-43973540D01*
X116426037Y-43990179D01*
X117096256Y-44660398D01*
X117032672Y-44677436D01*
X116918658Y-44743262D01*
X116825566Y-44836354D01*
X116759740Y-44950368D01*
X116742702Y-45013952D01*
X116110393Y-44381643D01*
X116110392Y-44381643D01*
X116071045Y-44435800D01*
X115974569Y-44625143D01*
X115908907Y-44827230D01*
X115908907Y-44827233D01*
X115875665Y-45037114D01*
X115875665Y-45249607D01*
X115908907Y-45459488D01*
X115908907Y-45459491D01*
X115974569Y-45661578D01*
X116071040Y-45850911D01*
X116110393Y-45905077D01*
X116742702Y-45272769D01*
X116759740Y-45336354D01*
X116825566Y-45450368D01*
X116918658Y-45543460D01*
X117032672Y-45609286D01*
X117096255Y-45626323D01*
X116463947Y-46258630D01*
X116463947Y-46258631D01*
X116518117Y-46297987D01*
X116518116Y-46297987D01*
X116527160Y-46302595D01*
X116577957Y-46350569D01*
X116594752Y-46418390D01*
X116572215Y-46484525D01*
X116527164Y-46523563D01*
X116517847Y-46528310D01*
X116345878Y-46653251D01*
X116195555Y-46803574D01*
X116070616Y-46975540D01*
X115974109Y-47164946D01*
X115974108Y-47164948D01*
X115974108Y-47164949D01*
X115973883Y-47165643D01*
X115908418Y-47367121D01*
X115905982Y-47382502D01*
X115875165Y-47577074D01*
X115875165Y-47789648D01*
X115876480Y-47797948D01*
X115908315Y-47998952D01*
X115908419Y-47999604D01*
X115973896Y-48201121D01*
X115974109Y-48201775D01*
X116070616Y-48391181D01*
X116195555Y-48563147D01*
X116345878Y-48713470D01*
X116517844Y-48838409D01*
X116517846Y-48838410D01*
X116517849Y-48838412D01*
X116707253Y-48934918D01*
X116909422Y-49000607D01*
X117119378Y-49033861D01*
X117119379Y-49033861D01*
X117331951Y-49033861D01*
X117331952Y-49033861D01*
X117541908Y-49000607D01*
X117744077Y-48934918D01*
X117933481Y-48838412D01*
X117955454Y-48822447D01*
X118105451Y-48713470D01*
X118105453Y-48713467D01*
X118105457Y-48713465D01*
X118255769Y-48563153D01*
X118255771Y-48563149D01*
X118255774Y-48563147D01*
X118380713Y-48391181D01*
X118380712Y-48391181D01*
X118380716Y-48391177D01*
X118477222Y-48201773D01*
X118542911Y-47999604D01*
X118576165Y-47789648D01*
X118576165Y-47577074D01*
X118542911Y-47367118D01*
X118477222Y-47164949D01*
X118380716Y-46975545D01*
X118380714Y-46975542D01*
X118380713Y-46975540D01*
X118255774Y-46803574D01*
X118105451Y-46653251D01*
X117933482Y-46528310D01*
X117924169Y-46523565D01*
X117873372Y-46475591D01*
X117856577Y-46407770D01*
X117879114Y-46341635D01*
X117924172Y-46302593D01*
X117933220Y-46297983D01*
X117987381Y-46258631D01*
X117987382Y-46258631D01*
X117355073Y-45626323D01*
X117418658Y-45609286D01*
X117532672Y-45543460D01*
X117625764Y-45450368D01*
X117691590Y-45336354D01*
X117708627Y-45272770D01*
X118340935Y-45905078D01*
X118340935Y-45905077D01*
X118380287Y-45850915D01*
X118476760Y-45661578D01*
X118542422Y-45459491D01*
X118542422Y-45459488D01*
X118575665Y-45249607D01*
X118575665Y-45037114D01*
X118542422Y-44827233D01*
X118542422Y-44827230D01*
X118476760Y-44625143D01*
X118380289Y-44435810D01*
X118340935Y-44381643D01*
X118340934Y-44381643D01*
X117708627Y-45013951D01*
X117691590Y-44950368D01*
X117625764Y-44836354D01*
X117532672Y-44743262D01*
X117418658Y-44677436D01*
X117355074Y-44660398D01*
X118025292Y-43990179D01*
X118086615Y-43956694D01*
X118112972Y-43953860D01*
X118123537Y-43953860D01*
X118183148Y-43947452D01*
X118317996Y-43897157D01*
X118433211Y-43810907D01*
X118519461Y-43695692D01*
X118569756Y-43560844D01*
X118576165Y-43501234D01*
X118576165Y-43293713D01*
X122049500Y-43293713D01*
X122049500Y-43506287D01*
X122057338Y-43555772D01*
X122081935Y-43711077D01*
X122082754Y-43716243D01*
X122146534Y-43912538D01*
X122148444Y-43918414D01*
X122244951Y-44107820D01*
X122369890Y-44279786D01*
X122520213Y-44430109D01*
X122692179Y-44555048D01*
X122692181Y-44555049D01*
X122692184Y-44555051D01*
X122881588Y-44651557D01*
X123083757Y-44717246D01*
X123293713Y-44750500D01*
X123293714Y-44750500D01*
X123506286Y-44750500D01*
X123506287Y-44750500D01*
X123716243Y-44717246D01*
X123918412Y-44651557D01*
X124107816Y-44555051D01*
X124129789Y-44539086D01*
X124279786Y-44430109D01*
X124279788Y-44430106D01*
X124279792Y-44430104D01*
X124430104Y-44279792D01*
X124430106Y-44279788D01*
X124430109Y-44279786D01*
X124555048Y-44107820D01*
X124555047Y-44107820D01*
X124555051Y-44107816D01*
X124651557Y-43918412D01*
X124717246Y-43716243D01*
X124750500Y-43506287D01*
X124750500Y-43293713D01*
X124717246Y-43083757D01*
X124651557Y-42881588D01*
X124555051Y-42692184D01*
X124555049Y-42692181D01*
X124555048Y-42692179D01*
X124430109Y-42520213D01*
X124279786Y-42369890D01*
X124107820Y-42244951D01*
X123918414Y-42148444D01*
X123918413Y-42148443D01*
X123918412Y-42148443D01*
X123716243Y-42082754D01*
X123716241Y-42082753D01*
X123716240Y-42082753D01*
X123554957Y-42057208D01*
X123506287Y-42049500D01*
X123293713Y-42049500D01*
X123245042Y-42057208D01*
X123083760Y-42082753D01*
X122881585Y-42148444D01*
X122692179Y-42244951D01*
X122520213Y-42369890D01*
X122369890Y-42520213D01*
X122244951Y-42692179D01*
X122148444Y-42881585D01*
X122082753Y-43083760D01*
X122059903Y-43228031D01*
X122049500Y-43293713D01*
X118576165Y-43293713D01*
X118576164Y-42548422D01*
X118576164Y-41705490D01*
X118576163Y-41705484D01*
X118576094Y-41704844D01*
X118569831Y-41646572D01*
X118569756Y-41645877D01*
X118519462Y-41511032D01*
X118519458Y-41511025D01*
X118433212Y-41395816D01*
X118433209Y-41395813D01*
X118318000Y-41309567D01*
X118317993Y-41309563D01*
X118183147Y-41259269D01*
X118183148Y-41259269D01*
X118123548Y-41252862D01*
X118123546Y-41252861D01*
X118123538Y-41252861D01*
X118123529Y-41252861D01*
X116327794Y-41252861D01*
X116327788Y-41252862D01*
X116268181Y-41259269D01*
X116133336Y-41309563D01*
X116133329Y-41309567D01*
X116018120Y-41395813D01*
X116018117Y-41395816D01*
X115931871Y-41511025D01*
X115931867Y-41511032D01*
X115881573Y-41645878D01*
X115875234Y-41704844D01*
X115875165Y-41705488D01*
X114942464Y-41705488D01*
X114942464Y-41702822D01*
X114936273Y-41645226D01*
X114936056Y-41643210D01*
X114885762Y-41508365D01*
X114885758Y-41508358D01*
X114799512Y-41393149D01*
X114799509Y-41393146D01*
X114684300Y-41306900D01*
X114684293Y-41306896D01*
X114549447Y-41256602D01*
X114549448Y-41256602D01*
X114489848Y-41250195D01*
X114489846Y-41250194D01*
X114489838Y-41250194D01*
X114489829Y-41250194D01*
X112694094Y-41250194D01*
X112694088Y-41250195D01*
X112634481Y-41256602D01*
X112499636Y-41306896D01*
X112499629Y-41306900D01*
X112384420Y-41393146D01*
X112384417Y-41393149D01*
X112298171Y-41508358D01*
X112298167Y-41508365D01*
X112247873Y-41643211D01*
X112241539Y-41702135D01*
X112241466Y-41702817D01*
X112241465Y-41702829D01*
X111308629Y-41702829D01*
X111308629Y-41700418D01*
X111302696Y-41645225D01*
X111302221Y-41640806D01*
X111251927Y-41505961D01*
X111251923Y-41505954D01*
X111165677Y-41390745D01*
X111165674Y-41390742D01*
X111050465Y-41304496D01*
X111050458Y-41304492D01*
X110915612Y-41254198D01*
X110915613Y-41254198D01*
X110856013Y-41247791D01*
X110856011Y-41247790D01*
X110856003Y-41247790D01*
X110855994Y-41247790D01*
X109060259Y-41247790D01*
X109060253Y-41247791D01*
X109000646Y-41254198D01*
X108865801Y-41304492D01*
X108865794Y-41304496D01*
X108750585Y-41390742D01*
X108750582Y-41390745D01*
X108664336Y-41505954D01*
X108664332Y-41505961D01*
X108614038Y-41640807D01*
X108607631Y-41700406D01*
X108607631Y-41700413D01*
X108607630Y-41700425D01*
X107668629Y-41700425D01*
X107668629Y-41700418D01*
X107662696Y-41645225D01*
X107662221Y-41640806D01*
X107611927Y-41505961D01*
X107611923Y-41505954D01*
X107525677Y-41390745D01*
X107525674Y-41390742D01*
X107410465Y-41304496D01*
X107410458Y-41304492D01*
X107275612Y-41254198D01*
X107275613Y-41254198D01*
X107216013Y-41247791D01*
X107216011Y-41247790D01*
X107216003Y-41247790D01*
X107215994Y-41247790D01*
X105420259Y-41247790D01*
X105420253Y-41247791D01*
X105360646Y-41254198D01*
X105225801Y-41304492D01*
X105225794Y-41304496D01*
X105110585Y-41390742D01*
X105110582Y-41390745D01*
X105024336Y-41505954D01*
X105024332Y-41505961D01*
X104974038Y-41640807D01*
X104967631Y-41700406D01*
X104967631Y-41700413D01*
X104967630Y-41700425D01*
X104010316Y-41700425D01*
X104010315Y-41700420D01*
X104004091Y-41642516D01*
X103953797Y-41507671D01*
X103953793Y-41507664D01*
X103867547Y-41392455D01*
X103867544Y-41392452D01*
X103752335Y-41306206D01*
X103752328Y-41306202D01*
X103617482Y-41255908D01*
X103617483Y-41255908D01*
X103557883Y-41249501D01*
X103557881Y-41249500D01*
X103557873Y-41249500D01*
X103557864Y-41249500D01*
X101762129Y-41249500D01*
X101762123Y-41249501D01*
X101702516Y-41255908D01*
X101567671Y-41306202D01*
X101567664Y-41306206D01*
X101452455Y-41392452D01*
X101452452Y-41392455D01*
X101366206Y-41507664D01*
X101366202Y-41507671D01*
X101315908Y-41642517D01*
X101309501Y-41702116D01*
X101309500Y-41702135D01*
X100353349Y-41702135D01*
X100349171Y-41663272D01*
X100347232Y-41645225D01*
X100296938Y-41510380D01*
X100296934Y-41510373D01*
X100210688Y-41395164D01*
X100210685Y-41395161D01*
X100095476Y-41308915D01*
X100095469Y-41308911D01*
X99960623Y-41258617D01*
X99960624Y-41258617D01*
X99901024Y-41252210D01*
X99901022Y-41252209D01*
X99901014Y-41252209D01*
X99901005Y-41252209D01*
X98105270Y-41252209D01*
X98105264Y-41252210D01*
X98045657Y-41258617D01*
X97910812Y-41308911D01*
X97910805Y-41308915D01*
X97795596Y-41395161D01*
X97795593Y-41395164D01*
X97709347Y-41510373D01*
X97709343Y-41510380D01*
X97659049Y-41645226D01*
X97652642Y-41704825D01*
X97652641Y-41704844D01*
X96704839Y-41704844D01*
X96699393Y-41654178D01*
X96697907Y-41650195D01*
X96649099Y-41519332D01*
X96649095Y-41519325D01*
X96562849Y-41404116D01*
X96562846Y-41404113D01*
X96447637Y-41317867D01*
X96447630Y-41317863D01*
X96312784Y-41267569D01*
X96312785Y-41267569D01*
X96253185Y-41261162D01*
X96253183Y-41261161D01*
X96253175Y-41261161D01*
X96253166Y-41261161D01*
X94457431Y-41261161D01*
X94457425Y-41261162D01*
X94397818Y-41267569D01*
X94262973Y-41317863D01*
X94262966Y-41317867D01*
X94147757Y-41404113D01*
X94147754Y-41404116D01*
X94061508Y-41519325D01*
X94061504Y-41519332D01*
X94011210Y-41654178D01*
X94004803Y-41713777D01*
X94004802Y-41713796D01*
X93064694Y-41713796D01*
X93064264Y-41709795D01*
X93059047Y-41661258D01*
X93008753Y-41526413D01*
X93008749Y-41526406D01*
X92922503Y-41411197D01*
X92922500Y-41411194D01*
X92807291Y-41324948D01*
X92807284Y-41324944D01*
X92672438Y-41274650D01*
X92672439Y-41274650D01*
X92612839Y-41268243D01*
X92612837Y-41268242D01*
X92612829Y-41268242D01*
X92612820Y-41268242D01*
X90817085Y-41268242D01*
X90817079Y-41268243D01*
X90757472Y-41274650D01*
X90622627Y-41324944D01*
X90622620Y-41324948D01*
X90507411Y-41411194D01*
X90507408Y-41411197D01*
X90421162Y-41526406D01*
X90421158Y-41526413D01*
X90370864Y-41661259D01*
X90364457Y-41720858D01*
X90364456Y-41720877D01*
X89427610Y-41720877D01*
X89427610Y-41709807D01*
X89421202Y-41650196D01*
X89419850Y-41646572D01*
X89370908Y-41515350D01*
X89370904Y-41515343D01*
X89284658Y-41400134D01*
X89284655Y-41400131D01*
X89169446Y-41313885D01*
X89169439Y-41313881D01*
X89034593Y-41263587D01*
X89034594Y-41263587D01*
X88974994Y-41257180D01*
X88974992Y-41257179D01*
X88974984Y-41257179D01*
X88974975Y-41257179D01*
X87179240Y-41257179D01*
X87179234Y-41257180D01*
X87119627Y-41263587D01*
X86984782Y-41313881D01*
X86984775Y-41313885D01*
X86869566Y-41400131D01*
X86869563Y-41400134D01*
X86783317Y-41515343D01*
X86783313Y-41515350D01*
X86733019Y-41650196D01*
X86727000Y-41706184D01*
X86726612Y-41709802D01*
X86726611Y-41709814D01*
X85779477Y-41709814D01*
X85779477Y-41706183D01*
X85773459Y-41650196D01*
X85773069Y-41646571D01*
X85722775Y-41511726D01*
X85722771Y-41511719D01*
X85636525Y-41396510D01*
X85636522Y-41396507D01*
X85521313Y-41310261D01*
X85521306Y-41310257D01*
X85386460Y-41259963D01*
X85386461Y-41259963D01*
X85326861Y-41253556D01*
X85326859Y-41253555D01*
X85326851Y-41253555D01*
X85326842Y-41253555D01*
X83531107Y-41253555D01*
X83531101Y-41253556D01*
X83471494Y-41259963D01*
X83336649Y-41310257D01*
X83336642Y-41310261D01*
X83221433Y-41396507D01*
X83221430Y-41396510D01*
X83135184Y-41511719D01*
X83135180Y-41511726D01*
X83084886Y-41646572D01*
X83078552Y-41705490D01*
X83078479Y-41706178D01*
X83078478Y-41706190D01*
X76565431Y-41706190D01*
X76737226Y-41534395D01*
X76748417Y-41524480D01*
X76974230Y-41347567D01*
X76986526Y-41339080D01*
X77232016Y-41190676D01*
X77245249Y-41183731D01*
X77506841Y-41065998D01*
X77520822Y-41060696D01*
X77794668Y-40975362D01*
X77809197Y-40971780D01*
X78091344Y-40920075D01*
X78106201Y-40918271D01*
X78396264Y-40900726D01*
X78403751Y-40900500D01*
X78465892Y-40900500D01*
X123334108Y-40900500D01*
X123396249Y-40900500D01*
X123403736Y-40900726D01*
G37*
%TD.AperFunction*%
%TD*%
M02*
